<svg xmlns="http://www.w3.org/2000/svg" width="423.817" height="261.182" viewBox="0 0 423.817 261.182"><g transform="translate(-1181.88 -227.318)"><g transform="translate(0 -59)"><g transform="translate(1264.946 294.91)"><rect width="340.752" height="73.69" rx="10" transform="translate(0)" fill="#f4f4f8"/></g><text transform="translate(1287.073 327.611)" fill="#143559" font-size="16" font-family="Roboto-Regular, Roboto"><tspan x="0" y="0">We will help you to find the right job for</tspan><tspan x="0" y="21">you. Can you send your CV?</tspan></text><g transform="translate(1181.88 286.318)"><g transform="translate(0 0)"><path d="M385.513,1958.065h47.37a9.193,9.193,0,0,1,9.194,9.193h0a9.194,9.194,0,0,1-9.194,9.194h-47.37a9.194,9.194,0,0,1-9.194-9.194h0A9.194,9.194,0,0,1,385.513,1958.065Z" transform="translate(-376.319 -1931.118)" fill="#23517a"/><rect width="1.58" height="6.896" rx="0.79" transform="translate(32.089 5.606)" fill="#23517a"/><path d="M687.526,1437.839a25.218,25.218,0,1,0-21.2,24.895l3.81,2.362,6.466,4.009.237-7.6.1-3.13A25.179,25.179,0,0,0,687.526,1437.839Z" transform="translate(-629.43 -1401.7)" fill="#143559"/><path d="M802.623,1989.592h24.66a8.268,8.268,0,0,1,8.267,8.268h0a8.267,8.267,0,0,1-8.267,8.267h-24.66a8.268,8.268,0,0,1-8.268-8.267h0A8.268,8.268,0,0,1,802.623,1989.592Z" transform="translate(-782.075 -1961.719)" fill="#fff"/><path d="M1684.18,2136.313a3.74,3.74,0,0,1,3.74,3.74H1690a5.818,5.818,0,1,0-11.635,0h2.078A3.74,3.74,0,0,1,1684.18,2136.313Z" transform="translate(-1640.111 -2102.113)" fill="#143559"/><path d="M915.671,2136.313a3.74,3.74,0,0,1,3.74,3.74h2.078a5.818,5.818,0,1,0-11.635,0h2.078A3.74,3.74,0,0,1,915.671,2136.313Z" transform="translate(-894.179 -2102.113)" fill="#143559"/><ellipse cx="3.625" cy="3.625" rx="3.625" ry="3.625" transform="translate(29.254)" fill="#143559"/><path d="M466.387,2073.339a10.383,10.383,0,0,1,0-12.347,20.261,20.261,0,0,0,0,12.347Z" transform="translate(-461.765 -2031.022)" fill="#fff"/><path d="M2458.189,2073.339a10.386,10.386,0,0,0,0-12.347,20.276,20.276,0,0,1,0,12.347Z" transform="translate(-2397.027 -2031.022)" fill="#fff"/><g transform="translate(30.516 37.049)"><path d="M1575.38,2321.563c.225,0,.446,0,.661,0a42.727,42.727,0,0,0,14.311-2.219c4.765-1.762,7.383-4.309,8.621-6.657a9.688,9.688,0,0,0-.739-10.753" transform="translate(-1570.67 -2301.93)" fill="none" stroke="#f8f1f1" stroke-miterlimit="10" stroke-width="2"/><path d="M1417.735,2926.4c-1.484,0-2.688.563-2.688,1.259s1.2,1.259,2.688,1.259,2.689-.563,2.689-1.259S1419.219,2926.4,1417.735,2926.4Z" transform="translate(-1415.047 -2908.056)" fill="#fff"/></g></g></g></g><g transform="translate(14 -20)"><g transform="translate(1591.315 508.5) rotate(180)"><rect width="342.964" height="170.373" rx="10" transform="translate(0 0)" fill="#f4f4f8"/></g><text transform="translate(1269.371 370.722)" fill="#143559" font-size="17" font-family="Roboto-Regular, Roboto"><tspan x="0" y="0">Choose from below...</tspan></text><g transform="translate(0 -6)"><rect width="231" height="37" rx="18.5" transform="translate(1304 404)" fill="#23517a"/><g transform="translate(15)"><text transform="translate(1417 428)" fill="#fff" font-size="13.5" font-family="Roboto-Regular, Roboto"><tspan x="-37.095" y="0">Upload a file</tspan></text><g transform="translate(1354.375 416)"><g transform="translate(0 0)" fill="none" stroke-linecap="round" stroke-linejoin="round" stroke-miterlimit="10"><path d="M0,1.625A1.625,1.625,0,0,1,1.625,0H4.683A1.625,1.625,0,0,1,6.137.9l.363.727h8.125A1.625,1.625,0,0,1,16.25,3.25v8.125A1.625,1.625,0,0,1,14.625,13h-13A1.625,1.625,0,0,1,0,11.375Z" stroke="none"/><path d="M 1.625 1 C 1.280369758605957 1 1 1.280369758605957 1 1.625 L 1 11.375 C 1 11.71963024139404 1.280369758605957 12 1.625 12 L 14.625 12 C 14.96963024139404 12 15.25 11.71963024139404 15.25 11.375 L 15.25 3.25 C 15.25 2.905369758605957 14.96963024139404 2.625 14.625 2.625 L 6.5 2.625 C 6.121230125427246 2.625 5.774959564208984 2.41100025177002 5.605569839477539 2.072210311889648 L 5.242210388183594 1.345490455627441 C 5.135660171508789 1.132379531860352 4.921460151672363 1 4.68319034576416 1 L 1.625 1 M 1.625 0 L 4.68319034576416 0 C 5.298700332641602 0 5.861379623413086 0.3477497100830078 6.136639595031738 0.898280143737793 L 6.5 1.625 L 14.625 1.625 C 15.52245998382568 1.625 16.25 2.352540016174316 16.25 3.25 L 16.25 11.375 C 16.25 12.27245998382568 15.52245998382568 13 14.625 13 L 1.625 13 C 0.7275400161743164 13 0 12.27245998382568 0 11.375 L 0 1.625 C 0 0.7275400161743164 0.7275400161743164 0 1.625 0 Z" stroke="none" fill="#fff"/></g></g></g></g><g transform="translate(0 -6)"><rect width="231" height="37" rx="18.5" transform="translate(1304 451)" fill="#23517a"/><g transform="translate(14)"><text transform="translate(1419 475)" fill="#fff" font-size="13.5" font-family="Roboto-Regular, Roboto"><tspan x="-38.681" y="0">Take a photo</tspan></text><g transform="translate(1072.561 278.523)"><path d="M299.334,196.655c-.029.115-.052.233-.089.346a1.686,1.686,0,0,1-1.6,1.154H282.965a1.691,1.691,0,0,1-1.693-1.693q0-4.515,0-9.029a1.691,1.691,0,0,1,1.7-1.7h1.688c0-.038,0-.072,0-.106a4.488,4.488,0,0,1,.017-.571.546.546,0,0,1,.6-.45.563.563,0,0,1,.51.557c0,.185,0,.37,0,.57h.086c.579,0,1.158,0,1.737,0a.119.119,0,0,0,.125-.08c.2-.408.4-.817.61-1.22a1.653,1.653,0,0,1,1.554-.957q2.1-.008,4.206,0a1.645,1.645,0,0,1,1.535.944c.214.408.415.823.618,1.236a.119.119,0,0,0,.127.077c.411,0,.823,0,1.234,0a1.688,1.688,0,0,1,1.7,1.461.164.164,0,0,0,.016.038Zm-9.034.37h7.31a.568.568,0,0,0,.6-.591q0-4.488,0-8.977a.568.568,0,0,0-.594-.592c-.532,0-1.064,0-1.6,0a.611.611,0,0,1-.608-.378c-.249-.512-.508-1.019-.76-1.529a.587.587,0,0,0-.57-.353q-2.068,0-4.136,0a.617.617,0,0,0-.608.379c-.25.512-.508,1.019-.76,1.53a.585.585,0,0,1-.57.352q-2.5,0-4.991,0a.57.57,0,0,0-.61.611v8.933a.571.571,0,0,0,.615.616Z" transform="translate(0 0)" fill="#fff"/><path d="M377.429,240.482A4.515,4.515,0,1,1,381.888,245,4.514,4.514,0,0,1,377.429,240.482Zm7.9,0a3.387,3.387,0,1,0-3.411,3.388A3.391,3.391,0,0,0,385.331,240.479Z" transform="translate(-89.948 -49.1)" fill="#fff"/><path d="M317.088,255.145a.847.847,0,1,1,.844-.847A.844.844,0,0,1,317.088,255.145Z" transform="translate(-32.709 -65.457)" fill="#fff"/></g></g></g></g></g></svg>