<svg xmlns="http://www.w3.org/2000/svg" width="224.509" height="285.907" viewBox="0 0 224.509 285.907">
  <g id="Group_2" data-name="Group 2" transform="translate(7 5)">
    <g id="Group_3766" data-name="Group 3766" transform="translate(0 0)">
      <g id="Group_3099" data-name="Group 3099">
        <g id="mujib">
          <g id="Rectangle_1555" data-name="Rectangle 1555" transform="translate(-376.319 -1872.244)" fill="#23517a">
            <path d="M 556.466552734375 2020.125122070313 L 405.5995178222656 2020.125122070313 C 401.1756896972656 2020.125122070313 396.88232421875 2019.257934570313 392.8386840820313 2017.547607421875 C 388.9347839355469 2015.896362304688 385.4294738769531 2013.533325195313 382.4200744628906 2010.52392578125 C 379.4107055664063 2007.514526367188 377.0475769042969 2004.00927734375 375.3963623046875 2000.105346679688 C 373.6860656738281 1996.061767578125 372.8188781738281 1991.768432617188 372.8188781738281 1987.344604492188 C 372.8188781738281 1982.9208984375 373.6860656738281 1978.627563476563 375.3963623046875 1974.584106445313 C 377.0475769042969 1970.68017578125 379.4107055664063 1967.174926757813 382.4200744628906 1964.165649414063 C 385.4294738769531 1961.15625 388.934814453125 1958.793212890625 392.8387145996094 1957.141967773438 C 396.8823547363281 1955.431762695313 401.1756896972656 1954.564575195313 405.5995178222656 1954.564575195313 L 556.466552734375 1954.564575195313 C 560.8903198242188 1954.564575195313 565.1836547851563 1955.431762695313 569.2272338867188 1957.141967773438 C 573.1311645507813 1958.793212890625 576.636474609375 1961.15625 579.6458129882813 1964.165649414063 C 582.6552124023438 1967.174926757813 585.0183715820313 1970.68017578125 586.6695556640625 1974.584106445313 C 588.3798828125 1978.627563476563 589.2470703125 1982.9208984375 589.2470703125 1987.344604492188 C 589.2470703125 1991.768432617188 588.3798828125 1996.061767578125 586.6695556640625 2000.105346679688 C 585.0183715820313 2004.00927734375 582.6552734375 2007.514526367188 579.6458740234375 2010.52392578125 C 576.636474609375 2013.533325195313 573.1311645507813 2015.896362304688 569.2272338867188 2017.547607421875 C 565.1836547851563 2019.257934570313 560.8903198242188 2020.125122070313 556.466552734375 2020.125122070313 Z" stroke="none"/>
            <path d="M 405.5994873046875 1958.064575195313 C 389.4281616210938 1958.064575195313 376.31884765625 1971.173706054688 376.31884765625 1987.344604492188 C 376.31884765625 2003.515747070313 389.4281616210938 2016.625122070313 405.5994873046875 2016.625122070313 L 556.466552734375 2016.625122070313 C 572.6376953125 2016.625122070313 585.7470703125 2003.515747070313 585.7470703125 1987.344604492188 C 585.7470703125 1971.173706054688 572.6376953125 1958.064575195313 556.466552734375 1958.064575195313 L 405.5994873046875 1958.064575195313 M 405.5994873046875 1951.064575195313 L 556.466552734375 1951.064575195313 C 576.4716796875 1951.064575195313 592.7470703125 1967.339721679688 592.7470703125 1987.344604492188 C 592.7470703125 2007.349731445313 576.4716796875 2023.625122070313 556.466552734375 2023.625122070313 L 405.5994873046875 2023.625122070313 C 385.5942993164063 2023.625122070313 369.31884765625 2007.349731445313 369.31884765625 1987.344604492188 C 369.31884765625 1967.339721679688 385.5942993164063 1951.064575195313 405.5994873046875 1951.064575195313 Z" stroke="none" fill="#fff"/>
          </g>
          <g id="Rectangle_1556" data-name="Rectangle 1556" transform="translate(102.199 17.853)" fill="#23517a" stroke="#fff" stroke-width="5">
            <rect width="5.031" height="21.962" rx="2.516" stroke="none"/>
            <rect x="-2.5" y="-2.5" width="10.031" height="26.962" rx="5.016" fill="none"/>
          </g>
          <g id="Path_24127" data-name="Path 24127" transform="translate(-612.692 -1377.836)" fill="#143559">
            <path d="M 765.3007202148438 1596.917114257813 L 761.6195068359375 1594.634399414063 L 741.027587890625 1581.865112304688 L 729.6798706054688 1574.831298828125 C 725.6297607421875 1575.436767578125 721.5056762695313 1575.744506835938 717.4070434570313 1575.74658203125 C 711.78857421875 1575.746337890625 706.1742553710938 1575.180053710938 700.71875 1574.063598632813 C 695.4005126953125 1572.97509765625 690.1693725585938 1571.351196289063 685.1705932617188 1569.236694335938 C 680.2630615234375 1567.160888671875 675.5299072265625 1564.591796875 671.1026611328125 1561.600830078125 C 666.7180786132813 1558.638549804688 662.5950927734375 1555.23681640625 658.8482666015625 1551.489990234375 C 655.1013793945313 1547.7431640625 651.6995849609375 1543.620239257813 648.7373657226563 1539.235717773438 C 645.7462158203125 1534.80859375 643.1771240234375 1530.075439453125 641.1011962890625 1525.16796875 C 638.9867553710938 1520.169189453125 637.3626708984375 1514.938110351563 636.2742309570313 1509.619873046875 C 635.1575927734375 1504.164306640625 634.59130859375 1498.550048828125 634.5910034179688 1492.932983398438 C 634.5913696289063 1487.315551757813 635.1577758789063 1481.701293945313 636.2744750976563 1476.245849609375 C 637.363037109375 1470.927734375 638.9871215820313 1465.696533203125 641.1016845703125 1460.697875976563 C 643.1776733398438 1455.790405273438 645.7468872070313 1451.057495117188 648.7380981445313 1446.63037109375 C 651.7003784179688 1442.245971679688 655.102294921875 1438.123168945313 658.8492431640625 1434.37646484375 C 662.59619140625 1430.629760742188 666.71923828125 1427.228149414063 671.1038208007813 1424.266235351563 C 675.5311279296875 1421.275390625 680.2643432617188 1418.706420898438 685.1719360351563 1416.630859375 C 690.1707763671875 1414.5166015625 695.4019775390625 1412.892822265625 700.72021484375 1411.8046875 C 706.17578125 1410.688354492188 711.7901000976563 1410.122314453125 717.4071655273438 1410.122314453125 C 723.024169921875 1410.122436523438 728.6383056640625 1410.6884765625 734.09375 1411.804809570313 C 739.4118041992188 1412.89306640625 744.642822265625 1414.516967773438 749.6415405273438 1416.631225585938 C 754.5489501953125 1418.706909179688 759.2819213867188 1421.27587890625 763.7091064453125 1424.266845703125 C 768.093505859375 1427.228881835938 772.2163696289063 1430.630493164063 775.9630737304688 1434.377197265625 C 779.7098388671875 1438.123901367188 783.1115112304688 1442.246704101563 786.0735473632813 1446.631103515625 C 789.0645141601563 1451.058227539063 791.6334838867188 1455.791259765625 793.7091674804688 1460.698608398438 C 795.823486328125 1465.697265625 797.4473266601563 1470.928344726563 798.53564453125 1476.246337890625 C 799.6520385742188 1481.701782226563 800.2181396484375 1487.31591796875 800.2182006835938 1492.932861328125 C 800.2217407226563 1499.549560546875 799.4287719726563 1506.161376953125 797.8612060546875 1512.583129882813 C 796.31494140625 1518.917846679688 794.0149536132813 1525.070190429688 791.025146484375 1530.869262695313 C 788.035400390625 1536.668334960938 784.3577270507813 1542.110473632813 780.0944213867188 1547.044311523438 C 776.0441284179688 1551.7314453125 771.4633178710938 1555.961547851563 766.4647827148438 1559.631591796875 L 766.1913452148438 1568.373901367188 L 765.435791015625 1592.587768554688 L 765.3007202148438 1596.917114257813 Z" stroke="none"/>
            <path d="M 717.4071655273438 1412.622314453125 C 673.0517578125 1412.622314453125 637.0939331054688 1448.577392578125 637.0910034179688 1492.932861328125 C 637.0933837890625 1537.288208007813 673.0503540039063 1573.24462890625 717.40576171875 1573.24658203125 C 721.6947021484375 1573.244384765625 725.976318359375 1572.901489257813 730.2105102539063 1572.218994140625 L 742.3450927734375 1579.740478515625 L 762.93701171875 1592.509765625 L 763.6925659179688 1568.295776367188 L 764.0044555664063 1558.3251953125 C 785.16845703125 1543.273071289063 797.7322387695313 1518.904052734375 797.7182006835938 1492.932861328125 C 797.7176513671875 1448.578735351563 761.761474609375 1412.622802734375 717.4071655273438 1412.622314453125 M 717.4071655273438 1407.622314453125 L 717.4072265625 1407.622314453125 C 723.1921997070313 1407.622314453125 728.9749755859375 1408.20556640625 734.594970703125 1409.355590820313 C 740.07470703125 1410.476928710938 745.4647827148438 1412.150146484375 750.615478515625 1414.328735351563 C 755.6715087890625 1416.46728515625 760.5477294921875 1419.114013671875 765.108642578125 1422.195190429688 C 769.6248779296875 1425.246337890625 773.8716430664063 1428.750244140625 777.7308959960938 1432.609375 C 781.5901489257813 1436.468627929688 785.093994140625 1440.71533203125 788.1451416015625 1445.231567382813 C 791.2264404296875 1449.79248046875 793.8731079101563 1454.668701171875 796.01171875 1459.724731445313 C 798.1903076171875 1464.875366210938 799.863525390625 1470.265380859375 800.98486328125 1475.7451171875 C 802.1349487304688 1481.365112304688 802.7181396484375 1487.14794921875 802.7182006835938 1492.932861328125 C 802.721923828125 1499.748291015625 801.9049072265625 1506.559936523438 800.2899169921875 1513.176025390625 C 798.6968994140625 1519.7021484375 796.327392578125 1526.04052734375 793.2472534179688 1532.014892578125 C 790.1670532226563 1537.9892578125 786.3782348632813 1543.595825195313 781.9860229492188 1548.678833007813 C 778.079833984375 1553.199340820313 773.6945190429688 1557.30712890625 768.9259033203125 1560.915161132813 L 768.6901245117188 1568.4521484375 L 767.9345703125 1592.665649414063 L 767.6644287109375 1601.324584960938 L 760.302001953125 1596.759033203125 L 739.7100830078125 1583.98974609375 L 729.1357421875 1577.435424804688 C 725.2584228515625 1577.971923828125 721.3220825195313 1578.244506835938 717.4083251953125 1578.24658203125 C 711.6204833984375 1578.246337890625 705.8375854492188 1577.662963867188 700.2174682617188 1576.512817382813 C 694.7376098632813 1575.391235351563 689.347412109375 1573.717895507813 684.1965942382813 1571.539184570313 C 679.1404418945313 1569.400512695313 674.2640991210938 1566.753662109375 669.703125 1563.67236328125 C 665.1867065429688 1560.62109375 660.9398193359375 1557.117065429688 657.0805053710938 1553.2578125 C 653.2210693359375 1549.3984375 649.7171020507813 1545.151611328125 646.665771484375 1540.635375976563 C 643.5843505859375 1536.074340820313 640.9375 1531.198120117188 638.7987060546875 1526.141967773438 C 636.6199951171875 1520.9912109375 634.9465942382813 1515.600952148438 633.8250122070313 1510.121215820313 C 632.6746826171875 1504.501098632813 632.09130859375 1498.71826171875 632.0910034179688 1492.93310546875 C 632.0913696289063 1487.1474609375 632.6748657226563 1481.364624023438 633.8252563476563 1475.744506835938 C 634.9468994140625 1470.2646484375 636.620361328125 1464.874633789063 638.7992553710938 1459.723876953125 C 640.9380493164063 1454.667846679688 643.5850219726563 1449.791625976563 646.6665649414063 1445.230712890625 C 649.7179565429688 1440.714477539063 653.2220458984375 1436.4677734375 657.0814819335938 1432.608642578125 C 660.9409790039063 1428.74951171875 665.1879272460938 1425.24560546875 669.704345703125 1422.194580078125 C 674.2654418945313 1419.113403320313 679.141845703125 1416.466796875 684.1981201171875 1414.328247070313 C 689.3489379882813 1412.149780273438 694.7391357421875 1410.476684570313 700.2190551757813 1409.355346679688 C 705.8391723632813 1408.205444335938 711.6221313476563 1407.622314453125 717.4071655273438 1407.622314453125 Z" stroke="none" fill="#fff"/>
          </g>
          <path id="Rectangle_1557" data-name="Rectangle 1557" d="M820.687,1989.592h78.54a26.33,26.33,0,0,1,26.331,26.33h0a26.331,26.331,0,0,1-26.331,26.331h-78.54a26.331,26.331,0,0,1-26.331-26.331h0A26.33,26.33,0,0,1,820.687,1989.592Z" transform="translate(-755.242 -1900.821)" fill="#fff"/>
          <g id="Path_24128" data-name="Path 24128" transform="translate(-1556.537 -2031.931)" fill="#143559">
            <path d="M 1717.918701171875 2155.263671875 L 1715.418579101563 2155.263671875 L 1708.80078125 2155.263671875 L 1706.300903320313 2155.263671875 L 1706.30078125 2152.763671875 C 1706.300537109375 2147.57470703125 1702.079223632813 2143.35302734375 1696.890747070313 2143.35302734375 C 1691.702026367188 2143.35302734375 1687.480224609375 2147.57470703125 1687.479736328125 2152.763916015625 L 1687.4794921875 2155.263671875 L 1684.979736328125 2155.263671875 L 1678.362548828125 2155.263671875 L 1675.862426757813 2155.263671875 L 1675.862548828125 2152.763671875 C 1675.862670898438 2149.926025390625 1676.4189453125 2147.171875 1677.516235351563 2144.57763671875 C 1678.575439453125 2142.073486328125 1680.09130859375 2139.82470703125 1682.021728515625 2137.89453125 C 1683.9521484375 2135.964111328125 1686.20068359375 2134.4482421875 1688.704956054688 2133.388916015625 C 1691.298950195313 2132.291748046875 1694.053100585938 2131.7353515625 1696.890747070313 2131.7353515625 C 1699.728393554688 2131.7353515625 1702.482421875 2132.291748046875 1705.076293945313 2133.388916015625 C 1707.58056640625 2134.4482421875 1709.828979492188 2135.964111328125 1711.759399414063 2137.89453125 C 1713.689575195313 2139.82470703125 1715.205444335938 2142.073486328125 1716.264770507813 2144.57763671875 C 1717.361938476563 2147.171630859375 1717.918334960938 2149.92578125 1717.918579101563 2152.763427734375 L 1717.918701171875 2155.263671875 Z" stroke="none"/>
            <path d="M 1696.890747070313 2134.2353515625 C 1686.658081054688 2134.2353515625 1678.36279296875 2142.53076171875 1678.362548828125 2152.763671875 L 1684.979736328125 2152.763671875 C 1684.980346679688 2146.185546875 1690.312622070313 2140.85302734375 1696.890747070313 2140.85302734375 C 1703.46826171875 2140.85302734375 1708.800537109375 2146.185546875 1708.80078125 2152.763671875 L 1715.418579101563 2152.763671875 C 1715.417846679688 2142.53076171875 1707.123168945313 2134.2353515625 1696.890747070313 2134.2353515625 M 1696.890747070313 2129.2353515625 C 1700.064697265625 2129.2353515625 1703.146484375 2129.858154296875 1706.05029296875 2131.08642578125 C 1708.852416992188 2132.271728515625 1711.368041992188 2133.967529296875 1713.527099609375 2136.126708984375 C 1715.686157226563 2138.285888671875 1717.381958007813 2140.801513671875 1718.567260742188 2143.603759765625 C 1719.79541015625 2146.507568359375 1720.418334960938 2149.58935546875 1720.418579101563 2152.763427734375 L 1720.4189453125 2157.763671875 L 1715.418579101563 2157.763671875 L 1708.80078125 2157.763671875 L 1703.801025390625 2157.763671875 L 1703.80078125 2152.763916015625 C 1703.800659179688 2148.953125 1700.700805664063 2145.85302734375 1696.890747070313 2145.85302734375 C 1693.080322265625 2145.85302734375 1689.980102539063 2148.953369140625 1689.979736328125 2152.76416015625 L 1689.979248046875 2157.763671875 L 1684.979736328125 2157.763671875 L 1678.362548828125 2157.763671875 L 1673.362426757813 2157.763671875 L 1673.362548828125 2152.763671875 C 1673.362670898438 2149.58935546875 1673.985473632813 2146.5078125 1675.213745117188 2143.603759765625 C 1676.399047851563 2140.801513671875 1678.0947265625 2138.285888671875 1680.25390625 2136.126708984375 C 1682.4130859375 2133.967529296875 1684.928833007813 2132.271728515625 1687.731079101563 2131.08642578125 C 1690.634887695313 2129.858154296875 1693.716674804688 2129.2353515625 1696.890747070313 2129.2353515625 Z" stroke="none" fill="#fff"/>
          </g>
          <g id="Path_24129" data-name="Path 24129" transform="translate(-859.933 -2031.931)" fill="#143559">
            <path d="M 949.4097900390625 2155.263671875 L 946.9095458984375 2155.263671875 L 940.2921142578125 2155.263671875 L 937.79248046875 2155.263671875 L 937.7921142578125 2152.76416015625 C 937.7913208007813 2147.57470703125 933.5697021484375 2143.35302734375 928.38134765625 2143.35302734375 C 923.1928100585938 2143.35302734375 918.97119140625 2147.57470703125 918.9705810546875 2152.763916015625 L 918.9703369140625 2155.263671875 L 916.4705810546875 2155.263671875 L 909.85302734375 2155.263671875 L 907.3528442382813 2155.263671875 L 907.35302734375 2152.763427734375 C 907.3532104492188 2149.92578125 907.90966796875 2147.171630859375 909.0068969726563 2144.57763671875 C 910.0662231445313 2142.0732421875 911.5820922851563 2139.82470703125 913.512451171875 2137.89453125 C 915.4428100585938 2135.964111328125 917.6913452148438 2134.4482421875 920.195556640625 2133.388916015625 C 922.7896118164063 2132.291748046875 925.543701171875 2131.7353515625 928.38134765625 2131.7353515625 C 931.218994140625 2131.7353515625 933.9730224609375 2132.291748046875 936.5670166015625 2133.388916015625 C 939.0712280273438 2134.4482421875 941.3197631835938 2135.964111328125 943.2500610351563 2137.89453125 C 945.1803588867188 2139.82470703125 946.6962280273438 2142.0732421875 947.7555541992188 2144.57763671875 C 948.852783203125 2147.171630859375 949.4093017578125 2149.92578125 949.4095458984375 2152.763427734375 L 949.4097900390625 2155.263671875 Z" stroke="none"/>
            <path d="M 928.38134765625 2134.2353515625 C 918.148681640625 2134.2353515625 909.853759765625 2142.53076171875 909.85302734375 2152.763671875 L 916.4705810546875 2152.763671875 C 916.4713134765625 2146.185546875 921.803466796875 2140.85302734375 928.38134765625 2140.85302734375 C 934.958984375 2140.85302734375 940.2911376953125 2146.185546875 940.2921142578125 2152.763671875 L 946.9095458984375 2152.763671875 C 946.9085693359375 2142.53076171875 938.6138916015625 2134.2353515625 928.38134765625 2134.2353515625 M 928.38134765625 2129.2353515625 C 931.5553588867188 2129.2353515625 934.6370849609375 2129.858154296875 937.5409545898438 2131.08642578125 C 940.3431396484375 2132.271728515625 942.8587646484375 2133.967529296875 945.0178833007813 2136.126708984375 C 947.1769409179688 2138.285888671875 948.8726806640625 2140.801513671875 950.0580444335938 2143.603759765625 C 951.2863159179688 2146.507568359375 951.9092407226563 2149.589111328125 951.9095458984375 2152.76318359375 L 951.9100341796875 2157.763671875 L 946.9095458984375 2157.763671875 L 940.2921142578125 2157.763671875 L 935.2928466796875 2157.763671875 L 935.2921142578125 2152.764404296875 C 935.2915649414063 2148.953369140625 932.19140625 2145.85302734375 928.38134765625 2145.85302734375 C 924.5711669921875 2145.85302734375 921.4710083007813 2148.953369140625 921.4705810546875 2152.76416015625 L 921.4700317382813 2157.763671875 L 916.4705810546875 2157.763671875 L 909.85302734375 2157.763671875 L 904.8526611328125 2157.763671875 L 904.85302734375 2152.763427734375 C 904.853271484375 2149.58935546875 905.4761352539063 2146.507568359375 906.7044067382813 2143.603759765625 C 907.8897705078125 2140.801513671875 909.5855102539063 2138.285888671875 911.74462890625 2136.126708984375 C 913.90380859375 2133.967529296875 916.41943359375 2132.271728515625 919.2216796875 2131.08642578125 C 922.1255493164063 2129.858154296875 925.207275390625 2129.2353515625 928.38134765625 2129.2353515625 Z" stroke="none" fill="#fff"/>
          </g>
          <g id="Ellipse_648" data-name="Ellipse 648" transform="translate(93.17)" fill="#143559" stroke="#fff" stroke-width="5">
            <circle cx="11.544" cy="11.544" r="11.544" stroke="none"/>
            <circle cx="11.544" cy="11.544" r="14.044" fill="none"/>
          </g>
          <g id="Group_6159" data-name="Group 6159" transform="translate(97.189 117.995)">
            <path id="Path_24132" data-name="Path 24132" d="M1575.38,2364.458c.716,0,1.417,0,2.1-.014,19.559-.186,34.424-2.954,45.578-7.066,15.176-5.613,23.513-13.723,27.458-21.2,8.058-15.258,2.638-27.2-2.353-34.245" transform="translate(-1560.379 -2301.93)" fill="none" stroke="#fff" stroke-miterlimit="10" stroke-width="5"/>
            <g id="Path_24133" data-name="Path 24133" transform="translate(-1415.047 -2867.974)" fill="#fff">
              <path d="M 1423.607788085938 2936.919921875 C 1420.962280273438 2936.919921875 1418.436157226563 2936.41943359375 1416.494750976563 2935.5107421875 C 1415.405151367188 2935.00048828125 1414.520263671875 2934.373779296875 1413.864624023438 2933.64794921875 C 1413.002685546875 2932.693603515625 1412.547119140625 2931.57421875 1412.547119140625 2930.4111328125 C 1412.547119140625 2929.248046875 1413.002685546875 2928.128662109375 1413.864501953125 2927.17431640625 C 1414.520141601563 2926.4482421875 1415.405029296875 2925.821533203125 1416.49462890625 2925.3115234375 C 1418.43603515625 2924.40234375 1420.962280273438 2923.90185546875 1423.607788085938 2923.90185546875 C 1426.252197265625 2923.90185546875 1428.778076171875 2924.40234375 1430.720092773438 2925.311279296875 C 1431.809936523438 2925.8212890625 1432.695068359375 2926.447998046875 1433.350952148438 2927.173583984375 C 1434.213745117188 2928.128173828125 1434.669677734375 2929.24755859375 1434.669677734375 2930.4111328125 C 1434.669677734375 2931.574462890625 1434.214111328125 2932.693603515625 1433.35205078125 2933.64794921875 C 1432.696411132813 2934.3740234375 1431.811401367188 2935.000732421875 1430.7216796875 2935.5107421875 C 1428.780151367188 2936.41943359375 1426.253784179688 2936.919921875 1423.607788085938 2936.919921875 Z" stroke="none"/>
              <path d="M 1423.607788085938 2926.40185546875 C 1418.88037109375 2926.40185546875 1415.047119140625 2928.1953125 1415.047119140625 2930.4111328125 C 1415.047119140625 2932.626953125 1418.88037109375 2934.419921875 1423.607788085938 2934.419921875 C 1428.336181640625 2934.419921875 1432.169677734375 2932.626953125 1432.169677734375 2930.4111328125 C 1432.169677734375 2928.1953125 1428.332275390625 2926.40185546875 1423.607788085938 2926.40185546875 M 1423.607788085938 2921.40185546875 C 1426.610717773438 2921.40185546875 1429.512939453125 2921.986083984375 1431.77978515625 2923.046875 C 1433.172729492188 2923.69873046875 1434.325439453125 2924.523193359375 1435.205688476563 2925.497314453125 C 1436.490600585938 2926.9189453125 1437.169677734375 2928.6181640625 1437.169677734375 2930.4111328125 C 1437.169677734375 2932.20361328125 1436.491088867188 2933.90234375 1435.207275390625 2935.32373046875 C 1434.3271484375 2936.29833984375 1433.174560546875 2937.123046875 1431.781494140625 2937.77490234375 C 1429.51513671875 2938.835693359375 1426.6123046875 2939.419921875 1423.607788085938 2939.419921875 C 1420.603637695313 2939.419921875 1417.701049804688 2938.835693359375 1415.434814453125 2937.77490234375 C 1414.041870117188 2937.122802734375 1412.889404296875 2936.298095703125 1412.00927734375 2935.323486328125 C 1410.7255859375 2933.90234375 1410.047119140625 2932.20361328125 1410.047119140625 2930.4111328125 C 1410.047119140625 2928.61865234375 1410.7255859375 2926.920166015625 1412.009155273438 2925.498779296875 C 1412.88916015625 2924.524169921875 1414.041748046875 2923.699462890625 1415.4345703125 2923.04736328125 C 1417.700927734375 2921.986328125 1420.603515625 2921.40185546875 1423.607788085938 2921.40185546875 Z" stroke="none" fill="#fff"/>
            </g>
          </g>
        </g>
      </g>
    </g>
    <g id="Group_7253" data-name="Group 7253" transform="translate(2.359 169.429)">
      <g id="Path_31488" data-name="Path 31488" transform="translate(-1936.215 -3499.347)" fill="#143559">
        <path d="M 2121.15478515625 3606.914306640625 C 2117.92041015625 3606.914306640625 2114.6337890625 3606.909912109375 2111.455322265625 3606.90576171875 L 2110.172119140625 3606.904052734375 C 2106.643798828125 3606.898681640625 2104.0361328125 3606.007080078125 2102.199951171875 3604.177734375 C 2100.35791015625 3602.3427734375 2099.45751953125 3599.73095703125 2099.447265625 3596.193115234375 C 2099.421142578125 3587.28466796875 2099.4208984375 3578.019287109375 2099.4462890625 3568.65478515625 C 2099.45068359375 3567.052001953125 2099.6484375 3565.667724609375 2100.05126953125 3564.4228515625 C 2100.5126953125 3562.996826171875 2101.24560546875 3561.780029296875 2102.229736328125 3560.8056640625 C 2103.2099609375 3559.83544921875 2104.431396484375 3559.1142578125 2105.860107421875 3558.662109375 C 2107.103515625 3558.2685546875 2108.486083984375 3558.075927734375 2110.08642578125 3558.073486328125 C 2112.538818359375 3558.069091796875 2115.21435546875 3558.067138671875 2118.50537109375 3558.067138671875 C 2120.306640625 3558.067138671875 2122.108154296875 3558.067626953125 2123.909423828125 3558.068359375 C 2125.710205078125 3558.06884765625 2127.5107421875 3558.0693359375 2129.311279296875 3558.0693359375 C 2130.03125 3558.0693359375 2130.750732421875 3558.0693359375 2131.470703125 3558.069091796875 L 2131.48046875 3558.069091796875 C 2135.131591796875 3558.069091796875 2140.37353515625 3558.496826171875 2143.72705078125 3562.1943359375 C 2146.43994140625 3565.185546875 2147.404541015625 3569.634033203125 2146.7626953125 3576.194091796875 C 2146.596923828125 3577.898681640625 2146.003662109375 3579.89990234375 2144.435791015625 3581.6787109375 C 2144.83154296875 3582.019775390625 2145.2041015625 3582.39599609375 2145.544921875 3582.81201171875 C 2147.608642578125 3585.3310546875 2147.8681640625 3588.44873046875 2147.86376953125 3590.88330078125 C 2147.860107421875 3593.00634765625 2147.75927734375 3595.7890625 2147.0068359375 3598.4833984375 C 2146.406005859375 3600.630859375 2145.28271484375 3602.423095703125 2143.667724609375 3603.8115234375 C 2142.153076171875 3605.114013671875 2140.285400390625 3605.9873046875 2138.11669921875 3606.406982421875 C 2136.514892578125 3606.716552734375 2134.81298828125 3606.8779296875 2133.05712890625 3606.886962890625 C 2129.510986328125 3606.90576171875 2125.728759765625 3606.914306640625 2121.15478515625 3606.914306640625 Z" stroke="none"/>
        <path d="M 2118.50537109375 3561.567138671875 C 2115.700927734375 3561.567138671875 2112.89599609375 3561.568603515625 2110.091796875 3561.573486328125 C 2105.20654296875 3561.5810546875 2102.95947265625 3563.7880859375 2102.9462890625 3568.664306640625 C 2102.92138671875 3577.836181640625 2102.92041015625 3587.0107421875 2102.947265625 3596.18310546875 C 2102.9619140625 3601.269287109375 2105.11669921875 3603.396484375 2110.1767578125 3603.404052734375 C 2113.8359375 3603.408935546875 2117.493896484375 3603.414306640625 2121.1533203125 3603.414306640625 C 2125.114990234375 3603.414306640625 2129.077880859375 3603.407958984375 2133.0390625 3603.386962890625 C 2134.51220703125 3603.37939453125 2136.00634765625 3603.25 2137.45166015625 3602.970703125 C 2140.537109375 3602.37353515625 2142.79638671875 3600.542724609375 2143.6357421875 3597.5419921875 C 2144.2294921875 3595.416015625 2144.35986328125 3593.10595703125 2144.36376953125 3590.876953125 C 2144.37353515625 3585.57763671875 2142.7021484375 3583.535400390625 2137.109375 3582.0244140625 C 2140.64599609375 3581.00537109375 2142.95947265625 3579.140380859375 2143.279296875 3575.853271484375 C 2144.340576171875 3565.006103515625 2140.663818359375 3561.569091796875 2131.48046875 3561.569091796875 C 2131.477783203125 3561.569091796875 2131.474609375 3561.569091796875 2131.4716796875 3561.569091796875 C 2130.75146484375 3561.5693359375 2130.03173828125 3561.5693359375 2129.311279296875 3561.5693359375 C 2125.70947265625 3561.5693359375 2122.107421875 3561.567138671875 2118.50537109375 3561.567138671875 M 2123.486328125 3577.675048828125 C 2121.405517578125 3577.675048828125 2119.323974609375 3577.659912109375 2117.24267578125 3577.65380859375 C 2117.04150390625 3577.65283203125 2116.83984375 3577.57568359375 2116.52392578125 3577.51123046875 C 2116.4365234375 3577.241455078125 2116.36669921875 3577.113037109375 2116.3564453125 3576.980224609375 C 2115.9736328125 3571.94677734375 2116.1630859375 3571.713134765625 2121.13330078125 3571.713134765625 C 2121.157470703125 3571.713134765625 2121.18212890625 3571.713134765625 2121.20654296875 3571.713134765625 C 2122.26806640625 3571.713134765625 2123.330078125 3571.701416015625 2124.392333984375 3571.701416015625 C 2125.233642578125 3571.701416015625 2126.0751953125 3571.708740234375 2126.91552734375 3571.735107421875 C 2129.20849609375 3571.806640625 2130.203125 3572.751220703125 2130.18701171875 3574.7099609375 C 2130.16943359375 3576.794677734375 2129.3095703125 3577.6279296875 2126.96875 3577.65673828125 C 2125.80810546875 3577.67041015625 2124.6474609375 3577.675048828125 2123.486328125 3577.675048828125 M 2123.24853515625 3593.205078125 C 2121.4912109375 3593.205078125 2119.732666015625 3593.165283203125 2117.978515625 3593.1015625 C 2117.42919921875 3593.083251953125 2116.55712890625 3592.08740234375 2116.4599609375 3591.448486328125 C 2116.2333984375 3589.955322265625 2116.3876953125 3588.40478515625 2116.3876953125 3586.723876953125 C 2118.801025390625 3586.723876953125 2121.16259765625 3586.68798828125 2123.500244140625 3586.68798828125 C 2125.2412109375 3586.68798828125 2126.969482421875 3586.7080078125 2128.69482421875 3586.77734375 C 2130.31640625 3586.843994140625 2131.06494140625 3588.25341796875 2131.05224609375 3589.79833984375 C 2131.0390625 3591.3681640625 2130.4873046875 3592.958740234375 2128.7041015625 3593.0595703125 C 2126.8896484375 3593.162353515625 2125.06982421875 3593.205078125 2123.24853515625 3593.205078125 M 2118.50537109375 3554.567138671875 L 2123.91064453125 3554.568359375 L 2129.311279296875 3554.5693359375 L 2131.469482421875 3554.569091796875 C 2135.791748046875 3554.569091796875 2142.03125 3555.115966796875 2146.31982421875 3559.844482421875 C 2150.8173828125 3564.8037109375 2150.714599609375 3571.7451171875 2150.24609375 3576.534912109375 C 2150.116455078125 3577.86669921875 2149.75390625 3579.604736328125 2148.84228515625 3581.385986328125 C 2150.560791015625 3583.852783203125 2151.370849609375 3586.98291015625 2151.36376953125 3590.889892578125 C 2151.359619140625 3593.234375 2151.243896484375 3596.32373046875 2150.377685546875 3599.4248046875 C 2148.84130859375 3604.91796875 2144.614990234375 3608.714111328125 2138.78173828125 3609.84326171875 C 2136.9111328125 3610.20458984375 2134.979736328125 3610.377197265625 2133.074951171875 3610.386962890625 L 2121.1533203125 3610.414306640625 L 2111.42333984375 3610.40576171875 L 2110.16748046875 3610.404052734375 C 2101.288330078125 3610.390869140625 2095.972900390625 3605.08203125 2095.947265625 3596.203369140625 C 2095.92041015625 3587.01806640625 2095.92138671875 3577.830322265625 2095.9462890625 3568.645263671875 C 2095.9697265625 3559.97900390625 2101.3857421875 3554.5869140625 2110.0810546875 3554.573486328125 L 2118.50537109375 3554.567138671875 Z" stroke="none" fill="#fff"/>
      </g>
      <g id="Path_31490" data-name="Path 31490" transform="translate(-1402.197 -3500.604)" fill="#143559">
        <path d="M 1524.030151367188 3608.1357421875 C 1522.355712890625 3608.1357421875 1520.662963867188 3608.090087890625 1519.02587890625 3608.045654296875 C 1517.409301757813 3608.001953125 1515.73779296875 3607.95654296875 1514.10498046875 3607.95654296875 L 1510.60498046875 3607.95654296875 L 1510.60498046875 3604.45654296875 L 1510.60498046875 3594.551513671875 L 1510.60498046875 3591.051513671875 L 1514.10498046875 3591.051513671875 C 1514.738159179688 3591.051513671875 1515.359130859375 3591.05322265625 1515.971801757813 3591.0546875 C 1516.562133789063 3591.05615234375 1517.144775390625 3591.0576171875 1517.722900390625 3591.0576171875 C 1518.540649414063 3591.0576171875 1519.213745117188 3591.0546875 1519.841064453125 3591.048095703125 C 1522.317504882813 3591.023681640625 1523.9677734375 3590.6181640625 1524.748168945313 3589.843017578125 C 1525.517944335938 3589.07861328125 1525.912841796875 3587.46435546875 1525.921997070313 3585.045166015625 C 1525.939208984375 3580.506103515625 1525.93701171875 3575.88623046875 1525.934936523438 3571.41845703125 C 1525.93408203125 3569.3994140625 1525.93310546875 3567.380126953125 1525.933837890625 3565.361083984375 L 1525.933837890625 3562.952392578125 L 1525.933837890625 3559.452392578125 L 1529.433837890625 3559.452392578125 L 1542.584350585938 3559.452392578125 L 1544.775146484375 3559.452392578125 L 1545.709350585938 3561.37548828125 L 1545.71142578125 3561.37890625 C 1545.873657226563 3561.6552734375 1546.304443359375 3562.389404296875 1546.30029296875 3563.427001953125 C 1546.286987304688 3566.15478515625 1546.30029296875 3568.935302734375 1546.313110351563 3571.62451171875 C 1546.343872070313 3578.0673828125 1546.375732421875 3584.729736328125 1546.0498046875 3591.3115234375 C 1545.81201171875 3596.1162109375 1544.333374023438 3599.98193359375 1541.655151367188 3602.801025390625 C 1538.991943359375 3605.604248046875 1535.213134765625 3607.294921875 1530.423583984375 3607.82568359375 C 1528.51904296875 3608.037353515625 1526.487182617188 3608.1357421875 1524.030151367188 3608.1357421875 Z" stroke="none"/>
        <path d="M 1524.0302734375 3604.6357421875 C 1526.048583984375 3604.6357421875 1528.051879882813 3604.567626953125 1530.0380859375 3604.346923828125 C 1537.955200195313 3603.469482421875 1542.1611328125 3599.076416015625 1542.554077148438 3591.138427734375 C 1543.0107421875 3581.915771484375 1542.75537109375 3572.65576171875 1542.80029296875 3563.412841796875 C 1542.80078125 3563.290771484375 1542.688720703125 3563.167236328125 1542.584350585938 3562.952392578125 L 1529.433837890625 3562.952392578125 C 1529.433837890625 3563.83935546875 1529.433837890625 3564.60107421875 1529.433837890625 3565.3623046875 C 1529.431396484375 3571.9287109375 1529.44677734375 3578.494384765625 1529.421997070313 3585.05859375 C 1529.396118164063 3591.85498046875 1526.742919921875 3594.47998046875 1519.877807617188 3594.5478515625 C 1519.161743164063 3594.555419921875 1518.445678710938 3594.5576171875 1517.722778320313 3594.5576171875 C 1516.544677734375 3594.5576171875 1515.348388671875 3594.551513671875 1514.10498046875 3594.551513671875 L 1514.10498046875 3604.45654296875 C 1517.447509765625 3604.45654296875 1520.758544921875 3604.6357421875 1524.0302734375 3604.6357421875 M 1524.0302734375 3611.6357421875 C 1522.34033203125 3611.6357421875 1520.640258789063 3611.590576171875 1518.93115234375 3611.54443359375 C 1517.330688476563 3611.5009765625 1515.7216796875 3611.45654296875 1514.10498046875 3611.45654296875 L 1507.10498046875 3611.45654296875 L 1507.10498046875 3604.45654296875 L 1507.10498046875 3594.551513671875 L 1507.10498046875 3587.551513671875 L 1514.10498046875 3587.551513671875 L 1515.980712890625 3587.5546875 L 1517.722778320313 3587.5576171875 L 1519.80419921875 3587.54833984375 C 1521.267578125 3587.53369140625 1522.006103515625 3587.3642578125 1522.30712890625 3587.26953125 C 1522.263549804688 3587.1103515625 1522.416870117188 3586.405517578125 1522.421997070313 3585.031982421875 L 1522.434936523438 3571.419189453125 L 1522.433837890625 3565.359619140625 L 1522.433837890625 3562.952392578125 L 1522.433837890625 3555.952392578125 L 1529.433837890625 3555.952392578125 L 1542.584350585938 3555.952392578125 L 1546.966064453125 3555.952392578125 L 1548.880737304688 3559.8935546875 L 1549.5908203125 3561.355224609375 L 1549.80029296875 3563.44091796875 L 1549.813110351563 3571.607666015625 C 1549.8447265625 3578.2392578125 1549.872924804688 3584.871337890625 1549.545532226563 3591.484619140625 C 1548.984252929688 3602.82275390625 1542.155151367188 3610.046875 1530.809204101563 3611.304443359375 C 1528.569213867188 3611.55322265625 1526.308227539063 3611.6357421875 1524.0302734375 3611.6357421875 Z" stroke="none" fill="#fff"/>
      </g>
      <g id="Path_31489" data-name="Path 31489" transform="translate(-981.303 -3500.3)" fill="#143559">
        <path d="M 1068.456787109375 3608.277587890625 C 1063.618041992188 3608.277587890625 1059.482055664063 3607.9375 1055.8125 3607.237548828125 C 1053.926513671875 3606.878173828125 1052.14208984375 3606.21923828125 1050.50927734375 3605.279052734375 C 1048.903564453125 3604.3544921875 1047.47900390625 3603.178955078125 1046.275146484375 3601.78466796875 C 1045.0693359375 3600.387939453125 1044.11474609375 3598.806640625 1043.43798828125 3597.084228515625 C 1042.747924804688 3595.328369140625 1042.362426757813 3593.464599609375 1042.292114257813 3591.544677734375 C 1042.045532226563 3584.80517578125 1042.099975585938 3577.93994140625 1042.152587890625 3571.301025390625 C 1042.175048828125 3568.461669921875 1042.198364257813 3565.52587890625 1042.198364257813 3562.61767578125 L 1042.198364257813 3559.11767578125 L 1045.698364257813 3559.11767578125 L 1058.714477539063 3559.11767578125 L 1062.033203125 3559.11767578125 L 1062.209594726563 3562.431640625 C 1062.221313476563 3562.6533203125 1062.236328125 3562.876708984375 1062.252197265625 3563.113037109375 C 1062.28955078125 3563.671875 1062.328247070313 3564.24951171875 1062.329223632813 3564.870849609375 C 1062.336547851563 3570.007568359375 1062.336181640625 3575.22705078125 1062.335693359375 3580.27490234375 C 1062.335571289063 3581.705322265625 1062.335571289063 3583.135986328125 1062.335571289063 3584.566650390625 C 1062.335571289063 3584.7529296875 1062.334594726563 3584.939208984375 1062.333740234375 3585.12548828125 C 1062.33154296875 3585.564697265625 1062.329467773438 3585.979736328125 1062.340209960938 3586.379150390625 C 1062.415283203125 3589.128662109375 1063.930297851563 3590.906494140625 1066.199829101563 3590.906494140625 C 1067.119506835938 3590.906494140625 1068.12451171875 3590.6064453125 1069.10595703125 3590.03857421875 C 1069.515625 3589.8017578125 1070.135131835938 3589.443359375 1070.141479492188 3587.25537109375 C 1070.15869140625 3581.8818359375 1070.158203125 3576.416015625 1070.15771484375 3571.130126953125 C 1070.157470703125 3569.09716796875 1070.157348632813 3567.064453125 1070.158081054688 3565.03173828125 C 1070.158203125 3564.535888671875 1070.158203125 3564.039306640625 1070.158081054688 3563.50927734375 L 1070.158081054688 3562.641845703125 L 1070.158081054688 3559.141845703125 L 1073.658081054688 3559.141845703125 L 1086.845458984375 3559.141845703125 L 1090.0009765625 3559.141845703125 L 1090.326782226563 3562.280517578125 C 1090.340209960938 3562.40966796875 1090.359497070313 3562.556884765625 1090.380126953125 3562.712890625 C 1090.436889648438 3563.144287109375 1090.507568359375 3563.68115234375 1090.508544921875 3564.277587890625 C 1090.510620117188 3566.348388671875 1090.515747070313 3568.452880859375 1090.520751953125 3570.48828125 C 1090.53515625 3576.304443359375 1090.549926757813 3582.318603515625 1090.493774414063 3588.242431640625 C 1090.465454101563 3591.1875 1090.017700195313 3593.894287109375 1089.1630859375 3596.2880859375 C 1088.27392578125 3598.7783203125 1086.944213867188 3600.940185546875 1085.2109375 3602.7138671875 C 1083.469482421875 3604.49560546875 1081.333984375 3605.872314453125 1078.863525390625 3606.805419921875 C 1076.474365234375 3607.707763671875 1073.7626953125 3608.195068359375 1070.803833007813 3608.25390625 C 1069.993774414063 3608.269775390625 1069.20458984375 3608.277587890625 1068.456787109375 3608.277587890625 Z" stroke="none"/>
        <path d="M 1045.698364257813 3562.61767578125 C 1045.698364257813 3572.3759765625 1045.44189453125 3581.907470703125 1045.789794921875 3591.41650390625 C 1046.016967773438 3597.618408203125 1050.361938476563 3602.6357421875 1056.46826171875 3603.799560546875 C 1060.379516601563 3604.545654296875 1064.4375 3604.777587890625 1068.456787109375 3604.777587890625 C 1069.217651367188 3604.777587890625 1069.977294921875 3604.769287109375 1070.734130859375 3604.754638671875 C 1081.083374023438 3604.548583984375 1086.894775390625 3598.51025390625 1086.993896484375 3588.209228515625 C 1087.069580078125 3580.23583984375 1087.016479492188 3572.25927734375 1087.008544921875 3564.283203125 C 1087.007690429688 3563.740234375 1086.903076171875 3563.197021484375 1086.845458984375 3562.641845703125 L 1073.658081054688 3562.641845703125 C 1073.658081054688 3563.51806640625 1073.658325195313 3564.276123046875 1073.658081054688 3565.032958984375 C 1073.6552734375 3572.44384765625 1073.665161132813 3579.855224609375 1073.641479492188 3587.265625 C 1073.634643554688 3589.6220703125 1073.085205078125 3591.780029296875 1070.8583984375 3593.068359375 C 1069.277954101563 3593.982421875 1067.685913085938 3594.406494140625 1066.199829101563 3594.406494140625 C 1062.200927734375 3594.406494140625 1058.974365234375 3591.333984375 1058.841430664063 3586.47314453125 C 1058.824340820313 3585.83740234375 1058.835571289063 3585.201904296875 1058.835571289063 3584.56689453125 C 1058.835327148438 3578.0029296875 1058.838623046875 3571.44091796875 1058.829223632813 3564.8759765625 C 1058.828125 3564.13232421875 1058.755493164063 3563.388671875 1058.714477539063 3562.61767578125 L 1045.698364257813 3562.61767578125 M 1038.698364257813 3555.61767578125 L 1045.698364257813 3555.61767578125 L 1058.714477539063 3555.61767578125 L 1065.35205078125 3555.61767578125 L 1065.70458984375 3562.245849609375 C 1065.789184570313 3563.548828125 1065.828247070313 3564.207275390625 1065.829223632813 3564.86572265625 L 1065.835693359375 3580.265625 L 1065.835571289063 3584.566650390625 L 1065.8388671875 3586.28515625 C 1065.859252929688 3587.028564453125 1066.064575195313 3587.36376953125 1066.118408203125 3587.41259765625 C 1066.230224609375 3587.409423828125 1066.385498046875 3587.398193359375 1066.591552734375 3587.341552734375 L 1066.65771484375 3571.131103515625 L 1066.658081054688 3565.0302734375 L 1066.658081054688 3563.509765625 L 1066.657470703125 3556.509033203125 L 1073.658081054688 3555.641845703125 L 1086.845458984375 3555.641845703125 L 1093.156616210938 3555.641845703125 L 1093.80810546875 3561.919189453125 C 1093.939208984375 3562.93212890625 1094.007446289063 3563.60302734375 1094.008544921875 3564.27197265625 L 1094.020751953125 3570.480224609375 C 1094.035400390625 3576.412841796875 1094.049926757813 3582.34521484375 1093.993530273438 3588.275634765625 C 1093.85693359375 3602.476318359375 1084.997802734375 3611.471923828125 1070.873413085938 3611.753173828125 L 1068.456787109375 3611.777587890625 C 1063.395385742188 3611.777587890625 1059.045043945313 3611.417236328125 1055.156860351563 3610.675537109375 C 1045.868286132813 3608.9052734375 1039.139404296875 3601.091064453125 1038.79443359375 3591.6728515625 C 1038.546997070313 3584.90771484375 1038.598388671875 3578.131591796875 1038.652709960938 3571.273193359375 L 1038.698364257813 3562.61767578125 L 1038.698364257813 3555.61767578125 Z" stroke="none" fill="#fff"/>
      </g>
      <g id="Path_31491" data-name="Path 31491" transform="translate(-1745.527 -3500.513)" fill="#143559">
        <path d="M 1909.2197265625 3607.96240234375 L 1905.7197265625 3607.96240234375 L 1892.669677734375 3607.96240234375 L 1889.169677734375 3607.96240234375 L 1889.169677734375 3604.46240234375 L 1889.169677734375 3562.8525390625 L 1889.169677734375 3559.3525390625 L 1892.669677734375 3559.3525390625 L 1905.7197265625 3559.3525390625 L 1909.2197265625 3559.3525390625 L 1909.2197265625 3562.8525390625 L 1909.2197265625 3604.46240234375 L 1909.2197265625 3607.96240234375 Z" stroke="none"/>
        <path d="M 1905.7197265625 3604.46240234375 L 1905.7197265625 3562.8525390625 L 1892.669677734375 3562.8525390625 L 1892.669677734375 3604.46240234375 L 1905.7197265625 3604.46240234375 M 1912.7197265625 3611.46240234375 L 1905.7197265625 3611.46240234375 L 1892.669677734375 3611.46240234375 L 1885.669677734375 3611.46240234375 L 1885.669677734375 3604.46240234375 L 1885.669677734375 3562.8525390625 L 1885.669677734375 3555.8525390625 L 1892.669677734375 3555.8525390625 L 1905.7197265625 3555.8525390625 L 1912.7197265625 3555.8525390625 L 1912.7197265625 3562.8525390625 L 1912.7197265625 3604.46240234375 L 1912.7197265625 3611.46240234375 Z" stroke="none" fill="#fff"/>
      </g>
      <g id="Path_31487" data-name="Path 31487" transform="translate(-354.709 -3494.058)" fill="#143559">
        <path d="M 383.5360107421875 3602.012451171875 C 380.8379821777344 3602.012451171875 378.6650085449219 3601.47265625 376.8928833007813 3600.3623046875 C 374.97802734375 3599.162353515625 373.5841674804688 3597.310546875 372.75 3594.8583984375 C 372.3433227539063 3593.662841796875 371.9414672851563 3592.4609375 371.5440063476563 3591.25732421875 L 371.5440063476563 3597.706298828125 L 371.5440063476563 3601.206298828125 L 368.0440063476563 3601.206298828125 L 354.8135681152344 3601.206298828125 L 351.4753112792969 3601.206298828125 L 351.3174743652344 3597.871826171875 C 351.3062133789063 3597.633544921875 351.2920837402344 3597.39599609375 351.2784423828125 3597.166015625 C 351.2474670410156 3596.644775390625 351.2154541015625 3596.10546875 351.2151794433594 3595.53955078125 C 351.2091369628906 3584.31787109375 351.2049560546875 3574.18212890625 351.2150268554688 3563.774658203125 C 351.216552734375 3562.199951171875 351.4408264160156 3560.739990234375 351.881591796875 3559.435302734375 C 352.3591613769531 3558.021728515625 353.0907592773438 3556.7802734375 354.0561218261719 3555.74560546875 C 355.0224914550781 3554.7099609375 356.2113342285156 3553.89404296875 357.589599609375 3553.3203125 C 358.8634033203125 3552.790283203125 360.3075256347656 3552.466796875 361.8818054199219 3552.35888671875 C 362.8602905273438 3552.292236328125 363.8600769042969 3552.258544921875 364.8546752929688 3552.258544921875 C 365.54296875 3552.258544921875 366.2421569824219 3552.274658203125 366.9328308105469 3552.306640625 C 372.6497497558594 3552.571044921875 376.7898254394531 3555.57861328125 378.5903625488281 3560.775390625 C 379.9108581542969 3564.58740234375 381.2038879394531 3568.46875 382.454345703125 3572.222412109375 C 382.8677062988281 3573.46337890625 383.2879028320313 3574.724609375 383.71142578125 3575.990478515625 C 385.2064514160156 3571.570068359375 386.7115173339844 3567.076416015625 388.1411437988281 3562.628662109375 C 389.3099670410156 3558.99169921875 390.856689453125 3556.523193359375 393.0087585449219 3554.860107421875 C 395.2326965332031 3553.1416015625 398.0423583984375 3552.30908203125 401.8508911132813 3552.240234375 C 402.0832824707031 3552.236328125 402.3119812011719 3552.234130859375 402.5321044921875 3552.234130859375 C 404.8366088867188 3552.234130859375 406.7868957519531 3552.464599609375 408.4943237304688 3552.93896484375 C 411.17822265625 3553.686279296875 413.10400390625 3554.883544921875 414.3837890625 3556.600341796875 C 415.6415405273438 3558.287353515625 416.2448425292969 3560.37841796875 416.2823791503906 3563.180908203125 C 416.3257446289063 3566.424072265625 416.3177490234375 3569.707275390625 416.3100280761719 3572.882568359375 C 416.3069152832031 3574.160400390625 416.3037109375 3575.481689453125 416.3038940429688 3576.779052734375 C 416.30419921875 3578.556884765625 416.3011779785156 3580.36279296875 416.2982482910156 3582.109130859375 C 416.290771484375 3586.599365234375 416.2830200195313 3591.24267578125 416.3309631347656 3595.79736328125 C 416.3430480957031 3596.950439453125 416.2066650390625 3598.637451171875 414.8881225585938 3599.969970703125 C 413.9297790527344 3600.9384765625 412.61279296875 3601.429443359375 410.9737243652344 3601.429443359375 C 410.8906555175781 3601.429443359375 410.804931640625 3601.42822265625 410.7189636230469 3601.426025390625 C 409.37841796875 3601.390625 407.9149780273438 3601.374267578125 406.1168823242188 3601.374267578125 C 405.0464477539063 3601.374267578125 403.9469299316406 3601.3798828125 402.8836059570313 3601.385498046875 C 401.7937316894531 3601.39111328125 400.666748046875 3601.39697265625 399.5422668457031 3601.39697265625 L 396.0422668457031 3601.39697265625 L 396.0422668457031 3597.89697265625 L 396.0422668457031 3590.736083984375 C 395.6288452148438 3592.0048828125 395.2125549316406 3593.273193359375 394.794189453125 3594.533935546875 C 393.9305725097656 3597.136962890625 392.6051025390625 3599 390.7420654296875 3600.229736328125 C 388.9872741699219 3601.387939453125 386.8265075683594 3601.953125 383.9419860839844 3602.00830078125 C 383.8059387207031 3602.010986328125 383.6693115234375 3602.012451171875 383.5360107421875 3602.012451171875 Z" stroke="none"/>
        <path d="M 383.5359497070313 3598.512451171875 C 383.6475830078125 3598.512451171875 383.7607116699219 3598.51123046875 383.8748779296875 3598.509033203125 C 388.1271667480469 3598.427490234375 390.26123046875 3597.081787109375 391.4722900390625 3593.431640625 C 393.6685180664063 3586.812744140625 395.7539672851563 3580.156982421875 397.9139709472656 3573.527099609375 C 398.18359375 3572.69921875 398.6253051757813 3571.927978515625 398.987060546875 3571.130615234375 C 399.1720581054688 3571.203857421875 399.3573303222656 3571.277587890625 399.5422668457031 3571.35205078125 L 399.5422668457031 3597.89697265625 C 401.760986328125 3597.89697265625 403.9462890625 3597.874267578125 406.1171264648438 3597.874267578125 C 407.688232421875 3597.874267578125 409.2519226074219 3597.88623046875 410.8144836425781 3597.92724609375 C 410.8690185546875 3597.9287109375 410.9219055175781 3597.929443359375 410.9737243652344 3597.929443359375 C 412.4599609375 3597.929443359375 412.8466491699219 3597.311767578125 412.8311462402344 3595.834228515625 C 412.7643127441406 3589.484130859375 412.804931640625 3583.1318359375 412.8038940429688 3576.779541015625 C 412.8031921386719 3572.262451171875 412.8430786132813 3567.744873046875 412.7826843261719 3563.227783203125 C 412.7300109863281 3559.295166015625 411.3639831542969 3557.37109375 407.5576477050781 3556.311279296875 C 405.9552001953125 3555.8662109375 404.222412109375 3555.734130859375 402.5320129394531 3555.734130859375 C 402.3253173828125 3555.734130859375 402.1192321777344 3555.736083984375 401.9141235351563 3555.73974609375 C 395.9689025878906 3555.84716796875 393.2989807128906 3558.018798828125 391.4732360839844 3563.69970703125 C 389.4468078613281 3570.004150390625 387.3126220703125 3576.273193359375 385.1852416992188 3582.544677734375 C 384.8919372558594 3583.409423828125 384.3681335449219 3584.196044921875 383.9509582519531 3585.018310546875 C 383.7372436523438 3585.0029296875 383.5234680175781 3584.98681640625 383.3097839355469 3584.9697265625 C 382.7876892089844 3583.69970703125 382.1961975097656 3582.44873046875 381.7550964355469 3581.14892578125 C 379.5819091796875 3574.744873046875 377.4967346191406 3568.31103515625 375.2832336425781 3561.921142578125 C 373.9042663574219 3557.941162109375 370.9158630371094 3555.99462890625 366.7711181640625 3555.802978515625 C 366.1337280273438 3555.7734375 365.4944763183594 3555.758544921875 364.8547668457031 3555.758544921875 C 363.9421691894531 3555.758544921875 363.0288696289063 3555.7890625 362.1209716796875 3555.850830078125 C 357.3088073730469 3556.180419921875 354.7197265625 3558.965576171875 354.7150268554688 3563.778076171875 C 354.7047729492188 3574.365966796875 354.70947265625 3584.95166015625 354.7151794433594 3595.537841796875 C 354.7155151367188 3596.225830078125 354.7760314941406 3596.913330078125 354.8135681152344 3597.706298828125 L 368.0440063476563 3597.706298828125 L 368.0440063476563 3571.24462890625 C 368.2252807617188 3571.212158203125 368.4065551757813 3571.178955078125 368.5879821777344 3571.148681640625 C 368.930908203125 3572.039794921875 369.3155212402344 3572.920166015625 369.6099243164063 3573.828369140625 C 371.7611083984375 3580.463134765625 373.8177795410156 3587.12939453125 376.0635681152344 3593.731201171875 C 377.2196655273438 3597.130126953125 379.5838928222656 3598.512451171875 383.5359497070313 3598.512451171875 M 383.5360717773438 3605.512451171875 C 379.8782043457031 3605.512451171875 377.1202392578125 3604.617431640625 375.0440063476563 3603.314453125 L 375.0440063476563 3604.706298828125 L 368.0440063476563 3604.706298828125 L 354.8135681152344 3604.706298828125 L 348.1371459960938 3604.706298828125 L 347.8214111328125 3598.037353515625 C 347.7467041015625 3596.735595703125 347.7154846191406 3596.138427734375 347.7151794433594 3595.541259765625 L 347.7150268554688 3563.771240234375 C 347.7233276367188 3555.29638671875 353.1902160644531 3549.446044921875 361.6426696777344 3548.8671875 C 362.7110595703125 3548.79443359375 363.7833251953125 3548.758544921875 364.8547668457031 3548.758544921875 C 365.6024169921875 3548.758544921875 366.3495178222656 3548.776123046875 367.0944213867188 3548.810546875 C 374.234130859375 3549.140625 379.629638671875 3553.083984375 381.8974609375 3559.62939453125 C 382.5099792480469 3561.397705078125 383.1127624511719 3563.169189453125 383.7102661132813 3564.9423828125 C 384.0795593261719 3563.815185546875 384.446044921875 3562.68701171875 384.8090209960938 3561.5576171875 C 387.5679931640625 3552.972900390625 392.9631042480469 3548.900390625 401.7876586914063 3548.740966796875 C 401.8281860351563 3548.74072265625 401.8688659667969 3548.74072265625 401.9090576171875 3548.74072265625 C 405.2122192382813 3548.74072265625 407.4386291503906 3549.01318359375 409.4310607910156 3549.566650390625 C 416.20556640625 3551.452880859375 419.6867370605469 3556.017333984375 419.7820434570313 3563.134033203125 C 419.8255310058594 3566.38623046875 419.8179016113281 3569.638671875 419.8099975585938 3572.890869140625 L 419.8038940429688 3576.778564453125 L 419.7982482910156 3582.1142578125 C 419.7906494140625 3586.66357421875 419.7828979492188 3591.212646484375 419.8307495117188 3595.760498046875 C 419.8596496582031 3598.511962890625 419.0337219238281 3600.756591796875 417.3759765625 3602.431884765625 C 416.2484436035156 3603.5712890625 414.2224426269531 3604.929443359375 410.9737243652344 3604.929443359375 C 409.1290893554688 3604.88525390625 407.6266784667969 3604.874267578125 406.1171264648438 3604.874267578125 L 402.9019165039063 3604.885498046875 L 399.5422668457031 3604.89697265625 L 392.5422668457031 3604.89697265625 L 392.5422668457031 3603.21533203125 C 390.2557373046875 3604.67529296875 387.4068298339844 3605.442626953125 384.0090942382813 3605.5078125 L 383.9420166015625 3605.509033203125 L 383.5360717773438 3605.512451171875 Z" stroke="none" fill="#fff"/>
      </g>
    </g>
  </g>
</svg>
