<svg id="Group_3773" data-name="Group 3773" xmlns="http://www.w3.org/2000/svg" width="163.516" height="216.368" viewBox="0 0 163.516 216.368">
  <path id="Path_31634" data-name="Path 31634" d="M2497,264.115" transform="translate(-2446.62 -47.747)" fill="none" stroke="#707070" stroke-width="1"/>
  <g id="Group_3768" data-name="Group 3768">
    <g id="Group_3099" data-name="Group 3099">
      <g id="mujib">
        <path id="Rectangle_1555" data-name="Rectangle 1555" d="M399.181,1958.06H516.974a22.861,22.861,0,0,1,22.861,22.861h0a22.861,22.861,0,0,1-22.862,22.862H399.181a22.861,22.861,0,0,1-22.862-22.863h0a22.862,22.862,0,0,1,22.861-22.861Z" transform="translate(-376.319 -1891.057)" fill="#23517a"/>
        <rect id="Rectangle_1556" data-name="Rectangle 1556" width="3.928" height="17.147" rx="1.964" transform="translate(79.794 13.939)" fill="#23517a"/>
        <path id="Path_24127" data-name="Path 24127" d="M762.5,1475.33a62.706,62.706,0,1,0-52.708,61.9l9.474,5.873,16.078,9.969.59-18.905.244-7.785A62.611,62.611,0,0,0,762.5,1475.33Z" transform="translate(-618.041 -1385.461)" fill="#143559"/>
        <path id="Rectangle_1557" data-name="Rectangle 1557" d="M814.914,1989.59h61.322a20.558,20.558,0,0,1,20.558,20.558h0a20.558,20.558,0,0,1-20.558,20.558H814.914a20.558,20.558,0,0,1-20.558-20.558h0a20.558,20.558,0,0,1,20.558-20.558Z" transform="translate(-763.817 -1920.282)" fill="#fff"/>
        <path id="Path_24128" data-name="Path 24128" d="M1692.83,2139.4a9.3,9.3,0,0,1,9.3,9.3h5.167a14.466,14.466,0,1,0-28.933,0h5.167A9.3,9.3,0,0,1,1692.83,2139.4Z" transform="translate(-1583.244 -2054.359)" fill="#143559"/>
        <path id="Path_24129" data-name="Path 24129" d="M924.32,2139.4a9.3,9.3,0,0,1,9.3,9.3h5.167a14.466,14.466,0,1,0-28.933,0h5.167A9.3,9.3,0,0,1,924.32,2139.4Z" transform="translate(-870.876 -2054.359)" fill="#143559"/>
        <circle id="Ellipse_648" data-name="Ellipse 648" cx="9.013" cy="9.013" r="9.013" transform="translate(72.745 0)" fill="#143559"/>
        <path id="Path_24130" data-name="Path 24130" d="M469.414,2091.69a25.816,25.816,0,0,1-.008-30.7,50.379,50.379,0,0,0,.008,30.7Z" transform="translate(-457.92 -1986.467)" fill="#fff"/>
        <path id="Path_24131" data-name="Path 24131" d="M2458.19,2091.69a25.823,25.823,0,0,0,.01-30.7,50.407,50.407,0,0,1-.01,30.7Z" transform="translate(-2306.101 -1986.467)" fill="#fff"/>
        <g id="Group_6159" data-name="Group 6159" transform="translate(75.882 92.127)">
          <path id="Path_24132" data-name="Path 24132" d="M1575.38,2350.75c.559,0,1.106,0,1.643-.011,15.271-.145,26.877-2.306,35.586-5.518,11.849-4.383,18.358-10.715,21.438-16.553,6.292-11.913,2.06-21.233-1.837-26.738" transform="translate(-1563.667 -2301.93)" fill="none" stroke="#f8f1f1" stroke-miterlimit="10" stroke-width="2"/>
          <path id="Path_24133" data-name="Path 24133" d="M1421.73,2926.4c-3.692,0-6.684,1.4-6.684,3.13s2.992,3.13,6.684,3.13,6.685-1.4,6.685-3.13S1425.42,2926.4,1421.73,2926.4Z" transform="translate(-1415.047 -2880.783)" fill="#fff"/>
        </g>
      </g>
    </g>
  </g>
  <g id="Group_3769" data-name="Group 3769" transform="translate(8.193 176.408)">
    <path id="Path_31487" data-name="Path 31487" d="M386.9,3586.01v-19.06l-.4-.158a17.02,17.02,0,0,0-.77,1.719c-1.551,4.761-3.048,9.541-4.625,14.293-.87,2.621-2.4,3.587-5.455,3.646-2.984.058-4.755-.921-5.609-3.43-1.613-4.741-3.089-9.529-4.634-14.293-.211-.652-.488-1.282-.734-1.924l-.391.069v19h-9.5c-.027-.571-.07-1.063-.071-1.558q-.006-11.4,0-22.8c0-3.456,1.863-5.456,5.318-5.692a29.186,29.186,0,0,1,3.339-.035,6.239,6.239,0,0,1,6.112,4.395c1.589,4.589,3.087,9.208,4.647,13.807.317.934.742,1.83,1.116,2.744l.46.034a14.114,14.114,0,0,0,.886-1.776c1.527-4.5,3.06-9,4.515-13.532,1.311-4.079,3.228-5.638,7.5-5.716a14.342,14.342,0,0,1,4.052.411c2.733.761,3.714,2.142,3.752,4.966.043,3.243.015,6.487.015,9.731,0,4.562-.029,9.122.02,13.683.012,1.1-.286,1.534-1.448,1.5C392.323,3585.96,389.648,3586.01,386.9,3586.01Z" transform="translate(-354.709 -3555.734)" fill="#143559"/>
    <path id="Path_31488" data-name="Path 31488" d="M2127.47,3576.26c4.016,1.085,5.216,2.552,5.209,6.357a18.059,18.059,0,0,1-.523,4.786,5.37,5.37,0,0,1-4.44,3.9,17.2,17.2,0,0,1-3.168.3c-5.472.029-10.944.019-16.416.012-3.634,0-5.181-1.533-5.191-5.185q-.029-9.88,0-19.76c.01-3.5,1.623-5.086,5.131-5.093q7.675-.012,15.352,0c6.6,0,9.24,2.467,8.479,10.259C2131.67,3574.19,2130.01,3575.52,2127.47,3576.26Zm-14.879,3.375a23.345,23.345,0,0,0,.052,3.392c.069.458.7,1.172,1.091,1.186,2.564.094,5.141.115,7.7-.03,1.28-.073,1.676-1.216,1.686-2.342.009-1.109-.528-2.121-1.693-2.168-2.9-.123-5.807-.043-8.837-.043Zm.1-6.616a3.154,3.154,0,0,0,.516.1c2.328.006,4.657.029,6.984,0,1.68-.02,2.3-.619,2.311-2.116.012-1.405-.7-2.084-2.349-2.136-1.366-.042-2.733-.016-4.1-.016-3.619,0-3.759.15-3.482,3.783a2.278,2.278,0,0,0,.119.376Z" transform="translate(-1986.092 -3561.177)" fill="#143559"/>
    <path id="Path_31489" data-name="Path 31489" d="M1045.67,3562.62h9.346c.03.554.082,1.088.083,1.622q.01,7.07,0,14.139c0,.456-.008.913,0,1.369.131,4.787,4.44,7.159,8.629,4.736,1.6-.925,1.993-2.475,2-4.167.016-5.321.009-10.643.011-15.964v-1.717h9.469a11.772,11.772,0,0,1,.117,1.178c.006,5.727.044,11.454-.01,17.18-.071,7.4-4.244,11.733-11.675,11.88a49.786,49.786,0,0,1-10.244-.685,9.307,9.307,0,0,1-7.668-8.892C1045.49,3576.47,1045.67,3569.63,1045.67,3562.62Z" transform="translate(-999.434 -3562.157)" fill="#143559"/>
    <path id="Path_31490" data-name="Path 31490" d="M1514.1,3592.75v-7.113c1.44,0,2.793.012,4.145,0,4.929-.049,6.834-1.934,6.853-6.813.018-4.715.007-9.429.009-14.144v-1.731h9.443c.075.155.155.243.155.331-.032,6.637.151,13.285-.177,19.909-.282,5.7-3.3,8.853-8.987,9.484C1521.81,3593.09,1517.98,3592.75,1514.1,3592.75Z" transform="translate(-1436.621 -3562.469)" fill="#143559"/>
    <path id="Path_31491" data-name="Path 31491" d="M1902.04,3592.73h-9.37v-29.878h9.37Z" transform="translate(-1789.886 -3562.376)" fill="#143559"/>
  </g>
</svg>
