<svg xmlns="http://www.w3.org/2000/svg" width="50.93" height="30.76" viewBox="0 0 50.93 30.76">
  <g id="Group_1" data-name="Group 1" transform="translate(0 0.001)">
    <path id="Path_1" data-name="Path 1" d="M14.232,22.17a5.186,5.186,0,0,0,.187,1.525,8.859,8.859,0,0,0,.543,1.231.76.76,0,0,1,.116.394.683.683,0,0,1-.319.514l-1.069.717a.794.794,0,0,1-.439.153.764.764,0,0,1-.51-.24,5.2,5.2,0,0,1-.609-.8c-.17-.29-.336-.613-.522-1.007A6.238,6.238,0,0,1,6.628,27.02a4.632,4.632,0,0,1-3.391-1.235A4.417,4.417,0,0,1,1.984,22.5a4.421,4.421,0,0,1,1.542-3.523A6.109,6.109,0,0,1,7.675,17.64a13.023,13.023,0,0,1,1.8.137c.63.083,1.272.22,1.952.373V16.9a3.83,3.83,0,0,0-.8-2.736,3.881,3.881,0,0,0-2.765-.788,7.644,7.644,0,0,0-1.828.22A13.8,13.8,0,0,0,4.2,14.18a5.822,5.822,0,0,1-.593.224,1.1,1.1,0,0,1-.274.05c-.236,0-.352-.17-.352-.531v-.837a1.122,1.122,0,0,1,.116-.6,1.312,1.312,0,0,1,.477-.361,9.59,9.59,0,0,1,2.135-.767,10.087,10.087,0,0,1,2.64-.327,6.148,6.148,0,0,1,4.439,1.388,5.689,5.689,0,0,1,1.411,4.21V22.17Zm-6.876,2.6A5.387,5.387,0,0,0,9.1,24.463a3.75,3.75,0,0,0,1.612-1.094,2.759,2.759,0,0,0,.576-1.094,6.31,6.31,0,0,0,.17-1.488V20.07a14.628,14.628,0,0,0-1.558-.3,13.09,13.09,0,0,0-1.6-.1,3.864,3.864,0,0,0-2.524.684,2.387,2.387,0,0,0-.829,1.965,2.409,2.409,0,0,0,.626,1.815,2.353,2.353,0,0,0,1.783.634Zm13.6,1.849a.938.938,0,0,1-.642-.174,1.376,1.376,0,0,1-.356-.667L15.977,12.559a2.943,2.943,0,0,1-.153-.684.374.374,0,0,1,.406-.427h1.662a.934.934,0,0,1,.659.17,1.4,1.4,0,0,1,.34.667l2.843,11.324,2.644-11.324a1.21,1.21,0,0,1,.319-.667,1.157,1.157,0,0,1,.68-.17h1.355a1,1,0,0,1,.676.17,1.137,1.137,0,0,1,.323.667l2.679,11.46,2.93-11.46a1.473,1.473,0,0,1,.336-.667,1.1,1.1,0,0,1,.663-.17h1.575a.378.378,0,0,1,.423.427,1.8,1.8,0,0,1-.033.274,2.17,2.17,0,0,1-.12.427L32.1,25.8a1.3,1.3,0,0,1-.352.667,1.076,1.076,0,0,1-.647.174H29.647a1.014,1.014,0,0,1-.68-.174,1.18,1.18,0,0,1-.319-.684L26.02,14.747,23.413,25.764a1.342,1.342,0,0,1-.319.684,1.044,1.044,0,0,1-.68.174Zm21.769.46a11.215,11.215,0,0,1-2.608-.307,7.67,7.67,0,0,1-1.947-.684.991.991,0,0,1-.63-.958v-.875c0-.361.137-.531.39-.531a.869.869,0,0,1,.307.054c.1.033.253.1.423.17a9.087,9.087,0,0,0,1.865.6,10.041,10.041,0,0,0,2.014.207,4.526,4.526,0,0,0,2.475-.568,1.846,1.846,0,0,0,.879-1.625,1.693,1.693,0,0,0-.456-1.2,4.284,4.284,0,0,0-1.712-.887L41.271,19.7a5.175,5.175,0,0,1-2.711-1.745,4.108,4.108,0,0,1-.85-2.483,3.821,3.821,0,0,1,.46-1.9,4.4,4.4,0,0,1,1.219-1.405,5.337,5.337,0,0,1,1.762-.887A7.379,7.379,0,0,1,43.284,11a8.694,8.694,0,0,1,1.136.066c.39.054.746.12,1.1.191.336.083.659.17.966.274a3.735,3.735,0,0,1,.709.307,1.469,1.469,0,0,1,.51.427.911.911,0,0,1,.153.564v.8c0,.361-.137.547-.39.547a1.751,1.751,0,0,1-.647-.2,7.68,7.68,0,0,0-3.25-.667,4.322,4.322,0,0,0-2.255.481,1.658,1.658,0,0,0-.8,1.521,1.627,1.627,0,0,0,.51,1.214,5.075,5.075,0,0,0,1.861.941l2.408.771a5.139,5.139,0,0,1,2.624,1.641,3.886,3.886,0,0,1,.779,2.4,4.48,4.48,0,0,1-.439,1.985,4.656,4.656,0,0,1-1.235,1.5,5.486,5.486,0,0,1-1.882.957,8,8,0,0,1-2.418.362Z" transform="translate(0.122 -11)" fill="#252f3e"/>
    <path id="Path_2" data-name="Path 2" d="M46.045,34.293c-5.571,4.157-13.67,6.362-20.633,6.362a37.127,37.127,0,0,1-25.188-9.7C-.3,30.478.174,29.828.8,30.2a50.43,50.43,0,0,0,25.209,6.756A49.863,49.863,0,0,0,45.233,32.99C46.166,32.564,46.961,33.609,46.045,34.293Zm2.321-2.669c-.713-.924-4.709-.444-6.52-.224-.543.07-.626-.41-.137-.771,3.183-2.255,8.418-1.608,9.027-.854.613.771-.17,6.056-3.15,8.588-.456.394-.9.191-.692-.323.677-1.7,2.185-5.509,1.472-6.417Z" transform="translate(0 -9.896)" fill="#f90"/>
  </g>
</svg>
