<svg xmlns="http://www.w3.org/2000/svg" width="159.751" height="34.111" viewBox="0 0 159.751 34.111">
  <g id="Group_3" data-name="Group 3" transform="translate(0 -0.005)">
    <path id="Path_6" data-name="Path 6" d="M-345.009,246.9h16.229v16.229h-16.228V246.9Z" transform="translate(345.009 -246.895)" fill="#f25022"/>
    <path id="Path_7" data-name="Path 7" d="M-161.511,246.9h16.229v16.229H-161.51V246.9Z" transform="translate(179.397 -246.895)" fill="#80ba01"/>
    <path id="Path_8" data-name="Path 8" d="M1113.34,302.269a6.369,6.369,0,0,1,5.115-.6c.015,1,0,2,.007,3.008a3.345,3.345,0,0,0-2.587-.237,2.05,2.05,0,0,0-1.171,1.638,22.058,22.058,0,0,0-.065,2.628h5.135c.013-1.111-.014-2.223.015-3.334,1.164-.331,2.315-.7,3.473-1.052.01,1.464-.014,2.929.013,4.394,1.157-.017,2.315,0,3.473-.008v2.85c-1.162-.048-2.325-.013-3.487-.017v4.916c.019.907-.049,1.82.058,2.724a1.766,1.766,0,0,0,.758,1.4,2.615,2.615,0,0,0,2.669-.251v2.878a6.863,6.863,0,0,1-3.209.491,3.9,3.9,0,0,1-2.767-1.269,5.237,5.237,0,0,1-.991-3.349c-.009-2.515,0-5.03,0-7.545h-5.137v11.84h-3.51V311.538c-.814-.016-1.629,0-2.443-.013,0-.937.007-1.874,0-2.812.81-.019,1.621-.011,2.433,0a14.954,14.954,0,0,1,.242-3.741,4.786,4.786,0,0,1,1.98-2.7Z" transform="translate(-966.997 -296.086)" fill="#777"/>
    <path id="Path_9" data-name="Path 9" d="M368.966,312.2a2.146,2.146,0,0,1,1.943.688,2,2,0,0,1,.244,2.28,2.183,2.183,0,0,1-2.336.979,1.985,1.985,0,0,1-1.63-1.955,2.032,2.032,0,0,1,1.78-1.991Z" transform="translate(-297.766 -305.817)" fill="#777"/>
    <path id="Path_10" data-name="Path 10" d="M109.481,316.877h5.1q2.383,6.052,4.78,12.1c.406,1.009.787,2.029,1.213,3.03,2.044-5.041,4.117-10.07,6.146-15.118,1.637-.026,3.274-.006,4.912-.01q-.006,10.233,0,20.466c-1.181,0-2.362.01-3.542-.007.013-5.034,0-10.069.006-15.1,0-.226-.006-.452-.021-.678a2.7,2.7,0,0,0-.184.328c-2.028,5.153-4.1,10.292-6.112,15.45-.84.03-1.681,0-2.523.016-2.093-5.153-4.159-10.318-6.241-15.476-.055-.107-.113-.212-.176-.312-.043,2.206-.007,4.414-.019,6.619v9.164h-3.341V316.88Z" transform="translate(-65.18 -310.054)" fill="#777"/>
    <path id="Path_11" data-name="Path 11" d="M435.546,372.979a9.608,9.608,0,0,1,5.214.016,4.208,4.208,0,0,1,1,.417c-.02,1.118,0,2.237-.011,3.356a5.576,5.576,0,0,0-4.006-1.231,4.121,4.121,0,0,0-2.915,1.619,5.662,5.662,0,0,0-.93,4.064,4.4,4.4,0,0,0,1.418,2.916,4.444,4.444,0,0,0,3.284.978,6.687,6.687,0,0,0,3.149-1.292c.01,1.06,0,2.119.008,3.179a8.536,8.536,0,0,1-4.8.993,7.114,7.114,0,0,1-4.572-1.907,7.311,7.311,0,0,1-2.124-4.911,8.891,8.891,0,0,1,1.388-5.446,7.061,7.061,0,0,1,3.894-2.751Z" transform="translate(-354.687 -360.371)" fill="#777"/>
    <path id="Path_12" data-name="Path 12" d="M678.6,376.406a6.207,6.207,0,0,0-3.065-3.1,9.314,9.314,0,0,0-5.025-.593,7,7,0,0,0-4.614,2.466,7.82,7.82,0,0,0-1.62,4.483,8.421,8.421,0,0,0,1.286,5.479,6.646,6.646,0,0,0,4.055,2.644,10.08,10.08,0,0,0,4.109,0,6.793,6.793,0,0,0,4.029-2.487,7.781,7.781,0,0,0,1.543-4.271A9.624,9.624,0,0,0,678.6,376.406Zm-3.39,6.733a3.2,3.2,0,0,1-1.724,1.694,4.732,4.732,0,0,1-2.861.126,3.5,3.5,0,0,1-2.2-1.815,6.771,6.771,0,0,1-.533-3.672,4.665,4.665,0,0,1,1.356-3.061,3.67,3.67,0,0,1,2.309-.911,3.778,3.778,0,0,1,2.936,1,4.735,4.735,0,0,1,1.211,3.058,7.687,7.687,0,0,1-.493,3.581Z" transform="translate(-565.872 -360.359)" fill="#777"/>
    <path id="Path_13" data-name="Path 13" d="M839.6,372.782a9.285,9.285,0,0,1,4.858.506v3.226a6.185,6.185,0,0,0-3.686-1.089,1.887,1.887,0,0,0-1.677.927,1.516,1.516,0,0,0,.509,1.8c1,.666,2.182.948,3.214,1.545a4.621,4.621,0,0,1,2.011,1.912,4.281,4.281,0,0,1-.913,4.939,6.714,6.714,0,0,1-4.884,1.484,10.435,10.435,0,0,1-3.568-.819c0-1.132-.007-2.262.006-3.393a7.676,7.676,0,0,0,3.184,1.374,4.1,4.1,0,0,0,2.422-.222,1.4,1.4,0,0,0,.419-1.994,4.22,4.22,0,0,0-1.532-1,14.682,14.682,0,0,1-3.029-1.551,3.632,3.632,0,0,1-1.311-1.991,4.475,4.475,0,0,1,.485-3.5,5.226,5.226,0,0,1,3.492-2.145Z" transform="translate(-720.405 -360.398)" fill="#777"/>
    <path id="Path_14" data-name="Path 14" d="M965.419,376.832a6.262,6.262,0,0,0-3.015-3.412,9.091,9.091,0,0,0-5.21-.708,7.266,7.266,0,0,0-3.878,1.664,7.186,7.186,0,0,0-2.316,4.5,9.715,9.715,0,0,0,.552,5.1,6.5,6.5,0,0,0,3.565,3.459,9.439,9.439,0,0,0,4.944.418,6.855,6.855,0,0,0,4.315-2.523,8.025,8.025,0,0,0,1.588-5,9.352,9.352,0,0,0-.545-3.5Zm-3.166,4.973a4.573,4.573,0,0,1-.908,2.153,3.284,3.284,0,0,1-2.051,1.1,4.639,4.639,0,0,1-2.511-.273,3.557,3.557,0,0,1-1.851-1.937,6.966,6.966,0,0,1-.416-3.2,5.073,5.073,0,0,1,1.063-2.921,3.591,3.591,0,0,1,2.562-1.229,3.849,3.849,0,0,1,2.812.83,4.024,4.024,0,0,1,1.27,2.335,8.911,8.911,0,0,1,.03,3.137Z" transform="translate(-824.579 -360.361)" fill="#777"/>
    <path id="Path_15" data-name="Path 15" d="M579.987,374.069a3.959,3.959,0,0,1,3.258-.275q0,1.757,0,3.512a3.731,3.731,0,0,0-2.372-.558,2.914,2.914,0,0,0-2.2,1.755,6.486,6.486,0,0,0-.5,3v7.015h-3.46V373.855c1.155-.015,2.31-.009,3.465,0v2.519a4.5,4.5,0,0,1,1.814-2.3Z" transform="translate(-485.064 -361.222)" fill="#777"/>
    <path id="Path_16" data-name="Path 16" d="M370.471,376.366c1.164,0,2.329-.017,3.492.006-.014,4.886,0,9.773-.006,14.66h-3.485V376.366Z" transform="translate(-300.732 -363.74)" fill="#777"/>
    <path id="Path_17" data-name="Path 17" d="M-345.009,430.385h16.229v16.228h-16.229v-16.23Z" transform="translate(345.009 -412.5)" fill="#02a4ef"/>
    <path id="Path_18" data-name="Path 18" d="M-161.508,430.394h16.228v16.229h-16.229V430.4Z" transform="translate(179.395 -412.507)" fill="#ffb902"/>
  </g>
</svg>
