<svg xmlns="http://www.w3.org/2000/svg" width="2238.2" height="2294.5" viewBox="0 0 2238.2 2294.5">
  <g id="mujib" transform="translate(-376.4 -1040.8)">
    <path id="Rectangle_1555" d="M689.3,1958.1H2301.7c172.8,0,312.9,140.1,312.9,312.9h0c0,172.8-140.1,312.9-312.9,312.9H689.3c-172.8,0-312.9-140.1-312.9-312.9h0C376.3,2098.2,516.4,1958.1,689.3,1958.1Z" fill="#23517a"/>
    <path id="Rectangle_1556" d="M1476,1231.6h39a7.383,7.383,0,0,1,7.4,7.4v220a7.383,7.383,0,0,1-7.4,7.4h-39a7.383,7.383,0,0,1-7.4-7.4V1239A7.448,7.448,0,0,1,1476,1231.6Z" fill="#23517a"/>
    <path id="Path_24127" d="M2353.8,2271c0-474-384.3-858.3-858.3-858.3-474.1,0-858.4,384.3-858.4,858.3,0,474.1,384.3,858.4,858.4,858.4a860.719,860.719,0,0,0,136.9-11l129.7,80.4,220.1,136.5,8.1-258.8,3.3-106.6A857.2,857.2,0,0,0,2353.8,2271Z" fill="#143559"/>
    <path id="Rectangle_1557" d="M1075.8,1989.6h839.4c155.4,0,281.4,126,281.4,281.4h0c0,155.4-126,281.4-281.4,281.4H1075.8c-155.4,0-281.4-126-281.4-281.4h0C794.4,2115.6,920.3,1989.6,1075.8,1989.6Z" fill="#fff"/>
    <path id="Path_24128" d="M1876.4,2205a127.308,127.308,0,0,1,127.3,127.3h70.7c0-109.4-88.7-198-198-198-109.4,0-198,88.7-198,198h70.7A127.307,127.307,0,0,1,1876.4,2205Z" fill="#143559"/>
    <path id="Path_24129" d="M1107.9,2205a127.308,127.308,0,0,1,127.3,127.3h70.7c0-109.4-88.7-198-198-198-109.4,0-198,88.7-198,198h70.7A127.307,127.307,0,0,1,1107.9,2205Z" fill="#143559"/>
    <circle id="Ellipse_648" cx="123.4" cy="123.4" r="123.4" transform="translate(1372.1 1040.8)" fill="#143559"/>
    <path id="Path_24130" d="M533.7,2481.3a353.492,353.492,0,0,1-.1-420.3,690.62,690.62,0,0,0,.1,420.3Z" fill="#fff"/>
    <path id="Path_24131" d="M2458.2,2481.3a353.492,353.492,0,0,0,.1-420.3,690.62,690.62,0,0,1-.1,420.3Z" fill="#fff"/>
    <g id="Group_6159" transform="translate(77.192 93.715)">
      <path id="Path_24132" d="M1498.2,2876.5c7.6,0,15.2,0,22.5-.1,209-2,367.9-31.6,487.1-75.5,162.2-60,251.3-146.7,293.5-226.6,86.1-163.1,28.2-290.7-25.2-366" fill="none" stroke="#fff" stroke-miterlimit="10" stroke-width="0.5"/>
      <path id="Path_24133" d="M1429.4,2832.7c-50.5,0-91.5,19.2-91.5,42.8,0,23.7,41,42.8,91.5,42.8s91.5-19.2,91.5-42.8C1520.9,2851.8,1479.8,2832.7,1429.4,2832.7Z" fill="#fff"/>
    </g>
  </g>
</svg>
