<svg xmlns="http://www.w3.org/2000/svg" width="63" height="80.999" viewBox="0 0 63 80.999">
  <g id="image-file" transform="translate(-21.575 -8.308)">
    <path id="Path_1" data-name="Path 1" d="M83.575,29.555,63.327,9.307H31.307a8.758,8.758,0,0,0-8.732,8.732V79.574a8.758,8.758,0,0,0,8.732,8.732H74.842a8.758,8.758,0,0,0,8.732-8.732V29.555Z" fill="#fefdef"/>
    <path id="Path_2" data-name="Path 2" d="M74.842,89.307H31.307a9.743,9.743,0,0,1-9.732-9.732V18.04a9.743,9.743,0,0,1,9.732-9.732H63.328a1,1,0,0,1,.707.293L84.282,28.849a1,1,0,0,1,.293.707v50.02A9.743,9.743,0,0,1,74.842,89.307Zm-43.535-79a7.741,7.741,0,0,0-7.732,7.732V79.574a7.741,7.741,0,0,0,7.732,7.732H74.842a7.741,7.741,0,0,0,7.732-7.732v-49.6L62.914,10.307Z" fill="#15365a"/>
    <path id="Path_3" data-name="Path 3" d="M63.075,9.807V20.793a9.04,9.04,0,0,0,9.014,9.014H84.075" fill="#fef6aa"/>
    <path id="Path_4" data-name="Path 4" d="M84.075,30.307H72.089a9.526,9.526,0,0,1-9.515-9.515V9.807a.5.5,0,0,1,1,0V20.792a8.524,8.524,0,0,0,8.515,8.515H84.074a.5.5,0,0,1,0,1Zm-6,18a.5.5,0,0,1-.5-.5v-3a.5.5,0,0,1,1,0v3A.5.5,0,0,1,78.075,48.307Zm0,8a.5.5,0,0,1-.5-.5v-6a.5.5,0,0,1,1,0v6A.5.5,0,0,1,78.075,56.307Zm-7.158,27H35.233a7.682,7.682,0,0,1-7.658-7.689V22.955a7.726,7.726,0,0,1,3.193-6.238,7.567,7.567,0,0,1,4.465-1.451.5.5,0,0,1,0,1,6.576,6.576,0,0,0-3.879,1.261,6.73,6.73,0,0,0-2.779,5.429V75.619a6.681,6.681,0,0,0,6.658,6.689H70.917a6.681,6.681,0,0,0,6.658-6.689V57.807a.5.5,0,0,1,1,0V75.618A7.683,7.683,0,0,1,70.917,83.307Z" fill="#15365a"/>
    <path id="Path_5" data-name="Path 5" d="M69.141,76.807H38.008a3.945,3.945,0,0,1-3.933-3.933V40.741a3.945,3.945,0,0,1,3.933-3.933H69.141a3.945,3.945,0,0,1,3.933,3.933V72.874A3.943,3.943,0,0,1,69.141,76.807Z" fill="#b3e1e6"/>
    <path id="Path_6" data-name="Path 6" d="M69.141,77.307H38.008a4.44,4.44,0,0,1-4.434-4.434V40.741a4.439,4.439,0,0,1,4.434-4.434H69.141a4.44,4.44,0,0,1,4.434,4.434V72.874A4.439,4.439,0,0,1,69.141,77.307Zm-31.133-40a3.438,3.438,0,0,0-3.434,3.434V72.874a3.438,3.438,0,0,0,3.434,3.434H69.141a3.438,3.438,0,0,0,3.434-3.434V40.741a3.438,3.438,0,0,0-3.434-3.434Z" fill="#1f212b"/>
    <path id="Path_7" data-name="Path 7" d="M45.575,39.807a5.5,5.5,0,1,0,5.5,5.5A5.5,5.5,0,0,0,45.575,39.807Z" fill="#f9e65c"/>
    <path id="Path_8" data-name="Path 8" d="M45.575,51.307a6,6,0,1,1,6-6A6.006,6.006,0,0,1,45.575,51.307Zm0-11a5,5,0,1,0,5,5A5.006,5.006,0,0,0,45.575,40.307Z" fill="#1f212b"/>
    <path id="Path_9" data-name="Path 9" d="M34.075,67.335,43.4,56.788,50.95,67.2l-6.124,9.61-7.235-.081s-3.516-.593-3.516-4Z" fill="#15365a"/>
    <path id="Path_10" data-name="Path 10" d="M44.826,77.308H44.82l-7.235-.081a4.617,4.617,0,0,1-4.01-4.5V67.334A.5.5,0,0,1,33.7,67L43.03,56.457a.466.466,0,0,1,.4-.168.5.5,0,0,1,.381.206L51.355,66.9a.5.5,0,0,1,.017.562l-6.124,9.61A.5.5,0,0,1,44.826,77.308ZM34.575,67.524v5.205c0,2.949,2.973,3.484,3.1,3.5l6.88.071,5.792-9.089-6.98-9.629Z" fill="#15365a"/>
    <path id="Path_11" data-name="Path 11" d="M72.951,64.057,63.013,49.381,44.889,76.807H69.142a3.945,3.945,0,0,0,3.933-3.933v-8.8Z" fill="#15365a"/>
    <path id="Path_12" data-name="Path 12" d="M69.141,77.307H44.888a.5.5,0,0,1-.44-.263.5.5,0,0,1,.023-.513L62.6,49.1a.608.608,0,0,1,.417-.224.5.5,0,0,1,.414.22l9.822,14.505a.5.5,0,0,1,.326.469v8.8A4.437,4.437,0,0,1,69.141,77.307Zm-23.323-1H69.141a3.438,3.438,0,0,0,3.434-3.434V64.386a.584.584,0,0,1-.038-.049L63.017,50.28Z" fill="#15365a"/>
  </g>
</svg>
