<svg xmlns="http://www.w3.org/2000/svg" width="49.971" height="49.972" viewBox="0 0 49.971 49.972">
  <g id="Group_25" data-name="Group 25" transform="translate(0 0)">
    <path id="Path_84" data-name="Path 84" d="M776.353-339.279c.992.162,2,.253,2.972.5a20.226,20.226,0,0,1,14.646,12.67,2.492,2.492,0,0,1,.207,1.036,1.525,1.525,0,0,1-1.631,1.411q-3.9.007-7.807,0h-.549c0,.446-.008.861,0,1.275a1.6,1.6,0,0,1-1.5,1.849,1.593,1.593,0,0,1-1.628-1.735c-.018-.451-.044-.9-.068-1.369H769.02c-.055.5-.128,1.01-.163,1.52a37.084,37.084,0,0,0,1.691,14.721,2.921,2.921,0,0,1,.2,1.087,1.518,1.518,0,0,1-1.356,1.384A1.507,1.507,0,0,1,767.736-306c-.472-1.586-.9-3.186-1.342-4.78-.03-.109-.056-.218-.091-.355h-6.637c.085.17.155.325.238.474a17.2,17.2,0,0,0,5.8,6.141c.259.168.531.317.783.494a1.552,1.552,0,0,1,.458,2.112,1.558,1.558,0,0,1-2.136.512,19.709,19.709,0,0,1-5.031-4.2,20.825,20.825,0,0,1-4.965-11.091c-.039-.3-.086-.607-.128-.911v-2.733c.071-.513.137-1.026.214-1.538A20.83,20.83,0,0,1,770.748-338.8c.947-.208,1.914-.324,2.872-.483Zm4.119,12.47a22.39,22.39,0,0,0-2.14-6.568,8.7,8.7,0,0,0-1.24-1.737,2.612,2.612,0,0,0-4.2,0,10.681,10.681,0,0,0-1.513,2.25,20.165,20.165,0,0,0-1.667,5.021c-.076.338-.136.679-.207,1.037Zm-22.014,12.492h7.4a45.346,45.346,0,0,1,.009-9.319h-7.427A17.379,17.379,0,0,0,758.457-314.317Zm1.177-12.525a1.019,1.019,0,0,0,.187.05c2.064,0,4.129,0,6.193.011.288,0,.342-.136.389-.371a25.837,25.837,0,0,1,2.817-7.9c.017-.03,0-.079,0-.168A16.878,16.878,0,0,0,759.635-326.842Zm30.673.041a16.819,16.819,0,0,0-9.682-8.466,26.779,26.779,0,0,1,3.023,8.466Z" transform="translate(-754.685 339.279)" fill="#23517a"/>
    <path id="Path_85" data-name="Path 85" d="M818.935-306.285c-.721,2.632-1.434,5.231-2.143,7.83-.641,2.35-1.271,4.7-1.923,7.049a.936.936,0,0,0,.137.861c.8,1.169,1.565,2.356,2.361,3.524a1.6,1.6,0,0,1,.175,1.783,1.6,1.6,0,0,1-1.547.819q-11.565-.01-23.13-.005a1.549,1.549,0,0,1-1.587-1.053,1.441,1.441,0,0,1,.5-1.7,2.189,2.189,0,0,1,1.126-.356c6.554-.021,13.109-.015,19.664-.015h.69c-.352-.527-.646-1.005-.986-1.447-.078-.1-.319-.107-.485-.108q-7.685-.008-15.371,0c-.13,0-.26,0-.391,0a1.58,1.58,0,0,1-1.688-1.254q-1.529-5.338-3.046-10.68a1.57,1.57,0,0,1,1.657-2.123q10.686,0,21.372.011c.431,0,.578-.142.678-.534.378-1.479.788-2.949,1.191-4.421a1.58,1.58,0,0,1,1.7-1.3q2.2,0,4.392,0a1.576,1.576,0,0,1,1.707,1.547,1.565,1.565,0,0,1-1.677,1.575C821.2-306.281,820.1-306.285,818.935-306.285Zm-4.995,6.292H794.932a1.72,1.72,0,0,0,.03.3c.673,2.372,1.355,4.741,2.016,7.116.091.326.284.322.54.322q5.756-.006,11.513,0h2.8C812.532-294.832,813.227-297.378,813.941-299.993Z" transform="translate(-774.013 323.463)" fill="#143559"/>
    <path id="Path_86" data-name="Path 86" d="M799.216-243.611a4.99,4.99,0,0,1-4.7-4.656,4.98,4.98,0,0,1,4.692-4.712,4.989,4.989,0,0,1,4.677,4.68A4.992,4.992,0,0,1,799.216-243.611Zm1.544-4.69a1.352,1.352,0,0,0-1.54-1.556c-1.083-.005-1.583.489-1.581,1.567a1.351,1.351,0,0,0,1.542,1.554C800.275-246.735,800.758-247.213,800.76-248.3Z" transform="translate(-775.776 293.583)" fill="#143559"/>
    <path id="Path_87" data-name="Path 87" d="M829.065-243.613a5,5,0,0,1-4.681-4.677,4.986,4.986,0,0,1,4.715-4.694,4.993,4.993,0,0,1,4.656,4.7A4.994,4.994,0,0,1,829.065-243.613Zm1.565-4.618c.015-1.11-.458-1.617-1.519-1.628-1.08-.011-1.586.461-1.6,1.495-.018,1.106.454,1.612,1.519,1.627S830.617-247.2,830.631-248.232Z" transform="translate(-791.591 293.585)" fill="#143559"/>
  </g>
</svg>
