<svg id="Group_10" data-name="Group 10" xmlns="http://www.w3.org/2000/svg" width="57.408" height="37.709" viewBox="0 0 57.408 37.709">
  <path id="Path_21" data-name="Path 21" d="M54.677,307.905A24.748,24.748,0,0,0,60.61,301.4a19.5,19.5,0,0,0,2.793-7.228,1.2,1.2,0,0,0-.241-1.04,2.5,2.5,0,0,1,.872-3.761,1.857,1.857,0,0,0,.679-.666c.53-.883,1.015-1.794,1.551-2.755-.186-.064-.4-.145-.617-.212-2.447-.752-4.9-1.491-7.339-2.266a1.591,1.591,0,0,1-.821-.6c-.375-.608,0-1.278.8-1.526q3.27-1.013,6.545-2.012,9.536-2.922,19.076-5.826a2.736,2.736,0,0,1,1.5-.023q12.82,3.887,25.619,7.841a1.717,1.717,0,0,1,.829.512,1.008,1.008,0,0,1-.632,1.62c-2.008.628-4.022,1.237-6.033,1.853-6.527,2-13.052,4.01-19.589,5.981a3.1,3.1,0,0,1-1.673.026c-3.675-1.079-7.333-2.218-11-3.339-.145-.044-.286-.1-.559-.2.332-.19.557-.333.795-.452a39.776,39.776,0,0,1,10.7-3.358c.41-.076.823-.136,1.232-.214a1.342,1.342,0,1,0-.437-2.634c-2.556.565-5.124,1.094-7.647,1.784a22.352,22.352,0,0,0-6.547,2.951,8.662,8.662,0,0,0-3.245,3.492.872.872,0,0,0,.052.974,2.384,2.384,0,0,1-.415,3.14,1,1,0,0,0-.355.928,38.415,38.415,0,0,1-.227,8.388,14.792,14.792,0,0,1-2.039,6.109,4.306,4.306,0,0,1-3.114,2.184,5.034,5.034,0,0,1-1.765-.107A10.114,10.114,0,0,1,54.677,307.905Z" transform="translate(-54.677 -273.383)" fill="#143559"/>
  <path id="Path_22" data-name="Path 22" d="M85.537,306.074c1.831.558,3.517,1.07,5.2,1.585,2.239.685,4.484,1.354,6.715,2.066a4.589,4.589,0,0,0,2.86,0c3.733-1.161,7.476-2.293,11.215-3.435.186-.057.375-.1.6-.164a28.3,28.3,0,0,1,1.617,5.807,3.478,3.478,0,0,1-.787,2.848,19.645,19.645,0,0,1-2.9,2.886,19.288,19.288,0,0,1-22.761-.143,14.59,14.59,0,0,1-2.22-2.229,4.373,4.373,0,0,1-.924-4.079C84.6,309.516,85.067,307.819,85.537,306.074Z" transform="translate(-68.852 -289.191)" fill="#143559"/>
</svg>
