<svg id="Group_20" data-name="Group 20" xmlns="http://www.w3.org/2000/svg" width="53.79" height="53.749" viewBox="0 0 53.79 53.749">
  <path id="Path_67" data-name="Path 67" d="M470.242,357.421H452.567c-.719,0-.772.057-.772.793q0,10.763,0,21.525c0,.064,0,.127,0,.191.031.874.128.968,1.01.968H471.1c.867,0,.937.048.854.917a16.651,16.651,0,0,0,.015,1.9c.008.4-.115.57-.544.569q-9.933-.021-19.866-.024a3.449,3.449,0,0,1-2.923-2.319,3.974,3.974,0,0,1-.2-1.3q.009-14.882-.009-29.764a3.686,3.686,0,0,1,3.343-3.555c.365-.005.73-.033,1.094-.029.56.006.744.216.668.778a4.264,4.264,0,0,0,.339,2.278,3.159,3.159,0,0,0,3.4,1.892,3.218,3.218,0,0,0,2.8-2.761,9.637,9.637,0,0,0,.108-1.47c0-.409.127-.675.6-.657.237.009.475-.032.712-.032q9,0,18.009,0c.817,0,.858.05.854.858a4.022,4.022,0,0,0,1.071,3.193,3.274,3.274,0,0,0,5.507-1.957,12.672,12.672,0,0,0,.107-1.422.57.57,0,0,1,.588-.638,3.921,3.921,0,0,1,3.716,1.34,3.273,3.273,0,0,1,.751,2.2c-.01,3.841-.005,7.683,0,11.524,0,.428.005.858.013,1.285.005.32-.143.455-.465.451q-1.237-.013-2.476,0a.406.406,0,0,1-.468-.463q0-2.571.019-5.142c0-.047.013-.094.016-.142.064-.9-.015-.99-.908-.99Z" transform="translate(-448.428 -340.619)" fill="#143559"/>
  <path id="Path_68" data-name="Path 68" d="M506.122,383.4c.065,5.732-2.3,9.529-6.587,12.19a11.31,11.31,0,0,1-5.2,1.661,13.854,13.854,0,0,1-9.934-2.73,12.993,12.993,0,0,1-5.184-9.674,13.358,13.358,0,0,1,8.021-13.374,13.541,13.541,0,0,1,18.381,8.652A10.438,10.438,0,0,1,506.122,383.4ZM492.61,393.816a9.989,9.989,0,0,0,10.056-9.919,10.025,10.025,0,0,0-20.051-.117A10.01,10.01,0,0,0,492.61,393.816Z" transform="translate(-452.344 -343.557)" fill="#23517a"/>
  <path id="Path_69" data-name="Path 69" d="M471.021,369.485c-.953,0-1.906-.012-2.858.005-.378.007-.542-.1-.538-.511.017-1.936.014-3.874,0-5.81,0-.379.147-.5.51-.5,1.921.01,3.842.012,5.764,0,.422,0,.551.168.548.57q-.018,2.833,0,5.667c0,.425-.122.6-.571.586C472.927,369.465,471.974,369.485,471.021,369.485Z" transform="translate(-450.872 -342.577)" fill="#23517a"/>
  <path id="Path_70" data-name="Path 70" d="M459.469,374.219c.983,0,1.968,0,2.952,0,.308,0,.463.1.462.442q-.014,2.977,0,5.953c0,.311-.139.431-.428.431H456.5c-.3,0-.432-.151-.431-.444q0-2.975,0-5.952c0-.346.2-.416.495-.414.969.01,1.937,0,2.907,0Z" transform="translate(-449.401 -344.047)" fill="#23517a"/>
  <path id="Path_71" data-name="Path 71" d="M467.633,377.608c0-.967.01-1.934-.006-2.9-.005-.34.094-.479.459-.477,1.95.006,3.9-.007,5.851-.017.352,0,.513.134.511.51q-.017,2.9,0,5.8c0,.4-.175.525-.55.524q-2.877-.014-5.756,0c-.4,0-.522-.156-.515-.539C467.645,379.542,467.633,378.574,467.633,377.608Z" transform="translate(-450.872 -344.047)" fill="#23517a"/>
  <path id="Path_72" data-name="Path 72" d="M462.878,366.068c0,.968-.014,1.936.007,2.9.008.4-.138.521-.529.518q-2.881-.022-5.763,0c-.4,0-.531-.156-.53-.536q.013-2.881,0-5.761c0-.4.166-.524.547-.522q2.883.017,5.763,0c.4,0,.519.157.511.54C462.864,364.163,462.878,365.116,462.878,366.068Z" transform="translate(-449.4 -342.577)" fill="#23517a"/>
  <path id="Path_73" data-name="Path 73" d="M482.523,369.467c-.921,0-1.842-.014-2.762.007-.408.01-.558-.119-.553-.544q.027-2.831,0-5.664c0-.406.112-.564.536-.56q2.833.025,5.666,0c.391,0,.536.122.533.517-.013,1.934-.009,3.869,0,5.8,0,.326-.141.447-.462.443-.984-.011-1.969,0-2.952,0Z" transform="translate(-452.347 -342.582)" fill="#23517a"/>
  <path id="Path_74" data-name="Path 74" d="M486.885,344.782c0-1.1,0-2.189,0-3.284a2.251,2.251,0,0,1,.172-.928c.337-.765.844-.995,2.019-.908a1.517,1.517,0,0,1,1.118,1.108,3.227,3.227,0,0,1,.111.893c-.012,2.142-.016,4.284-.023,6.425a1.531,1.531,0,0,1-1.755,1.656,1.507,1.507,0,0,1-1.627-1.679v-3.284Z" transform="translate(-453.324 -339.645)" fill="#23517a"/>
  <path id="Path_75" data-name="Path 75" d="M456.1,344.759c0-1.031,0-2.061,0-3.093a2.25,2.25,0,0,1,.128-.936c.426-.957.672-1.138,2-1.07a1.464,1.464,0,0,1,1.207,1.177,2.843,2.843,0,0,1,.089.752c-.008,2.158-.01,4.315-.018,6.473a1.7,1.7,0,0,1-3.4-.02c-.006-1.094,0-2.189,0-3.284Z" transform="translate(-449.404 -339.646)" fill="#23517a"/>
  <path id="Path_76" data-name="Path 76" d="M495.764,388.188q-1.668,0-3.334,0a1.5,1.5,0,0,1-1.7-1.611q-.038-3.428,0-6.856a1.49,1.49,0,0,1,1.238-1.583,1.755,1.755,0,0,1,1.955.729,1.513,1.513,0,0,1,.2.819c-.006,1.507,0,3.015,0,4.523,0,.572.058.637.623.633,1.285-.01,2.57-.036,3.855-.044.332,0,.666.028,1,.058a1.19,1.19,0,0,1,.365.1A1.8,1.8,0,0,1,500.8,387a1.434,1.434,0,0,1-1.46,1.186C498.145,388.2,496.954,388.188,495.764,388.188Z" transform="translate(-453.812 -344.539)" fill="#23517a"/>
</svg>
