<svg id="Group_3" data-name="Group 3" xmlns="http://www.w3.org/2000/svg" width="44.585" height="49.082" viewBox="0 0 44.585 49.082">
  <path id="Path_3" data-name="Path 3" d="M282.81,67.866c1.736,0,3.472,0,5.208,0a1.653,1.653,0,0,1,.631.1,28.939,28.939,0,0,1,12.371,9.518,19.747,19.747,0,0,1,3.934,11.7,10.363,10.363,0,0,1-4.86,9.016,20.527,20.527,0,0,1-7.753,2.975,51.712,51.712,0,0,1-11.752.78A40.328,40.328,0,0,1,271,100.623a17.609,17.609,0,0,1-5.828-2.7,10.618,10.618,0,0,1-4.409-10.188c.636-6.531,3.945-11.524,8.976-15.512a30.956,30.956,0,0,1,7.151-4.2,1.918,1.918,0,0,1,.714-.147C279.339,67.861,281.075,67.866,282.81,67.866Zm1.644,27.32c0-.549.019-1.072-.007-1.593-.016-.326.107-.438.415-.534a10.693,10.693,0,0,0,2.028-.772,4.811,4.811,0,0,0,2.364-5.341,5.025,5.025,0,0,0-2.639-3.147,11.978,11.978,0,0,0-3.786-1.21,4.869,4.869,0,0,1-2.339-.958,1.283,1.283,0,0,1,.117-2.214,4.066,4.066,0,0,1,3.362-.387,2.307,2.307,0,0,1,1.831,1.847H289c-.057-.348-.088-.669-.162-.978a5.341,5.341,0,0,0-4-3.991c-.308-.094-.426-.218-.411-.542.026-.552.008-1.106.008-1.673h-3.222c0,.561-.016,1.086.006,1.61a.449.449,0,0,1-.4.542,7.878,7.878,0,0,0-1.552.6,4.481,4.481,0,0,0-2.434,2.955,4.8,4.8,0,0,0,2.343,5.188,11.558,11.558,0,0,0,3.529,1.239,10.757,10.757,0,0,1,2.649.932,1.462,1.462,0,0,1-.1,2.717,4.717,4.717,0,0,1-3.155.475,2.9,2.9,0,0,1-2.508-2.408c-.033-.148-.077-.294-.114-.436H276.32a.616.616,0,0,0-.031.123,6.281,6.281,0,0,0,4.483,5.734c.372.11.491.269.468.642-.031.521-.008,1.045-.008,1.579Z" transform="translate(-260.37 -52.922)" fill="#143559"/>
  <path id="Path_4" data-name="Path 4" d="M279.566,46.6c1.335.244,2.559.5,3.794.687a20.875,20.875,0,0,0,7.241-.4,21.762,21.762,0,0,1,3.715-.493,7.62,7.62,0,0,1,4.938,2.081c-.5.356-.967.66-1.4,1-1.578,1.248-3.143,2.512-4.722,3.758a.94.94,0,0,1-.532.2q-3.787.02-7.574,0a.672.672,0,0,1-.471-.2q-1.985-2.515-3.936-5.059C280.244,47.691,279.933,47.155,279.566,46.6Z" transform="translate(-266.111 -46.39)" fill="#143559"/>
  <path id="Path_5" data-name="Path 5" d="M275.887,57.079c-.389.44-.745.865-1.129,1.26-.077.079-.267.072-.4.067a9.722,9.722,0,0,0-1.927-.067A3.036,3.036,0,0,0,270,60.464a8.254,8.254,0,0,1-2.445,3.666,5.192,5.192,0,0,1-7.324-.577l1.207-1.288c.262.2.5.391.745.568a3.241,3.241,0,0,0,4.368-.232,6.285,6.285,0,0,0,1.76-2.748A5.3,5.3,0,0,1,275.887,57.079Z" transform="translate(-260.229 -49.44)" fill="#143559"/>
  <path id="Path_6" data-name="Path 6" d="M289.968,62.906c-1.517,0-3.035.006-4.551,0a1.252,1.252,0,0,1-1.249-.859,1.134,1.134,0,0,1,.367-1.3,1.7,1.7,0,0,1,.889-.324q4.552-.034,9.1-.008a1.247,1.247,0,0,1,1.315,1.27,1.273,1.273,0,0,1-1.368,1.216C292.972,62.911,291.47,62.906,289.968,62.906Z" transform="translate(-267.49 -50.653)" fill="#143559"/>
</svg>
