<svg id="Group_23" data-name="Group 23" xmlns="http://www.w3.org/2000/svg" width="51.243" height="42.054" viewBox="0 0 51.243 42.054">
  <path id="Path_95" data-name="Path 95" d="M656.995-184.823H636.376c-.892,0-1.121-.228-1.127-1.138,0-.784.032-1.57-.011-2.352a1.065,1.065,0,0,1,.847-1.177q5.291-1.909,10.57-3.849c3.232-1.179,6.467-2.353,9.693-3.549a1.932,1.932,0,0,1,1.43,0q10.1,3.706,20.2,7.377a1.137,1.137,0,0,1,.9,1.269c-.045.782-.009,1.568-.012,2.352,0,.816-.251,1.064-1.07,1.065Z" transform="translate(-631.445 197.025)" fill="#143559"/>
  <path id="Path_96" data-name="Path 96" d="M654.016-127.237h24.149c.207,0,.412,0,.619,0a.8.8,0,0,1,.87.84c.027.37.007.742.006,1.114,0,1.006-.239,1.25-1.228,1.25l-10.712,0-37.958,0c-1.136,0-1.336-.2-1.337-1.325,0-1.88,0-1.88,1.876-1.88h23.715Z" transform="translate(-628.425 166.081)" fill="#143559"/>
  <path id="Path_97" data-name="Path 97" d="M657.144-137.453q10.252,0,20.5,0c1.032,0,1.212.19,1.21,1.237,0,.331.005.661,0,.991-.019.7-.281.969-.983.971-2.127.007-4.254,0-6.38.005H636.74c-1.146,0-1.3-.17-1.307-1.341-.013-1.818-.035-1.876,1.89-1.871C643.929-137.443,650.537-137.454,657.144-137.453Z" transform="translate(-631.531 170.614)" fill="#143559"/>
  <path id="Path_98" data-name="Path 98" d="M642.439-162.593q0-3.4,0-6.807c0-.85.26-1.122,1.1-1.125q3-.013,6,0c.852,0,1.115.271,1.115,1.115q0,6.807,0,13.614c0,.909-.263,1.158-1.2,1.159q-2.94,0-5.879,0c-.868,0-1.14-.272-1.142-1.149Q642.434-159.19,642.439-162.593Z" transform="translate(-634.638 185.278)" fill="#23517a"/>
  <path id="Path_99" data-name="Path 99" d="M699.909-162.533q0,3.373,0,6.747c0,.874-.271,1.145-1.144,1.147q-2.971.006-5.942,0c-.863,0-1.127-.248-1.128-1.1q-.008-6.839,0-13.679c0-.859.256-1.112,1.113-1.115q3-.012,6,0c.847,0,1.1.272,1.1,1.127Q699.912-165.969,699.909-162.533Z" transform="translate(-656.476 185.28)" fill="#23517a"/>
  <path id="Path_100" data-name="Path 100" d="M675.279-162.575q0,3.4,0,6.809c0,.885-.247,1.127-1.147,1.129q-2.971.007-5.942,0c-.847,0-1.086-.255-1.086-1.12q0-6.84,0-13.679c0-.828.242-1.086,1.054-1.089q3.032-.012,6.066,0c.832,0,1.053.237,1.054,1.083q0,3.436,0,6.871Z" transform="translate(-645.574 185.279)" fill="#23517a"/>
</svg>
