<svg id="Group_7" data-name="Group 7" xmlns="http://www.w3.org/2000/svg" width="48.901" height="39.142" viewBox="0 0 48.901 39.142">
  <path id="Path_12" data-name="Path 12" d="M94.505,201.331c2.743,1.314,5.474,2.378,8.55,1.966,1.461-.2,2.938-.288,4.387-.542a6.888,6.888,0,0,0,3.564-1.864,6.873,6.873,0,0,1,3.948-1.965,2.879,2.879,0,0,1,2.2.582,1.253,1.253,0,0,1,.189,1.953c-.087.1-.175.209-.271.305-.193.194-.171.335.068.479.568.342.719.678.452,1.293a3.321,3.321,0,0,1-.791,1.161,30.61,30.61,0,0,1-2.486,1.949c-1.122.8-2.3,1.514-3.42,2.315a8.688,8.688,0,0,1-4.266,1.495c-1.684.181-3.35.514-5.028.75-1.93.271-3.863.534-5.8.751a5.326,5.326,0,0,1-2.818-.564c-3.658-1.683-7.3-3.407-10.962-5.073-1.2-.546-2.45-.986-3.694-1.426a5.2,5.2,0,0,0-1.257-.166,1.112,1.112,0,0,1-1.168-1.209q-.023-4.8,0-9.594a.96.96,0,0,1,.8-.993c1.75-.4,3.492-.858,5.259-1.16a26.954,26.954,0,0,1,3.9-.316,16.833,16.833,0,0,1,7.809,1.822,24.381,24.381,0,0,0,3.075,1.329,9.349,9.349,0,0,0,2.314.3,33.247,33.247,0,0,1,7.562,1.244,3.717,3.717,0,0,1,2.3,1.574,1.648,1.648,0,0,1,.162,1.511c-.427,1.117-1,2.141-2.3,2.368a7.711,7.711,0,0,1-1.818-.05c-.626-.043-1.248-.144-1.874-.176-1.68-.086-3.36-.179-5.041-.211-1.113-.021-2.228.057-3.342.093A.986.986,0,0,0,94.505,201.331Z" transform="translate(-68.827 -172.842)" fill="#23517a"/>
  <path id="Path_13" data-name="Path 13" d="M119.3,165.744c0-1.277,0-2.449,0-3.62a3.283,3.283,0,0,0-6.516-.6,15.118,15.118,0,0,0-.053,2.24c-.006.627,0,1.254,0,1.936-.262.017-.492.042-.721.044-1.021.008-2.044-.037-3.061.023a3.235,3.235,0,0,0-3.157,3.431,3.3,3.3,0,0,0,3.371,3.142c1.055.012,2.109,0,3.164,0,.116,0,.231.018.375.029V176a11.1,11.1,0,0,1-4.162-.837,22.652,22.652,0,0,0-4.984-2.039.882.882,0,0,1-.772-.77,13.621,13.621,0,1,1,26.646-5.565c.853,5.474-1.063,9.949-5.486,13.321-.144.109-.3.2-.5.328a4.881,4.881,0,0,0-3.653-3.209c-.463-.145-.593-.288-.535-.83a31.11,31.11,0,0,0,.048-3.16c0-.271,0-.541,0-.9.257,0,.485,0,.715,0a33.022,33.022,0,0,0,3.462-.084,3.183,3.183,0,0,0,2.761-3.422,3.238,3.238,0,0,0-3.009-3.057c-.931-.066-1.87-.026-2.805-.032C120.066,165.742,119.712,165.744,119.3,165.744Z" transform="translate(-81.626 -155.418)" fill="#143559"/>
  <path id="Path_14" data-name="Path 14" d="M67.79,197.913q0,3.494,0,6.987c0,.908-.323,1.242-1.213,1.243-1.088,0-2.176,0-3.265-.005a.969.969,0,0,1-1.1-1.093q-.007-7.166,0-14.331a.992.992,0,0,1,1.11-1.1c1.105-.008,2.21-.006,3.315,0a1.012,1.012,0,0,1,1.153,1.159Q67.793,194.342,67.79,197.913Z" transform="translate(-62.208 -171.951)" fill="#23517a"/>
</svg>
