<svg id="Group_16" data-name="Group 16" xmlns="http://www.w3.org/2000/svg" width="54.534" height="57.939" viewBox="0 0 54.534 57.939">
  <path id="Path_56" data-name="Path 56" d="M574.531,505.846a20.034,20.034,0,0,1-9.151-2.024,3.121,3.121,0,0,0-3.474.281,2.433,2.433,0,0,0-.644.743c-.872,1.55-1.718,3.115-2.574,4.674-.487.886-.977,1.77-1.464,2.656a6.367,6.367,0,1,1-9.385-8.193,24.985,24.985,0,0,1,2.847-1.626c1.788-.99,3.59-1.953,5.366-2.966a3.083,3.083,0,0,0,.912-3.923,20.435,20.435,0,0,1-1.719-5.031,19.027,19.027,0,0,1,15.34-22.3,18.776,18.776,0,0,1,19.935,9.6c3.655,6.9,3.245,13.739-1.245,20.155A18.174,18.174,0,0,1,574.531,505.846Zm-.619-5.69a13.31,13.31,0,1,0-13.323-13.28A13.316,13.316,0,0,0,573.912,500.156Z" transform="translate(-545.286 -458.527)" fill="#143559"/>
  <path id="Path_57" data-name="Path 57" d="M555.683,478.746l-.862-.48c.338-.893.655-1.78,1.013-2.649a.52.52,0,0,0-.13-.694,1.176,1.176,0,0,1-.318-.381c-.307-.689-.838-.69-1.472-.565-.73.143-1.475.211-2.255.317l-1.379-4.8c.877-.392,1.718-.78,2.571-1.143a.724.724,0,0,0,.438-.579,1.729,1.729,0,0,0-.968-2.223,11.823,11.823,0,0,1-1.465-1.092l2.419-4.367c.9.34,1.786.657,2.655,1.014.295.121.456.011.706-.124a1.746,1.746,0,0,0,.868-2.3,13.22,13.22,0,0,1-.252-1.748l4.8-1.378c.353.792.738,1.561,1.039,2.361.182.483.492.566.947.679a1.494,1.494,0,0,0,1.846-.853,18.636,18.636,0,0,1,1.2-1.61l4.364,2.419c-.342.905-.657,1.777-1.006,2.637a.542.542,0,0,0,.12.707,1.092,1.092,0,0,1,.287.343c.322.718.867.753,1.548.605.711-.154,1.443-.208,2.207-.312l.325,1.131c-.911.089-1.792.118-2.65.272-1.125.2-2.236.491-3.346.771a.5.5,0,0,1-.624-.191,6.476,6.476,0,1,0-10.257,7.906.537.537,0,0,1,.043.73A20.39,20.39,0,0,0,555.683,478.746Z" transform="translate(-546.493 -455.555)" fill="#143559"/>
  <path id="Path_58" data-name="Path 58" d="M589.157,516.917c1.369-.451,2.476-1.563,4.069-1.4l.9,3.14-1.567.707a1.028,1.028,0,0,0-.2,1.617l1.384,1.053-1.614,2.912-1.647-.619a1.043,1.043,0,0,0-1.255.988c.08.558.155,1.117.24,1.742l-3.195.927c-.253-.556-.5-1.1-.744-1.632a1.049,1.049,0,0,0-1.56-.172c-.354.459-.7.921-1.081,1.417l-2.911-1.617c.211-.556.409-1.081.609-1.605a1.027,1.027,0,0,0-1.044-1.29l-1.675.231c-.158-.547-.31-1.069-.461-1.592s-.3-1.047-.462-1.605c.483-.218.924-.452,1.389-.617.425-.151.681-.371.637-.853a1.677,1.677,0,0,1,.059-.377l2.217.148c-.263,2.37.549,4.18,2.847,5.044a4,4,0,0,0,4.568-1.088C590.2,520.738,590.224,518.873,589.157,516.917Z" transform="translate(-552.938 -470.045)" fill="#143559"/>
  <path id="Path_59" data-name="Path 59" d="M613.131,485.53l-1.737,3.129c-.588-.222-1.153-.413-1.7-.651-.327-.143-.584-.172-.832.129-.1.125-.288.185-.383.313a.824.824,0,0,0-.2.488c.059.644.165,1.283.259,1.973l-1,.3c.044-.462.112-.869.118-1.277.017-1.178,0-2.357.02-3.534a1.225,1.225,0,0,1,.223-.706,4.68,4.68,0,0,0-2.484-7.535.836.836,0,0,1-.455-.249c-.973-1.319-1.928-2.651-2.9-4l1.483-.435c.247.553.5,1.072.714,1.609a.84.84,0,0,0,.746.573,1.013,1.013,0,0,0,1.225-.528,4.684,4.684,0,0,1,.695-.908.609.609,0,0,1,.532-.154c.939.487,1.856,1.016,2.829,1.56-.225.6-.429,1.19-.672,1.765a.688.688,0,0,0,.1.714,1.165,1.165,0,0,0,1.492.563,11.565,11.565,0,0,1,1.353-.2c.331,1.148.651,2.261.988,3.433-.6.269-1.181.53-1.764.8a1.143,1.143,0,0,0-.181,1.662C612.1,484.753,612.6,485.13,613.131,485.53Z" transform="translate(-559.009 -459.888)" fill="#143559"/>
  <path id="Path_60" data-name="Path 60" d="M580.864,501.541c-1.463,0-2.926.035-4.387-.017a4.317,4.317,0,0,1-1.62-.385,1.3,1.3,0,0,1-.632-1.815c.488-1.146.974-2.293,1.518-3.412a1.716,1.716,0,0,1,.762-.734,9.623,9.623,0,0,1,8.685,0,1.981,1.981,0,0,1,.833.858c.509,1.025.936,2.09,1.4,3.138a1.412,1.412,0,0,1-.815,2.1,4.048,4.048,0,0,1-1.357.255C583.788,501.56,582.326,501.541,580.864,501.541Z" transform="translate(-552.246 -464.882)" fill="#23517a"/>
  <path id="Path_61" data-name="Path 61" d="M581.639,481.267a4.334,4.334,0,1,1-4.336,4.343A4.329,4.329,0,0,1,581.639,481.267Z" transform="translate(-553.025 -461.77)" fill="#23517a"/>
</svg>
