<svg id="Group_12" data-name="Group 12" xmlns="http://www.w3.org/2000/svg" width="55.337" height="43.437" viewBox="0 0 55.337 43.437">
  <path id="Path_30" data-name="Path 30" d="M301.858,509.829a4.015,4.015,0,0,1,.426.19q5.814,3.29,11.625,6.588a.842.842,0,0,1,.286,1.377c-.493.689-1.066,1.321-1.615,1.969a36.4,36.4,0,0,0-5.088,8c-.989,2.091-1.831,4.253-2.724,6.39-.359.858-.857,1.052-1.668.589q-5.63-3.215-11.258-6.435c-.717-.41-.821-.938-.279-1.617q1.166-1.461,2.382-2.88a31.723,31.723,0,0,0,4.356-7.128c.939-1.967,1.657-4.041,2.461-6.072A1.293,1.293,0,0,1,301.858,509.829Z" transform="translate(-286.103 -503.468)" fill="#23517a"/>
  <path id="Path_31" data-name="Path 31" d="M329.861,546.7l2.948-5.156c1.441.882,2.777,1.731,4.143,2.53a78.213,78.213,0,0,0,20.09,8.239c.382.1.785.115,1.168.21a5.9,5.9,0,0,1,4.507,5.218,6.285,6.285,0,0,1-3.273,5.906,5.8,5.8,0,0,1-7-.976A77.1,77.1,0,0,0,335.759,549.9c-1.782-1.058-3.648-1.976-5.475-2.959C330.187,546.893,330.093,546.835,329.861,546.7Z" transform="translate(-307.415 -520.96)" fill="#143559"/>
  <path id="Path_32" data-name="Path 32" d="M329.7,506.57a14.069,14.069,0,0,1-.63,1.788,1.831,1.831,0,0,1-2.011.948,1.171,1.171,0,0,1-.963-.74,2.655,2.655,0,0,0-.986-1.169q-6.053-3.5-12.165-6.9a4.73,4.73,0,0,0-1.575-.235,1.732,1.732,0,0,1-.665-.123,1.883,1.883,0,0,1-.584-2.629,3.839,3.839,0,0,1,5.241-1.346c2.953,1.64,5.892,3.309,8.836,4.965,1.1.62,2.206,1.236,3.306,1.86A4.434,4.434,0,0,1,329.7,506.57Z" transform="translate(-296.359 -495.643)" fill="#143559"/>
  <path id="Path_33" data-name="Path 33" d="M299.638,560.994a6.2,6.2,0,0,1-.448,1.074,3.769,3.769,0,0,1-4.949,1.282q-6.367-3.521-12.682-7.136a3.8,3.8,0,0,1-1.166-5.232,1.944,1.944,0,0,1,2.121-.838,1.182,1.182,0,0,1,.807.7,2.812,2.812,0,0,0,.979,1.177q6.054,3.5,12.165,6.9a2.594,2.594,0,0,0,1.35.264,1.5,1.5,0,0,1,1.715,1.326c.024.148.025.3.037.451Z" transform="translate(-279.808 -525.669)" fill="#143559"/>
</svg>
