<svg xmlns="http://www.w3.org/2000/svg" width="883.605" height="1682.673" viewBox="0 0 883.605 1682.673">
  <g id="Group_7304" data-name="Group 7304" transform="translate(-303.637 -136.904)" opacity="0.05">
    <path id="Path_31516" data-name="Path 31516" d="M1159.777,481.5c24.45-.662,27.9,14.083,27.425,33.389-.8,32.524-.7,65.089-.034,97.62.372,18.129-5.923,29.026-27.327,29.278v20.667q-.034,521-.079,1041.993c-.012,68.138-46.294,115.008-113.79,115.042q-300.288.141-600.579-.068c-55.06-.067-97.45-33.11-109.367-84.68-2.358-10.206-2.482-21.089-2.489-31.655q-.2-445.9-.12-891.8V793.01c-27.041-9.108-28.233-10.789-28.252-39.082-.019-26.909.1-53.823-.038-80.732-.079-14.932,2.249-27.7,20.686-30.087,2.7-.346,4.937-4.189,7.389-6.415-2.621-2.546-4.926-6.8-7.923-7.359-16.595-3.106-20.291-14.278-20.178-28.925.233-29.414.474-58.835-.079-88.241-.353-18.753,6.28-30.369,27.421-30.414V438.473c-29.88-11.928-31.076-14.936-27.24-68.236,1.147-15.944,4.392-18.911,28.237-24.976,0-31.5-.2-63.363.041-95.217C334,182.462,379.2,137.089,446.668,137.033q300.288-.259,600.576,0c65.969.056,112.2,46.23,112.466,112.09.282,68.838.068,137.679.068,206.521Zm-15.026,497.782q0-363.35-.056-726.7c-.038-62.186-38.694-100.53-100.846-100.553q-297.529-.1-595.055.011c-61.975.03-100.282,38.54-100.29,101.023-.056,481.969.647,963.938-.756,1445.9-.188,64.837,45.884,106.69,106.009,106.167,195.209-1.7,390.437-.624,585.662-.651,67.808-.007,105.325-37.773,105.329-106Q1144.775,1338.872,1144.751,979.277ZM331.923,660.7l-6.716-2.407c-1.647,5.994-4.633,11.962-4.742,17.986-1.7,92.336-1.613,92.34,11.458,98.146Zm-.192-46.753V498.368l-6.8-1.136c-1.572,6.746-4.46,13.477-4.516,20.235C319.616,607.991,319.714,607.991,331.732,613.948ZM1167.32,496.68l-5.964,1.452V626.7c4.039-1.455,8.1-2.185,8.119-3.031,1.023-36.679,1.9-73.369,2.185-110.059C1171.705,507.976,1168.839,502.324,1167.32,496.68ZM333.352,361.562c-5.708,2.339-11.266,3.429-11.345,4.832-.906,15.94-1.181,31.929-.97,47.9.023,1.658,5.31,5.107,6.291,4.535,2.561-1.5,5.678-4.712,5.765-7.337C333.616,395.646,333.352,379.777,333.352,361.562Z" transform="translate(0 0)" fill="#23517a"/>
    <path id="Path_31517" data-name="Path 31517" d="M331.626,819.084q0-301.292.026-602.588c.008-26.436,1.177-27.579,27.74-27.59q310.571-.09,621.141-.045c24.661,0,26.891,2.219,26.894,26.891q.073,604.462.034,1208.928c0,22.292-3.907,26.154-26.274,26.157q-311.513.029-623.021-.06c-23.713-.007-26.59-2.794-26.59-25.353q-.039-303.17-.015-606.34Zm659.2,616.17V385.688H348.183V1435.254Zm.583-1229.993H348.171V368.548H991.412Z" transform="translate(77.077 143.377)" fill="#23517a"/>
    <path id="Path_31518" data-name="Path 31518" d="M496.843,159.919c26.842,0,53.687.162,80.525-.075,12.879-.113,22.931,3.794,23.19,18.17.259,14.158-9.367,19.4-22.3,19.419q-81.467.113-162.926.011c-12.221-.026-21.333-5.926-21.494-18.539-.177-13.789,9.2-19.159,22.48-19.05C443.16,160.073,470,159.919,496.843,159.919Zm86.41,20.682.128-3.757H410.633l.034,3.757Z" transform="translate(248.986 63.317)" fill="#23517a"/>
    <path id="Path_31519" data-name="Path 31519" d="M403.477,601.165c.154-37.758,30.286-67.191,68.319-66.724,36.656.444,66.661,30.553,66.739,66.969.079,36.942-30.955,68.063-67.943,68.142C433.478,669.626,403.323,638.9,403.477,601.165Zm69.357-51.69c-29.421-.94-53.379,21.2-54.292,50.182-.917,29.143,21.419,53.582,50.07,54.781,28.985,1.215,54.484-23.186,54.819-52.45C523.746,574.342,500.646,550.365,472.834,549.474Z" transform="translate(275.598 1097.34)" fill="#23517a"/>
    <path id="Path_31520" data-name="Path 31520" d="M393.4,158.864c13.725,1.591,21.825,9.262,21.66,23.254-.154,13.308-8.649,21.186-21.416,21.449-13.785.289-22.709-8.025-22.878-22.01C370.6,167.543,379.233,160.135,393.4,158.864Z" transform="translate(185.293 60.619)" fill="#23517a"/>
    <path id="Path_31521" data-name="Path 31521" d="M562.623,474.269c-67.537,0-135.073.143-202.606-.252-6.058-.034-12.093-3.546-18.14-5.441,3.151-5.043,5.242-11.462,9.649-14.887,16.3-12.665,22.559-28.357,19.863-48.866-1.538-11.687-.647-23.747-.241-35.618.79-23.175,14.489-38.393,37.284-38.472q181.035-.609,362.069.06c22.367.075,35.991,14.154,36.769,36.619.76,21.867.526,43.786.173,65.671-.444,27.47-14.3,41.048-42.21,41.127C697.7,474.4,630.16,474.272,562.623,474.269ZM368.29,455.8q1.861,1.7,3.727,3.392h69.33q160.418.028,320.829.015c23.284-.015,30.068-6.84,30.286-30.068.18-19.392,0-38.788.007-58.181.007-16.967-8.45-25.323-25.405-25.323q-177.3-.005-354.6.042c-18.452.03-25.819,8.006-26.278,26.5-.308,12.5-.369,25.033.019,37.532C386.75,427.215,388.957,445.058,368.29,455.8Z" transform="translate(105.558 534.276)" fill="#23517a"/>
    <path id="Path_31522" data-name="Path 31522" d="M620.539,374.908q-98.524-.006-197.048-.026c-32.809-.038-45.613-12.6-46.072-44.959q-.2-14.073.026-28.158c.5-30.516,13.184-43.519,43.432-43.564q163.267-.231,326.533-.1c1.252,0,2.508.094,3.753.007,51.134-3.493,66.683,10.57,62.494,62.122C812.2,338.2,826.375,344.468,834.719,355.4c3.407,4.464,5.178,10.179,7.69,15.327-5.148,1.4-10.288,3.986-15.44,4C758.158,375,689.346,374.908,620.539,374.908Zm192.742-15.015q1.4-2.025,2.813-4.046c-20.881-9.848-17.17-27.8-17.2-44.489-.06-33.776-4.317-38.187-37.307-38.191q-157.677-.017-315.35,0c-54.123,0-54.123-.007-53.8,53.428.165,27.372,5.795,33.234,32.836,33.261q137.027.118,274.053.041Q756.306,359.9,813.281,359.893Z" transform="translate(203.402 333.188)" fill="#23517a"/>
    <path id="Path_31523" data-name="Path 31523" d="M498.342,304.824c34.4-.007,68.792-.143,103.185.038,26.24.135,43.88,15.466,44.376,38.066.511,23.352-17.332,39.815-44.662,39.932q-103.183.434-206.37.034c-27.71-.113-45.3-15.929-45.2-39.322.094-23.435,17.723-38.589,45.489-38.706C429.549,304.715,463.946,304.828,498.342,304.824Zm-2.41,15.072c-33.7,0-67.39-.139-101.087.057-19.328.113-29.711,8.386-30.031,23.164-.32,14.752,10.491,24.615,28.914,24.687q103.894.395,207.792.008c18.249-.068,29.56-10.1,29.312-24.465-.248-14.447-11.3-23.344-30.068-23.45C565.818,319.7,530.877,319.843,495.931,319.9Z" transform="translate(127.061 463.371)" fill="#23517a"/>
    <path id="Path_31524" data-name="Path 31524" d="M566.949,556.641c-36.825,0-73.651.151-110.473-.056C434.422,556.461,420.9,545.033,420.6,527c-.293-18.212,13.146-30.316,34.9-30.365q112.344-.271,224.687,0c20.961.049,33.366,11.3,33.629,29.38.274,18.768-12.477,30.391-34.532,30.546C641.845,556.826,604.4,556.638,566.949,556.641Zm1.888-45.012c-36.8,0-73.606.124-110.4-.071-11.593-.064-22.78,1.429-22.194,15.88.53,13.018,11.289,14.267,22.085,14.244q109.472-.2,218.945-.034c10.845.011,21.07-1.519,21.141-15.064.071-13.672-10.172-15.034-21.036-14.993C641.2,511.735,605.016,511.645,568.837,511.63Z" transform="translate(322.858 992.635)" fill="#23517a"/>
    <path id="Path_31525" data-name="Path 31525" d="M401.323,496.2A31.44,31.44,0,0,1,432.955,528.3c-.474,17.016-14.15,30.125-31.531,30.23a31.359,31.359,0,0,1-31.678-30.143C369.119,510.911,383.472,496.279,401.323,496.2Zm24.059,31.2c-11.714-7.634-18.689-15.734-24.341-14.895-6.031.895-10.811,10.232-16.136,15.884,5.317,4.967,10.537,13.755,15.982,13.9C407.174,542.457,413.66,535,425.382,527.4Z" transform="translate(182.434 991.808)" fill="#23517a"/>
    <path id="Path_31526" data-name="Path 31526" d="M406.725,526.952c.387,17.527-12.53,31.016-30.136,31.471-17.772.459-31.5-12.157-32.117-29.511-.643-18.3,12.9-32.55,31.08-32.712C392.684,496.049,406.342,509.522,406.725,526.952Zm-7.942,1.617c-10.612-8.269-16.993-16.88-21.773-16.068-6.419,1.091-14.278,8.638-16.249,15.038-1.079,3.512,8.374,14.282,13.616,14.677C380.542,542.685,387.288,535.457,398.783,528.568Z" transform="translate(112.661 991.791)" fill="#23517a"/>
    <path id="Path_31527" data-name="Path 31527" d="M457.458,527.822c-.116,17.542-13.282,30.5-31.016,30.546s-30.91-12.857-31.144-30.459c-.244-18.2,13.786-32.087,32-31.685C444.623,496.6,457.578,510.178,457.458,527.822Zm-7.686.557c-11.093-8.04-17.226-15.9-23.345-15.884-5.317.011-10.619,8.919-15.925,13.894,5.28,5.573,9.8,14.173,16.083,15.737C431.353,543.315,438.351,535.557,449.771,528.378Z" transform="translate(253.013 991.838)" fill="#23517a"/>
    <path id="Path_31528" data-name="Path 31528" d="M461.282,200.922a52.621,52.621,0,1,1-2.151,105.219c-28.549-.711-51.987-25.243-51.258-53.649A53.153,53.153,0,0,1,461.282,200.922Zm36.686,52.514a37.128,37.128,0,0,0-38.345-37.442c-19.983.462-36.822,17.741-36.683,37.638.139,20.111,16.786,37.01,36.863,37.427A37.209,37.209,0,0,0,497.968,253.436Z" transform="translate(287.687 176.708)" fill="#23517a"/>
    <path id="Path_31529" data-name="Path 31529" d="M476.279,242.709a37.224,37.224,0,0,1,36.036-37.769c20.479-.62,38.815,16.986,38.894,37.348.079,20.472-17.866,38.051-38.488,37.705C492.385,279.655,476.4,263.3,476.279,242.709Zm37.408,22.528c13.158-1.824,22.145-9.3,21.95-22.98-.2-13.556-8.856-22.363-22.852-21.934-12.778.391-20.881,8.115-21.224,21.468C491.193,256.171,499.722,263.072,513.688,265.238Z" transform="translate(476.56 187.762)" fill="#23517a"/>
    <path id="Path_31530" data-name="Path 31530" d="M403.945,243c-5.1,12.894-6.491,29.741-14.726,34.347-15.282,8.555-22.228-10.77-32.309-18.761-13.105-10.39-13.507-22-.06-32.456,10.157-7.9,17.1-27.68,32.125-18.975C397.571,212.141,398.857,229.743,403.945,243Zm-20.348-18.1c-8.4,6.193-15.064,11.1-21.727,16l8.382-2.617,10.77,22.758,2.576-2.5Z" transform="translate(119.484 187.942)" fill="#23517a"/>
  </g>
</svg>
