<svg id="Group_11" data-name="Group 11" xmlns="http://www.w3.org/2000/svg" width="70.429" height="48.361" viewBox="0 0 70.429 48.361">
  <path id="Path_23" data-name="Path 23" d="M50.082,414.475c.94-.087,1.88-.179,2.822-.243.372-.025.418-.21.438-.533.1-1.642.161-3.291.369-4.92a10.957,10.957,0,0,1,1.593-4.449,3.512,3.512,0,0,1,.288-.353l.188.048c0,1-.009,2.006,0,3.009.018,1.55.023,1.551,1.325,2.375a8.362,8.362,0,0,1,3.242,3.022c.01.021.052.025.07.033,1.114-.346,2.224-.676,3.325-1.037.687-.225.68-.245.621-.964-.04-.48.09-.652.56-.678A8.466,8.466,0,0,0,69.1,408.57a10.94,10.94,0,0,0,2.622-2.216,14.219,14.219,0,0,1,1.969-1.73c.265-.219.267-.386.049-.636a12.286,12.286,0,0,1-.842-1.082.916.916,0,0,1-.037-1.065c.348-.608.629-1.255.954-1.877.128-.244.146-.4-.144-.541a2.525,2.525,0,0,1-1.271-1.334c-.395-1-.725-2.035-1.059-3.061a.5.5,0,0,1,.139-.4c.62-.653,1.246-1.3,1.895-1.924a.949.949,0,0,1,.566-.232,14.212,14.212,0,0,1,4.528.514c.34.093.674.21,1.1.343-.251.237-.416.391-.577.547a1.3,1.3,0,0,0-.24,1.838,7.1,7.1,0,0,1,1.041,3.1,1.176,1.176,0,0,0,.752,1.2,5.393,5.393,0,0,1,.713.493c.441.267.893.519,1.347.764.269.146.457.052.667-.178a6.143,6.143,0,0,1,1.17-1.081,6.386,6.386,0,0,1,5.576-.951c-.141-.178-.274-.361-.424-.531-.6-.676-1.2-1.343-1.794-2.022a6.529,6.529,0,0,1-1.885-3.5,1.971,1.971,0,0,0-1.383-1.749,25.831,25.831,0,0,0-8.4-2.563,24.575,24.575,0,0,0-9.6.955,22.386,22.386,0,0,0-13.4,10.414c-.635,1.085-1.137,2.247-1.7,3.374l-.38,1.228a.325.325,0,0,0-.019.038c-.069.215-.129.431-.192.646l-.076.245h0a29.707,29.707,0,0,0-1.131,8.434C49.632,414.374,49.747,414.506,50.082,414.475Z" transform="translate(-42.898 -388.574)" fill="#23517a"/>
  <path id="Path_24" data-name="Path 24" d="M101.354,444.27l-.136.014A4.256,4.256,0,0,1,99,446.96a6.622,6.622,0,0,1-5.328.318.849.849,0,0,0-.551.007c-1.333.568-2.657,1.16-3.985,1.741a.942.942,0,0,0-.555,1.467,2.991,2.991,0,0,0,.685.778c.269.247.581.445.867.674a.4.4,0,0,1,.026.689c-.426.416-.862.825-1.248,1.277a.858.858,0,0,0-.159.639,22.865,22.865,0,0,0,.549,2.263,17.96,17.96,0,0,0,.938,2.6c.2.416.217.557-.173.8a21.081,21.081,0,0,1-8.746,3.3c-1.192.134-2.4.126-3.6.183l-.077-.2a8.3,8.3,0,0,1,.694-.617,2.2,2.2,0,0,0,.974-2.425c-.071-.322.062-.426.318-.538.572-.25,1.126-.542,1.7-.794a1.653,1.653,0,0,0,1.1-1.352,7.037,7.037,0,0,1,1.382-2.763A.793.793,0,0,0,83.841,454a4.335,4.335,0,0,0-1.066-.963,14.677,14.677,0,0,0-1.827-.841.7.7,0,0,0-.432.009q-1.537.452-3.065.93a.863.863,0,0,0-.423.24c-.405.534-.411.545-.915.23l-4.386,1.064-.01.147c.237.211.479.415.708.634a5.6,5.6,0,0,1,.719.76.525.525,0,0,1-.02.506,2.074,2.074,0,0,0-.684,1.907c.185,1.169.461,2.325.7,3.487.053.259.1.519.156.828-.193-.033-.3-.042-.4-.07a17.244,17.244,0,0,1-6.467-3.328c-1.1-.912-2.123-1.928-3.172-2.907a1.445,1.445,0,0,0-1.208-.432c-1.124.144-2.246.31-3.451.478.475.63.911,1.25,1.389,1.837,4.238,5.2,9.593,8.37,16.358,8.928A24.741,24.741,0,0,0,87.564,465.8a23.743,23.743,0,0,0,11.79-10.024c1.813-2.967,2.934-6.142,2.421-9.7C101.687,445.469,101.5,444.873,101.354,444.27Z" transform="translate(-47.824 -419.17)" fill="#23517a"/>
  <path id="Path_25" data-name="Path 25" d="M157.369,399.871a4.455,4.455,0,0,0-3.346-.269c-1.471.385-2.908.908-4.348,1.4a1.153,1.153,0,0,1-1.075-.047q-3.962-2.379-7.94-4.731c-1.115-.663-2.211-1.364-3.361-1.96a2,2,0,0,0-2.7.553.54.54,0,0,0-.046.8c1.159,1.495,2.293,3.009,3.46,4.5,1.149,1.466,2.324,2.91,3.493,4.36.229.284.188.458-.137.638-1.162.641-2.3,1.32-3.475,1.946a1.2,1.2,0,0,1-.813.07,11.033,11.033,0,0,1-1.224-.461l-.726-.3c-.414-.184-.828-.37-1.253-.519l-.073-.03-.009,0c-.09-.031-.179-.064-.271-.09a2.321,2.321,0,0,0-2.1.283.661.661,0,0,0-.194.323c-.008.015-.014.032-.023.046l.012.006c-.052.281.049.713.727,1.276l.007.005a5.89,5.89,0,0,0,.741.613c.552.481,1.145.914,1.688,1.4a2.514,2.514,0,0,1,.834,1.689c.057.711.013,1.43.043,2.143.035.82.1,1.639.16,2.458.019.254.171.369.438.347a2.014,2.014,0,0,0,1.721-.969,6.265,6.265,0,0,0,.516-1.166c.274-.84.5-1.694.761-2.539a1.078,1.078,0,0,1,.756-.724c1.211-.418,2.415-.857,3.619-1.3.541-.2.6-.19.7.371.379,2.068.739,4.14,1.109,6.209.279,1.559.566,3.117.84,4.676.065.372.265.54.633.475.494-.088.984-.2,1.479-.29a.54.54,0,0,0,.486-.462c.41-1.767.891-3.519,1.235-5.3.462-2.4.836-4.813,1.24-7.221l.3-1.665c.923-.5,1.872-.959,2.794-1.465a9.558,9.558,0,0,0,3.806-3.35C158.347,400.782,158.227,400.338,157.369,399.871Zm-2.51,3.566-1.326-2.735a1.28,1.28,0,0,1,1.821.664A1.469,1.469,0,0,1,154.859,403.437Z" transform="translate(-87.713 -391.536)" fill="#143559"/>
  <path id="Path_26" data-name="Path 26" d="M180.747,408.7l1.326,2.735a1.469,1.469,0,0,0,.494-2.07A1.28,1.28,0,0,0,180.747,408.7Z" transform="translate(-114.927 -399.534)" fill="#143559"/>
  <path id="Path_27" data-name="Path 27" d="M47.839,444.468c.05,0,.093-.009.141-.013.465-.036.929-.077,1.389-.14,2.4-.328,4.8-.671,7.177-1.141a64.58,64.58,0,0,0,10.035-2.811c3.973-1.48,7.9-3.09,11.837-4.658a.578.578,0,0,0,.314-.415c0-.9-.035-1.8-.067-2.7a2.949,2.949,0,0,0-.978-2.195c-.478-.427-.992-.817-1.447-1.265a.514.514,0,0,0-.707-.107q-1.57.8-3.16,1.562c-4.414,2.1-8.951,3.9-13.545,5.564a67.365,67.365,0,0,1-12.452,3.63,21.452,21.452,0,0,1-5.832.281,10.1,10.1,0,0,1-2.44-.7,1.7,1.7,0,0,1-.981-1.3,3.758,3.758,0,0,1,.669-3.033c.374-.568.776-1.119,1.165-1.676a12.118,12.118,0,0,0-4.134,5.944,2.738,2.738,0,0,0,.224,2.168,4.83,4.83,0,0,0,2.343,2.1,10.981,10.981,0,0,0,3.322.887h0s.073.009.21.022c.543.06,1.089.1,1.639.12a2.909,2.909,0,0,0,.313,0c.528.016,1.141.025,1.826.018a6.946,6.946,0,0,0,.75,0c.217-.013.434-.024.651-.036C46.648,444.548,47.229,444.515,47.839,444.468Z" transform="translate(-34.695 -410.742)" fill="#143559"/>
</svg>
