<?xml version="1.0" encoding="utf-8"?>
<!-- Generator: Adobe Illustrator 22.1.0, SVG Export Plug-In . SVG Version: 6.00 Build 0)  -->
<svg version="1.1" id="Layer_1" xmlns="http://www.w3.org/2000/svg" xmlns:xlink="http://www.w3.org/1999/xlink" x="0px" y="0px"
	 viewBox="0 0 2834.6 5669.3" style="enable-background:new 0 0 2834.6 5669.3;" xml:space="preserve">
<style type="text/css">
	.st0{fill:#23517A;}
	.st1{fill:#143559;}
	.st2{fill:#FFFFFF;}
	.st3{fill:none;stroke:#FFFFFF;stroke-width:0.5;stroke-miterlimit:10;}
</style>
<path id="Rectangle_1555" class="st0" d="M689.3,1958.1h1612.4c172.8,0,312.9,140.1,312.9,312.9l0,0
	c0,172.8-140.1,312.9-312.9,312.9H689.3c-172.8,0-312.9-140.1-312.9-312.9l0,0C376.3,2098.2,516.4,1958.1,689.3,1958.1z"/>
<path id="Rectangle_1556" class="st0" d="M1476,1231.6h39c4.1,0,7.4,3.3,7.4,7.4V1459c0,4.1-3.3,7.4-7.4,7.4h-39
	c-4.1,0-7.4-3.3-7.4-7.4V1239C1468.6,1235,1471.9,1231.6,1476,1231.6z"/>
<path id="Path_24127" class="st1" d="M2353.8,2271c0-474-384.3-858.3-858.3-858.3c-474.1,0-858.4,384.3-858.4,858.3
	c0,474.1,384.3,858.4,858.4,858.4c45.8,0,91.6-3.7,136.9-11l129.7,80.4l220.1,136.5l8.1-258.8l3.3-106.6
	C2219.7,2809,2354,2548.5,2353.8,2271z"/>
<path id="Rectangle_1557" class="st2" d="M1075.8,1989.6h839.4c155.4,0,281.4,126,281.4,281.4l0,0c0,155.4-126,281.4-281.4,281.4
	h-839.4c-155.4,0-281.4-126-281.4-281.4l0,0C794.4,2115.6,920.3,1989.6,1075.8,1989.6z"/>
<path id="Path_24128" class="st1" d="M1876.4,2205c70.3,0,127.3,57,127.3,127.3h70.7c0-109.4-88.7-198-198-198
	c-109.4,0-198,88.7-198,198h70.7C1749.1,2262,1806.1,2205,1876.4,2205z"/>
<path id="Path_24129" class="st1" d="M1107.9,2205c70.3,0,127.3,57,127.3,127.3h70.7c0-109.4-88.7-198-198-198
	c-109.4,0-198,88.7-198,198h70.7C980.6,2262,1037.6,2205,1107.9,2205z"/>
<ellipse id="Ellipse_648" class="st1" cx="1495.5" cy="1164.2" rx="123.4" ry="123.4"/>
<path id="Path_24130" class="st2" d="M533.7,2481.3c-45.1-60.8-69.4-134.5-69.3-210.2c-0.1-75.6,24.2-149.3,69.2-210.1
	c-21.7,67.9-32.8,138.8-32.7,210.1C500.8,2342.4,511.9,2413.3,533.7,2481.3z"/>
<path id="Path_24131" class="st2" d="M2458.2,2481.3c45.1-60.8,69.4-134.5,69.3-210.2c0.1-75.6-24.1-149.3-69.2-210.1
	c21.7,67.9,32.8,138.8,32.7,210.1C2491.1,2342.4,2480,2413.3,2458.2,2481.3z"/>
<g id="Group_6159" transform="translate(77.192 93.715)">
	<path id="Path_24132" class="st3" d="M1498.2,2876.5c7.6,0,15.2,0,22.5-0.1c209-2,367.9-31.6,487.1-75.5
		c162.2-60,251.3-146.7,293.5-226.6c86.1-163.1,28.2-290.7-25.2-366"/>
	<path id="Path_24133" class="st2" d="M1429.4,2832.7c-50.5,0-91.5,19.2-91.5,42.8c0,23.7,41,42.8,91.5,42.8s91.5-19.2,91.5-42.8
		C1520.9,2851.8,1479.8,2832.7,1429.4,2832.7z"/>
</g>
<g>
	<path class="st1" d="M836.4,4008.7c0-97.9,0-191.6,0-285.2c-2-0.8-4-1.6-6-2.4c-3.9,8.6-8.6,16.8-11.5,25.7
		c-23.2,71.2-45.6,142.8-69.2,213.9c-13,39.2-35.9,53.7-81.6,54.6c-44.7,0.9-71.2-13.8-83.9-51.3c-24.1-70.9-46.2-142.6-69.3-213.9
		c-3.2-9.8-7.3-19.2-11-28.8c-1.9,0.3-3.9,0.7-5.8,1c0,94.1,0,188.2,0,284.3c-47.8,0-94.2,0-142.2,0c-0.4-8.5-1.1-15.9-1.1-23.3
		c-0.1-113.7-0.1-227.5,0-341.2c0.1-51.7,27.9-81.6,79.6-85.2c16.6-1.1,33.3-1.3,50-0.5c44.5,2.1,76.6,23,91.5,65.7
		c23.8,68.7,46.2,137.8,69.5,206.6c4.7,14,11.1,27.4,16.7,41.1c2.3,0.2,4.6,0.3,6.9,0.5c4.5-8.8,10.1-17.3,13.3-26.6
		c22.9-67.4,45.8-134.7,67.6-202.5c19.6-61,48.3-84.4,112.2-85.5c20.2-0.4,41.3,0.8,60.6,6.1c40.9,11.4,55.6,32.1,56.1,74.3
		c0.6,48.5,0.2,97.1,0.2,145.6c0,68.2-0.4,136.5,0.3,204.7c0.2,16.4-4.3,23-21.7,22.5C917.5,4008,877.5,4008.7,836.4,4008.7z"/>
	<path class="st1" d="M2470.2,3781.4c60.1,16.2,78,38.2,77.9,95.1c0,23.9-1.4,48.8-7.8,71.6c-9,32.2-33.3,51.9-66.4,58.3
		c-15.5,3-31.6,4.4-47.4,4.5c-81.9,0.4-163.8,0.3-245.6,0.2c-54.4-0.1-77.5-22.9-77.7-77.6c-0.3-98.6-0.3-197.1,0-295.7
		c0.1-52.4,24.3-76.1,76.8-76.2c76.6-0.1,153.1,0,229.7,0c98.7,0,138.3,36.9,126.9,153.5C2533,3750.4,2508.2,3770.4,2470.2,3781.4z
		 M2247.5,3831.9c0,18-1.7,34.7,0.8,50.8c1,6.9,10.4,17.5,16.3,17.8c38.4,1.4,76.9,1.7,115.3-0.5c19.1-1.1,25.1-18.2,25.2-35
		c0.1-16.6-7.9-31.7-25.3-32.5C2336.3,3830.7,2292.8,3831.9,2247.5,3831.9z M2249,3732.9c3.4,0.7,5.6,1.5,7.7,1.5
		c34.8,0.1,69.7,0.4,104.5,0c25.1-0.3,34.4-9.3,34.6-31.7c0.2-21-10.5-31.2-35.2-32c-20.4-0.6-40.9-0.2-61.3-0.2
		c-54.2,0-56.2,2.3-52.1,56.6C2247.3,3728.6,2248.1,3730,2249,3732.9z"/>
	<path class="st1" d="M1046.6,3562.6c46.9,0,92.1,0,139.8,0c0.4,8.3,1.2,16.3,1.2,24.3c0.1,70.5,0.1,141,0.1,211.6
		c0,6.8-0.1,13.7,0.1,20.5c2,71.6,66.4,107.1,129.1,70.9c23.9-13.8,29.8-37,29.9-62.3c0.2-79.6,0.1-159.2,0.2-238.9
		c0-8.1,0-16.3,0-25.7c48.4,0,94.3,0,141.7,0c0.6,6,1.7,11.8,1.7,17.6c0.1,85.7,0.7,171.4-0.2,257.1
		c-1.1,110.7-63.5,175.6-174.7,177.8c-51.1,1-103.3-0.7-153.3-10.2c-65.6-12.5-112.3-66.4-114.7-133.1
		C1043.8,3769.9,1046.6,3667.5,1046.6,3562.6z"/>
	<path class="st1" d="M1514.1,4008.9c0-34.4,0-68.9,0-106.4c21.6,0,41.8,0.2,62,0c73.8-0.7,102.3-28.9,102.5-102
		c0.3-70.5,0.1-141.1,0.1-211.6c0-8.2,0-16.4,0-25.9c48.6,0,95.2,0,141.3,0c1.1,2.3,2.3,3.6,2.3,4.9c-0.5,99.3,2.3,198.8-2.6,297.9
		c-4.2,85.3-49.4,132.5-134.5,141.9C1629.4,4013.9,1572.2,4008.9,1514.1,4008.9z"/>
	<path class="st1" d="M2032.9,4009.9c-47.1,0-92.9,0-140.2,0c0-149.4,0-297.6,0-447.1c47.3,0,93.1,0,140.2,0
		C2032.9,3712.2,2032.9,3860.5,2032.9,4009.9z"/>
</g>
</svg>
