<svg xmlns="http://www.w3.org/2000/svg" width="423.871" height="301.282" viewBox="0 0 423.871 301.282">
  <g id="chat_healthcare_3" transform="translate(-1181.88 -366.318)">
    <rect id="Rectangle_3783" data-name="Rectangle 3783" width="340.752" height="292.914" rx="10" transform="translate(1265 374.685)" fill="#f4f4f8"/>
    <text id="Please_specify_the_department_to_follow_up_with_" data-name="Please specify the department to follow
up with!" transform="translate(1282 410.611)" fill="#143559" font-size="16" font-family="Roboto-Regular, Roboto"><tspan x="0" y="0">Please specify the department to follow</tspan><tspan x="0" y="21">up with!</tspan></text>
    <g id="Group_7288" data-name="Group 7288" transform="translate(1181.88 366.318)">
      <g id="Group_3099" data-name="Group 3099" transform="translate(0 0)">
        <g id="mujib">
          <path id="Rectangle_1555" data-name="Rectangle 1555" d="M385.513,1958.065h47.37a9.193,9.193,0,0,1,9.194,9.193h0a9.194,9.194,0,0,1-9.194,9.194h-47.37a9.194,9.194,0,0,1-9.194-9.194h0A9.194,9.194,0,0,1,385.513,1958.065Z" transform="translate(-376.319 -1931.118)" fill="#23517a"/>
          <rect id="Rectangle_1556" data-name="Rectangle 1556" width="1.58" height="6.896" rx="0.79" transform="translate(32.089 5.606)" fill="#23517a"/>
          <path id="Path_24127" data-name="Path 24127" d="M687.526,1437.839a25.218,25.218,0,1,0-21.2,24.895l3.81,2.362,6.466,4.009.237-7.6.1-3.13A25.179,25.179,0,0,0,687.526,1437.839Z" transform="translate(-629.43 -1401.7)" fill="#143559"/>
          <path id="Rectangle_1557" data-name="Rectangle 1557" d="M802.623,1989.592h24.66a8.268,8.268,0,0,1,8.267,8.268h0a8.267,8.267,0,0,1-8.267,8.267h-24.66a8.268,8.268,0,0,1-8.268-8.267h0A8.268,8.268,0,0,1,802.623,1989.592Z" transform="translate(-782.075 -1961.719)" fill="#fff"/>
          <path id="Path_24128" data-name="Path 24128" d="M1684.18,2136.313a3.74,3.74,0,0,1,3.74,3.74H1690a5.818,5.818,0,1,0-11.635,0h2.078A3.74,3.74,0,0,1,1684.18,2136.313Z" transform="translate(-1640.111 -2102.113)" fill="#143559"/>
          <path id="Path_24129" data-name="Path 24129" d="M915.671,2136.313a3.74,3.74,0,0,1,3.74,3.74h2.078a5.818,5.818,0,1,0-11.635,0h2.078A3.74,3.74,0,0,1,915.671,2136.313Z" transform="translate(-894.179 -2102.113)" fill="#143559"/>
          <ellipse id="Ellipse_648" data-name="Ellipse 648" cx="3.625" cy="3.625" rx="3.625" ry="3.625" transform="translate(29.254)" fill="#143559"/>
          <path id="Path_24130" data-name="Path 24130" d="M466.387,2073.339a10.383,10.383,0,0,1,0-12.347,20.261,20.261,0,0,0,0,12.347Z" transform="translate(-461.765 -2031.022)" fill="#fff"/>
          <path id="Path_24131" data-name="Path 24131" d="M2458.189,2073.339a10.386,10.386,0,0,0,0-12.347,20.276,20.276,0,0,1,0,12.347Z" transform="translate(-2397.027 -2031.022)" fill="#fff"/>
          <g id="Group_6159" data-name="Group 6159" transform="translate(30.516 37.049)">
            <path id="Path_24132" data-name="Path 24132" d="M1575.38,2321.563c.225,0,.446,0,.661,0a42.727,42.727,0,0,0,14.311-2.219c4.765-1.762,7.383-4.309,8.621-6.657a9.688,9.688,0,0,0-.739-10.753" transform="translate(-1570.67 -2301.93)" fill="none" stroke="#f8f1f1" stroke-miterlimit="10" stroke-width="2"/>
            <path id="Path_24133" data-name="Path 24133" d="M1417.735,2926.4c-1.484,0-2.688.563-2.688,1.259s1.2,1.259,2.688,1.259,2.689-.563,2.689-1.259S1419.219,2926.4,1417.735,2926.4Z" transform="translate(-1415.047 -2908.056)" fill="#fff"/>
          </g>
        </g>
      </g>
    </g>
    <g id="Group_7306" data-name="Group 7306" transform="translate(0.5 -31)">
      <g id="separator" transform="translate(1291.5 513.5)">
        <path id="Line" d="M0,1H286.7" transform="translate(0 0.5)" fill="none" stroke="#c1c7d0" stroke-miterlimit="10" stroke-width="1"/>
      </g>
      <text id="John_Smith" data-name="John Smith" transform="translate(1325.5 499.5)" fill="#383b41" font-size="12" font-family="SegoeUI, Segoe UI" letter-spacing="0.017em"><tspan x="0" y="0">Nephrology</tspan></text>
      <g id="form_checkbox-solo" data-name="form/checkbox-solo" transform="translate(1299.5 486.5)">
        <g id="container_sharp_border-fill" data-name="container/sharp/border-fill">
          <g id="colour_white" data-name="colour/white">
            <rect id="Rectangle" width="16" height="16" fill="#fff"/>
          </g>
          <g id="container_sharp_border" data-name="container/sharp/border">
            <g id="Rectangle-2" data-name="Rectangle" fill="none" stroke="#c1c7d0" stroke-miterlimit="10" stroke-width="1">
              <rect width="16" height="16" stroke="none"/>
              <rect x="0.5" y="0.5" width="15" height="15" fill="none"/>
            </g>
          </g>
        </g>
      </g>
      <g id="data-table_3_row-selected" data-name="data-table/3/row-selected" transform="translate(1291.5 557.5)">
        <g id="data-table_3_row-odd" data-name="data-table/3/row-odd">
          <g id="colour_grey-10" data-name="colour/grey-10">
            <rect id="Rectangle-3" data-name="Rectangle" width="286.7" height="41" fill="#ebecf0"/>
          </g>
          <g id="data-table_3_row" data-name="data-table/3/row" transform="translate(0 13)">
            <g id="separator-2" data-name="separator" transform="translate(0 27)">
              <path id="Line-2" data-name="Line" d="M0,1H286.7" transform="translate(0 0.5)" fill="none" stroke="#c1c7d0" stroke-miterlimit="10" stroke-width="1"/>
            </g>
            <g id="data-table_blocks_checkbox-text" data-name="data-table/blocks/checkbox-text" transform="translate(8)">
              <text id="John_Smith-2" data-name="John Smith" transform="translate(26 13)" fill="#383b41" stroke="#383b41" stroke-width="0.5" font-size="12" font-family="SegoeUI, Segoe UI" letter-spacing="0.017em"><tspan x="0" y="0">Psychiatry</tspan></text>
              <g id="form_checkbox-solo-2" data-name="form/checkbox-solo">
                <g id="colour_grey-50" data-name="colour/grey-50">
                  <rect id="colour_grey-50_background" data-name="colour/grey-50 background" width="16" height="16" fill="none"/>
                  <rect id="Rectangle_Copy" data-name="Rectangle Copy" width="16" height="16" fill="#c1c7d0"/>
                </g>
                <g id="icons_ok_black" data-name="icons/ok/black">
                  <path id="Path_3" data-name="Path 3" d="M0,4,3.333,7.333,10.667,0" transform="translate(2.667 4.667)" fill="none" stroke="#383b41" stroke-linecap="round" stroke-miterlimit="10" stroke-width="2"/>
                </g>
              </g>
            </g>
          </g>
        </g>
      </g>
      <g id="separator-3" data-name="separator" transform="translate(1291.5 639.5)">
        <path id="Line-3" data-name="Line" d="M0,1H286.7" transform="translate(0 0.5)" fill="none" stroke="#c1c7d0" stroke-miterlimit="10" stroke-width="1"/>
      </g>
      <g id="data-table_blocks_checkbox-text-2" data-name="data-table/blocks/checkbox-text" transform="translate(1299.5 612.5)">
        <text id="John_Smith-3" data-name="John Smith" transform="translate(26 13)" fill="#383b41" font-size="12" font-family="SegoeUI, Segoe UI" letter-spacing="0.017em"><tspan x="0" y="0">Pediatrics</tspan></text>
        <g id="form_checkbox-solo-3" data-name="form/checkbox-solo">
          <g id="container_sharp_border-fill-2" data-name="container/sharp/border-fill">
            <g id="colour_white-2" data-name="colour/white">
              <rect id="Rectangle-4" data-name="Rectangle" width="16" height="16" fill="#fff"/>
            </g>
            <g id="container_sharp_border-2" data-name="container/sharp/border">
              <g id="Rectangle-5" data-name="Rectangle" fill="none" stroke="#c1c7d0" stroke-miterlimit="10" stroke-width="1">
                <rect width="16" height="16" stroke="none"/>
                <rect x="0.5" y="0.5" width="15" height="15" fill="none"/>
              </g>
            </g>
          </g>
        </g>
      </g>
      <g id="separator-4" data-name="separator" transform="translate(1291.5 555.5)">
        <path id="Line-4" data-name="Line" d="M0,1H286.7" transform="translate(0 0.5)" fill="none" stroke="#c1c7d0" stroke-miterlimit="10" stroke-width="1"/>
      </g>
      <g id="data-table_blocks_checkbox-text-3" data-name="data-table/blocks/checkbox-text" transform="translate(1299.5 528.5)">
        <text id="John_Smith-4" data-name="John Smith" transform="translate(26 13)" fill="#383b41" font-size="12" font-family="SegoeUI, Segoe UI" letter-spacing="0.017em"><tspan x="0" y="0">Ophthalmology</tspan></text>
        <g id="form_checkbox-solo-4" data-name="form/checkbox-solo">
          <g id="container_sharp_border-fill-3" data-name="container/sharp/border-fill">
            <g id="colour_white-3" data-name="colour/white">
              <rect id="Rectangle-6" data-name="Rectangle" width="16" height="16" fill="#fff"/>
            </g>
            <g id="container_sharp_border-3" data-name="container/sharp/border">
              <g id="Rectangle-7" data-name="Rectangle" fill="none" stroke="#c1c7d0" stroke-miterlimit="10" stroke-width="1">
                <rect width="16" height="16" stroke="none"/>
                <rect x="0.5" y="0.5" width="15" height="15" fill="none"/>
              </g>
            </g>
          </g>
        </g>
      </g>
      <text id="John_Smith-5" data-name="John Smith" transform="translate(1325.5 667.5)" fill="#383b41" font-size="12" font-family="SegoeUI, Segoe UI" letter-spacing="0.017em"><tspan x="0" y="0">Surgery</tspan></text>
      <g id="form_checkbox-solo-5" data-name="form/checkbox-solo" transform="translate(1299.5 654.5)">
        <g id="container_sharp_border-fill-4" data-name="container/sharp/border-fill">
          <g id="colour_white-4" data-name="colour/white">
            <rect id="Rectangle-8" data-name="Rectangle" width="16" height="16" fill="#fff"/>
          </g>
          <g id="container_sharp_border-4" data-name="container/sharp/border">
            <g id="Rectangle-9" data-name="Rectangle" fill="none" stroke="#c1c7d0" stroke-miterlimit="10" stroke-width="1">
              <rect width="16" height="16" stroke="none"/>
              <rect x="0.5" y="0.5" width="15" height="15" fill="none"/>
            </g>
          </g>
        </g>
      </g>
    </g>
  </g>
</svg>
