<svg xmlns="http://www.w3.org/2000/svg" width="423.818" height="96.321" viewBox="0 0 423.818 96.321">
  <g id="chat_healthcare_1" transform="translate(-1181.88 -151.612)">
    <g id="Group_7259" data-name="Group 7259" transform="translate(1264.946 160.685)">
      <rect id="Rectangle_3783" data-name="Rectangle 3783" width="340.752" height="87.248" rx="10" transform="translate(0)" fill="#f4f4f8"/>
    </g>
    <text id="Welcome_to_our_hospital_Reservation_chatbot._What_is_the_full-name_of_the_patient_" data-name="Welcome to our hospital Reservation
chatbot. What is the full-name of the
patient?" transform="translate(1286 192.387)" fill="#143559" font-size="16" font-family="Roboto-Regular, Roboto"><tspan x="0" y="0">Welcome to our hospital Reservation</tspan><tspan x="0" y="21">chatbot. What is the full-name of the</tspan><tspan x="0" y="42">patient?</tspan></text>
    <g id="Group_7287" data-name="Group 7287" transform="translate(1181.88 151.612)">
      <g id="Group_3099" data-name="Group 3099">
        <g id="mujib">
          <path id="Rectangle_1555" data-name="Rectangle 1555" d="M385.513,1958.065h47.37a9.193,9.193,0,0,1,9.194,9.193h0a9.194,9.194,0,0,1-9.194,9.194h-47.37a9.194,9.194,0,0,1-9.194-9.194h0A9.194,9.194,0,0,1,385.513,1958.065Z" transform="translate(-376.319 -1931.118)" fill="#23517a"/>
          <rect id="Rectangle_1556" data-name="Rectangle 1556" width="1.58" height="6.896" rx="0.79" transform="translate(32.089 5.606)" fill="#23517a"/>
          <path id="Path_24127" data-name="Path 24127" d="M687.526,1437.839a25.218,25.218,0,1,0-21.2,24.895l3.81,2.362,6.466,4.009.237-7.6.1-3.13A25.179,25.179,0,0,0,687.526,1437.839Z" transform="translate(-629.43 -1401.7)" fill="#143559"/>
          <path id="Rectangle_1557" data-name="Rectangle 1557" d="M802.623,1989.592h24.66a8.268,8.268,0,0,1,8.267,8.268h0a8.267,8.267,0,0,1-8.267,8.267h-24.66a8.268,8.268,0,0,1-8.268-8.267h0A8.268,8.268,0,0,1,802.623,1989.592Z" transform="translate(-782.075 -1961.719)" fill="#fff"/>
          <path id="Path_24128" data-name="Path 24128" d="M1684.18,2136.313a3.74,3.74,0,0,1,3.74,3.74H1690a5.818,5.818,0,1,0-11.635,0h2.078A3.74,3.74,0,0,1,1684.18,2136.313Z" transform="translate(-1640.111 -2102.113)" fill="#143559"/>
          <path id="Path_24129" data-name="Path 24129" d="M915.671,2136.313a3.74,3.74,0,0,1,3.74,3.74h2.078a5.818,5.818,0,1,0-11.635,0h2.078A3.74,3.74,0,0,1,915.671,2136.313Z" transform="translate(-894.179 -2102.113)" fill="#143559"/>
          <ellipse id="Ellipse_648" data-name="Ellipse 648" cx="3.625" cy="3.625" rx="3.625" ry="3.625" transform="translate(29.254)" fill="#143559"/>
          <path id="Path_24130" data-name="Path 24130" d="M466.387,2073.339a10.383,10.383,0,0,1,0-12.347,20.261,20.261,0,0,0,0,12.347Z" transform="translate(-461.765 -2031.022)" fill="#fff"/>
          <path id="Path_24131" data-name="Path 24131" d="M2458.189,2073.339a10.386,10.386,0,0,0,0-12.347,20.276,20.276,0,0,1,0,12.347Z" transform="translate(-2397.027 -2031.022)" fill="#fff"/>
          <g id="Group_6159" data-name="Group 6159" transform="translate(30.516 37.049)">
            <path id="Path_24132" data-name="Path 24132" d="M1575.38,2321.563c.225,0,.446,0,.661,0a42.727,42.727,0,0,0,14.311-2.219c4.765-1.762,7.383-4.309,8.621-6.657a9.688,9.688,0,0,0-.739-10.753" transform="translate(-1570.67 -2301.93)" fill="none" stroke="#f8f1f1" stroke-miterlimit="10" stroke-width="2"/>
            <path id="Path_24133" data-name="Path 24133" d="M1417.735,2926.4c-1.484,0-2.688.563-2.688,1.259s1.2,1.259,2.688,1.259,2.689-.563,2.689-1.259S1419.219,2926.4,1417.735,2926.4Z" transform="translate(-1415.047 -2908.056)" fill="#fff"/>
          </g>
        </g>
      </g>
    </g>
  </g>
</svg>
