<svg xmlns="http://www.w3.org/2000/svg" width="650.408" height="650.353" viewBox="0 0 650.408 650.353">
  <g id="ai_background" transform="translate(244.379 -94.059)" opacity="0.2">
    <path id="Path_253" data-name="Path 253" d="M-19.683,416.914A890.077,890.077,0,0,1-105.83,341.39c-81.2-11.038-93.683-12.735-101.286-5.869-11.125-15.216-19.932-29.749-25.431-42.387l.14.32,2.4,5.368c5.459,11.859,13.746,25.3,24.042,39.32,5.453-6.921,21.591-4.636,99.14,6.351a879.844,879.844,0,0,0,84.249,73.735C40,465.968,90.111,488.325,116.953,484.158h0l4.716-.78C94.708,487.954,43.884,465.41-19.683,416.914Z" transform="translate(15.231 256.236)" fill="gray"/>
    <path id="Path_254" data-name="Path 254" d="M-37.076,409.354a850.764,850.764,0,0,1-78.595-68.433c-83.572-13.1-88.574-13.883-92.672-7.8a243.643,243.643,0,0,1-19.537-30.282l2.822,5.219a244.478,244.478,0,0,0,17.986,27.42c2.111-6.118,10.475-4.755,90.481,8.3a841.239,841.239,0,0,0,76.722,66.686c58.53,44.654,105.714,66.2,131.974,63.626l3.5-.364h0l1.292-.146C70.486,476.582,22.527,454.827-37.076,409.354Z" transform="translate(21.236 268.726)" fill="gray"/>
    <path id="Path_255" data-name="Path 255" d="M-55.907,400.178a809.854,809.854,0,0,1-71.116-61.492c-78-14.038-78-14.038-83.574-11.612-.078.531-.181,1.235-.256,1.766-4.032-5.336-7.717-10.585-10.985-15.66l1.761,2.708,2.726,4.082c2.438,3.586,5.075,7.248,7.884,10.949-.071-.364-.165-.849-.233-1.217,3.369-3.11,3.369-3.11,81.811,11.594a798.3,798.3,0,0,0,69.27,59.792c54.118,41.287,98.1,61.92,123.658,61.03h0l4.817-.229C44.1,463.177-.686,442.307-55.907,400.178Z" transform="translate(29.013 282.038)" fill="gray"/>
    <path id="Path_256" data-name="Path 256" d="M-139.436,336.745c-72.529-14.889-72.529-14.889-75.416-13.846.1.416.24.97.345,1.384l1.128,1.452c.009-.393.023-.915.032-1.306,3.28-.35,3.28-.35,73.088,14.665a754.148,754.148,0,0,0,61.993,53.137c49.711,37.925,90.431,57.535,115.07,58.082l4.787.055c-24.889-.21-66.425-20.083-117.232-58.846A766.279,766.279,0,0,1-139.436,336.745Z" transform="translate(38.005 294.044)" fill="gray"/>
    <path id="Path_257" data-name="Path 257" d="M-145.414,341.533c-66.967-15.779-66.967-15.779-67.308-15.747l1.137,1.4c1.548-.293,1.708-.325,16.968,3.847,24.232,6.624,30.327,8.126,48.419,12.584a708.5,708.5,0,0,0,54.921,46.747c45.084,34.394,82.348,52.865,105.894,54.8h0l5.009.352C-4.2,443.973-42.4,425.2-88.746,389.848A719.731,719.731,0,0,1-145.414,341.533Z" transform="translate(40.747 298.259)" fill="gray"/>
    <path id="Path_258" data-name="Path 258" d="M1.122,154.005A24.913,24.913,0,0,0-.211,150.5c-.837-1.917-1.866-4.046-2.516-5.306q-1.287-2.731-2.662-5.4,1.335,2.642,2.582,5.347C.757,153.779.958,153.9,1.122,154.005Z" transform="translate(307.612 58.866)" fill="gray"/>
    <path id="Path_259" data-name="Path 259" d="M1.944,154.495A28.214,28.214,0,0,0,.4,150.856c-.949-1.99-2.1-4.185-2.806-5.478q-1.448-2.823-2.982-5.585,1.5,2.741,2.9,5.539C1.628,154.309,1.751,154.385,1.944,154.495Z" transform="translate(307.612 58.866)" fill="gray"/>
    <path id="Path_260" data-name="Path 260" d="M2.737,154.938a35.372,35.372,0,0,0-1.747-3.76c-1.043-2.029-2.305-4.288-3.09-5.629q-1.6-2.909-3.289-5.757,1.65,2.827,3.213,5.716C2.451,154.783,2.536,154.829,2.737,154.938Z" transform="translate(307.612 58.866)" fill="gray"/>
    <path id="Path_261" data-name="Path 261" d="M3.5,155.332a41.07,41.07,0,0,0-1.946-3.868c-1.148-2.09-2.514-4.4-3.36-5.764q-1.746-2.981-3.584-5.908,1.8,2.906,3.511,5.871C3.252,155.208,3.284,155.224,3.5,155.332Z" transform="translate(307.612 58.866)" fill="gray"/>
    <path id="Path_262" data-name="Path 262" d="M4.228,155.677c-.4-.931-1.377-2.669-2.129-3.964h0c-1.235-2.118-2.71-4.478-3.623-5.88l-3.865-6.04q1.945,2.974,3.794,6.011C4.018,155.581,4.018,155.581,4.228,155.677Z" transform="translate(307.612 58.866)" fill="gray"/>
    <path id="Path_263" data-name="Path 263" d="M18.954,300.895c.7-2.706.544-3.952-.551-4.3-3.472.455-6.992,8.465-6.553,11.072.29,1.725,2.161,2.065,5.254-2.685,11.017.714,19.752-1.315,25.858-6.12A203.989,203.989,0,0,1,33.7,322.6l2.52-4.5a204.623,204.623,0,0,0,8.826-23.59C38.959,299.5,30.14,301.618,18.954,300.895Z" transform="translate(329.753 258.003)" fill="gray"/>
    <path id="Path_264" data-name="Path 264" d="M21.384,306.789Z" transform="translate(342.069 273.812)" fill="gray"/>
    <path id="Path_265" data-name="Path 265" d="M15.813,307.4c.842-2.649.73-3.868-.384-4.211-3.653.43-7.509,8.17-7.175,10.793.217,1.693,2.111,2.036,5.487-2.591,10.294.666,18.636-1.015,24.751-5.068-2.811,9.343-2.811,9.343-11.07,24.255l2.829-4.368c4.641-7.33,4.641-7.33,10.61-24.136C34.737,306.312,26.293,308.075,15.813,307.4Z" transform="translate(325.147 267.743)" fill="gray"/>
    <path id="Path_266" data-name="Path 266" d="M12.3,313.749c.967-2.578.908-3.769-.21-4.11-3.678.4-8.037,8.021-7.8,10.509.16,1.64,2.086,1.978,5.718-2.516,9.512.613,17.382-.741,23.4-4.085-3.6,10.018-3.6,10.018-13.023,24.713l3.156-4.238c5.6-7.808,5.732-8.124,12.515-24.6C30,312.942,22.008,314.376,12.3,313.749Z" transform="translate(320.057 277.203)" fill="gray"/>
    <path id="Path_267" data-name="Path 267" d="M20.183,163.707q-.8-1.341-1.681-2.765Z" transform="translate(338.363 86.087)" fill="gray"/>
    <path id="Path_268" data-name="Path 268" d="M-8.364,129.293l-1.377-1.185-.021-.007c.919,3.712,4.556,13,10,26.741C-8.565,131.658-8.418,129.938-8.364,129.293Z" transform="translate(301.984 43.817)" fill="gray"/>
    <path id="Path_269" data-name="Path 269" d="M-6.607,131.22l.99.176-1.322-1.187L-7,130.157c-.217.043-.5.1-.72.149.119,4.414,1.045,7.845,5.322,21.89C-7.156,136.026-6.863,133.473-6.607,131.22Z" transform="translate(304.617 46.463)" fill="gray"/>
    <path id="Path_270" data-name="Path 270" d="M-5.389,141.338c.133-1.038.249-1.939.355-2.745C-5.147,139.357-5.259,140.219-5.389,141.338Z" transform="translate(307.612 57.321)" fill="gray"/>
    <path id="Path_271" data-name="Path 271" d="M64.858,220.229v0c-3.088-10.02-5.846-15.328-11.866-25.913l-2.058-3.385c7.952,13.291,10.173,20.223,11.98,25.863,1.535,5.567,1.814,10.029.974,13.4-25.874-40.91-53.043-71.889-69.277-90.4,38.037,43.43,55.385,69.5,71.2,94.543C66.747,230.819,66.48,226.121,64.858,220.229Z" transform="translate(307.612 58.866)" fill="gray"/>
    <path id="Path_272" data-name="Path 272" d="M56.711,206.6c-2.948-10.7-10.674-24.424-21.412-39.012l-1-1.352h0c-1.773-2.383-4.213-5.5-6.027-7.852,20.008,25.383,24.385,39.041,26.254,44.876,1.2,4.341,1.493,7.888.983,10.653C31.994,180.568,10.388,157-5.389,139.793c35.037,38.25,49.94,59.433,63.091,78.124C58.285,215,57.987,211.232,56.711,206.6Z" transform="translate(307.612 58.866)" fill="gray"/>
    <path id="Path_273" data-name="Path 273" d="M48.838,203.562c-5.055-18.357-27.13-47.474-53.107-71.423a4.417,4.417,0,0,0-.892-.24c-1.834,2.431-1.507,5.169.981,18.055-2.164-11.845-1.6-13.849-.812-16.621l1.452-.327c24.456,22.62,45.191,50.022,49.958,67.324a21.238,21.238,0,0,1,.9,8.1c-18.889-24.1-32.656-38.8-51.5-58.473,24.671,25.774,36.109,39.48,53.947,62.322A22.061,22.061,0,0,0,48.838,203.562Z" transform="translate(306.403 48.705)" fill="gray"/>
    <path id="Path_274" data-name="Path 274" d="M37.733,188.649h0c-4.773-15.065-19.2-34.627-40.617-55.09h0c-3.049,1.228-2.829,5.313-2.344,14.258-.537-10.48.556-11.433,2.742-13.334,18.441,17.286,33.948,37.928,37.562,51.053a17.418,17.418,0,0,1,.746,5.75C19.683,172.712,9.233,162.272-5.228,147.817c22.021,22.014,29.282,30.414,43.751,47.145A18.39,18.39,0,0,0,37.733,188.649Z" transform="translate(307.451 50.842)" fill="gray"/>
    <path id="Path_275" data-name="Path 275" d="M27.18,178.415a14.1,14.1,0,0,0-.592-4.156c-2.765-10.04-14.5-25.753-28.546-39.048-2.038,1.843-2.4,2.694-3.076,7.735.473-3.149.993-3.89,3.136-6.756,12.6,11.966,23.1,26.06,25.591,35.085a13.524,13.524,0,0,1,.54,3.657c-10.926-11.369-12.337-12.719-29.621-29.241C9.72,160.138,12.387,162.929,27.18,178.415Z" transform="translate(307.612 52.968)" fill="gray"/>
    <path id="Path_276" data-name="Path 276" d="M14.653,160.273c-.823-2.838-4.121-10.791-16.9-23.317a27.119,27.119,0,0,0-3.145,6.489,33.866,33.866,0,0,1,2.85-5.45c3.408,3.3,11.589,11.781,14.032,19.4a7.648,7.648,0,0,1,.3,1.843c-5.1-4.8-12.012-11.077-17.186-15.8C.8,149.1,8.935,156.772,15.017,162.544A9.227,9.227,0,0,0,14.653,160.273Z" transform="translate(307.612 55.214)" fill="gray"/>
    <path id="Path_277" data-name="Path 277" d="M1.74,146.7c-.56-2.033-2.868-5.174-5.677-7.9l-1.452,2.28.81-1.2a11.413,11.413,0,0,1,2.953,4.117c.023.105.048.245.062.35l-3.824-3.268,7.252,6.315A3.222,3.222,0,0,0,1.74,146.7Z" transform="translate(307.612 57.582)" fill="gray"/>
    <path id="Path_278" data-name="Path 278" d="M-43.39,631.426c6.6-16.707,7.987-21.565,12.371-43.314q3.194-3.033,6.347-6.175c85.246-84.93,127.149-207.722,117-316.077-6.573-19.354-6.871-20.2-22.334-64.746A189.746,189.746,0,0,1,52.866,189.36,274.621,274.621,0,0,1,6.09,143.686L7.215,142c-4.677-1.546-6.871.329-8.179,1.448a6.871,6.871,0,0,0,3.954,1.235,320.671,320.671,0,0,0,49.594,47.689A200.623,200.623,0,0,0,70.2,204.5c16.513,48.883,16.513,48.883,21.064,62.532C99.988,374.581,57.516,496.263-27.28,580.743q-3.829,3.818-7.719,7.477c-3.671,22.331-8.353,34.028-12.883,45.335,21.918,6.605,38.822,6.626,49.452-.064l4.073-2.614C-4.852,637.711-21.614,637.851-43.39,631.426Z" transform="translate(252.918 60.958)" fill="gray"/>
    <path id="Path_279" data-name="Path 279" d="M-51.235,655.5c8.3-18.16,10.164-27.368,14.34-51.319q5.976-5.472,11.847-11.317C58.389,509.739,102.524,391.393,98.021,286.313c-5.78-18.565-11.648-37.1-17.46-55.651-5.873-3.621-12.19-7.982-18.864-13.073C29.969,193.383-.852,159.528-16.862,132.023l2.125-.931c-.043-.048-5.432-3.975-10.864-.9a24.065,24.065,0,0,0,4.359,1.519c17.4,28.6,49.473,63.825,82.481,89.011,6.781,5.171,13.208,9.62,19.194,13.334q8.141,26.66,16.332,53.3C99.885,391.59,55.212,508.819-27.776,591.5Q-34.319,598.017-41,604.078c-4.567,28.85-7.021,35.318-14.827,53.3,22.428,7.319,39.858,7.989,51,1.875L-.6,656.893C-11.622,663.153-28.927,662.645-51.235,655.5Z" transform="translate(242.69 44.995)" fill="gray"/>
    <path id="Path_280" data-name="Path 280" d="M-59.25,643.124c10.187-19.242,12.911-37.735,16.063-59.145q8.779-7.771,17.364-16.314C55.8,486.345,102.039,372.48,103,270.858c-8.332-29.186-8.332-29.186-13.114-46.1-6.26-3.952-12.934-8.606-19.953-13.961-23.658-18.05-46.886-40.727-64.7-63.781.156-.615.361-1.434.515-2.047-3.76-1.823-6.4-.322-8.574,1.226.053.647.123,1.509.176,2.154a12.71,12.71,0,0,0,4.117.441,438.786,438.786,0,0,0,67.839,65.236c7.067,5.391,13.8,10.1,20.124,14.116,3.508,12.774,4.991,18.089,12.113,43.625C99.246,372.5,52.5,485.252-28.664,566.118q-9.27,9.235-18.775,17.57c-3.984,33.223-8.833,44.837-16.415,61.037,22.853,8,40.741,9.3,52.352,3.787l4.288-2.077C-18.713,652.105-36.5,650.955-59.25,643.124Z" transform="translate(232.36 64.45)" fill="gray"/>
    <path id="Path_281" data-name="Path 281" d="M-67.306,669.681c10.422-20.092,13.634-34.95,17.453-66.711q11.589-9.946,22.906-21.209C52.867,502.244,101.059,392.844,107.268,294.81c-2.8-10.786-6.518-25.177-9.288-35.974-6.452-4.165-13.277-8.977-20.413-14.42C35.807,212.556-4.762,168-26.04,131.69c.613-.494,1.432-1.15,2.045-1.644-1.471-1.631-4.837-2.2-10-1.686-.4.6-.935,1.4-1.338,2a21.01,21.01,0,0,0,4.734,1.5C-7.948,169.1,33.8,214.951,76.767,247.734Q87.467,255.9,97.2,262.2c2.5,10.015,5.866,23.363,8.4,33.369C98.12,392.688,49.463,500.977-29.9,580.041q-11.983,11.942-24.282,22.407c-3.849,34.824-7.168,47.641-17.76,68.577,23.093,8.6,41.31,10.557,53.338,5.72l4.41-1.823C-26.117,679.932-44.263,678.138-67.306,669.681Z" transform="translate(221.952 43.915)" fill="gray"/>
    <path id="Path_282" data-name="Path 282" d="M-75.424,649.192c13.741-22.755,16.188-48.874,18.553-74.133q14.347-11.99,28.388-25.957c78.007-77.714,128-182.669,139.238-276.988-1.791-7.6-4.144-17.75-5.915-25.36q-9.671-6.385-20.25-14.441c-29.925-22.83-59.3-51.511-81.715-81.143-.009-.647-.023-1.512-.032-2.159-.046-.041-5.288-3.385-9.633,2.276.215.629.5,1.466.72,2.1a13.109,13.109,0,0,0,4.62.524c24.285,29,54.4,58.4,85.077,81.808q10.47,7.987,20.115,14.377c1.523,6.793,3.6,15.843,5.146,22.631C96.433,366.1,46.011,469.945-31.541,547.208q-14.694,14.642-29.753,27.13c-3.6,48.256-10.969,61.707-18.773,75.949,23.217,9.155,41.672,11.729,54.05,7.577l4.485-1.551C-33.83,660.637-52.233,658.215-75.424,649.192Z" transform="translate(211.491 69.421)" fill="gray"/>
    <path id="Path_283" data-name="Path 283" d="M-83.546,678.192c12.531-21.22,16.319-37.182,19.3-81.324q17.044-13.936,33.813-30.606C45.764,490.347,97.4,389.814,113.413,299.3L110.4,285.031q-9.356-6.309-19.459-14C39.751,231.975-9.974,177.358-35.59,132.516l1.258-2.063c-.039-.043-4.846-3.952-11.758-.354.162.663.377,1.548.54,2.212a21.361,21.361,0,0,0,4.6,1.125c27.587,45.34,78.423,101.176,130.751,141.1q9.925,7.572,19.178,13.833l2.356,11.374C94.171,389.295,42.15,488.73-33.593,564.194a472.36,472.36,0,0,1-35.16,31.757c-2.262,54.237-11.378,69.565-19.42,83.089,23.221,9.649,41.818,12.81,54.482,9.347l1.654-.457h0l2.914-.83C-41.724,690.744-60.3,687.729-83.546,678.192Z" transform="translate(201.058 44.431)" fill="gray"/>
    <path id="Path_284" data-name="Path 284" d="M51.937,223.351c-12.536-23.07-17.3-30.59-34.014-55.506a8,8,0,0,1-2.985.967c-1.942-3.3-2.324-3.63-2.69-3.95.011.1,4.725,11.3,6.427,11.772a22.2,22.2,0,0,0-1.578-3.8,8.633,8.633,0,0,0,3.051-.958c17.945,27.247,22,34.577,33.31,55.792,1.569-4.373,1.391-10.477-.771-18.331-1.194-4.263-1.327-4.593-4.75-13.007h0l-2.591-5.722A97.389,97.389,0,0,1,51.1,205.77C53.169,213.265,53.373,219.117,51.937,223.351Z" transform="translate(330.313 91.133)" fill="gray"/>
    <path id="Path_285" data-name="Path 285" d="M54.447,240.115c-10-23.587-14.045-31.437-28.493-57.647a14.677,14.677,0,0,1-5.206.929c-1.576-3.476-2-3.824-2.456-4.19-.494,1.752,3.106,10.754,4.517,12.481l.419-.178a13.744,13.744,0,0,0-.862-3.906,15.474,15.474,0,0,0,5.222-.892C43.1,215.382,46.4,222.922,55.424,244.648c3.508-8.071,2.424-13.963.034-24.534q-.539-1.873-1.109-3.742C57.256,226.929,57.153,234.829,54.447,240.115Z" transform="translate(338.033 109.595)" fill="gray"/>
    <path id="Path_286" data-name="Path 286" d="M27.136,190.111a15.705,15.705,0,0,1-2.681.595c-1.461-3.5-1.891-3.82-2.344-4.163-.464.508,2.022,10.818,4.325,12.819.233-.407.455-.794-.512-4.387a16.5,16.5,0,0,0,2.546-.544c14.331,29.31,17.261,36.946,25.218,58.907,3.41-5.311,4.06-13.432,1.51-24.408l-1.109-4.8C56.811,235.213,56.3,243.415,53,248.785,44.182,224.926,40.486,216.923,27.136,190.111Z" transform="translate(342.935 119.039)" fill="gray"/>
    <path id="Path_287" data-name="Path 287" d="M35.619,200.823c-.11-.409-.229-.823-.35-1.24l-1.61-5.391q.46,1.465.851,2.889Q35.079,198.948,35.619,200.823Z" transform="translate(357.872 128.886)" fill="gray"/>
    <path id="Path_288" data-name="Path 288" d="M55.12,212.928c-.224-.606-.441-1.217-.67-1.823,2.88,10.976,2.125,15.113.54,20.623C43.741,208.384,39.339,200.692,23.765,175.1a13.4,13.4,0,0,1-6.962.961c-1.665-3.408-2.079-3.778-2.516-4.169-.2,1.013,3.268,10.866,5.274,12.328.014-.672.023-1.157-1.009-4.035a14.215,14.215,0,0,0,7.143-.938c16.724,27.983,20.392,35.421,30.54,56.9,2.651-6.765,1.558-12.536-.444-21.4l0,0c-.638-2.273-1.695-5.24-2.436-7.481L51.465,202.2a92.291,92.291,0,0,1,2.985,8.9C54.678,211.712,54.9,212.322,55.12,212.928Z" transform="translate(332.928 100.185)" fill="gray"/>
    <path id="Path_289" data-name="Path 289" d="M-65.915,130.463q.6,2.172,1.363,4.451c31.814,12.1,31.814,12.1,102.027,39.789,7.541,12.458,20.628,27.441,34.8,39.529a107.133,107.133,0,0,0,2.79-24.863,103.5,103.5,0,0,1-2.845,22.11C59.342,200.4,47.5,186.777,40.7,175.46c-57.883-23.5-68.275-27.654-101.089-40.423q-.652-1.969-1.171-3.861c-5.137-18.649.229-28.031,13.265-28.438,42.584,13.124,68.426,31.951,83.867,43.2.613.22,1.246.462,1.894.723a19.8,19.8,0,0,0,3.472,2.651c-.05-.055-5.555-5.766-8.09-6.756.521.494,1.228,1.141,1.763,1.622q-.923-.374-1.8-.693C.02,118.5-32.528,107.718-51.975,101.277-65.591,101.545-71.231,111.169-65.915,130.463Z" transform="translate(227.159 9.291)" fill="gray"/>
    <path id="Path_290" data-name="Path 290" d="M43.724,175.891c-50.841-23.2-73.488-32.848-97.462-43.064q-.271-.885-.51-1.757c-4.446-16.14-.1-24.523,10.745-25.385,41.541,15.1,65.794,35.245,80.285,47.284a41.814,41.814,0,0,1,5.988,2.605c1.846,1.956,1.846,1.956,2.63,2.413-.043-.057-4.357-5.583-6.422-6.605.425.5,1,1.157,1.441,1.647a46.114,46.114,0,0,0-6.383-2.793C3.425,123.6-28.238,111.321-47.155,103.984c-11.378.764-15.966,9.4-11.349,26.163q.305,1.1.656,2.241c23.082,9.613,44.885,18.693,98.39,42.4,4.709,7.977,12.954,17.613,22.03,25.625a93.062,93.062,0,0,0,2.692-14.526,90.209,90.209,0,0,1-2.532,12.245C54.879,191.142,47.775,182.8,43.724,175.891Z" transform="translate(236.958 12.775)" fill="gray"/>
    <path id="Path_291" data-name="Path 291" d="M46.687,177.155C6.2,156.336-17.689,145.044-47,131.362l-.025-.082c-3.774-13.7-.336-21.046,8.494-22.213,40.455,17.153,61.361,37.01,76.626,51.511.505.156,1.034.348,1.59.572a31.894,31.894,0,0,0,2.82,3.067c-.041-.059-4.8-6.418-7.559-8.606.467.608.661.86,2.157,2.587q-.906-.367-1.729-.629c-28.44-28.349-59.186-42.182-77.559-50.447-9.318,1.1-12.968,8.707-9.03,23.015.041.153.085.306.128.46,28.925,13.194,52.648,24.152,94.646,45.1A55.957,55.957,0,0,0,53.882,188q1.04-3.235,1.736-6.157-.587,2.1-1.363,4.38A41.276,41.276,0,0,1,46.687,177.155Z" transform="translate(246.605 16.813)" fill="gray"/>
    <path id="Path_292" data-name="Path 292" d="M-4.931,140.466h0l.206.3c-.389-.581-.771-1.164-1.18-1.729C-5.6,139.524-5.258,139.991-4.931,140.466Z" transform="translate(306.948 57.893)" fill="gray"/>
    <path id="Path_293" data-name="Path 293" d="M-31.836,114.673c-5.372,1.272-7.559,6.123-5.635,14.654C-5.65,146.7,10.309,155.9,36.79,172.126c-23.448-14.731-39.208-24.01-70.263-41.372-1.72-7.884.309-12.408,5.26-13.659,35.007,20.939,46.934,33.909,65,55.031C13.777,144.751,1.591,134.55-31.836,114.673Z" transform="translate(265.433 26.533)" fill="gray"/>
    <path id="Path_294" data-name="Path 294" d="M-26.495,119.071c-3.778,1.148-5.366,4.734-4.185,10.816C-1.167,147.53,6.3,152.376,27.658,166.465,3.842,150.377-6.384,144.117-26.753,131.643c-1.027-5.528.425-8.819,3.847-9.922C.285,137.565,7.375,143.838,27.658,166.465,6.3,142.212-.63,136.652-26.495,119.071Z" transform="translate(274.565 32.194)" fill="gray"/>
    <path id="Path_295" data-name="Path 295" d="M-135.511,378.231c-.144.146-.341.339-.485.485.579,2.113,5.19,3.568,6.377,3.769,1.509.259,1.754.007,2.2-.451-.281-.851-.281-.851-1.123-1.585a12.816,12.816,0,0,0-4.89-2.17c-9.684-7.612-19.292-15.72-28.694-24.166-31.05-11.465-38.508-16.332-43.954-20.7l1.189,1.267c7.609,7.15,29.163,15.55,42.044,20.568C-153.886,363.275-144.733,370.983-135.511,378.231Z" transform="translate(49.289 308.076)" fill="gray"/>
    <path id="Path_296" data-name="Path 296" d="M-156.749,370.357l-.229.274c1.1,1.674,5.3,3.3,5.345,3.312,1.327.473,1.567.384,2,.217-.178-.544-.178-.544-.876-1.137A17.174,17.174,0,0,0-154.7,370.8c-6.267-4.922-12.495-10.1-18.636-15.461-18.187-9.036-21.4-11.7-28.445-17.517l1.3,1.267c7.241,6.571,15.3,10.843,26.458,16.756C-168.253,360.87-162.4,365.721-156.749,370.357Z" transform="translate(54.831 313.753)" fill="gray"/>
    <path id="Path_297" data-name="Path 297" d="M-146.851,378.459a42.708,42.708,0,0,0-3.755-2.072q-4.81-3.4-9.851-7.246c-6.242-4.762-12.451-9.816-18.576-15.093-11.621-6.973-13.716-8.231-20.447-14.022l.826.771.551.51c8.2,6.644,9.249,7.5,18.393,12.927,5.752,4.94,11.582,9.675,17.439,14.144q4.882,3.726,9.551,7.024c-.215-.087-.505-.188-.725-.254.522.828,4.895,3.076,4.938,3.1h0c1.921.972,2.248,1,2.626,1.025A2.856,2.856,0,0,0-146.851,378.459Z" transform="translate(57.791 316.592)" fill="gray"/>
    <path id="Path_298" data-name="Path 298" d="M50.87,307.784c-5.313,4.263-12.954,6.068-22.622,5.443.05-1.061.206-4.291-1.212-4.556-.261-.05-6.973,9.823-2.717,13.137.931-.313,1.734-.581,3.044-4.2,9.965.645,17.8-1.267,23.176-5.766,8.195-29.477,8.805-41.875,10.139-69.042a79.424,79.424,0,0,0,.885-10.983l-.3-5.064a36.546,36.546,0,0,1-.919,12.2C59.833,270.547,57.024,282.216,50.87,307.784Z" transform="translate(344.034 170.795)" fill="gray"/>
    <path id="Path_299" data-name="Path 299" d="M74.206,249.464c-1.7,32.082-4.961,43.84-12.113,69.607-8.732,8.279-24.594,9.105-46.008,2.639A405.72,405.72,0,0,0,30.81,243.284c1.688-2.317,2.642-10.015-.309-12.794-3.277.924-3.186,9.821-1.583,12.632a383.345,383.345,0,0,1-16.042,82.332c22.832,7.239,39.645,6.509,48.638-2.379,9.348-29.678,10.42-42.262,12.769-69.833a37.852,37.852,0,0,0,.618-6.9l0-4.776A37.563,37.563,0,0,1,74.206,249.464Z" transform="translate(331.123 175.605)" fill="gray"/>
    <path id="Path_300" data-name="Path 300" d="M13.5,307.908c.149-1.091.6-4.414-1.381-5.265-2.937-1.262-7.287,6.594-6.049,10.919.485,1.69,2.639,3.678,5.887-1.429,26.86,9.329,46.26,8.62,55.692-2.392,8.59-24.475,11.159-37.468,13.645-56.757-2.669,20.438-6.342,32.191-12.829,52.895C59,316.473,39.88,317.067,13.5,307.908Z" transform="translate(322.087 204.555)" fill="gray"/>
    <path id="Path_301" data-name="Path 301" d="M39.142,251.941c-.1.8-.2,1.6-.3,2.381C38.943,253.542,39.043,252.744,39.142,251.941Z" transform="translate(364.543 203.215)" fill="gray"/>
    <path id="Path_302" data-name="Path 302" d="M38.973,262.544c.446-3.547.894-7.3,1.384-11.4q.168-1.283.252-2.644l.281-4.8c-.059,1.3-.178,2.552-.35,3.746C40.05,253.044,39.531,258,38.973,262.544Z" transform="translate(364.712 192.612)" fill="gray"/>
    <path id="Path_303" data-name="Path 303" d="M38.215,259.949l.151-1.034c-.094.588-.192,1.139-.288,1.713C38.126,260.4,38.169,260.184,38.215,259.949Z" transform="translate(363.56 212.191)" fill="gray"/>
    <path id="Path_304" data-name="Path 304" d="M40.3,259.664c-1.642,8.1-2.861,14.091-3.954,19.038C37.829,272.888,39.121,266.74,40.3,259.664Z" transform="translate(361.334 213.156)" fill="gray"/>
    <path id="Path_305" data-name="Path 305" d="M38.2,264.522c.5-3.117.983-6.418,1.452-9.963Z" transform="translate(363.722 206.585)" fill="gray"/>
    <path id="Path_306" data-name="Path 306" d="M22.681,311.88c.16-.86.588-3.147-.13-4.016-2.241-2.713-7.049,7.566-6.331,11.029.286,1.388,1.919,2.605,4.913-2.809,13.652.883,23.679-2.585,29.383-10.475,6.884-18.668,8.934-24.5,11.836-37.621-2.774,10.912-6.2,20.763-10.768,33.868C45.87,309.424,36.017,312.743,22.681,311.88Z" transform="translate(335.332 223.87)" fill="gray"/>
    <path id="Path_307" data-name="Path 307" d="M-12.753,387.162c19.731-19.539,24.923-30.9,32.532-59.825a114.68,114.68,0,0,1-19.8-4.028c1.13-2.587,1.011-3.925-.4-4.615-4.275-.542-8.993,5.626-9.318,8.657-.284,2.655,2.369,3.861,7.015-.373a117.111,117.111,0,0,0,19.088,3.957c-8.174,30.179-14.052,40.7-33.111,59.269a26.182,26.182,0,0,0,2.2-1.512h0l3.858-3Q-11.68,386.47-12.753,387.162Z" transform="translate(292.985 289.093)" fill="gray"/>
    <path id="Path_308" data-name="Path 308" d="M-28.62,135.07c11.166,40.553,54.365,101.357,108.561,156.872C24.757,343.6-43.1,409.111-108.224,473.991c-12.765,12.717-24.925,24.914-37.344,36.141-2.111-.213-7.051-.709-7.934,4.686-.849,5.19,4.659,10,9.938,6.974,3.371-2.594,2.621-5.651,2.02-8.108q17.294-17.37,36.471-36.48c66.212-65.965,134.838-133.01,189.857-185.727C30.443,236.243-13.058,175.337-24.2,134.889c-8.085-29.36,2.434-42.3,25.911-39.4l-4.938-.537C-26.422,92.46-36.726,105.641-28.62,135.07Z" transform="translate(116.859 0.766)" fill="gray"/>
    <path id="Path_309" data-name="Path 309" d="M-90.039,342.31c2.964,4.7,7.136,3.559,8.092,3,1.233-.723,3.881-3.824.025-8.405-4.135-3.536-7.616-2.031-8.789,1.18-82.353-8.449-101.921-10.452-116.1-2.541-15.649-22.107-26.99-42.781-31.869-59.4l1.6,5.336c5.08,16.145,16.122,35.99,31.162,57.144C-199.982,334.66-191.014,328.677-90.039,342.31Z" transform="translate(7.335 234.361)" fill="gray"/>
    <path id="Path_310" data-name="Path 310" d="M-102.426,337.349c2.891,4.673,6.692,3.675,7.8,2.955.046-.027,4.371-3.216-.027-8.691-4.021-3.573-7.353-1.958-8.449,1.375-69.012-6.065-88.249-6.779-104.078.8-16.332-23.5-28.031-45.37-32.859-62.9q-.48-1.743-.86-3.394l1.13,4.862c.183.75.384,1.514.6,2.292,4.785,17.378,16.458,39.108,32.747,62.436C-200.053,333.552-188.182,326.972-102.426,337.349Z" transform="translate(4.474 223.242)" fill="gray"/>
    <path id="Path_311" data-name="Path 311" d="M-56.358,136.968C-45.137,177.7-3.408,237.73,49.834,293.978-5.407,341.522-69.93,401.171-130.689,461.7a25.526,25.526,0,0,1-6.447,5.109c-6.7-1.018-8.211,3.705-8.515,5.178a6.666,6.666,0,0,0,10.052,7.083c2.719-1.8,3.559-4.7,2.491-8.636q2.731-2.731,5.5-5.491C-65.758,403.328-.362,342.252,54.955,293.7,1.418,237.572-40.718,177.3-51.932,136.575c-8.135-29.543,1.482-43.414,23.75-42.145l-3.707-.183-1.233-.053C-55.1,93.307-64.5,107.391-56.358,136.968Z" transform="translate(126.894 0.123)" fill="gray"/>
    <path id="Path_312" data-name="Path 312" d="M-207.812,331.75c8.291-3.291,23.722-9.421,84.434-4.279,2.692,4.872,6.278,3.621,7.323,2.8.041-.034,4.069-3.6-.043-9.158-3.735-3.591-6.96-1.9-7.918,1.8-51.161-2.424-66.908-1.464-84.247,5.139-16.257-24.305-27.892-46.829-32.951-65.195a77,77,0,0,1-2.493-12.847l.533,5.077a77.721,77.721,0,0,0,2.347,11.616C-235.788,285.005-224.117,307.495-207.812,331.75Z" transform="translate(0.866 200.732)" fill="gray"/>
    <path id="Path_313" data-name="Path 313" d="M-78.237,141.779C-67.216,181.8-29.492,238.71,20.128,294.516A1634.438,1634.438,0,0,0-141.25,435.328a25.952,25.952,0,0,1-6.409,5.109c-6.493-1.043-8.067,3.714-8.4,5.2-1.2,5.43,4.165,10.468,9.62,7.168,2.7-1.823,3.577-4.75,2.614-8.7q2.724-2.738,5.5-5.5A1749,1749,0,0,1,25.695,294.55c-50.182-56-88.473-113.4-99.543-153.586-8.275-30.051.057-45.441,20.607-46.628l-4.812.336C-78.354,96.16-86.517,111.712-78.237,141.779Z" transform="translate(113.467 0.358)" fill="gray"/>
    <path id="Path_314" data-name="Path 314" d="M-209.4,322.638c15.639-5.375,28.55-6.523,57.078-7.06,1.789,4.586,5.1,4.741,6.8,3.088.039-.037,3.646-3.957-.066-9.551-3.392-3.559-6.18-1.452-7.083,2.333-31.773.576-41.139,2.129-56.838,7.166-15.518-24.191-26.643-46.545-31.752-65.1a73.537,73.537,0,0,1-3.046-20.36l-.064,4.849a74.1,74.1,0,0,0,3.014,19.4C-236.253,275.967-225.041,298.385-209.4,322.638Z" transform="translate(0 179.034)" fill="gray"/>
    <path id="Path_315" data-name="Path 315" d="M-210.278,310.941c13.551-3.909,17.949-4.494,34.392-6.345,1.256,4.16,4.233,4.883,6.059,2.756a8.887,8.887,0,0,0,.089-9.86c-3.234-3.717-5.741-.473-6.418,2.889-18.711,2.072-21.323,2.795-33.87,6.274-14.26-23.26-24.525-44.734-29.522-62.878-3.017-10.951-3.936-20.054-2.955-27.329l-.62,4.709c-.858,7.111.082,15.946,3,26.522C-235.11,265.9-224.719,287.525-210.278,310.941Z" transform="translate(1.224 157.531)" fill="gray"/>
    <path id="Path_316" data-name="Path 316" d="M-207.036,308.418c22.38-4.9,39.014-6.072,74.647-6.909a593.282,593.282,0,0,1,45.91-51.122,546.394,546.394,0,0,1,57.547-50.257,7.473,7.473,0,0,0,5.677-.679c.062-.037,6.114-3.842,2.852-9.517a11.322,11.322,0,0,0-.807-.849c-3.042-2.525-11.632-.865-10.873,7.518a690.211,690.211,0,0,0-56.792,50.566,580.5,580.5,0,0,0-44.793,49.876c-38.261.876-50.479,2.331-72.616,6.887-13.741-23.139-23.674-44.505-28.706-62.773-4.057-14.738-4.634-26.4-2.122-35.032l-1.3,4.547c-2.349,8.524-1.729,19.958,2.232,34.341C-231.108,263.434-221.015,285.027-207.036,308.418Z" transform="translate(5.914 120.919)" fill="gray"/>
    <path id="Path_317" data-name="Path 317" d="M-206.547,290.327c21.5-4.981,42.317-5.8,66.416-6.752a545.926,545.926,0,0,1,41.415-46.045q10.567-10.525,21.648-20.548a6.06,6.06,0,0,0,6.285-.512c3.982-2.667,4.949-8.259,1.88-10.878-3.673-3.138-11.648.675-10.432,8.225q-11.078,10-21.657,20.534a535.182,535.182,0,0,0-40.292,44.759c-35.515,1.1-47.591,3.435-64.3,6.669-12.758-22.048-22.021-42.426-26.862-60.008-4.451-16.159-4.826-28.722-1.617-37.738l-1.571,4.49c-3.028,8.927-2.6,21.268,1.754,37.072C-228.99,247.359-219.556,267.993-206.547,290.327Z" transform="translate(8.741 120.96)" fill="gray"/>
    <path id="Path_318" data-name="Path 318" d="M-203.174,264.439c14.427-2.607,18.295-2.957,39.769-4.888q12.735-15.243,27.7-30.179a500.631,500.631,0,0,1,57.7-49.247,6.216,6.216,0,0,0,6.159-.224h0c.064-.034,6.214-3.577,3.8-8.95a8.548,8.548,0,0,0-.656-.8c-3.133-2.912-11.424.35-11.127,7.035a492.173,492.173,0,0,0-57.746,49.162q-14.282,14.23-26.526,28.82c-16.191,1.278-16.986,1.4-37.417,4.622-9.576-18.061-16.666-34.84-20.767-49.731-5.553-20.172-5.128-35.066.435-44.764l-2.383,4.22c-5.35,9.67-5.7,24.388-.233,44.24C-220.3,228.9-213.022,246.011-203.174,264.439Z" transform="translate(20.552 91.691)" fill="gray"/>
    <path id="Path_319" data-name="Path 319" d="M132.707,237.884c-1.914-1.107-3.019-.128-4.693,1.352q-1.76-1.324-3.538-2.678A690.284,690.284,0,0,1,70.4,190.479C22.165,249.256-41.6,319.544-107.088,384.789q-10.388,10.35-20.387,20.088c1.125,44.476,4.73,88.857,4.952,133.365a10.251,10.251,0,0,0-3.877,2.738c.865,5.77,8.508,7.419,12.778,2.756-.412-2.964-.487-3.5-4.215-5.187-.416-44-3.758-87.888-5.043-131.858q9.376-9.126,19.1-18.807c64.394-64.156,126.716-133.575,174-192.364,17.048,15.93,34.787,31.048,52.666,44.688a11.911,11.911,0,0,1,3.483,3.653c.391,4.282.851,4.515,3.394,5.8a8.094,8.094,0,0,0,3.659-2.58h0C135.737,242.591,134.059,239.982,132.707,237.884Z" transform="translate(150.471 124.105)" fill="gray"/>
    <path id="Path_320" data-name="Path 320" d="M59.5,244.105c3.362.6,9.508-5.482,4.531-11.76-2.308-1.187-3.127-1.274-5.88.608q-8.6-6.916-17.112-14.178C3.485,273.938-44.472,332.347-96.856,384.537q-2.24,2.237-4.469,4.43c.874,33.754.874,33.754.7,52.778-1.235.73-2.928,1.731-3.371,3.991-.922,4.677,5.194,8.691,11.022,5.718h0c3.9-2.2,4.618-7.877-1.9-10.2-.862-23.249-.862-23.249-1.683-50.726q1.557-1.537,3.12-3.094A1114.889,1114.889,0,0,0,41.373,224.509q7.27,6.144,14.606,12.051C55.05,242.63,58.136,243.858,59.5,244.105Z" transform="translate(180.571 160.526)" fill="gray"/>
    <path id="Path_321" data-name="Path 321" d="M-5.167,140.061l-.222-.268c.938,1.164,1.839,2.363,2.815,3.5C-2.8,142.974-3.715,141.826-5.167,140.061Z" transform="translate(307.612 58.866)" fill="gray"/>
    <path id="Path_322" data-name="Path 322" d="M50.664,261.2,7.812,164.655a13.511,13.511,0,0,0-2.079-3.783l-.107.05c.037.435,2.584,10.363,4.551,10.967,22.643,47.556,32.8,73.152,40.953,93.715a28.333,28.333,0,0,0,7.865-.43c.967,3.2,1.283,3.5,1.978,4.144.249-.531.67-1.418-.178-5.565a27.072,27.072,0,0,0-2.415-7.182h-.748a15.142,15.142,0,0,0,.343,4.188A27.332,27.332,0,0,1,50.664,261.2Z" transform="translate(321.79 85.997)" fill="gray"/>
    <path id="Path_323" data-name="Path 323" d="M-7.545,130.022a24.984,24.984,0,0,0-2.831-2.507l-1.674-1.352-.034-.025-.1-.082-1.9-1.512c2.077,1.672,4.03,3.492,6.084,5.192C-7.634,130.026-7.634,130.026-7.545,130.022Z" transform="translate(296.411 39.238)" fill="gray"/>
    <path id="Path_324" data-name="Path 324" d="M-51.836,103.4c7.232,2.879,7.344,2.9,8.069,3.069,15.262,6.262,16.948,7.175,37.591,18.357A142.421,142.421,0,0,1,12.478,135,154.531,154.531,0,0,0-8.847,123.109c-22.869-12.838-43.927-20.474-45.706-20.808.9.38,1.809.739,2.717,1.1Z" transform="translate(244.331 10.609)" fill="gray"/>
    <path id="Path_325" data-name="Path 325" d="M-16.673,122.319c-2.946-2.065-5.8-3.961-8.572-5.72q1.5.978,3.03,2.01Z" transform="translate(282.055 29.012)" fill="gray"/>
    <path id="Path_326" data-name="Path 326" d="M-50.528,139.2C-39.358,179.753.525,238.459,52.219,294.8-2.137,338.432-62.929,392.6-119.314,448.775c-12.765,12.716-24.8,25.04-36.958,36.507-2.036-.206-6.8-.693-7.714,4.812-.876,5.286,4.4,10.18,9.544,7.095,2.479-1.674,3.159-4.467,2.02-8.3q16.941-17.74,36.116-36.853C-58.831,394.773,2.922,339.279,57.584,294.686,5.449,238.311-34.923,179.227-46.116,138.592c-8.222-29.859.752-44.537,22.183-44.533l-4.789.053C-49.95,94.4-58.769,109.271-50.528,139.2Z" transform="translate(103.353 0)" fill="gray"/>
    <path id="Path_327" data-name="Path 327" d="M-72.845,144.568c10.784,39.158,46.09,93.82,93.15,148.485A1298.791,1298.791,0,0,0-129.84,421.18c-12.764,12.716-24.692,25.17-36.583,36.887-5.974-1.1-7.246,3.513-7.493,4.954-.922,5.359,4.076,10.271,9.057,7.1,2.4-1.715,3.108-4.545,2.1-8.408q16.615-18.111,35.782-37.228A1368.773,1368.773,0,0,1,26.055,293.238c-47.751-55.012-83.688-110.283-94.543-149.7-8.275-30.046-.64-46.049,18.873-48.43l-4.679.608C-73.625,98.34-81.129,114.483-72.845,144.568Z" transform="translate(90.553 1.357)" fill="gray"/>
    <path id="Path_328" data-name="Path 328" d="M-95.341,150.815c10.054,36.507,39.984,85.58,80.793,136.3a924.644,924.644,0,0,0-125.14,104.049c-12.764,12.716-24.584,25.3-36.233,37.262-5.7-1.054-7.01,3.632-7.28,5.093-.986,5.409,3.685,10.288,8.506,7.031,2.331-1.768,3.065-4.632,2.184-8.517q16.3-18.481,35.464-37.6a959.077,959.077,0,0,1,128.452-107C-50.253,236.1-80.882,186.266-91.044,149.365c-8.275-30.046-1.743-47.021,16.1-51.291l-4.673,1.169C-97.219,103.744-103.6,120.817-95.341,150.815Z" transform="translate(78.573 5.168)" fill="gray"/>
    <path id="Path_329" data-name="Path 329" d="M-205.754,285.823c19.6-3.918,28.456-4.7,57.812-6.328a507.12,507.12,0,0,1,36.9-40.86A584.347,584.347,0,0,1-53.8,188.7a6.4,6.4,0,0,0,6.34-.249c.062-.034,6.171-3.712,3.323-9.24a10.613,10.613,0,0,0-.736-.83c-2.8-2.452-11.234-.855-11.013,7.273a571.433,571.433,0,0,0-57.3,49.853,499.051,499.051,0,0,0-35.771,39.545c-29.87,1.519-39.016,3.177-55.619,6.187-11.728-20.829-20.287-40.1-24.909-56.886-4.84-17.577-4.97-30.993-1-40.318l-1,2.36-.839,2.031c-3.783,9.256-3.589,22.471,1.157,39.7C-226.48,245.119-217.741,264.678-205.754,285.823Z" transform="translate(12.128 107.171)" fill="gray"/>
    <path id="Path_330" data-name="Path 330" d="M-155.789,267.681a475.716,475.716,0,0,1,32.34-35.56q10.57-10.529,21.725-20.438a5.82,5.82,0,0,0,6.061-.56c3.968-2.639,5.2-8.108,2.4-10.637-3.358-3.026-11.221.768-10.461,8.126q-11.153,9.891-21.735,20.424-16.992,16.931-31.187,34.222c-25.1,1.846-28.392,2.4-46.678,5.5-34.43-64.026-26.844-85.662-23.2-96.06l-2.1,4.286c-11.9,27.917,12.275,74.163,23.891,96.387C-187.331,270.371-183.2,269.657-155.789,267.681Z" transform="translate(16.152 101.22)" fill="gray"/>
    <path id="Path_331" data-name="Path 331" d="M-201.316,255.207c9.064-1.4,21.206-2.879,30.327-3.854q10.714-12.512,22.963-24.731,10.57-10.529,21.792-20.33a5.541,5.541,0,0,0,5.809-.636c3.941-2.628,5.459-7.943,2.953-10.342-3.008-2.879-10.736.919-10.477,8.035q-11.215,9.784-21.8,20.319-11.568,11.524-21.764,23.361c-8.4.871-19.571,2.363-27.93,3.579-8.492-16.55-14.832-31.965-18.636-45.777-5.9-21.41-5.141-36.946,1.276-46.717l-2.619,4.051c-6.207,9.759-6.877,25.145-1.064,46.257C-216.605,222.511-210.078,238.273-201.316,255.207Z" transform="translate(25.608 82.447)" fill="gray"/>
    <path id="Path_332" data-name="Path 332" d="M-199.057,245.8c6.171-.981,14.45-1.93,20.648-2.706q8.584-9.736,18.121-19.246A441.452,441.452,0,0,1-102.2,175.265a6.075,6.075,0,0,0,5.915-.288h0c.062-.034,6.232-3.472,4.325-8.6a7.189,7.189,0,0,0-.572-.762c-2.786-2.763-10.992.421-11.207,6.818a435.6,435.6,0,0,0-58.13,48.5q-8.858,8.824-16.89,17.872c-5.469.595-12.726,1.69-18.176,2.427-7.419-14.976-13.016-28.973-16.5-41.633-6.212-22.563-5.112-38.669,2.173-48.432l-2.884,3.918c-7.063,9.775-8.074,25.744-1.939,48.023C-212.523,216.069-206.739,230.423-199.057,245.8Z" transform="translate(31.21 73.512)" fill="gray"/>
    <path id="Path_333" data-name="Path 333" d="M-183.73,161.171c-.851.83-2.621,2.557-3.115,4.4-.748,2.8,2.079,2.9,5.087,1.23,2.662-1.473,5.217-4.133,5.94-6.187.521-1.48.322-3.8-4.153-1.988-3.726-21.243.524-35.265,11.388-42.207l-4.057,2.642C-183.29,126.1-187.426,140.086-183.73,161.171Z" transform="translate(73.898 28.78)" fill="gray"/>
    <path id="Path_334" data-name="Path 334" d="M-158.357,185.877c-6.516,5.674-4.423,10.324.112,10.571a12.077,12.077,0,0,0,4.615-.919h0c3.664-1.535,9.615-6.521,6.774-11.1-1.818-1.651-3.932-1.869-7.538-.775a192.143,192.143,0,0,1-8.016-22.832c-8.023-29.129-3.25-46.964,11.628-53.786l-4.343,2.033c-14.638,6.992-19.276,24.852-11.287,53.862A193.071,193.071,0,0,0-158.357,185.877Zm7,.581c2.305.942,1.036,4.316-2.223,5.917-1.288.634-3.723,1.244-4.67-.489C-159.3,188.861-154.057,185.355-151.361,186.458Z" transform="translate(95.361 16.704)" fill="gray"/>
    <path id="Path_335" data-name="Path 335" d="M-185.072,188.682a11.259,11.259,0,0,0-2.356,4.192c-.819,3.488,2.024,4.7,5.736,2.443h0a12.211,12.211,0,0,0,4.988-5.9c.883-2.6-.016-5.528-4.753-3.538q-1.973-5.664-3.449-11.024c-7.495-27.215-4.334-45.024,7.488-53.636l-3.916,2.9c-11.593,8.712-14.642,26.483-7.2,53.519Q-187.05,183-185.072,188.682Z" transform="translate(66.669 34.961)" fill="gray"/>
    <path id="Path_336" data-name="Path 336" d="M-194.6,176.171c2.479-1.752,4.837-4.723,5.487-6.914.467-1.58.245-3.968-3.941-1.7-3.483-19.88-.105-33.541,9.062-41.1l-3.771,3.161c-8.956,7.616-12.229,21.213-8.78,40.9a12.7,12.7,0,0,0-2.827,4.794C-200.017,178.257-197.375,178.124-194.6,176.171Z" transform="translate(57.802 41.704)" fill="gray"/>
    <path id="Path_337" data-name="Path 337" d="M92.664,251.885c.679,4.76,5.013,5.782,7.863,1.853a7.688,7.688,0,0,0-.563-9.585c-2.379-.775-2.944-.958-5.35,1.1q-1.962-1.475-3.948-2.989c-13.645-10.409-27.215-21.6-40.507-33.333-40.933,57.229-93.811,119.93-150.569,176.48q-4.968,4.947-9.871,9.734c.688,25.808,1.853,51.6,2.461,77.41-1.4.613-3.518,1.541-4,3.858-.949,4.572,5.924,8.195,10.814,5.7,2.525-1.288,5.816-6.582-1.841-9.574-2.015-52.933-2.015-52.933-2.685-75.7q4.244-4.151,8.533-8.421c55.657-55.454,107.269-117.1,147.33-173.884,12.636,11.054,25.506,21.616,38.44,31.485A13.525,13.525,0,0,1,92.627,250,17.927,17.927,0,0,0,92.664,251.885Z" transform="translate(170.511 147.849)" fill="gray"/>
    <path id="Path_338" data-name="Path 338" d="M-119.559,500.874c-.892,3.932,5.059,7.856,10.551,5.67,2.488-1.267,5.713-5.967-1.777-9.05-1.2-31.768-2.685-63.525-3.614-95.3q6.855-6.669,13.858-13.643c60.033-59.811,116.818-125.525,160.4-183.757,10.715,9.693,21.65,19.05,32.679,27.926-.752,5.651,1.715,6.875,3.255,7.1,3.014.446,8.456-5.647,3.934-11.481-2.305-1.15-2.992-.691-5.265.835-11.7-9.409-23.276-19.367-34.6-29.7C15.371,257.937-42.764,324.614-103.885,385.509q-7.681,7.65-15.175,14.937c.428,16.694.428,16.694,3.742,96.826C-116.9,497.876-119.067,498.7-119.559,500.874Z" transform="translate(160.545 135.688)" fill="gray"/>
    <path id="Path_339" data-name="Path 339" d="M-142.76,367.466c-.2-.56-.2-.56-.853-1.025-3.362-1.855-8.263-2.573-9.613-1.775-.087,1.628,4.826,2.77,6.333,3.076,29.9,18.274,44.633,21.682,54.388,23.935l4.872.81c-14.484-2.392-33.669-10.608-56.261-24.509C-143.163,367.868-143.163,367.868-142.76,367.466Z" transform="translate(117.324 347.893)" fill="gray"/>
    <path id="Path_340" data-name="Path 340" d="M-130.219,375.383a2.581,2.581,0,0,0-.4-.192,85.757,85.757,0,0,0-11.184-2.612,36.194,36.194,0,0,0,5.887,1.754,94.526,94.526,0,0,0,9.2,2.742l2.877.67,2.2.492a93.3,93.3,0,0,1-10.628-3.085C-130.527,375.479-130.443,375.452-130.219,375.383Z" transform="translate(132.029 358.49)" fill="gray"/>
    <path id="Path_341" data-name="Path 341" d="M-150.39,368.1c-.055-.3-.055-.3-.592-.652-2.735-1.468-7.561-2.873-9.167-2.85-.055.057-.123.133-.176.192.865.883,4.259,2.065,5.679,2.532,11.513,6.66,21.847,11.424,30.732,14.269l5.222,1.569c-9.421-2.836-20.516-7.868-32.96-15.065A2.575,2.575,0,0,0-150.39,368.1Z" transform="translate(108.189 348.223)" fill="gray"/>
    <path id="Path_342" data-name="Path 342" d="M-153.087,369.037v0l8.6,3.14c.041.014.094.03.135.041-.091-.039-.213-.085-.306-.121C-147.463,371.075-150.285,370.087-153.087,369.037Z" transform="translate(117.505 353.933)" fill="gray"/>
    <path id="Path_343" data-name="Path 343" d="M-121.94,390.233a20.419,20.419,0,0,0-4.824-2.212q-5.956-4.213-12.19-8.966c-9.681-7.387-19.31-15.347-28.731-23.7-21.895-9.354-29.149-13.823-36.3-19.754l1,1.022.217.22c7.358,6.843,18.389,12.1,34.382,19.338,8.979,7.93,18.146,15.493,27.363,22.526q6.089,4.645,11.907,8.755c-.176,0-.412.009-.588.011-.014.153-.03.352-.041.5a19.585,19.585,0,0,0,5.823,2.9c1.763.551,1.841.524,2.779.21A4.323,4.323,0,0,0-121.94,390.233Z" transform="translate(51.987 310.902)" fill="gray"/>
    <path id="Path_344" data-name="Path 344" d="M-208.647,327.493c7.719-3.115,25.792-10.409,101-4.464,2.765,5.176,6.884,3.591,7.836,2.884.048-.037,4.533-3.776.249-9.6-3.861-3.65-7.419-1.891-8.629,1.921-64.017-2.93-82.046-1.141-100.739,5.363-15.957-24.353-27.388-46.889-32.491-65.423a75.369,75.369,0,0,1-2.854-16.559l.224,4.858a75.683,75.683,0,0,0,2.777,15.612C-236.18,280.588-224.691,303.135-208.647,327.493Z" transform="translate(0.133 189.922)" fill="gray"/>
    <path id="Path_345" data-name="Path 345" d="M-209.931,317.194c16.481-5.327,35.165-8.311,77.323-6.733,2.468,5.176,6.189,3.646,7.3,2.7.046-.039,4.3-4.076.382-9.94-3.191-3.257-6.758-2.232-8.124,2.337-51.271-.135-62.544,3.22-76.816,7.467-14.946-23.82-25.68-45.816-30.753-64.234-2.605-9.464-3.582-17.49-3.06-24.088l-.279,3.758-.066.981c-.416,6.418.567,14.162,3.069,23.251C-235.871,271.161-225.033,293.264-209.931,317.194Z" transform="translate(0.337 168.159)" fill="gray"/>
    <path id="Path_346" data-name="Path 346" d="M-4.387,167.881c-2.166,1.045-2.9,10.331-.828,10.569.716.085,1.409-1.171,1.768-3.2.2-1.144.535-4.609-.329-6.871a114.354,114.354,0,0,0-.258-28.589A112.939,112.939,0,0,1-4.387,167.881Zm.332,6.013c-.126.823-.494,2.12-1.061,1.766-.963-.986-.162-5.247.606-5.228.485.009.72,1.791.455,3.463Z" transform="translate(306.258 58.866)" fill="gray"/>
    <path id="Path_347" data-name="Path 347" d="M-84.147,132.488a117.97,117.97,0,0,0,4.35,12.678c6.569,1.974,15.328,4.593,21.89,6.585-2.342,2.246,2.838,4.073,7.586,4.394h0c2.884.194,10.512-.2,8.252-3.159-3.529-2.6-9.7-2.552-10.384-2.539-3.5.073-3.5.073-23.276-5.956a113.611,113.611,0,0,1-4.016-11.815c-6.395-23.214.332-34.849,16.625-35.277l19.605,4.048c.1.032,10.516,3.289,13.437,3.8-1.246-1.532-14.539-5.107-36.718-8.712C-83.695,96.783-90.714,108.64-84.147,132.488Zm37.507,20.225c1.226.618,1.15,1.336-.185,1.745a9.667,9.667,0,0,1-2.928.281h0c-1.352-.059-3.82-.437-4.462-1.489C-54.762,151.56-49.154,151.45-46.641,152.713Zm4.853-51.1a49.9,49.9,0,0,1,7.934,2.337,48.538,48.538,0,0,1-5.386-1.407,19.448,19.448,0,0,1-2.667-.913A.229.229,0,0,1-41.787,101.616Z" transform="translate(203.105 3.186)" fill="gray"/>
    <path id="Path_348" data-name="Path 348" d="M-14.288,130.974c.5.535.835.867,3.916,3.76,1.972,1.85,3.927,3.721,5.91,5.562q5.352,5.273,10.528,10.848Q.923,145.559-4.4,140.276C-6.905,137.65-12.936,131.784-14.288,130.974Z" transform="translate(296.158 47.514)" fill="gray"/>
    <path id="Path_349" data-name="Path 349" d="M-7.428,137.779c.533.521,1.075,1.025,1.6,1.551l-.478-.478C-6.676,138.488-7.057,138.14-7.428,137.779Z" transform="translate(304.987 56.273)" fill="gray"/>
    <path id="Path_350" data-name="Path 350" d="M-6.728,138.457l3.062,3.056-2.118-2.143C-6.092,139.059-6.415,138.766-6.728,138.457Z" transform="translate(305.888 57.146)" fill="gray"/>
    <path id="Path_351" data-name="Path 351" d="M-14.637,131.173c1.274,1.265,10.121,9.034,10.207,9.11,2.116,1.96,4.2,3.973,6.28,6-2.068-2.031-4.131-4.071-6.235-6.036C-6.758,137.9-13.31,131.877-14.637,131.173Z" transform="translate(295.708 47.771)" fill="gray"/>
    <path id="Path_352" data-name="Path 352" d="M-12.291,133.608c-1.692-1.37-9.906-7.115-11.054-7a40.622,40.622,0,0,0,4.517,3.149c.192.123,4.7,3.051,6.532,4.06a323.444,323.444,0,0,1,27.448,20.765l2.571,2.191-4.044-3.458A325.538,325.538,0,0,0-12.291,133.608Z" transform="translate(284.5 41.889)" fill="gray"/>
    <path id="Path_353" data-name="Path 353" d="M-4.392,140.262c-2.305-2.347-8.723-8.433-10.084-9.2.528.542.871.874,4.014,3.739,2.008,1.827,4,3.673,6.017,5.494q5.465,5.222,10.752,10.743Q1.048,145.5-4.392,140.262Z" transform="translate(295.916 47.624)" fill="gray"/>
    <path id="Path_354" data-name="Path 354" d="M-23.323,127.123a38.151,38.151,0,0,0,4.545,3.058c.478.3,4.732,2.941,6.5,3.854,4.362,2.948,9.3,6.518,14.235,10.175Q-5,139.284-12.187,134.75c-1.75-1.324-10.018-6.678-10.958-6.333a35.654,35.654,0,0,0,4.561,2.957c.188.112,4.622,2.754,6.441,3.63,6.271,3.9,12.4,8.053,18.4,12.417,4.044,3.04,7.968,6.036,11.433,8.689a317.1,317.1,0,0,0-30-22.3C-14.024,132.456-22.271,126.9-23.323,127.123Z" transform="translate(284.528 42.549)" fill="gray"/>
    <path id="Path_355" data-name="Path 355" d="M32.832,248.779c-2.285-7.543-5.313-17.606-7.7-25.117.531-5.709-1.269-13.908-3.584-13.711-2.994,2.8-.688,16.909,1.681,17.481.51.121.764-.215,1.086-.643,2.486,7.888,5.8,18.409,8.09,26.357,11.5,1.949,20.115.311,25.216-4.979l2.557,10.214c.018,1.459.162,8.892,1.187,11.71.124.027.281.066.4.094.718-1.953.565-6.969.5-8.46-.085-1.907-.371-6.58-1.246-8.794-.119-.03-.279-.073-.4-.105a6.1,6.1,0,0,0-.35,1.969c-.878-3.369-2.052-7.863-2.93-11.234C52.43,248.872,44.057,250.59,32.832,248.779Zm-9.826-25.739c-1.768-.814-1.873-8.254-.846-8.741.748-.352,1.679,2.289,1.811,5.141h0C24.035,220.823,23.9,223.14,23.006,223.039Zm38.143,34.126a11.559,11.559,0,0,1,.638,4.035h0a16.94,16.94,0,0,1-.213,4.654c-.368.412-.638-2.173-.73-3.6C60.673,259.595,60.769,256.79,61.149,257.166Z" transform="translate(340.455 149.162)" fill="gray"/>
    <path id="Path_356" data-name="Path 356" d="M26.677,258.162c.6.1,2.12-.318,3.175-6.358,7.856.839,14.329,0,19.226-2.552.24,4.165.631,5.3,1.182,5.782,1.551-.236,1.791-7.788,1.8-8.11h0c.025-.807.192-7.925-1.29-9.624l-.3.014-.252.288c-.519,1.16-.887,2.772-1.134,7.227-4.83,2.514-11.216,3.346-18.967,2.52-.4-7.9-2.518-7.362-3.3-6.491C24.143,243.824,23.324,257.6,26.677,258.162Zm23.743-16.248c.142-.258.355-.412.579.3a14.787,14.787,0,0,1,.364,3.913h0c-.016,1.317-.2,3.938-.764,4.467C49.5,250.971,49.742,243.152,50.419,241.914ZM27.39,244.821c.938-.467,1.6,2.1,1.317,5.084-.133,1.409-.631,3.8-1.647,3.813C25.124,253.1,26.121,245.45,27.39,244.821Z" transform="translate(346.047 184.369)" fill="gray"/>
    <path id="Path_357" data-name="Path 357" d="M40.354,259.784c.707,1.192,1.5,2.539,3.618,2.87,3.952.622,10.368-5.729,4.876-12.2-6.242-2.619-8.435,3.241-8.956,5.1-11.7,2.962-27.418,6.42-39.238,8.851a902.936,902.936,0,0,1-65.419,78.218c.993,22.7.993,22.7,1.83,50.289q8.343,6.165,16.419,11.811a496.534,496.534,0,0,1-39.869,34.49c-6.543-1.162-8.828,1.985-9.37,2.976-2.52,4.6,4.426,8.508,10.045,5.645,4.238-2.159,2.957-5.343,2.534-6.39a491.044,491.044,0,0,0,43.22-37.612q-8.978-6.2-18.3-13.057c-.435-14.045-1.141-32.766-1.766-46.8A870.879,870.879,0,0,0,2.715,268.448C14.07,266.142,29.11,262.59,40.354,259.784Z" transform="translate(190.613 200.452)" fill="gray"/>
    <path id="Path_358" data-name="Path 358" d="M-54.86,418.6c-.78,5.677,5.674,8.282,10.308,4.163h0c2.523-2.239,3.127-5.041,1.8-8.323C.978,358.817,34.023,296.444,52.8,237.045c-.048-.288-4.84-28.706-3.776-31.279a7.562,7.562,0,0,0-1.208-7.648,3.575,3.575,0,0,0-2.616,0c-2.369,1.445-4.9,9.956.441,11.294,1.306,8.327,3.131,19.418,4.494,27.736C30.755,295.705-2.459,357.2-45.951,412.212-53.817,411.707-54.819,418.316-54.86,418.6Z" transform="translate(243.853 133.613)" fill="gray"/>
    <path id="Path_359" data-name="Path 359" d="M-210.391,160.913c2.7-2.813,6.395-7.845,5.775-8.764-.5-.039-1.07.352-2.548,1.747a29.074,29.074,0,0,1,6.491-12.851l-3.28,3.694a29.186,29.186,0,0,0-6.232,12.559c-3.035,3.916-3.41,5.176-3.4,5.839l.183.123C-213.1,163.184-212.4,163.006-210.391,160.913Z" transform="translate(39.637 60.477)" fill="gray"/>
    <path id="Path_360" data-name="Path 360" d="M-116.436,411.618a4.677,4.677,0,0,0,2.3-1.738c1.734-2.971-2.45-7.742-8.744-6.72q-10.594-8.649-21.053-17.73c-3.584-49.8-3.584-49.8-4.888-70.311q10.251-9.788,21.215-20.431a8.174,8.174,0,0,0,2.9.709c4.391.105,9.219-4.943,4.24-10.816a10.56,10.56,0,0,0-2.23-1.475c-4.709-1.967-10.866,1.987-8.1,8.481q-11.537,11.27-22.277,21.613c1.363,21.7,1.363,21.7,5.228,73.053q10.978,9.565,22.13,18.672c-.094.181-.24.409-.313.6C-127.5,409.31-121.232,413.3-116.436,411.618Z" transform="translate(117.535 242.677)" fill="gray"/>
    <path id="Path_361" data-name="Path 361" d="M-56.481,345.4a7.121,7.121,0,0,0-3.179-2.578c-8.869-2.781-16.115,3.138-13.887,7.447a9.716,9.716,0,0,0,.565.835A314.581,314.581,0,0,1-114.638,373q12.426,8.117,23.944,14.7c-4.485,3.154.03,5.034,2.148,5.494A19.835,19.835,0,0,0-80.555,393c4.956-1.224,6.66-4.085,3.506-5.892-1.057-.6-4.165-1.887-10.187-.736q-10.3-5.894-21.346-13.007A314.185,314.185,0,0,0-70,353.035C-61.018,355.611-54.157,349.678-56.481,345.4Zm-9.149-.277c3.547-.567,6.226,1.592,4.7,3.787a4.194,4.194,0,0,1-1.432,1.21,6.452,6.452,0,0,1-6.011.021C-70.867,348.326-68.9,345.644-65.629,345.122Zm-19.8,42.952c3.2-.668,6.418.478,5.565,1.978a3.768,3.768,0,0,1-2.038,1.274,8.574,8.574,0,0,1-5.635-.229C-89.459,389.9-87.6,388.532-85.424,388.074Z" transform="translate(166.994 319.268)" fill="gray"/>
    <path id="Path_362" data-name="Path 362" d="M-16.737,372.718A312.582,312.582,0,0,0,9.485,349.35q2.727-2.717,5.382-5.489a17.289,17.289,0,0,0,5.459-3.8c.053-.05,5.235-5.258,2.671-6.125-3.659.272-10.647,7.1-9.967,9.745q-2.655,2.772-5.382,5.491-11.026,10.982-22.727,20.557a110.2,110.2,0,0,1-15.585-2.93c2.395-6.688,4.517-15.955,6.9-22.645.265-.746,1.084-.732,1.585-1.153,2.113-1.77,3.463-3.954,3.355-5.437-.242-3.449-6.852-1.56-10.551,3.019-2.337,2.889-2.248,5.693,1.61,5.265C-29.621,353-32.626,362.389-35,369.385A108.343,108.343,0,0,0-16.737,372.718Z" transform="translate(269.499 308.755)" fill="gray"/>
    <path id="Path_363" data-name="Path 363" d="M27.528,318.02c-2.941,1.267-8.966,9.736-7.959,11.186.451.023.588.027,1.612-.764C13.808,345.651,8.758,353.187-3.38,365.1L.339,361.45h0l5-5.112c4.311-5.171,10.235-12.14,13-18.274,1.692-3.753,3.481-9.007,5.642-12.511.766-1.242,1.8-2.289,2.541-3.547,1.741-2.962,1.631-3.568,1.347-3.97Z" transform="translate(310.198 288.267)" fill="gray"/>
    <path id="Path_364" data-name="Path 364" d="M1.549,334.277.44,335.414l-.016.018Q.99,334.856,1.549,334.277Z" transform="translate(315.094 309.192)" fill="gray"/>
    <path id="Path_365" data-name="Path 365" d="M-155.1,353h0c1.951-.357,3.245-2.8-1.125-6.39-4.032-2.6-6.644-1.942-7.138.055-35.622-11.2-44.1-15.376-45.981-16.863l1.137,1.295c8.076,5.452,36.667,14.725,45.237,17.435C-161.307,351.783-157.133,353.377-155.1,353ZM-159.708,347c2.15-.05,4.691,2.6,3.575,3.733a1.28,1.28,0,0,1-.448.268h0a3.826,3.826,0,0,1-3.362-1.155C-161.5,348.3-161.092,347.028-159.708,347Z" transform="translate(45.099 303.438)" fill="gray"/>
    <path id="Path_366" data-name="Path 366" d="M-81,334.876c2.941,4.963,7.138,3.8,8.375,3,.05-.034,4.814-3.5.256-9.158-4.183-3.657-8.032-2.029-9.2,1.578-81.106-5.974-105.583-7.776-126.117.9-16.387-24.024-28.118-46.333-33.083-64.364a80.38,80.38,0,0,1-1.8-8l.839,4.986q.6,3.239,1.583,6.822c4.936,17.922,16.671,40.144,33.06,64.06C-199.73,330.86-186.039,323.7-81,334.876Z" transform="translate(2.331 212.09)" fill="gray"/>
    <path id="Path_367" data-name="Path 367" d="M-48.83,282.774a808.275,808.275,0,0,0-111.665,92.5q-2.772,2.762-5.48,5.517c-6.971-2.443-8.872,4.611-8.95,4.913-1.423,5.535,3.2,10.455,8.536,7.063,2.619-1.85,3.609-4.787,2.946-8.728q2.71-2.755,5.48-5.517a834.533,834.533,0,0,1,115.084-95.36c-38.149-48.7-65.933-95.348-75.631-130.561-8.218-29.838-2.262-47.165,14.649-52.318l-4.508,1.413c-16.705,5.345-22.537,22.75-14.331,52.547C-113.131,188.988-86.067,234.8-48.83,282.774Z" transform="translate(89.062 8.006)" fill="gray"/>
    <path id="Path_368" data-name="Path 368" d="M-100.43,147.58c10.459,37.98,43.149,90.015,87.252,142.969A1079.705,1079.705,0,0,0-151.22,406.465a26.778,26.778,0,0,1-6.358,5.119c-6.271-1.034-7.913,3.744-8.268,5.233-1.292,5.437,3.762,10.475,9.114,7.161,2.66-1.834,3.591-4.771,2.767-8.728q2.717-2.748,5.487-5.507A1127.235,1127.235,0,0,1-7.332,290.812C-52.21,237.378-85.568,184.655-96.118,146.35c-8.3-30.128-1.194-46.664,17.542-50l-4.663.881C-101.763,100.8-108.725,117.456-100.43,147.58Z" transform="translate(100.819 2.953)" fill="gray"/>
  </g>
</svg>
