<svg xmlns="http://www.w3.org/2000/svg" width="46.789" height="43.071" viewBox="0 0 46.789 43.071">
  <g id="Group_425" data-name="Group 425" transform="translate(-818.391 -699.867)">
    <g id="Path_7" data-name="Path 7" transform="translate(818.391 699.867)" fill="#23517a">
      <path d="M 5.491890907287598 42.57121276855469 C 4.520310878753662 42.57121276855469 3.579220771789551 42.14250183105469 2.841980695724487 41.36405181884766 C 2.666870832443237 41.17909240722656 2.485100746154785 40.99743270874023 2.309310674667358 40.82175445556641 C 1.864340782165527 40.37704467773438 1.444050788879395 39.95700454711914 1.115580797195435 39.48095321655273 C 0.1796807944774628 38.12541198730469 0.3411107957363129 36.34927368164063 1.508060812950134 35.16157150268555 C 3.374690771102905 33.26204299926758 5.293060779571533 31.34943199157715 7.148280620574951 29.49979209899902 C 7.887350559234619 28.7629337310791 8.62644100189209 28.02606201171875 9.36439037322998 27.28802299499512 C 10.49373054504395 26.15836334228516 11.62387084960938 25.02968215942383 12.78085041046143 23.87420272827148 C 13.4409704208374 23.21493339538574 14.10982036590576 22.54695320129395 14.7922306060791 21.86509323120117 L 15.14957046508789 21.50804328918457 L 14.78888034820557 21.15437316894531 C 14.40739059448242 20.78032302856445 14.02926063537598 20.41142272949219 13.65405082702637 20.04537200927734 C 12.84531116485596 19.25637245178223 12.0814208984375 18.51112365722656 11.3116512298584 17.74238204956055 L 11.03393077850342 17.46503257751465 C 7.881460666656494 14.31679248809814 4.621660709381104 11.06136322021484 1.432840824127197 7.843462944030762 C 0.3215107917785645 6.721842765808105 0.1813307851552963 4.870032787322998 1.113750815391541 3.627652883529663 C 1.861580729484558 2.630992889404297 2.775540828704834 1.73809289932251 3.756840705871582 1.045432925224304 C 4.262190818786621 0.6885929107666016 4.85883092880249 0.500002920627594 5.482350826263428 0.500002920627594 C 6.399360656738281 0.500002920627594 7.335620880126953 0.9066329598426819 8.051051139831543 1.615622878074646 C 9.89155101776123 3.439972877502441 11.75508117675781 5.303412914276123 13.55726051330566 7.105493068695068 L 14.73356056213379 8.281562805175781 C 15.89469051361084 9.442282676696777 17.05514144897461 10.60368251800537 18.21557998657227 11.76508331298828 C 20.30390167236328 13.85511302947998 22.46332168579102 16.01630210876465 24.59152030944824 18.13783264160156 C 25.43963050842285 18.98336219787598 26.09918022155762 19.71275329589844 26.23478126525879 20.75203323364258 C 26.43530082702637 22.29074287414551 26.08358001708984 23.45138359069824 25.12789154052734 24.40454292297363 C 21.54151153564453 27.98144340515137 17.90281105041504 31.62552261352539 14.38392066955566 35.14961242675781 C 12.98528099060059 36.55032348632813 11.58664035797119 37.95103454589844 10.18754100799561 39.35132217407227 C 10.0023307800293 39.53665161132813 9.817621231079102 39.72254180908203 9.63291072845459 39.90842437744141 C 9.115200996398926 40.42942428588867 8.579851150512695 40.96816253662109 8.043400764465332 41.48359298706055 C 7.313570976257324 42.18497467041016 6.407440662384033 42.57121276855469 5.491890907287598 42.57121276855469 Z" stroke="none"/>
      <path d="M 5.482351303100586 1.000003814697266 C 4.955251693725586 1.000003814697266 4.471771240234375 1.152683258056641 4.045171737670898 1.453922271728516 C 3.10597038269043 2.116851806640625 2.230609893798828 2.972274780273438 1.513650894165039 3.927791595458984 C 0.7396812438964844 4.959033966064453 0.8627815246582031 6.557731628417969 1.788000106811523 7.491512298583984 C 4.976739883422852 10.70932388305664 8.236909866333008 13.96512222290039 11.38974094390869 17.11373329162598 L 11.66496086120605 17.38859367370605 C 12.43267059326172 18.1552734375 13.1955509185791 18.89952278137207 14.00321102142334 19.6874828338623 C 14.37871074676514 20.05381202697754 14.75714111328125 20.42301368713379 15.13893032073975 20.79736328125 L 15.86032104492188 21.50468254089355 L 15.14564037322998 22.21878242492676 C 14.46320056915283 22.90067291259766 13.79432106018066 23.56869316101074 13.13417053222656 24.22798347473145 C 11.97729110717773 25.38336372375488 10.84724044799805 26.51195335388184 9.717960357666016 27.64155197143555 C 8.979831695556641 28.37978363037109 8.240560531616211 29.1168327331543 7.501300811767578 29.85387420654297 C 5.646980285644531 31.70262336730957 3.729520797729492 33.61432266235352 1.864709854125977 35.51200103759766 C 0.8682003021240234 36.5262336730957 0.7293109893798828 38.04145431518555 1.527130126953125 39.19699096679688 C 1.829721450805664 39.63555145263672 2.23436164855957 40.03994369506836 2.662761688232422 40.46809387207031 C 2.840950012207031 40.64617156982422 3.025211334228516 40.830322265625 3.205011367797852 41.02024459838867 C 3.846860885620117 41.69796371459961 4.659021377563477 42.07120132446289 5.491880416870117 42.07120132446289 C 6.289020538330078 42.07120132446289 7.05150032043457 41.74336242675781 7.696981430053711 41.12305450439453 C 8.22926139831543 40.61162185668945 8.762531280517578 40.07497406005859 9.278240203857422 39.55598449707031 C 9.463281631469727 39.36977386474609 9.648321151733398 39.18356323242188 9.833829879760742 38.9979133605957 C 11.23325061798096 37.59731292724609 12.63221073150635 36.19628143310547 14.03116035461426 34.79526519775391 C 17.54989051818848 31.27133178710938 21.18841171264648 27.62743377685547 24.77480125427246 24.05052375793457 C 25.62284088134766 23.2047233581543 25.92020034790039 22.20734214782715 25.73899078369141 20.81673240661621 C 25.62357139587402 19.9322338104248 25.04428100585938 19.29524230957031 24.23852157592773 18.491943359375 C 22.10997009277344 16.37006378173828 19.95038032531738 14.20869255065918 17.86189079284668 12.11848258972168 C 16.70151138305664 10.9571647644043 15.54113101959229 9.795822143554688 14.38008117675781 8.635204315185547 L 13.20372104644775 7.459053039550781 C 11.40192031860352 5.657352447509766 9.538780212402344 3.7943115234375 7.699100494384766 1.97076416015625 C 7.076560974121094 1.353832244873047 6.268590927124023 1.000003814697266 5.482351303100586 1.000003814697266 M 5.48234748840332 -3.814697265625e-06 C 6.526283264160156 -3.814697265625e-06 7.58378791809082 0.4486312866210938 8.402999877929688 1.260471343994141 C 10.63811111450195 3.475971221923828 12.86139106750488 5.703304290771484 15.0870304107666 7.927932739257813 C 18.37326049804688 11.21297264099121 21.65390014648438 14.5034236907959 24.94452095031738 17.78372383117676 C 25.77516174316406 18.6118335723877 26.56861114501953 19.44602203369141 26.73058128356934 20.68734359741211 C 26.93279075622559 22.23907279968262 26.63201141357422 23.61057281494141 25.48097038269043 24.7585620880127 C 20.49340057373047 29.73295211791992 15.52020072937012 34.72154235839844 10.54124069213867 39.7047233581543 C 9.826240539550781 40.42022323608398 9.119020462036133 41.14351272583008 8.389820098876953 41.84414291381836 C 7.536832809448242 42.66386795043945 6.511791229248047 43.07120895385742 5.49188232421875 43.07120895385742 C 4.411994934082031 43.07120895385742 3.337837219238281 42.6147575378418 2.478950500488281 41.7078742980957 C 1.875200271606445 41.07013320922852 1.197731018066406 40.48042297363281 0.70404052734375 39.76491165161133 C -0.3717498779296875 38.20676422119141 -0.1801891326904297 36.16642379760742 1.151401519775391 34.81115341186523 C 3.751201629638672 32.16553497314453 6.388191223144531 29.55745315551758 9.010810852050781 26.93449211120605 C 10.78453063964844 25.1602725982666 12.56028079986572 23.38841247558594 14.43882083892822 21.51139259338379 C 13.25042057037354 20.34615325927734 12.09466075897217 19.23097229003906 10.95833110809326 18.09617233276367 C 7.659090042114258 14.80132293701172 4.359519958496094 11.50715255737305 1.077690124511719 8.195404052734375 C -0.1656494140625 6.940563201904297 -0.3944091796875 4.804183959960938 0.7138500213623047 3.327522277832031 C 1.477540969848633 2.309722900390625 2.429910659790039 1.370033264160156 3.468511581420898 0.6369438171386719 C 4.082141876220703 0.2036285400390625 4.779211044311523 -3.814697265625e-06 5.48234748840332 -3.814697265625e-06 Z" stroke="none" fill="#fff"/>
    </g>
    <g id="Group_419" data-name="Group 419" transform="translate(838.391 742.938) rotate(-90)">
      <g id="Path_7-2" data-name="Path 7" transform="translate(43.071 0) rotate(90)" fill="#23517a">
        <path d="M 5.491890907287598 42.57121276855469 C 4.520310878753662 42.57121276855469 3.579220771789551 42.14250183105469 2.841980695724487 41.36405181884766 C 2.666870832443237 41.17909240722656 2.485100746154785 40.99743270874023 2.309310674667358 40.82175445556641 C 1.864340782165527 40.37704467773438 1.444050788879395 39.95700454711914 1.115580797195435 39.48095321655273 C 0.1796807944774628 38.12541198730469 0.3411107957363129 36.34927368164063 1.508060812950134 35.16157150268555 C 3.374690771102905 33.26204299926758 5.293060779571533 31.34943199157715 7.148280620574951 29.49979209899902 C 7.887350559234619 28.7629337310791 8.62644100189209 28.02606201171875 9.36439037322998 27.28802299499512 C 10.49373054504395 26.15836334228516 11.62387084960938 25.02968215942383 12.78085041046143 23.87420272827148 C 13.4409704208374 23.21493339538574 14.10982036590576 22.54695320129395 14.7922306060791 21.86509323120117 L 15.14957046508789 21.50804328918457 L 14.78888034820557 21.15437316894531 C 14.40739059448242 20.78032302856445 14.02926063537598 20.41142272949219 13.65405082702637 20.04537200927734 C 12.84531116485596 19.25637245178223 12.0814208984375 18.51112365722656 11.3116512298584 17.74238204956055 L 11.03393077850342 17.46503257751465 C 7.881460666656494 14.31679248809814 4.621660709381104 11.06136322021484 1.432840824127197 7.843462944030762 C 0.3215107917785645 6.721842765808105 0.1813307851552963 4.870032787322998 1.113750815391541 3.627652883529663 C 1.861580729484558 2.630992889404297 2.775540828704834 1.73809289932251 3.756840705871582 1.045432925224304 C 4.262190818786621 0.6885929107666016 4.85883092880249 0.500002920627594 5.482350826263428 0.500002920627594 C 6.399360656738281 0.500002920627594 7.335620880126953 0.9066329598426819 8.051051139831543 1.615622878074646 C 9.89155101776123 3.439972877502441 11.75508117675781 5.303412914276123 13.55726051330566 7.105493068695068 L 14.73356056213379 8.281562805175781 C 15.89469051361084 9.442282676696777 17.05514144897461 10.60368251800537 18.21557998657227 11.76508331298828 C 20.30390167236328 13.85511302947998 22.46332168579102 16.01630210876465 24.59152030944824 18.13783264160156 C 25.43963050842285 18.98336219787598 26.09918022155762 19.71275329589844 26.23478126525879 20.75203323364258 C 26.43530082702637 22.29074287414551 26.08358001708984 23.45138359069824 25.12789154052734 24.40454292297363 C 21.54151153564453 27.98144340515137 17.90281105041504 31.62552261352539 14.38392066955566 35.14961242675781 C 12.98528099060059 36.55032348632813 11.58664035797119 37.95103454589844 10.18754100799561 39.35132217407227 C 10.0023307800293 39.53665161132813 9.817621231079102 39.72254180908203 9.63291072845459 39.90842437744141 C 9.115200996398926 40.42942428588867 8.579851150512695 40.96816253662109 8.043400764465332 41.48359298706055 C 7.313570976257324 42.18497467041016 6.407440662384033 42.57121276855469 5.491890907287598 42.57121276855469 Z" stroke="none"/>
        <path d="M 5.482351303100586 1.000003814697266 C 4.955251693725586 1.000003814697266 4.471771240234375 1.152683258056641 4.045171737670898 1.453922271728516 C 3.10597038269043 2.116851806640625 2.230609893798828 2.972274780273438 1.513650894165039 3.927791595458984 C 0.7396812438964844 4.959033966064453 0.8627815246582031 6.557731628417969 1.788000106811523 7.491512298583984 C 4.976739883422852 10.70932388305664 8.236909866333008 13.96512222290039 11.38974094390869 17.11373329162598 L 11.66496086120605 17.38859367370605 C 12.43267059326172 18.1552734375 13.1955509185791 18.89952278137207 14.00321102142334 19.6874828338623 C 14.37871074676514 20.05381202697754 14.75714111328125 20.42301368713379 15.13893032073975 20.79736328125 L 15.86032104492188 21.50468254089355 L 15.14564037322998 22.21878242492676 C 14.46320056915283 22.90067291259766 13.79432106018066 23.56869316101074 13.13417053222656 24.22798347473145 C 11.97729110717773 25.38336372375488 10.84724044799805 26.51195335388184 9.717960357666016 27.64155197143555 C 8.979831695556641 28.37978363037109 8.240560531616211 29.1168327331543 7.501300811767578 29.85387420654297 C 5.646980285644531 31.70262336730957 3.729520797729492 33.61432266235352 1.864709854125977 35.51200103759766 C 0.8682003021240234 36.5262336730957 0.7293109893798828 38.04145431518555 1.527130126953125 39.19699096679688 C 1.829721450805664 39.63555145263672 2.23436164855957 40.03994369506836 2.662761688232422 40.46809387207031 C 2.840950012207031 40.64617156982422 3.025211334228516 40.830322265625 3.205011367797852 41.02024459838867 C 3.846860885620117 41.69796371459961 4.659021377563477 42.07120132446289 5.491880416870117 42.07120132446289 C 6.289020538330078 42.07120132446289 7.05150032043457 41.74336242675781 7.696981430053711 41.12305450439453 C 8.22926139831543 40.61162185668945 8.762531280517578 40.07497406005859 9.278240203857422 39.55598449707031 C 9.463281631469727 39.36977386474609 9.648321151733398 39.18356323242188 9.833829879760742 38.9979133605957 C 11.23325061798096 37.59731292724609 12.63221073150635 36.19628143310547 14.03116035461426 34.79526519775391 C 17.54989051818848 31.27133178710938 21.18841171264648 27.62743377685547 24.77480125427246 24.05052375793457 C 25.62284088134766 23.2047233581543 25.92020034790039 22.20734214782715 25.73899078369141 20.81673240661621 C 25.62357139587402 19.9322338104248 25.04428100585938 19.29524230957031 24.23852157592773 18.491943359375 C 22.10997009277344 16.37006378173828 19.95038032531738 14.20869255065918 17.86189079284668 12.11848258972168 C 16.70151138305664 10.9571647644043 15.54113101959229 9.795822143554688 14.38008117675781 8.635204315185547 L 13.20372104644775 7.459053039550781 C 11.40192031860352 5.657352447509766 9.538780212402344 3.7943115234375 7.699100494384766 1.97076416015625 C 7.076560974121094 1.353832244873047 6.268590927124023 1.000003814697266 5.482351303100586 1.000003814697266 M 5.48234748840332 -3.814697265625e-06 C 6.526283264160156 -3.814697265625e-06 7.58378791809082 0.4486312866210938 8.402999877929688 1.260471343994141 C 10.63811111450195 3.475971221923828 12.86139106750488 5.703304290771484 15.0870304107666 7.927932739257813 C 18.37326049804688 11.21297264099121 21.65390014648438 14.5034236907959 24.94452095031738 17.78372383117676 C 25.77516174316406 18.6118335723877 26.56861114501953 19.44602203369141 26.73058128356934 20.68734359741211 C 26.93279075622559 22.23907279968262 26.63201141357422 23.61057281494141 25.48097038269043 24.7585620880127 C 20.49340057373047 29.73295211791992 15.52020072937012 34.72154235839844 10.54124069213867 39.7047233581543 C 9.826240539550781 40.42022323608398 9.119020462036133 41.14351272583008 8.389820098876953 41.84414291381836 C 7.536832809448242 42.66386795043945 6.511791229248047 43.07120895385742 5.49188232421875 43.07120895385742 C 4.411994934082031 43.07120895385742 3.337837219238281 42.6147575378418 2.478950500488281 41.7078742980957 C 1.875200271606445 41.07013320922852 1.197731018066406 40.48042297363281 0.70404052734375 39.76491165161133 C -0.3717498779296875 38.20676422119141 -0.1801891326904297 36.16642379760742 1.151401519775391 34.81115341186523 C 3.751201629638672 32.16553497314453 6.388191223144531 29.55745315551758 9.010810852050781 26.93449211120605 C 10.78453063964844 25.1602725982666 12.56028079986572 23.38841247558594 14.43882083892822 21.51139259338379 C 13.25042057037354 20.34615325927734 12.09466075897217 19.23097229003906 10.95833110809326 18.09617233276367 C 7.659090042114258 14.80132293701172 4.359519958496094 11.50715255737305 1.077690124511719 8.195404052734375 C -0.1656494140625 6.940563201904297 -0.3944091796875 4.804183959960938 0.7138500213623047 3.327522277832031 C 1.477540969848633 2.309722900390625 2.429910659790039 1.370033264160156 3.468511581420898 0.6369438171386719 C 4.082141876220703 0.2036285400390625 4.779211044311523 -3.814697265625e-06 5.48234748840332 -3.814697265625e-06 Z" stroke="none" fill="#fff"/>
      </g>
    </g>
  </g>
</svg>
