<svg xmlns="http://www.w3.org/2000/svg" width="808.532" height="808.464" viewBox="0 0 808.532 808.464">
  <g id="last" transform="translate(-959.922 -164.944)">
    <g id="section" transform="translate(-6)">
      <g id="Group_395" data-name="Group 395" transform="translate(1012.953 229.275)">
        <path id="Path_158" data-name="Path 158" d="M-1614.487,4221.434a82.105,82.105,0,0,0-82.2,82.466c.017,45.456,35.592,82.083,82.187,82.481a81.877,81.877,0,0,0,82.423-82.519C-1531.708,4258.339-1568.844,4221.327-1614.487,4221.434Z" transform="translate(2274.743 -3936.004)" fill="#143559"/>
        <path id="Path_159" data-name="Path 159" d="M-2430.36,4190.726c.434,47.461,38.432,83.992,85.477,82.811,45.955-1.154,81.36-37.694,81.266-83.812-.1-47.115-39.781-86.194-88.122-82.274C-2393.328,4108.046-2430.785,4144.142-2430.36,4190.726Z" transform="translate(2555.997 -3892.204)" fill="#143559"/>
        <path id="Path_160" data-name="Path 160" d="M-1914.319,4110.084c.458-39.074-32.123-71.638-71.612-71.776-38.216-.133-72.764,32.608-71.118,71.165-1.227,40.318,31.865,71.34,69.537,71.875C-1945.492,4181.946-1914.779,4149.365-1914.319,4110.084Z" transform="translate(2412.909 -3865.802)" fill="#143559"/>
        <path id="Path_161" data-name="Path 161" d="M-1846.473,3952.262a57.163,57.163,0,0,0,58.4-56.951c.387-31.6-25.333-58.1-57.007-57.821-32.193-.645-57.448,25.545-57.88,56.164C-1903.418,3926.067-1878.354,3951.724-1846.473,3952.262Z" transform="translate(2353.821 -3788.815)" fill="#143559"/>
        <path id="Path_163" data-name="Path 163" d="M-2509.539,4300.114a61.874,61.874,0,0,0-62.019-62.485,61.935,61.935,0,0,0-62.541,61.908c-.075,34.846,26.43,62.9,62.606,62.82C-2535.9,4362.272-2509.467,4334.179-2509.539,4300.114Z" transform="translate(2634.099 -3942.212)" fill="#143559"/>
        <path id="Path_164" data-name="Path 164" d="M-2503.439,4023.284c33.393,1.143,60.333-26.721,59.615-58.408,1.129-31.84-25.631-58.981-58.027-58.976-33.073,0-58.771,25.675-58.952,57.881C-2560.995,3997.593-2535.856,4022.176-2503.439,4023.284Z" transform="translate(2606.001 -3815.045)" fill="#143559"/>
        <path id="Path_165" data-name="Path 165" d="M-1752.874,4456.367a52.918,52.918,0,0,0-53.092,53.15c.125,28.373,23.3,52.821,53.154,52.642,29.512-.178,53.143-24.79,52.237-52.917C-1699.716,4480.812-1723.579,4456.478-1752.874,4456.367Z" transform="translate(2316.635 -4026.066)" fill="#143559"/>
        <path id="Path_166" data-name="Path 166" d="M-1832.433,4384.846c28.015,1.473,49.814-23.014,50.068-48.576a49.922,49.922,0,0,0-50.073-50.575c-27.6.173-49.585,21.656-49.885,49.561C-1882.614,4362.286-1860.134,4386.2-1832.433,4384.846Z" transform="translate(2345.908 -3960.638)" fill="#143559"/>
        <path id="Path_167" data-name="Path 167" d="M-2378.855,4567.845c-26.685.057-47.32,21.8-46.54,46.738-.54,25.582,19.977,46.634,46.191,46.746a46.292,46.292,0,0,0,46.953-46.567C-2332.274,4588.649-2352.9,4567.79-2378.855,4567.845Z" transform="translate(2554.101 -4068.801)" fill="#143559"/>
        <path id="Path_168" data-name="Path 168" d="M-2115.311,4273.875a49.212,49.212,0,0,0-50,47.674c-.783,27.763,21.55,49.5,47.178,50.511,26.747,1.053,51.27-20.736,50.74-48.483C-2066.463,4296.484-2088.375,4274.416-2115.311,4273.875Z" transform="translate(2454.397 -3956.104)" fill="#143559"/>
        <path id="Path_169" data-name="Path 169" d="M-2107.718,4486.144c1.216-21.338-17.567-38.39-37.3-38.726a38.518,38.518,0,0,0-39.547,38.089,38.574,38.574,0,0,0,38.09,38.745C-2125,4524.646-2106.656,4506.326-2107.718,4486.144Z" transform="translate(2461.77 -4022.633)" fill="#143559"/>
        <path id="Path_170" data-name="Path 170" d="M-1656.653,3932.919c22.052-.184,39.6-16.542,39.643-40.059.477-22.5-18.48-40.083-40.076-39.967-21.695.115-40.029,18.22-39.643,40.27C-1696.327,3916.173-1678.757,3933.1-1656.653,3932.919Z" transform="translate(2274.761 -3794.724)" fill="#143559"/>
        <path id="Path_171" data-name="Path 171" d="M-2231.627,3830.7c6.7,3.648,14.422,6.506,22.59,5.763,3.43-.312,7.016-.55,10.2-1.728,16.07-5.954,27.943-20.366,26.073-41.312a38.267,38.267,0,0,0-30.092-33.5c-25.654-5.334-47.582,13.59-47.284,42.912C-2249.839,3812.151-2244.167,3823.874-2231.627,3830.7Z" transform="translate(2486.912 -3758.738)" fill="#143559"/>
        <path id="Path_172" data-name="Path 172" d="M-2172.044,4115.519c.055,16.684,12.342,30.211,30.594,30.261a30.106,30.106,0,0,0,30.532-30.326,30.3,30.3,0,0,0-30.4-30.519C-2159.255,4084.974-2172.1,4098.293-2172.044,4115.519Z" transform="translate(2456.971 -3883.677)" fill="#143559"/>
        <path id="Path_173" data-name="Path 173" d="M-2075.469,4018.2c16.939.416,31.68-13.253,30.691-30.381,1.362-16.871-14.316-30.153-29.636-30.34-18.3-.223-31,15.5-30.875,30.005C-2105.133,4005.045-2091.8,4017.8-2075.469,4018.2Z" transform="translate(2413.429 -3837.509)" fill="#143559"/>
        <path id="Path_174" data-name="Path 174" d="M-2238.277,4552.626c-14.712-.117-29.815,12.584-29.8,29.939.019,16.534,14.86,30.536,29.321,29.32,16.74.914,30.1-12.709,30.154-29.47C-2208.543,4565.625-2222.522,4552.753-2238.277,4552.626Z" transform="translate(2493.784 -4062.966)" fill="#143559"/>
        <path id="Path_175" data-name="Path 175" d="M-2104.581,4581.085a34.244,34.244,0,0,0-34.115,34.51c.155,18.7,15.966,34.163,34.007,33.736a33.94,33.94,0,0,0,34.255-34.093A34.037,34.037,0,0,0-2104.581,4581.085Z" transform="translate(2444.188 -4073.876)" fill="#143559"/>
        <path id="Path_176" data-name="Path 176" d="M-2365.08,3906.527c15.046-.076,27.071-10.064,27.272-27.565.164-14.224-11.918-25.878-26.687-25.963a26.276,26.276,0,0,0-26.907,26.459A26.2,26.2,0,0,0-2365.08,3906.527Z" transform="translate(2541.066 -3794.765)" fill="#143559"/>
        <path id="Path_177" data-name="Path 177" d="M-1853.657,4586.516c-12.914-.352-26.457,10.958-25.53,25.568-.04,14.832,10.615,25.507,25.47,25.52,14.506.011,25.323-10.75,25.368-25.237C-1828.3,4597.627-1839.1,4586.913-1853.657,4586.516Z" transform="translate(2344.722 -4075.955)" fill="#143559"/>
        <path id="Path_178" data-name="Path 178" d="M-2435.123,4715.012c-14.5-.048-25.052,10.792-25.457,25.337-.365,13.137,11.92,26.187,25.136,25.159,14.713.553,25.531-11.078,25.676-25.041C-2409.62,4726.193-2420.719,4715.061-2435.123,4715.012Z" transform="translate(2567.584 -4125.216)" fill="#143559"/>
        <path id="Path_179" data-name="Path 179" d="M-1745.6,4029.015c-.68,14.588,10.638,22.684,21.811,22.613,12.329-.078,22.241-7.579,22.7-22.487.387-12.607-9.575-22.343-22.515-22.492C-1735.067,4006.519-1746.542,4016.086-1745.6,4029.015Z" transform="translate(2293.516 -3853.666)" fill="#143559"/>
        <path id="Path_181" data-name="Path 181" d="M-1961.422,3989.355a20.287,20.287,0,0,0,20.441-20.047,20.2,20.2,0,0,0-20.4-20.464,20.194,20.194,0,0,0-20.319,20.213A20.306,20.306,0,0,0-1961.422,3989.355Z" transform="translate(2384.002 -3831.507)" fill="#143559"/>
        <path id="Path_183" data-name="Path 183" d="M-1849.745,3799.325c11.014-.05,19.046-8.253,19.163-19.1a18.7,18.7,0,0,0-19.033-18.75c-11.483-.01-19.289,8.437-19.133,19.453A18.657,18.657,0,0,0-1849.745,3799.325Z" transform="translate(2251.84 -3761.474)" fill="#143559"/>
        <path id="Path_184" data-name="Path 184" d="M-1842.118,4225.116c-.126,10.14,7.283,17.518,17.415,17.5,10.193-.013,17.735-7.315,17.746-17.227.009-7.757-5.413-17.337-17.258-17.393C-1836.322,4207.941-1842.012,4216.583-1842.118,4225.116Z" transform="translate(2330.495 -3930.854)" fill="#143559"/>
        <path id="Path_185" data-name="Path 185" d="M-2355.774,4072.673c8.854.013,13.961-5.315,14.593-13.748.535-7.139-6.47-15.093-14.429-14.707-8.561.415-15.331,6.605-15.113,14.718C-2370.51,4066.891-2364.231,4072.66-2355.774,4072.673Z" transform="translate(2533.137 -3868.063)" fill="#143559"/>
        <path id="Path_186" data-name="Path 186" d="M-2494.505,4783.33c-8.364-.1-14.487,5.8-14.6,14.082-.118,8.369,5.813,14.451,14.151,14.51,8.592.577,14.539-6.631,14.726-14.032A14.106,14.106,0,0,0-2494.505,4783.33Z" transform="translate(2586.185 -4151.406)" fill="#143559"/>
        <path id="Path_187" data-name="Path 187" d="M-2405.512,4402.932c8.042-.034,13.961-6.078,13.9-14.2-.057-8.218-5.867-13.539-14.175-13.953-7.41-.371-14.458,6.8-14.226,14.411C-2419.805,4395.844-2413.432,4403.679-2405.512,4402.932Z" transform="translate(2552.03 -3994.784)" fill="#143559"/>
        <path id="Path_188" data-name="Path 188" d="M-2123.431,4220.2c-.144,6.9,4.442,14.093,13.975,14.253,7.932.133,14.122-5.646,14.332-13.389.217-8-5.493-14.187-13.1-14.6C-2118.07,4205.924-2123.275,4212.782-2123.431,4220.2Z" transform="translate(2438.337 -3930.253)" fill="#143559"/>
        <path id="Path_189" data-name="Path 189" d="M-1732.719,4281.551a12.189,12.189,0,0,0,12.138,12.111,12.15,12.15,0,0,0,12.234-12,12.136,12.136,0,0,0-11.911-11.9A12.2,12.2,0,0,0-1732.719,4281.551Z" transform="translate(2288.557 -3954.531)" fill="#143559"/>
        <circle id="Ellipse_3" data-name="Ellipse 3" cx="59" cy="59" r="59" transform="translate(620.047 133.725)" fill="#143559"/>
        <path id="Path_228" data-name="Path 228" d="M-2349.809,4084.03c12.386.018,19.531-7.435,20.415-19.232.749-9.988-9.051-21.114-20.185-20.574-11.976.581-21.447,9.24-21.142,20.59C-2370.423,4075.941-2361.639,4084.011-2349.809,4084.03Z" transform="translate(2465.572 -3826.876)" fill="#143559"/>
        <path id="Path_229" data-name="Path 229" d="M-2238.277,4552.626c-14.712-.117-29.815,12.584-29.8,29.939.019,16.534,14.86,30.536,29.321,29.32,16.74.914,30.1-12.709,30.154-29.47C-2208.543,4565.625-2222.522,4552.753-2238.277,4552.626Z" transform="translate(2350.104 -4125.248)" fill="#143559"/>
      </g>
      <g id="icons">
        <g id="Group_399" data-name="Group 399" transform="translate(1160.432 747.47)">
          <path id="Path_98" data-name="Path 98" d="M416.852,835.562a3.082,3.082,0,1,0,3.084,3.082A3.082,3.082,0,0,0,416.852,835.562Zm-13.7,3.953a12.949,12.949,0,1,0,12.95,12.948A12.965,12.965,0,0,0,403.147,839.515Zm0,21.244a8.295,8.295,0,1,1,8.3-8.3A8.3,8.3,0,0,1,403.147,860.759ZM429.276,841.7a15.794,15.794,0,0,0-15.795-15.795H392.636a15.8,15.8,0,0,0-15.8,15.795V862.55a15.794,15.794,0,0,0,15.8,15.793h20.845a15.793,15.793,0,0,0,15.795-15.793ZM424.33,862.55A10.847,10.847,0,0,1,413.482,873.4H392.636a10.848,10.848,0,0,1-10.849-10.846V841.7a10.849,10.849,0,0,1,10.849-10.848h20.845A10.848,10.848,0,0,1,424.33,841.7Z" transform="translate(-376.84 -825.907)" fill="#fff"/>
        </g>
        <g id="Group_402" data-name="Group 402" transform="translate(1263.76 248.395)">
          <g id="Group_365" data-name="Group 365">
            <g id="Group_360" data-name="Group 360">
              <path id="Path_92" data-name="Path 92" d="M320.727,834.593A20.1,20.1,0,0,1,315.789,836c.8-.133,1.968-1.573,2.437-2.156a9.087,9.087,0,0,0,1.645-2.995c.042-.085.075-.192-.01-.258a.282.282,0,0,0-.262.022,25.246,25.246,0,0,1-5.864,2.245.389.389,0,0,1-.4-.108,4.985,4.985,0,0,0-.514-.524,10.335,10.335,0,0,0-2.841-1.74,9.9,9.9,0,0,0-4.357-.7,10.426,10.426,0,0,0-4.133,1.168,10.671,10.671,0,0,0-3.336,2.724,10.25,10.25,0,0,0-1.992,3.99,10.817,10.817,0,0,0-.105,4.211c.032.236.012.268-.2.236-8.054-1.2-14.732-4.082-20.152-10.258-.236-.268-.363-.268-.556.021-2.371,3.555-1.221,9.267,1.743,12.074.394.375.8.748,1.238,1.09a10.292,10.292,0,0,1-3.889-1.09c-.236-.148-.354-.063-.375.2a6.141,6.141,0,0,0,.064,1.155,10.333,10.333,0,0,0,6.368,8.237,5.914,5.914,0,0,0,1.292.4,11.514,11.514,0,0,1-3.814.119c-.278-.053-.383.085-.278.353,1.679,4.574,5.3,5.935,8.013,6.71.364.063.727.063,1.092.148-.022.034-.044.034-.064.064-.9,1.373-4.02,2.393-5.474,2.9a19.593,19.593,0,0,1-8.31,1.064c-.448-.066-.542-.061-.663,0s-.015.183.129.3c.566.375,1.143.705,1.731,1.026a27.458,27.458,0,0,0,5.556,2.223c9.984,2.757,21.23.73,28.728-6.718,5.886-5.85,7.95-13.916,7.95-21.993,0-.316.373-.49.6-.657a19.357,19.357,0,0,0,3.892-4.066,1.181,1.181,0,0,0,.242-.78v-.042C320.91,834.465,320.926,834.5,320.727,834.593Z" transform="translate(-272.033 -829.768)" fill="#fff"/>
            </g>
            <g id="Group_361" data-name="Group 361" transform="translate(14.514 40.085)">
              <path id="Path_93" data-name="Path 93" d="M281.951,857.157Z" transform="translate(-281.951 -857.157)" fill="#fff" fill-rule="evenodd"/>
            </g>
            <g id="Group_362" data-name="Group 362" transform="translate(14.142 40.085)">
              <path id="Path_94" data-name="Path 94" d="M282.069,857.157c-.063,0-.806,0,0,0Z" transform="translate(-281.696 -857.157)" fill="#fff" fill-rule="evenodd"/>
            </g>
            <g id="Group_363" data-name="Group 363" transform="translate(16.161 40.091)">
              <path id="Path_95" data-name="Path 95" d="M283.076,857.2c0-.082.865,0,0,0C283.076,857.155,283.181,857.2,283.076,857.2Z" transform="translate(-283.076 -857.161)" fill="#fff" fill-rule="evenodd"/>
            </g>
            <g id="Group_364" data-name="Group 364" transform="translate(33.246 0.06)">
              <path id="Path_96" data-name="Path 96" d="M294.952,829.809a.178.178,0,0,1-.2,0Z" transform="translate(-294.749 -829.809)" fill="#fff" fill-rule="evenodd"/>
            </g>
          </g>
        </g>
        <g id="Group_400" data-name="Group 400" transform="translate(1401.608 430.611)">
          <g id="Group_372" data-name="Group 372" transform="translate(1.145 24.218)">
            <g id="Group_371" data-name="Group 371">
              <g id="Group_370" data-name="Group 370">
                <path id="Path_99" data-name="Path 99" d="M579.135,860.592v28.922a1.294,1.294,0,0,1-1.294,1.294H562.912a1.294,1.294,0,0,1-1.294-1.294v-26.9c0-7.078-2.529-11.911-8.871-11.911a9.583,9.583,0,0,0-8.987,6.407,12,12,0,0,0-.579,4.267v28.131a1.294,1.294,0,0,1-1.294,1.294H526.964a1.289,1.289,0,0,1-1.294-1.294c.032-7.162.184-41.911.03-50.08a1.287,1.287,0,0,1,1.294-1.308h14.9a1.292,1.292,0,0,1,1.294,1.292v6.174c-.035.057-.087.116-.116.171h.116v-.171c2.326-3.583,6.48-8.7,15.786-8.7,11.524,0,20.165,7.528,20.165,23.706ZM499.76,890.808h14.925a1.294,1.294,0,0,0,1.294-1.294v-50.1a1.292,1.292,0,0,0-1.294-1.292H499.76a1.292,1.292,0,0,0-1.292,1.292v50.1A1.294,1.294,0,0,0,499.76,890.808Z" transform="translate(-498.468 -836.886)" fill="#fff"/>
              </g>
            </g>
          </g>
          <g id="Group_373" data-name="Group 373">
            <path id="Path_100" data-name="Path 100" d="M516.8,837.319a9.376,9.376,0,1,1-9.374-9.377A9.376,9.376,0,0,1,516.8,837.319Z" transform="translate(-498.045 -827.942)" fill="#fff"/>
          </g>
        </g>
        <g id="Group_398" data-name="Group 398" transform="translate(1325.65 569.742)">
          <path id="Path_101" data-name="Path 101" d="M231.624,83.276h3.116c.145.03.29.064.437.089,1.6.276,3.227.42,4.782.847a25.072,25.072,0,1,1-18.495,46.318,1.124,1.124,0,0,0-.942-.1Q213.765,132.6,207,134.735v-.1c.068-.17.145-.336.2-.509,1.392-4.1,2.775-8.2,4.182-12.293a1.165,1.165,0,0,0-.111-1.072,24.272,24.272,0,0,1-3.257-10.5,23.566,23.566,0,0,1,1.84-11.483,24.862,24.862,0,0,1,18.9-15.1C229.7,83.493,230.667,83.408,231.624,83.276Zm-18.267,45.235c.244-.071.387-.108.527-.153,2.342-.745,4.687-1.48,7.022-2.245a1.255,1.255,0,0,1,1.162.148,21.284,21.284,0,0,0,27.5-4.554,20.161,20.161,0,0,0,4.546-16.9,21.244,21.244,0,0,0-19.163-17.461,21.277,21.277,0,0,0-20.185,10.565,20.524,20.524,0,0,0-2.1,15.8,19.785,19.785,0,0,0,3.08,6.6.8.8,0,0,1,.105.832c-.241.641-.444,1.3-.664,1.946Z" transform="translate(-207 -83.276)" fill="#fff"/>
          <path id="Path_102" data-name="Path 102" d="M326.909,196.616c1.15-.292,1.68.382,2.062,1.392.5,1.328,1.053,2.642,1.655,3.928a1.764,1.764,0,0,1-.215,1.966,19.879,19.879,0,0,1-1.28,1.546.951.951,0,0,0-.122,1.273,16.714,16.714,0,0,0,6.55,6.351c.592.31,1.2.583,1.817.85.721.314.994.251,1.49-.344.589-.707,1.161-1.429,1.741-2.145.468-.578.75-.689,1.435-.377,1.688.771,3.357,1.583,5.034,2.377a.838.838,0,0,1,.482.856c0,2.808-1.4,4.4-4.478,5.3a6.276,6.276,0,0,1-3.7-.171,25.052,25.052,0,0,1-7.94-3.633,28.3,28.3,0,0,1-5.813-6,17.076,17.076,0,0,1-2.789-4.907,7.052,7.052,0,0,1,1.693-7.509A2.5,2.5,0,0,1,326.909,196.616Z" transform="translate(-308.532 -182.919)" fill="#fff"/>
        </g>
        <g id="Group_397" data-name="Group 397" transform="translate(1617.878 540.12)">
          <path id="Path_104" data-name="Path 104" d="M532.216,315.1a57.636,57.636,0,0,1-108.25-30.441c1.32-26.194,19.372-44.158,36.063-50.41-.092.182-.16.333-.241.478q-2.892,5.193-5.8,10.377a2.488,2.488,0,0,1-.73.789,50.348,50.348,0,0,0-20.909,30.52,48.267,48.267,0,0,0-1.239,9.3,2.3,2.3,0,0,1-.294.975q-2.831,5.126-5.693,10.235c-.1.184-.2.371-.324.616.191.114.364.224.543.323,2.465,1.374,4.935,2.736,7.387,4.134a1.577,1.577,0,0,1,.652.795q7.891,23.2,30.695,32.162a46.577,46.577,0,0,0,11.545,2.771,50.2,50.2,0,0,0,11.111.083,49.471,49.471,0,0,0,13.07-3.147,1.56,1.56,0,0,0,.215-.149l-66.3-37.052,43.266-10.738,7.1,22.106c1.375-.293,2.711-.575,4.047-.864,5.023-1.086,10.047-2.165,15.064-3.277.5-.112.665.021.822.464q3.883,10.918,7.794,21.827c.084.234.174.468.3.8,1.1-.933,2.169-1.821,3.2-2.745.105-.094.074-.425.008-.612q-1.707-4.834-3.442-9.661-1.874-5.236-3.751-10.472c-.064-.178-.111-.362-.187-.609,1.067-.233,2.1-.461,3.131-.684q9.6-2.082,19.2-4.174c.176-.037.438-.178.465-.312.289-1.372.537-2.753.815-4.227l-44.647,9.669c-6.5-20.245-12.993-40.46-19.54-60.849L531.143,278.5c-.323-1.387-.579-2.646-.912-3.886a50.56,50.56,0,0,0-60.421-36.024,1.182,1.182,0,0,1-.765-.062c-2.677-1.468-5.341-2.962-8.008-4.45a2,2,0,0,1-.189-.137c14.872-6.235,39.193-6.484,58.351,10.092A57.552,57.552,0,0,1,532.216,315.1Zm-70.36-75.5c4.636,14.435,9.235,28.761,13.851,43.131l-43.965,10.911Z" transform="translate(-423.89 -230.021)" fill="#fff"/>
        </g>
        <g id="Group_401" data-name="Group 401" transform="translate(1089.348 345.936)">
          <g id="Group_367" data-name="Group 367">
            <path id="Path_97" data-name="Path 97" d="M342.513,872.79v44.556a1.16,1.16,0,0,0,1.162,1.159h16.544a1.16,1.16,0,0,0,1.162-1.159V872.063h12A1.162,1.162,0,0,0,374.533,871l1.154-13.641a1.163,1.163,0,0,0-1.156-1.261h-13.15v-9.678a4.108,4.108,0,0,1,4.108-4.108h9.246a1.162,1.162,0,0,0,1.159-1.162V827.51a1.162,1.162,0,0,0-1.159-1.162H359.113a16.6,16.6,0,0,0-16.6,16.6V856.1h-8.272a1.162,1.162,0,0,0-1.162,1.162V870.9a1.16,1.16,0,0,0,1.162,1.159h8.272Z" transform="translate(-333.079 -826.348)" fill="#fff" fill-rule="evenodd"/>
          </g>
        </g>
        <g id="Group_407" data-name="Group 407" transform="translate(1125.233 441.684)">
          <path id="Path_122" data-name="Path 122" d="M1379.359,9.015a1.177,1.177,0,0,0,.234-.5A1.177,1.177,0,0,1,1379.359,9.015Z" transform="translate(-1280.151 11.311)" fill="#fff"/>
          <path id="Path_123" data-name="Path 123" d="M1386.388,54.8c-1.953.053-2.539-.817-2.956-2.6-1.121-4.8-1.975-9.769-3.89-14.264-8.468-19.89-23.386-32.479-44.6-36.691-7.662-1.521-15.73-1.053-23.618-1.342-2.058-.076-2.843-.633-2.808-2.807.108-6.769.02-13.54-.014-20.31-.005-1-.126-2-.188-2.911h-12.2c0,7.761-.1,15.285.054,22.8.052,2.574-.857,3.231-3.3,3.24A182.507,182.507,0,0,0,1273.745.5c-26.55,2.911-48.92,24.856-52.514,51.275-.306,2.246-1.132,3.124-3.438,3.033-3.874-.153-7.76-.042-11.815-.042V67.175c4.214,0,8.116.107,12.01-.041,2.207-.084,2.875.806,3.252,2.891,4.523,24.967,19.035,41.323,43,49.36,8.932,3,18.227,2.67,27.474,2.634,4.414-.017,4.416,0,4.418,4.261,0,6.39.064,12.78-.033,19.168-.03,1.976.622,2.777,2.613,2.684a55.3,55.3,0,0,1,6.577.014c2.435.177,3.35-.6,3.284-3.2-.173-6.766-.006-13.541-.086-20.311-.023-1.979.663-2.729,2.656-2.649,2.951.118,5.912,0,8.868.031,12.654.136,24.474-2.542,35.306-9.474,15.682-10.037,25.077-24.1,28.071-42.418.37-2.266,1.172-3.084,3.451-2.995,3.875.152,7.76.042,11.772.042V54.764C1394.377,54.764,1390.38,54.688,1386.388,54.8ZM1305.42-6.309a1.176,1.176,0,0,1-.234.5A1.176,1.176,0,0,0,1305.42-6.309ZM1374.458,66.2a47.363,47.363,0,0,1-10.771,26.32c-3.739-1.062-6.82-1.918-9.888-2.812-5.05-1.471-7.1-4.128-6.224-8.988.341-1.9,1.9-3.575,2.934-5.4l5.114,2.179c.081-1.6.148-2.934.232-4.594l3.816,2.265c.72-7.295,2.093-13.987,1.87-20.625-.339-10.078-11.473-17.476-21.27-14.929-1.65.429-3.35.672-4.989,1.138a12.8,12.8,0,0,0-8.918,8.524c-1.74,4.844-1.734,18.947.142,24.153l1.471-2.681,3.25,6.362,1.62-2.539c1.865,2.789,5.081,4.353,4.51,8.339-.632,4.411-5.842,7.883-9.987,6.2a55.617,55.617,0,0,1-7.2-3.453c-5.733-3.351-6.94-7.847-4.317-13.916a129.021,129.021,0,0,0,4.661-12.726c.743-2.381,1.4-4.951-.421-7.354-.372-.492-.035-1.485-.114-2.238-.467-4.423-.7-8.893-1.526-13.248-.69-3.639-3.79-5.438-7.017-6.512a25.675,25.675,0,0,0-17.393.186c-5.818,2.169-8.571,6.893-9.42,12.837a30.38,30.38,0,0,0-.1,3.713,31.223,31.223,0,0,1-.729,7.11c-.814,3.322-.637,7.323,2.432,10.213.484.455.519,1.379.785,2.077,1,2.637,1.828,5.362,3.066,7.884,1.9,3.872-2.018,11.99-6.181,12.441-5.175.56-10.938-7.012-8.886-11.727.971-2.229,2.293-4.324,3.1-6.605,1.849-5.264,1.056-10.764.058-15.939-1.432-7.431-7.209-10.439-16.372-9.64A11.973,11.973,0,0,0,1251,54.283c-.062,4.457-1.726,9.034.335,13.448.983,2.1,2.038,4.175,2.981,6.3,1.307,2.938.521,7.046-2.217,8.693a104.6,104.6,0,0,1-11.967,5.943c-.627.275-2.28-.577-2.749-1.342a49,49,0,0,1-6.671-35.134A51.475,51.475,0,0,1,1271.671,10.3a52.242,52.242,0,0,1,9.94-.895c13.637-.1,27.274-.043,40.912-.035C1353.642,9.39,1377.34,35.2,1374.458,66.2Z" transform="translate(-1205.978 26.132)" fill="#fff"/>
        </g>
        <path id="Path_231" data-name="Path 231" d="M604.626,43.807c-.177.9-.367,1.8-.53,2.7q-1.507,8.4-3,16.81-1.449,8.119-2.9,16.24c-.235,1.315-.473,2.63-.715,3.981l-4.916-1.817c-1.7-.629-3.4-1.252-5.094-1.9a.472.472,0,0,0-.63.177q-3.749,4.4-7.518,8.782c-.106.124-.216.244-.38.43-.014-.193-.031-.315-.031-.438,0-3.914-.006-7.828.011-11.741a1.386,1.386,0,0,1,.288-.753q8.119-10.979,16.256-21.944a1.572,1.572,0,0,0,.253-.443c-.092.074-.19.143-.276.224q-10.8,10.12-21.591,20.244c-.19.178-.334.313-.649.2q-6.971-2.6-13.954-5.178c-.078-.029-.153-.067-.29-.128.19-.114.322-.2.458-.275q22.307-12.548,44.614-25.1c.176-.1.339-.225.507-.338Z" transform="translate(743.487 626.629)" fill="#fff"/>
        <g id="Group_413" data-name="Group 413" transform="translate(1461.621 205.018)">
          <path id="Path_234" data-name="Path 234" d="M1583.784,588.575c.662-.03,1.326-.034,1.972-.029-.647,0-1.312,0-1.977.029Z" transform="translate(-1523.104 -436.269)" fill="none"/>
          <path id="Path_235" data-name="Path 235" d="M1568.1,525.783a14.159,14.159,0,0,1,3.066-.324,14.123,14.123,0,0,0-3.072.324v11.994c.635.06,1.208.095,1.726.1-.516-.008-1.089-.043-1.72-.1Z" transform="translate(-1515.972 -407.578)" fill="none"/>
          <path id="Path_236" data-name="Path 236" d="M1567.958,574.774h.006V558.913c.595-.062,1.139-.1,1.637-.1q-.749,0-1.643.1Z" transform="translate(-1515.909 -422.748)" fill="none"/>
          <path id="Path_237" data-name="Path 237" d="M1531.758,576.889c4.713.042,7.443-1.357,8.478-5.041.88-3.133.866-6.517,1.273-9.988h-.006c-.406,3.471-.392,6.855-1.272,9.988C1539.2,575.531,1536.468,576.93,1531.758,576.889Z" transform="translate(-1499.447 -424.134)" fill="none"/>
          <path id="Path_238" data-name="Path 238" d="M1490.773,509.46c-.341-26.443,22.376-49.568,49.4-49.262h0c-27.028-.309-49.747,22.818-49.406,49.262a49.421,49.421,0,0,0,49,49.242h0A49.421,49.421,0,0,1,1490.773,509.46Z" transform="translate(-1480.804 -377.901)" fill="none"/>
          <path id="Path_239" data-name="Path 239" d="M1526.243,527.741c-.089,7.891-.066,15.784.021,23.675.021,1.919,1.3,2.935,3.218,2.972h0c-1.92-.039-3.193-1.054-3.214-2.972-.087-7.891-.11-15.785-.021-23.675a2.972,2.972,0,0,1,3.368-3.125h0A2.972,2.972,0,0,0,1526.243,527.741Z" transform="translate(-1496.913 -407.196)" fill="none"/>
          <path id="Path_240" data-name="Path 240" d="M1629.082,549.043c-.718,4.846-1.484,9.687-2.044,14.551-.2,1.764-.915,2.462-2.348,2.5,1.437-.038,2.151-.735,2.354-2.5.56-4.864,1.326-9.705,2.044-14.551.494-3.333,1.045-6.658,1.571-9.986h-.006C1630.127,542.385,1629.576,545.71,1629.082,549.043Z" transform="translate(-1541.709 -413.764)" fill="none"/>
          <path id="Path_241" data-name="Path 241" d="M1540.456,524.152c.062,1.244.009,2.493.009,3.915h.005c0-1.423.053-2.672-.008-3.915-.346-6.951-2.513-9.193-9.34-9.722-.292-.022-.583-.034-.869-.034q.427,0,.863.034C1537.944,514.959,1540.11,517.2,1540.456,524.152Z" transform="translate(-1498.762 -402.55)" fill="none"/>
          <path id="Path_242" data-name="Path 242" d="M1646.532,555.052h.006V515.437h-.006Z" transform="translate(-1551.641 -403.023)" fill="none"/>
          <path id="Path_243" data-name="Path 243" d="M1571.94,535.561c1.024-1.6,2.61-3.018,2.8-4.6a49.687,49.687,0,0,0,.07-10.78,4.915,4.915,0,0,0-4.358-4.605c-4.441-.512-8.909-.794-13.612-1.193h0c4.7.4,9.167.682,13.606,1.193a4.913,4.913,0,0,1,4.358,4.605,49.648,49.648,0,0,1-.07,10.78c-.189,1.582-1.775,3-2.8,4.6,2.742,1.8,3.479,4.777,3.447,8.111-.035,3.61-.008,7.22-.008,11.164h.006c0-3.944-.027-7.554.008-11.164C1575.419,540.338,1574.683,537.364,1571.94,535.561Z" transform="translate(-1510.853 -402.543)" fill="none"/>
          <path id="Path_244" data-name="Path 244" d="M1611.086,517.253c1.369,8.23,2.638,16.478,3.946,24.718.024.155.195.286.663.938l0-.007c-.465-.645-.634-.777-.659-.931-1.309-8.24-2.578-16.488-3.946-24.718-.131-.788-.82-2.06-1.34-2.107-1.238-.111-2.485-.136-3.73-.134,1.243,0,2.487.022,3.724.134C1610.267,515.193,1610.955,516.465,1611.086,517.253Z" transform="translate(-1533.219 -402.83)" fill="none"/>
          <path id="Path_245" data-name="Path 245" d="M1608.761,566.452h.005V540.516l-.005-.011Z" transform="translate(-1534.465 -414.423)" fill="none"/>
          <path id="Path_246" data-name="Path 246" d="M1587.07,458.338a56.42,56.42,0,0,0-12.792-20.088,7.112,7.112,0,0,1-1.736-4.226c-.227-4.349.046-8.722-.117-13.077-.306-8.147-2.659-15.414-9.777-20.272-5.928-4.045-12.661-5.812-19.72-6.328-1.211-.089-2.5.8-3.743,1.253-4.9,1.76-6.579,4.878-5.359,10.186,1.06,4.61,1.064,9.463,1.552,14.374h-7.449c.642-6.383,1.266-12.421,1.84-18.463.083-.866.249-2.307-.165-2.547-3.287-1.906-5.992-5.508-10.311-4.743a69.963,69.963,0,0,0-13.14,3.334c-8.873,3.45-14.087,10.112-14.888,19.709-.452,5.416-.376,10.882-.38,16.325a6.536,6.536,0,0,1-1.764,4.578c-3.144,3.731-6.421,7.459-8.872,11.641A57.707,57.707,0,0,0,1472.514,481a58.915,58.915,0,0,0,59.408,57.7c22.852-.227,40.365-10.886,51.628-30.868C1592.459,492.026,1593.011,475.221,1587.07,458.338Zm-55.608,70.4a49.422,49.422,0,0,1-49-49.242c-.34-26.444,22.38-49.571,49.407-49.262h0c-27.024-.306-49.741,22.819-49.4,49.262a49.421,49.421,0,0,0,49,49.242Zm-23.153-60.282a2.951,2.951,0,0,0-3.1-3.1h0a2.972,2.972,0,0,0-3.368,3.125c-.089,7.891-.066,15.784.021,23.675.022,1.919,1.295,2.934,3.214,2.973h0a2.9,2.9,0,0,0,3.2-2.979c.147-2.058.033-4.135.033-6.489h6.255c-.406,3.471-.392,6.855-1.272,9.988-1.035,3.684-3.765,5.083-8.479,5.041q-.47,0-.968-.027c-4.044-.187-6.57-2.077-7.659-5.737a3.959,3.959,0,0,1-.267-1.052c-.019-9.063-.328-18.142.1-27.184.208-4.394,3.695-6.906,7.973-6.907.286,0,.576.011.868.034,6.828.528,8.995,2.771,9.341,9.722.062,1.244.008,2.493.008,3.915h-5.877C1508.328,471.671,1508.405,470.058,1508.309,468.455Zm28.716,31.774h-.006c-.592,0-1.222-.012-1.869-.016s-1.31,0-1.972.029h0c-1.491.068-2.146-.562-2.139-2.069.015-2.995-.027-5.991-.083-8.987-.07-3.738-1.269-5.211-4.762-5.186-.5,0-1.042.038-1.637.1v15.861h-6.069V459.775h0c4.7.4,9.172.682,13.613,1.194a4.915,4.915,0,0,1,4.358,4.605,49.666,49.666,0,0,1-.071,10.78c-.189,1.582-1.775,3-2.8,4.6,2.743,1.8,3.479,4.777,3.447,8.111C1537,492.674,1537.025,496.285,1537.025,500.229Zm30.369-.264h-5.213v-26.66l-.733-.077h0c-.526,3.328-1.077,6.653-1.571,9.986-.717,4.846-1.483,9.687-2.043,14.551-.2,1.767-.917,2.463-2.355,2.5a5.869,5.869,0,0,1-.653-.022c-1.631-.139-3.319.48-3.673-2.258-.885-6.833-2.123-13.621-3.226-20.426a9.276,9.276,0,0,0-1.128-3.543v25.947h-5.212V460.152c1.229,0,2.47-.031,3.713-.034s2.492.022,3.73.133c.519.047,1.208,1.319,1.339,2.107,1.368,8.23,2.638,16.478,3.946,24.718.024.154.194.286.658.931l0,.007c1.411-9.382,2.755-18.322,4.16-27.665h8.254Z" transform="translate(-1472.498 -347.936)" fill="#143559"/>
          <path id="Path_247" data-name="Path 247" d="M1562.315,352.484a21.616,21.616,0,1,0-20.886-21.827A21.531,21.531,0,0,0,1562.315,352.484Z" transform="translate(-1503.844 -309.263)" fill="#143559"/>
          <path id="Path_248" data-name="Path 248" d="M1616.766,515.244c-1.4,9.343-2.75,18.283-4.161,27.666l-.005-.007v.007c-.469-.652-.639-.783-.664-.938-1.309-8.24-2.578-16.488-3.946-24.718-.131-.788-.82-2.06-1.339-2.107-1.237-.111-2.482-.136-3.724-.134s-2.484.034-3.713.034v39.812h5.205V528.912l.006.011v-.011a9.284,9.284,0,0,1,1.128,3.543c1.1,6.8,2.342,13.592,3.226,20.426.354,2.738,2.042,2.119,3.673,2.258a5.884,5.884,0,0,0,.654.022c1.434-.04,2.145-.738,2.349-2.5.559-4.864,1.326-9.705,2.043-14.551.494-3.333,1.045-6.658,1.57-9.987h.006l.733.077v26.659h5.207V515.244Z" transform="translate(-1530.123 -402.83)" fill="#fff"/>
          <path id="Path_249" data-name="Path 249" d="M1575.382,543.672c.032-3.334-.7-6.308-3.447-8.111,1.023-1.6,2.609-3.018,2.8-4.6a49.649,49.649,0,0,0,.07-10.78,4.913,4.913,0,0,0-4.358-4.605c-4.439-.511-8.9-.794-13.606-1.193v40.186h6.062V538.708c.6-.063,1.144-.1,1.643-.1,3.493-.025,4.692,1.449,4.761,5.186.056,3,.1,5.992.083,8.987-.008,1.507.648,2.136,2.139,2.069.664-.031,1.329-.034,1.977-.03s1.276.016,1.869.016C1575.373,550.893,1575.347,547.282,1575.382,543.672ZM1564.7,532.845c-.518-.008-1.091-.043-1.726-.1V520.748a14.128,14.128,0,0,1,3.072-.324c2.452.095,3.157,1.546,3.232,5.193q.019.951.008,1.9C1569.241,531.591,1568.323,532.9,1564.7,532.845Z" transform="translate(-1510.853 -402.543)" fill="#fff"/>
          <path id="Path_250" data-name="Path 250" d="M1533.627,528.068c0-1.423.053-2.672-.009-3.915-.347-6.951-2.513-9.193-9.34-9.722q-.436-.033-.862-.034c-4.278,0-7.765,2.513-7.973,6.907-.428,9.043-.12,18.121-.1,27.185a3.95,3.95,0,0,0,.266,1.052c1.089,3.659,3.615,5.549,7.659,5.736q.5.023.967.027c4.71.041,7.438-1.358,8.473-5.041.88-3.133.866-6.517,1.271-9.988h-6.249c0,2.354.114,4.431-.034,6.489a2.9,2.9,0,0,1-3.2,2.979h-.006c-1.922-.038-3.2-1.053-3.218-2.973-.086-7.891-.11-15.785-.021-23.675a2.973,2.973,0,0,1,3.372-3.125h.006a2.951,2.951,0,0,1,3.1,3.1c.1,1.6.02,3.216.02,5Z" transform="translate(-1491.925 -402.55)" fill="#fff"/>
          <path id="Path_251" data-name="Path 251" d="M1571.174,525.459a14.152,14.152,0,0,0-3.066.324v11.994c.632.06,1.2.095,1.72.1,3.62.054,4.537-1.254,4.585-5.324q.012-.952-.008-1.9C1574.331,527,1573.626,525.554,1571.174,525.459Z" transform="translate(-1515.977 -407.578)" fill="#143559"/>
        </g>
        <g id="Group_403" data-name="Group 403" transform="translate(1520.49 656.345)">
          <path id="Path_143" data-name="Path 143" d="M320.517,159.374a40.555,40.555,0,0,1,34.866,34.838c3.7,0,7.438.006,11.171,0,4.475-.008,6.66,3.671,4.578,7.739a3.63,3.63,0,0,1-3.635,1.9c-3.974-.02-7.949-.007-11.917-.007-3.7,19.59-15.328,31.182-35.062,35.188,0,2.223.022,4.694-.007,7.164-.022,1.94-.006,3.89-.2,5.817a3.006,3.006,0,0,1-3.026,2.835,20.335,20.335,0,0,1-2.883.076,3.42,3.42,0,0,1-3.549-3.756c-.035-4.067-.01-8.135-.01-12.182-19.606-3.782-31.162-15.457-34.986-35.086-3.693,0-7.476-.061-11.257.019-3.175.068-4.793-1.194-4.847-4.014-.085-4.4.99-5.716,4.624-5.7,3.808.015,7.617,0,11.409,0,.828-2.944,1.408-5.924,2.493-8.708,5.547-14.243,15.859-22.858,30.924-25.664,1.235-.23,1.714-.65,1.675-1.982-.1-3.523-.05-7.052-.03-10.578.016-2.81,1.315-4.073,4.157-4.105.365,0,.73,0,1.094,0,3.166.013,4.385,1.219,4.408,4.434.024,3.283.005,6.566.005,9.849Zm-35.1,39.6c.129,17.372,13.588,30.656,31.079,30.437a30.3,30.3,0,0,0-1.3-60.582C298.825,169.011,285.293,182.763,285.414,198.979Z" transform="translate(-259.753 -143.163)" fill="#fff"/>
          <path id="Path_144" data-name="Path 144" d="M399.335,269.383a18.49,18.49,0,0,0-9.141-3.675c-1.885-.492-2.63,1.071-3.441,2.135-.994,1.3-1.692,1.106-2.752.188a33.738,33.738,0,0,1-6.385-7.791c-.7-1.114-.791-1.8.606-2.51,1.158-.591,2.674-1.069,2.778-2.805a18.854,18.854,0,0,0-2.145-10.171c-.258-.487-.515-.945-1.182-.982-3.1-.175-6.186-.344-9.217.648a1.993,1.993,0,0,0-1.59,1.728,23.45,23.45,0,0,0-.354,4.508c.4,6.522,3.044,12.183,6.872,17.316,4.348,5.83,9.646,10.531,16.732,12.882a12.132,12.132,0,0,0,3.32.858c3.129.533,4.248-.033,5.46-2.939a25.2,25.2,0,0,0,1.619-6.644A2.59,2.59,0,0,0,399.335,269.383Z" transform="translate(-327.437 -206.874)" fill="#fff"/>
        </g>
        <g id="Group_406" data-name="Group 406" transform="translate(1032.735 550.432)">
          <path id="Path_145" data-name="Path 145" d="M-368.3,1218.332c.5.6,1.006,1.231,1.542,1.84a21.622,21.622,0,0,0,6.3,5.143,8.747,8.747,0,0,0,6.812.922,7.05,7.05,0,0,0,1.588-.722c.368-.228.523-.157.737.167,1.117,1.69,2.254,3.366,3.379,5.051q2.629,3.935,5.252,7.875c1.241,1.864,2.477,3.73,3.767,5.674-.927.6-1.826,1.2-2.749,1.763a13.99,13.99,0,0,1-6.328,2.242,12.873,12.873,0,0,1-6.987-1.77,50.571,50.571,0,0,1-11.1-8.3,90.906,90.906,0,0,1-10.639-12.249,102.194,102.194,0,0,1-10.133-16.978,63.013,63.013,0,0,1-5.228-15.569,21.689,21.689,0,0,1-.31-7.662,9.853,9.853,0,0,1,3.029-5.669c1.384-1.275,2.9-2.412,4.369-3.588.583-.466.6-.425,1.012.191q3.062,4.594,6.137,9.178,2.773,4.156,5.533,8.322c.566.853.55.842-.181,1.538a7.629,7.629,0,0,0-2.264,5.176,20.856,20.856,0,0,0,1.941,9.629c.342.827.749,1.627,1.14,2.433.116.239.275.458.454.751,1.011-.927,1.971-1.8,2.928-2.683,2.755-2.536,5.5-5.082,8.27-7.6a.92.92,0,0,0,.291-1.1,7.277,7.277,0,0,1,3.258-8.143,6.987,6.987,0,0,1,8.434.968,7.01,7.01,0,0,1,2.087,3.779.628.628,0,0,0,.584.588q3.726.747,7.444,1.537a.634.634,0,0,0,.733-.3,6.909,6.909,0,0,1,7.392-2.851.68.68,0,0,0,.561-.207c2.437-3.315,4.85-6.648,7.285-9.964.25-.341.086-.572-.054-.847a7.335,7.335,0,0,1,2.05-9.24,7.057,7.057,0,0,1,11.168,4.444,7.157,7.157,0,0,1-5.934,8.542,9.412,9.412,0,0,1-2.208-.031.748.748,0,0,0-.791.311q-3.668,5.072-7.371,10.119c-.241.328-.131.553,0,.844a7.2,7.2,0,0,1-4.581,9.958,7.007,7.007,0,0,1-8.5-4.822.85.85,0,0,0-.751-.722q-3.873-.756-7.733-1.581a.6.6,0,0,0-.684.254,6.978,6.978,0,0,1-8.366,2.142.646.646,0,0,0-.554.063q-5.974,5.475-11.921,10.978A1.071,1.071,0,0,0-368.3,1218.332Z" transform="translate(392.63 -1167.964)" fill="#fff"/>
          <path id="Path_146" data-name="Path 146" d="M-288.564,1126.467a2.328,2.328,0,0,1-.946,1.919q-2.754,1.971-5.572,3.854a2.421,2.421,0,0,1-3.445-.68c-1.7-2.495-3.364-5.013-5.04-7.523-2.228-3.334-4.443-6.677-6.685-10a2.76,2.76,0,0,1,.83-4.249c1.64-1.085,3.238-2.232,4.869-3.331a2.506,2.506,0,0,1,3.679.671c1.842,2.727,3.65,5.477,5.477,8.215,2.053,3.076,4.125,6.14,6.155,9.232a12.437,12.437,0,0,1,.823,1.818Z" transform="translate(320.472 -1105.933)" fill="#fff"/>
          <path id="Path_147" data-name="Path 147" d="M-10.893,1543.064a2.312,2.312,0,0,1-1.085,2.178c-1.672,1.175-3.37,2.314-5.032,3.5-1.3.927-2.909.99-4.291-1.157-2.307-3.584-4.719-7.1-7.084-10.647-1.426-2.138-2.863-4.269-4.264-6.423a2.657,2.657,0,0,1,.785-3.915q2.528-1.735,5.056-3.469a2.561,2.561,0,0,1,3.719.741q3.442,5.18,6.882,10.36,2.362,3.548,4.742,7.085A2.484,2.484,0,0,1-10.893,1543.064Z" transform="translate(75.26 -1473.861)" fill="#fff"/>
        </g>
        <path id="Path_232" data-name="Path 232" d="M109.835,40.7h2.022c.54.07,1.084.121,1.621.212a16.233,16.233,0,0,1,13.294,13.175c.1.588.166,1.184.248,1.776v3.411c-.063.319-.109.642-.192.955a5.9,5.9,0,0,1-4.132,4.461,5.8,5.8,0,0,1-5.924-1.446c-.153-.141-.3-.292-.45-.446-.138.115-.265.225-.4.33a7.906,7.906,0,0,1-4.651,1.82,8.066,8.066,0,1,1,4.13-14.686,2.616,2.616,0,0,0,1.813.555c.561-.044,1.128-.009,1.714-.009v.413q0,3.79,0,7.58a2.032,2.032,0,0,0,1.848,2.109,1.934,1.934,0,0,0,2.127-1.763,15.784,15.784,0,0,0-.115-4.341,12.124,12.124,0,1,0-7.788,13.454c.647-.236,1.268-.546,1.931-.835l1.99,3.442a1.336,1.336,0,0,1-.121.088,15.938,15.938,0,0,1-10.6,1.867A16.209,16.209,0,0,1,94.826,54.694a15.621,15.621,0,0,1,4.522-9.173,15.837,15.837,0,0,1,8.711-4.572C108.648,40.845,109.244,40.782,109.835,40.7ZM106.8,56.854a4.043,4.043,0,1,0,4.053-4.024A4.054,4.054,0,0,0,106.8,56.854Z" transform="translate(1014.379 629.468)" fill="#fff"/>
        <g id="Group_414" data-name="Group 414" transform="translate(1659.258 388.384)">
          <path id="Path_191" data-name="Path 191" d="M-3882.924,1555.8a11.925,11.925,0,0,1,1.252.365,5.671,5.671,0,0,1,2.582,2.246c1.022,1.558,2.041,3.119,3,4.717a2.635,2.635,0,0,0,2,1.3,9.915,9.915,0,0,0,1.494.074q13.092,0,26.184-.009a6.229,6.229,0,0,1,2.3.315,4.008,4.008,0,0,1,2.588,3.623,11.615,11.615,0,0,1,.052,1.278q.005,7.441,0,14.883v.5c-.126-.1-.2-.142-.266-.2a24.3,24.3,0,0,0-3.779-2.928.506.506,0,0,1-.26-.5q.011-3.8,0-7.606a3.483,3.483,0,0,0-2.765-3.522,4.4,4.4,0,0,0-.944-.087q-26.532-.006-53.062,0a3.5,3.5,0,0,0-3.711,3.715q0,17.918,0,35.835a3.489,3.489,0,0,0,2.876,3.611,3.9,3.9,0,0,0,.728.056q10.075,0,20.15-.012a.558.558,0,0,1,.578.354c.651,1.21,1.339,2.4,2.015,3.6.053.093.113.181.212.338h-.513q-12.635,0-25.27,0a8.833,8.833,0,0,1-1.816-.094,3.923,3.923,0,0,1-3.047-3.273c-.1-.4-.153-.809-.228-1.214v-52.078c.049-.223.1-.447.147-.671a5.392,5.392,0,0,1,3.033-4,6.961,6.961,0,0,1,2.958-.531q10.251.008,20.5,0a3.974,3.974,0,0,0,.5-.061Z" transform="translate(3910.574 -1555.797)" fill="#fff"/>
          <path id="Path_192" data-name="Path 192" d="M-3768.935,1674.8a3.057,3.057,0,0,1,2.044.991,6.5,6.5,0,0,0,9.115.439c.163-.145.309-.31.458-.471a2.523,2.523,0,0,1,3.149-.631c1.438.763,2.852,1.582,4.229,2.45a2.469,2.469,0,0,1,.966,2.935,6.494,6.494,0,0,0,3.934,8.115,7.386,7.386,0,0,0,.878.243,2.637,2.637,0,0,1,2.1,2.408,23.7,23.7,0,0,1,.009,5.036,2.568,2.568,0,0,1-1.976,2.191,6.458,6.458,0,0,0-4.457,3.313,6.3,6.3,0,0,0-.5,4.953,2.557,2.557,0,0,1-1.112,3.2c-1.328.834-2.7,1.61-4.087,2.334a2.512,2.512,0,0,1-3.094-.607,6.364,6.364,0,0,0-4.977-2.138,6.077,6.077,0,0,0-4.548,2.015,2.757,2.757,0,0,1-3.4.667c-1.324-.748-2.662-1.477-3.942-2.295a2.556,2.556,0,0,1-1.094-3.12,6.387,6.387,0,0,0-.6-5.182,6.3,6.3,0,0,0-4.162-3.086,2.588,2.588,0,0,1-2.186-2.369,23.279,23.279,0,0,1,.014-5.036,2.6,2.6,0,0,1,2.029-2.228,6.444,6.444,0,0,0,5.114-5.444,6.1,6.1,0,0,0-.191-2.784,2.526,2.526,0,0,1,1.109-3.228c1.356-.857,2.774-1.616,4.181-2.387A4.54,4.54,0,0,1-3768.935,1674.8Zm6.8,10.871a8.024,8.024,0,0,0-8.028,8.053,8.032,8.032,0,0,0,8.072,8.01,8.043,8.043,0,0,0,8.019-8.033A8.052,8.052,0,0,0-3762.139,1685.674Z" transform="translate(3813.614 -1645.769)" fill="#fff"/>
        </g>
        <g id="Group_404" data-name="Group 404" transform="translate(1319.234 321.509)">
          <path id="Path_133" data-name="Path 133" d="M677.829,397.027a34.977,34.977,0,0,0-9.246,1.084c-2.415.712-2.4.73-2.461,3.179-.055,2.227-.166,4.453-.181,6.68a1.264,1.264,0,0,1-.826,1.293,43.742,43.742,0,0,1-8.474,2.788c-1.581.391-3.185.694-4.774,1.056-.329.075-.595.126-.829-.2-3.547-4.877-4.692-11.157-.853-16.462a18.55,18.55,0,0,1,7.334-5.745,49.3,49.3,0,0,1,18.2-4.653,52.8,52.8,0,0,1,28.923,6.393,14.55,14.55,0,0,1,7.931,13.33c.026,3.048-1.107,5.752-4.124,7.173a7.8,7.8,0,0,1-5.071.341,26.31,26.31,0,0,1-9.7-4.627,1.155,1.155,0,0,1-.465-1.138c.079-2.195.1-4.393.228-6.585a1.454,1.454,0,0,0-.971-1.589,21.809,21.809,0,0,0-6.229-1.737A63.364,63.364,0,0,0,677.829,397.027Z" transform="translate(-647.791 -385.935)" fill="#143559"/>
          <path id="Path_134" data-name="Path 134" d="M750.368,512.84a20.24,20.24,0,1,1-20.323-20.014A20.014,20.014,0,0,1,750.368,512.84Z" transform="translate(-697.792 -454.845)" fill="#fff"/>
          <path id="Path_252" data-name="Path 252" d="M735.827,505.65A12.969,12.969,0,1,1,722.8,492.825,12.824,12.824,0,0,1,735.827,505.65Z" transform="translate(-690.522 -447.672)" fill="#23517a"/>
        </g>
      </g>
    </g>
    <g id="Group_391" data-name="Group 391" transform="translate(1485.897 569.742)">
      <path id="Path_193" data-name="Path 193" d="M-3954.467,218.277a32.334,32.334,0,0,1-5.38.607,37.992,37.992,0,0,1-17.471-3.161,3.644,3.644,0,0,1-2.389-3.712,6.479,6.479,0,0,1,4.213-6.592,34.888,34.888,0,0,1,5.708-1.711,10.96,10.96,0,0,0,2.127-.717,1.889,1.889,0,0,0,.814-3.031,14.3,14.3,0,0,1-1.857-4.45,1.915,1.915,0,0,0-.621-1.082,4.08,4.08,0,0,1-1.378-2.717c-.047-.465-.271-1.019.535-1.24.355-.1.133-.673.076-1.009a10.361,10.361,0,0,1-.024-3.878c.675-3.2,3.02-5.062,6.608-5.292a9.774,9.774,0,0,1,3.665.51c.572.185.672.417.425.986a22.036,22.036,0,0,0-1.786,9.711,22.367,22.367,0,0,0,4.695,13.06c.315.413.378.648-.028,1.053a7.193,7.193,0,0,0-2.082,4.9,23.478,23.478,0,0,0,.068,3.29,3.987,3.987,0,0,0,2.126,3.361C-3955.816,217.5-3955.221,217.847-3954.467,218.277Z" transform="translate(3979.711 -156.325)" fill="#fff"/>
      <path id="Path_194" data-name="Path 194" d="M-3858.5,144.257a20.133,20.133,0,0,1,20.141-20.182,20.132,20.132,0,0,1,20.2,20.118,20.136,20.136,0,0,1-20.184,20.226A20.13,20.13,0,0,1-3858.5,144.257Zm2.614-.117a17.512,17.512,0,0,0,17.384,17.673,17.519,17.519,0,0,0,17.732-17.416,17.521,17.521,0,0,0-17.343-17.717A17.5,17.5,0,0,0-3855.888,144.14Z" transform="translate(3879.586 -109.9)" fill="#fff"/>
      <path id="Path_195" data-name="Path 195" d="M-3615.154,188.421c0,.549,0,1.1,0,1.646,0,.112-.008.309.032.322.74.229.508.816.427,1.275a3.77,3.77,0,0,1-1.207,2.691,1.487,1.487,0,0,0-.612,1.067,10.055,10.055,0,0,1-2,4.994c-.56.666-.09,1.825.9,2.379a13.412,13.412,0,0,0,3.858,1.234,17.793,17.793,0,0,1,5.213,1.8c3.163,1.8,3.6,4.829,2.777,8.321-.176.745-.94.986-1.531,1.32-1.9,1.073-1.9,1.054-3.411-.463q-5.636-5.65-11.277-11.293a6.127,6.127,0,0,0-4.028-1.963c-.587-.039-.739-.193-.449-.791a22.574,22.574,0,0,0,.366-19.824c-.271-.612-.088-.69.459-.776a8.493,8.493,0,0,1,3.187.114,22.532,22.532,0,0,1,4.711,1.877,4.853,4.853,0,0,1,2.563,4.082c.083.656.067,1.325.1,1.988Z" transform="translate(3688.024 -156.31)" fill="#fff"/>
      <path id="Path_196" data-name="Path 196" d="M-3663.322,321.4a.853.853,0,0,0-.372-.962.835.835,0,0,1-.023-1.306c1.228-1.265,2.479-2.506,3.736-3.741a.858.858,0,0,1,1.368.019.821.821,0,0,0,.82.29,3.541,3.541,0,0,1,2.971,1.11q7.5,7.516,15.018,15.02a3.541,3.541,0,0,1,.028,5.305c-.729.742-1.459,1.484-2.21,2.2a3.463,3.463,0,0,1-4.986.034q-7.725-7.662-15.39-15.384A3.418,3.418,0,0,1-3663.322,321.4Z" transform="translate(3718.933 -267.664)" fill="#fff"/>
      <path id="Path_197" data-name="Path 197" d="M-3856.76,61.671a14.308,14.308,0,0,1-1.527-3.917,1.839,1.839,0,0,0-.592-1,4.346,4.346,0,0,1-1.429-3.144c-.011-.358-.01-.71.475-.776.438-.06.231-.405.216-.61-.06-.834-.235-1.665-.238-2.5-.016-4.274,2.488-6.869,6.828-7.131a9.34,9.34,0,0,1,2.832.288,26.635,26.635,0,0,1,4.222,1.718,4.778,4.778,0,0,1,2.688,4.176c.1.944.033,1.9.068,2.856.018.48-.247.979.4,1.385.408.254-.042,1.3-.549,1.385A22.84,22.84,0,0,0-3856.76,61.671Z" transform="translate(3881.079 -42.584)" fill="#fff"/>
      <path id="Path_198" data-name="Path 198" d="M-3712.289,61.911a27.967,27.967,0,0,0-3.706-3.36,22.586,22.586,0,0,0-9.979-4.124c-.3-.047-.687.017-.667-.468.016-.4-.226-.894.39-1.089.674-.212.271-.747.228-1.073a13.234,13.234,0,0,1-.139-2.933,6.254,6.254,0,0,1,5.433-6.057,9.1,9.1,0,0,1,6.439,1.026,2.793,2.793,0,0,0,.622.29A5.149,5.149,0,0,1-3709.613,49c.034.432,0,.87.057,1.3a9.548,9.548,0,0,0,.327,2.858,3.229,3.229,0,0,1-1.05,3.457,2.1,2.1,0,0,0-.736,1.374,11.649,11.649,0,0,1-.662,2.5C-3711.853,60.946-3712.061,61.387-3712.289,61.911Z" transform="translate(3770.69 -42.608)" fill="#fff"/>
      <path id="Path_199" data-name="Path 199" d="M-3825.394,346.769c-5.887-.113-11.248-1-16.292-3.448a2.831,2.831,0,0,1-1.923-3,22.387,22.387,0,0,1,.193-3.105,5.2,5.2,0,0,1,1.092-1.942c.312-.428.572-.324.9-.009a19.557,19.557,0,0,0,4.115,3.011,22.557,22.557,0,0,0,22.056.274c.895-.45.887-.465,1.036.51a6.942,6.942,0,0,0,2.41,4c.847.8,1.1.751-.289,1.288a34.615,34.615,0,0,1-10.708,2.268A20.955,20.955,0,0,1-3825.394,346.769Z" transform="translate(3867.294 -284.123)" fill="#fff"/>
      <path id="Path_200" data-name="Path 200" d="M-3791.136,203.756a17.394,17.394,0,0,0,1.821-.708,1.864,1.864,0,0,0,.74-2.939,15.165,15.165,0,0,1-1.927-4.613,1.771,1.771,0,0,0-.552-.928,4.3,4.3,0,0,1-1.435-3.14c-.007-.227-.079-.555.149-.637.854-.307.508-.932.447-1.484-.235-2.129-.3-4.263,1.04-6.085,1.823-2.472,4.453-3.011,7.328-2.759a8.723,8.723,0,0,1,3.426,1.145,3.239,3.239,0,0,0,.71.306,5.153,5.153,0,0,1,3.92,4.634c.056.544-.011,1.1.063,1.643.121.9-.392,1.831.411,2.715.478.526-.4,2.979-1.162,3.538a1.83,1.83,0,0,0-.684,1.312,9.861,9.861,0,0,1-1.892,4.679,1.663,1.663,0,0,0,.439,2.224,12.313,12.313,0,0,0,1.926.973C-3779.881,206.285-3786.94,206.556-3791.136,203.756Z" transform="translate(3825.07 -156.434)" fill="#fff"/>
    </g>
    <g id="Group_416" data-name="Group 416" transform="translate(959.922 164.944)" opacity="0.1">
      <path id="Path_253" data-name="Path 253" d="M32.068,447.006A1106.473,1106.473,0,0,1-75.023,353.122c-100.944-13.721-116.459-15.831-125.91-7.3-13.829-18.916-24.778-36.981-31.613-52.693l.173.4,2.982,6.673c6.787,14.742,17.087,31.448,29.887,48.88,6.778-8.6,26.84-5.763,123.243,7.9A1093.747,1093.747,0,0,0,28.471,448.641c77.789,59.345,140.083,87.137,173.451,81.957h0l5.863-.97C174.269,535.318,111.088,507.293,32.068,447.006Z" transform="translate(266.189 272.87)" fill="gray"/>
      <path id="Path_254" data-name="Path 254" d="M9.312,435.25a1057.6,1057.6,0,0,1-97.7-85.071c-103.889-16.283-110.108-17.258-115.2-9.7a302.877,302.877,0,0,1-24.286-37.644l3.508,6.488a303.914,303.914,0,0,0,22.359,34.087c2.624-7.605,13.022-5.911,112.479,10.318a1045.754,1045.754,0,0,0,95.374,82.9c72.76,55.51,131.414,82.29,164.059,79.094l4.347-.452h0l1.606-.182C143.023,518.822,83.4,491.778,9.312,435.25Z" transform="translate(274.789 290.756)" fill="gray"/>
      <path id="Path_255" data-name="Path 255" d="M-15.566,421.329a1006.737,1006.737,0,0,1-88.406-76.441c-96.958-17.451-96.958-17.451-103.892-14.435-.1.66-.225,1.535-.318,2.195-5.012-6.633-9.593-13.158-13.656-19.467l2.189,3.366,3.389,5.075c3.031,4.458,6.309,9.01,9.8,13.61-.088-.452-.2-1.055-.29-1.513,4.188-3.867,4.188-3.867,101.7,14.412A992.387,992.387,0,0,0-18.938,422.46c67.275,51.325,121.944,76.973,153.722,75.867h0l5.988-.284C108.752,499.644,53.08,473.7-15.566,421.329Z" transform="translate(285.926 309.818)" fill="gray"/>
      <path id="Path_256" data-name="Path 256" d="M-121.1,340.207c-90.163-18.509-90.163-18.509-93.751-17.213.128.517.3,1.206.429,1.72l1.4,1.805c.011-.489.028-1.137.04-1.623,4.077-.435,4.077-.435,90.856,18.23a937.48,937.48,0,0,0,77.064,66.055c61.8,47.146,112.416,71.523,143.046,72.2l5.951.068C73,481.191,21.362,456.487-41.8,408.3A952.567,952.567,0,0,1-121.1,340.207Z" transform="translate(298.802 327.012)" fill="gray"/>
      <path id="Path_257" data-name="Path 257" d="M-129.05,345.362c-83.248-19.615-83.248-19.615-83.672-19.575l1.413,1.737c1.925-.364,2.124-.4,21.093,4.782,30.123,8.234,37.7,10.1,60.19,15.643A880.727,880.727,0,0,0-61.752,406.06c56.045,42.756,102.368,65.717,131.639,68.117h0l6.227.438C46.49,472.707-1,449.373-58.605,405.424A894.707,894.707,0,0,1-129.05,345.362Z" transform="translate(302.728 333.048)" fill="gray"/>
      <path id="Path_258" data-name="Path 258" d="M2.706,157.461A30.97,30.97,0,0,0,1.048,153.1c-1.041-2.383-2.32-5.03-3.127-6.6q-1.6-3.395-3.309-6.71,1.659,3.284,3.21,6.647C2.251,157.179,2.5,157.335,2.706,157.461Z" transform="translate(684.878 -9.763)" fill="gray"/>
      <path id="Path_259" data-name="Path 259" d="M3.726,158.069a35.074,35.074,0,0,0-1.919-4.523c-1.18-2.474-2.6-5.2-3.489-6.809q-1.8-3.51-3.707-6.943,1.859,3.408,3.608,6.886C3.334,157.839,3.487,157.932,3.726,158.069Z" transform="translate(684.878 -9.763)" fill="gray"/>
      <path id="Path_260" data-name="Path 260" d="M4.713,158.62a43.971,43.971,0,0,0-2.172-4.674c-1.3-2.522-2.866-5.331-3.841-7q-1.987-3.617-4.088-7.156,2.051,3.514,3.995,7.105C4.357,158.427,4.463,158.484,4.713,158.62Z" transform="translate(684.878 -9.763)" fill="gray"/>
      <path id="Path_261" data-name="Path 261" d="M5.662,159.11a51.054,51.054,0,0,0-2.42-4.808c-1.427-2.6-3.125-5.47-4.177-7.165q-2.171-3.706-4.455-7.344,2.239,3.612,4.364,7.3C5.353,158.956,5.392,158.976,5.662,159.11Z" transform="translate(684.878 -9.763)" fill="gray"/>
      <path id="Path_262" data-name="Path 262" d="M6.567,159.539c-.492-1.157-1.712-3.318-2.647-4.927h0c-1.535-2.633-3.369-5.567-4.5-7.31l-4.8-7.509q2.418,3.7,4.717,7.472C6.3,159.419,6.3,159.419,6.567,159.539Z" transform="translate(684.878 -9.763)" fill="gray"/>
      <path id="Path_263" data-name="Path 263" d="M20.69,302.448c.876-3.363.677-4.913-.685-5.345-4.316.566-8.692,10.523-8.146,13.764.361,2.144,2.687,2.567,6.531-3.338,13.7.887,24.554-1.635,32.145-7.608a253.585,253.585,0,0,1-11.512,29.506l3.133-5.6a254.374,254.374,0,0,0,10.972-29.325C45.559,300.717,34.6,303.346,20.69,302.448Z" transform="translate(716.584 275.401)" fill="gray"/>
      <path id="Path_264" data-name="Path 264" d="M21.384,306.789Z" transform="translate(734.222 298.039)" fill="gray"/>
      <path id="Path_265" data-name="Path 265" d="M17.656,308.7c1.046-3.292.907-4.808-.478-5.234-4.541.535-9.334,10.156-8.919,13.417.27,2.1,2.624,2.53,6.821-3.221,12.8.827,23.166-1.262,30.769-6.3-3.494,11.614-3.494,11.614-13.761,30.152l3.517-5.43c5.769-9.112,5.769-9.112,13.189-30C41.18,307.342,30.683,309.535,17.656,308.7Z" transform="translate(709.988 289.348)" fill="gray"/>
      <path id="Path_266" data-name="Path 266" d="M14.246,314.8c1.2-3.2,1.129-4.686-.262-5.109-4.572.5-9.991,9.971-9.692,13.064.2,2.038,2.593,2.459,7.108-3.128,11.825.762,21.608-.921,29.094-5.078C36.016,327,36.016,327,24.3,345.271L28.228,340c6.963-9.706,7.125-10.1,15.558-30.578C36.255,313.8,26.318,315.58,14.246,314.8Z" transform="translate(702.7 302.896)" fill="gray"/>
      <path id="Path_267" data-name="Path 267" d="M20.592,164.379q-.994-1.668-2.09-3.437Z" transform="translate(728.914 29.218)" fill="gray"/>
      <path id="Path_268" data-name="Path 268" d="M-8.024,129.582l-1.712-1.473-.026-.009c1.143,4.615,5.664,16.158,12.43,33.242C-8.274,132.522-8.092,130.384-8.024,129.582Z" transform="translate(676.82 -31.314)" fill="gray"/>
      <path id="Path_269" data-name="Path 269" d="M-6.337,131.479l1.231.219-1.643-1.476-.071-.065c-.27.054-.625.128-.9.185.148,5.487,1.3,9.752,6.616,27.212C-7.019,137.453-6.655,134.28-6.337,131.479Z" transform="translate(680.589 -27.524)" fill="gray"/>
      <path id="Path_270" data-name="Path 270" d="M-5.389,142c.165-1.291.31-2.411.441-3.412C-5.088,139.543-5.227,140.615-5.389,142Z" transform="translate(684.878 -11.975)" fill="gray"/>
      <path id="Path_271" data-name="Path 271" d="M81.936,239.785v0c-3.838-12.456-7.267-19.055-14.75-32.213l-2.559-4.208c9.886,16.522,12.646,25.139,14.893,32.151,1.908,6.92,2.255,12.467,1.211,16.655C48.566,201.311,14.792,162.8-5.389,139.793c47.285,53.989,68.85,86.4,88.511,117.528C84.285,252.948,83.952,247.109,81.936,239.785Z" transform="translate(684.878 -9.763)" fill="gray"/>
      <path id="Path_272" data-name="Path 272" d="M71.809,222.836c-3.665-13.3-13.269-30.362-26.618-48.5l-1.24-1.68h0c-2.2-2.963-5.237-6.841-7.492-9.761,24.872,31.554,30.314,48.533,32.637,55.786,1.487,5.4,1.857,9.806,1.223,13.243-29.236-41.448-56.1-70.744-75.708-92.136,43.555,47.549,62.081,73.883,78.429,97.117C73.765,233.285,73.4,228.6,71.809,222.836Z" transform="translate(684.878 -9.763)" fill="gray"/>
      <path id="Path_273" data-name="Path 273" d="M62.25,220.984C55.967,198.165,28.524,161.968-3.768,132.2a5.491,5.491,0,0,0-1.109-.3c-2.28,3.022-1.874,6.426,1.22,22.444-2.69-14.725-1.985-17.215-1.009-20.661l1.805-.407c30.4,28.119,56.178,62.183,62.1,83.692a26.4,26.4,0,0,1,1.12,10.065C36.881,197.076,19.768,178.8-3.657,154.343c30.669,32.04,44.888,49.079,67.062,77.474A27.425,27.425,0,0,0,62.25,220.984Z" transform="translate(683.147 -24.313)" fill="gray"/>
      <path id="Path_274" data-name="Path 274" d="M48.247,202.042h0C42.314,183.314,24.382,159-2.245,133.559h0c-3.79,1.527-3.517,6.6-2.914,17.724-.668-13.027.691-14.213,3.409-16.576,22.924,21.489,42.2,47.148,46.693,63.465a21.653,21.653,0,0,1,.927,7.148c-20.061-23.089-33.052-36.068-51.029-54.037,27.374,27.366,36.4,37.808,54.387,58.606A22.861,22.861,0,0,0,48.247,202.042Z" transform="translate(684.648 -21.254)" fill="gray"/>
      <path id="Path_275" data-name="Path 275" d="M35.1,188.919a17.53,17.53,0,0,0-.736-5.166c-3.437-12.481-18.026-32.014-35.486-48.541-2.533,2.292-2.98,3.349-3.824,9.616.589-3.915,1.234-4.836,3.9-8.4,15.66,14.875,28.722,32.4,31.812,43.614a16.811,16.811,0,0,1,.671,4.546C17.851,170.455,16.1,168.777-5.389,148.238,13.393,166.2,16.708,169.667,35.1,188.919Z" transform="translate(684.878 -18.209)" fill="gray"/>
      <path id="Path_276" data-name="Path 276" d="M19.526,165.942C18.5,162.414,14.4,152.528-1.48,136.956c-1.655,2.121-2.951,5.553-3.909,8.066a42.1,42.1,0,0,1,3.543-6.775c4.236,4.1,14.406,14.645,17.443,24.121a9.507,9.507,0,0,1,.378,2.292C9.64,158.689,1.042,150.89-5.389,145.022c7.7,7.031,17.807,16.567,25.367,23.743A11.471,11.471,0,0,0,19.526,165.942Z" transform="translate(684.878 -14.992)" fill="gray"/>
      <path id="Path_277" data-name="Path 277" d="M3.473,148.619c-.7-2.528-3.565-6.431-7.057-9.823l-1.805,2.835,1.006-1.49a14.188,14.188,0,0,1,3.671,5.118c.028.131.06.3.077.435l-4.754-4.063,9.016,7.85A4.006,4.006,0,0,0,3.473,148.619Z" transform="translate(684.878 -11.601)" fill="gray"/>
      <path id="Path_278" data-name="Path 278" d="M-42.3,750.555c8.205-20.769,9.928-26.808,15.379-53.844q3.97-3.77,7.89-7.677C86.941,583.456,139.031,430.812,126.413,296.114c-8.171-24.059-8.541-25.117-27.764-80.487a235.879,235.879,0,0,1-21.29-14.611,341.386,341.386,0,0,1-58.149-56.778c.418-.626.978-1.461,1.4-2.09-5.814-1.922-8.541.409-10.167,1.8a8.541,8.541,0,0,0,4.916,1.535A398.632,398.632,0,0,0,77.01,204.766a249.4,249.4,0,0,0,21.9,15.069C119.439,280.6,119.439,280.6,125.1,297.569,135.938,431.267,83.14,582.532-22.271,687.55q-4.759,4.747-9.6,9.294c-4.563,27.761-10.383,42.3-16.016,56.357,27.246,8.211,48.26,8.237,61.475-.08l5.064-3.25C5.609,758.368-15.228,758.541-42.3,750.555Z" transform="translate(606.557 -6.767)" fill="gray"/>
      <path id="Path_279" data-name="Path 279" d="M-50.119,783.5c10.315-22.575,12.635-34.021,17.827-63.8q7.429-6.8,14.728-14.068C86.157,602.3,141.022,455.181,135.424,324.555c-7.185-23.078-14.48-46.116-21.7-69.18-7.3-4.5-15.154-9.923-23.45-16.252-39.44-30.092-77.755-72.177-97.657-106.369l2.641-1.157c-.054-.06-6.753-4.941-13.505-1.123a29.917,29.917,0,0,0,5.419,1.888C8.8,167.916,48.667,211.7,89.7,243.013c8.43,6.428,16.419,11.958,23.86,16.576q10.12,33.141,20.3,66.263c3.878,129.575-51.655,275.3-154.819,378.085q-8.133,8.1-16.439,15.638c-5.678,35.864-8.729,43.9-18.432,66.263,27.88,9.1,49.548,9.931,63.4,2.331l5.251-2.94C-.875,793.01-22.387,792.379-50.119,783.5Z" transform="translate(591.911 -29.627)" fill="gray"/>
      <path id="Path_280" data-name="Path 280" d="M-58.131,764.437c12.663-23.92,16.05-46.909,19.968-73.524q10.914-9.66,21.585-20.28C84.889,569.543,142.37,428,143.57,301.668c-10.358-36.282-10.358-36.282-16.3-57.31-7.782-4.913-16.078-10.7-24.8-17.355-29.41-22.438-58.285-50.628-80.43-79.288.193-.765.449-1.783.64-2.545-4.674-2.266-7.952-.4-10.659,1.524.065.8.154,1.876.219,2.678a15.8,15.8,0,0,0,5.118.549c24.07,28.747,53.924,57.893,84.331,81.1,8.785,6.7,17.153,12.553,25.017,17.548,4.361,15.879,6.2,22.487,15.057,54.231C138.9,428.024,80.792,568.184-20.109,668.71q-11.523,11.481-23.34,21.841c-4.953,41.3-10.98,55.738-20.405,75.876,28.409,9.94,50.645,11.566,65.08,4.708l5.331-2.582C-7.738,775.6-29.844,774.172-58.131,764.437Z" transform="translate(577.117 -1.767)" fill="gray"/>
      <path id="Path_281" data-name="Path 281" d="M-66.18,801.329c12.956-24.977,16.948-43.446,21.7-82.93q14.406-12.364,28.474-26.365c99.218-98.849,159.127-234.846,166.846-356.713-3.486-13.408-8.1-31.3-11.546-44.72-8.021-5.177-16.5-11.159-25.375-17.926C62,233.07,11.57,177.676-14.88,132.544c.762-.614,1.78-1.43,2.542-2.044-1.828-2.027-6.013-2.732-12.436-2.1-.5.748-1.163,1.743-1.663,2.491a26.118,26.118,0,0,0,5.885,1.868C7.609,179.047,59.5,236.047,112.92,276.8q13.3,10.146,25.4,17.986c3.1,12.45,7.293,29.043,10.446,41.482C139.464,457,78.978,591.611-19.677,689.9q-14.9,14.846-30.186,27.854c-4.785,43.29-8.91,59.223-22.077,85.25,28.708,10.7,51.353,13.124,66.306,7.111l5.482-2.266C-14.977,814.072-37.535,811.843-66.18,801.329Z" transform="translate(562.214 -31.173)" fill="gray"/>
      <path id="Path_282" data-name="Path 282" d="M-74.3,771.041c17.082-28.287,20.124-60.756,23.064-92.156Q-33.4,663.98-15.942,646.618C81.03,550.01,143.179,419.54,157.147,302.29c-2.226-9.454-5.152-22.066-7.352-31.525q-12.022-7.937-25.173-17.952c-37.2-28.38-73.715-64.034-101.581-100.87-.011-.8-.028-1.879-.04-2.684-.057-.051-6.573-4.208-11.975,2.829.267.782.625,1.822.9,2.6a16.3,16.3,0,0,0,5.743.651c30.189,36.051,67.625,72.6,105.76,101.7q13.016,9.928,25.006,17.872c1.894,8.444,4.472,19.695,6.4,28.133C139.343,419.125,76.663,548.216-19.743,644.264q-18.266,18.2-36.987,33.726C-61.208,737.978-70.366,754.7-80.067,772.4c28.861,11.381,51.8,14.58,67.19,9.419l5.575-1.928C-22.589,785.268-45.466,782.257-74.3,771.041Z" transform="translate(547.234 5.352)" fill="gray"/>
      <path id="Path_283" data-name="Path 283" d="M-82.421,811.812c15.578-26.379,20.286-46.221,23.991-101.095Q-37.243,693.394-16.4,672.67C78.326,578.3,142.513,453.325,162.421,340.8l-3.75-17.733q-11.63-7.843-24.19-17.409C70.851,257.112,9.038,189.217-22.806,133.474c.469-.77,1.095-1.794,1.564-2.565-.048-.054-6.025-4.913-14.617-.441.2.825.469,1.925.671,2.749a26.555,26.555,0,0,0,5.723,1.4C4.83,190.98,68.025,260.39,133.074,310.021q12.338,9.412,23.84,17.2l2.928,14.139C138.5,452.679,73.834,576.289-20.324,670.1a587.2,587.2,0,0,1-43.708,39.477C-66.844,777-78.176,796.055-88.173,812.867c28.867,12,51.985,15.925,67.727,11.62l2.056-.569h0l3.622-1.032C-30.431,827.415-53.523,823.668-82.421,811.812Z" transform="translate(532.293 -30.434)" fill="gray"/>
      <path id="Path_284" data-name="Path 284" d="M61.586,237.57C46,208.891,40.077,199.543,19.3,168.57a9.94,9.94,0,0,1-3.71,1.2c-2.414-4.1-2.889-4.512-3.344-4.91.014.128,5.874,14.042,7.989,14.634a27.6,27.6,0,0,0-1.962-4.72,10.732,10.732,0,0,0,3.793-1.191c22.308,33.871,27.351,42.983,41.408,69.356,1.95-5.436,1.729-13.025-.958-22.788-1.484-5.3-1.649-5.709-5.905-16.169h0l-3.221-7.114a121.066,121.066,0,0,1,7.159,18.845C63.118,225.032,63.371,232.308,61.586,237.57Z" transform="translate(717.386 36.443)" fill="gray"/>
      <path id="Path_285" data-name="Path 285" d="M63.248,254.923c-12.433-29.322-17.46-39.079-35.42-71.662a18.245,18.245,0,0,1-6.471,1.154c-1.959-4.322-2.488-4.754-3.054-5.209-.614,2.178,3.861,13.369,5.615,15.515l.52-.222a17.086,17.086,0,0,0-1.072-4.856,19.235,19.235,0,0,0,6.491-1.109c19.288,35.642,23.382,45.016,34.6,72.023,4.361-10.034,3.014-17.358.043-30.5q-.67-2.329-1.379-4.651C66.739,238.532,66.612,248.352,63.248,254.923Z" transform="translate(728.441 62.881)" fill="gray"/>
      <path id="Path_286" data-name="Path 286" d="M28.371,190.978a19.522,19.522,0,0,1-3.332.739c-1.817-4.35-2.351-4.748-2.914-5.175-.577.631,2.513,13.448,5.376,15.936.29-.506.566-.987-.637-5.453a20.507,20.507,0,0,0,3.164-.677c17.815,36.435,21.457,45.929,31.349,73.229,4.239-6.6,5.047-16.7,1.876-30.342l-1.379-5.962c3.386,13.772,2.752,23.968-1.351,30.644C49.561,234.257,44.967,224.309,28.371,190.978Z" transform="translate(735.461 76.405)" fill="gray"/>
      <path id="Path_287" data-name="Path 287" d="M36.1,202.435c-.136-.509-.284-1.024-.435-1.541l-2-6.7q.571,1.821,1.058,3.591Q35.425,200.1,36.1,202.435Z" transform="translate(756.851 90.505)" fill="gray"/>
      <path id="Path_288" data-name="Path 288" d="M65.049,222.9c-.279-.753-.549-1.513-.833-2.266,3.58,13.644,2.641,18.788.671,25.637-13.983-29.02-19.456-38.582-38.815-70.391a16.656,16.656,0,0,1-8.655,1.194c-2.07-4.236-2.584-4.7-3.127-5.183-.247,1.26,4.063,13.508,6.556,15.325.017-.836.028-1.439-1.254-5.015a17.671,17.671,0,0,0,8.879-1.166c20.789,34.786,25.35,44.032,37.965,70.73,3.3-8.41,1.936-15.583-.552-26.6l0,0c-.793-2.826-2.107-6.514-3.028-9.3l-2.348-6.295a114.724,114.724,0,0,1,3.71,11.066C64.5,221.392,64.77,222.151,65.049,222.9Z" transform="translate(721.131 49.406)" fill="gray"/>
      <path id="Path_289" data-name="Path 289" d="M-65.434,137.559q.742,2.7,1.695,5.533c39.549,15.038,39.549,15.038,126.831,49.463,9.374,15.487,25.643,34.112,43.259,49.139a133.179,133.179,0,0,0,3.469-30.908,128.661,128.661,0,0,1-3.537,27.485C90.275,224.5,75.556,207.563,67.1,193.5c-71.955-29.211-84.874-34.377-125.665-50.25q-.81-2.448-1.456-4.8c-6.386-23.183.284-34.846,16.49-35.352C9.4,119.408,41.529,142.813,60.723,156.8c.762.273,1.55.574,2.354.9a24.616,24.616,0,0,0,4.316,3.3c-.063-.068-6.906-7.168-10.056-8.4.648.614,1.527,1.419,2.192,2.016q-1.147-.465-2.24-.861C16.532,122.692-23.93,109.283-48.105,101.277-65.03,101.61-72.042,113.574-65.434,137.559Z" transform="translate(569.671 -80.755)" fill="gray"/>
      <path id="Path_290" data-name="Path 290" d="M69.01,193.373c-63.2-28.838-91.354-40.834-121.156-53.534q-.337-1.1-.634-2.184c-5.527-20.064-.125-30.484,13.357-31.556,51.641,18.765,81.79,43.813,99.8,58.78a51.974,51.974,0,0,1,7.443,3.238c2.294,2.431,2.294,2.431,3.27,3-.054-.071-5.416-6.94-7.984-8.211.529.62,1.248,1.439,1.791,2.047a57.325,57.325,0,0,0-7.935-3.471c-38.053-33.112-77.414-48.377-100.93-57.5-14.145.95-19.848,11.683-14.108,32.523q.38,1.373.816,2.786c28.693,11.95,55.8,23.237,122.31,52.7,5.854,9.917,16.1,21.9,27.385,31.855A115.687,115.687,0,0,0,95.787,205.8a112.141,112.141,0,0,1-3.147,15.222C82.876,212.332,74.045,201.957,69.01,193.373Z" transform="translate(583.703 -75.766)" fill="gray"/>
      <path id="Path_291" data-name="Path 291" d="M70.871,194.182C20.535,168.3-9.156,154.264-45.6,137.256l-.031-.1c-4.691-17.036-.418-26.163,10.56-27.613,50.29,21.324,76.279,46.008,95.255,64.034.628.193,1.285.432,1.976.711a39.644,39.644,0,0,0,3.506,3.813c-.051-.074-5.965-7.978-9.4-10.7.58.756.822,1.069,2.681,3.216q-1.126-.456-2.149-.782C21.448,134.592-16.773,117.4-39.612,107.121c-11.583,1.373-16.121,10.824-11.225,28.611.051.191.105.381.159.572,35.958,16.4,65.447,30.024,117.656,56.067a69.561,69.561,0,0,0,12.837,15.3q1.292-4.022,2.158-7.654-.729,2.614-1.695,5.445A51.31,51.31,0,0,1,70.871,194.182Z" transform="translate(597.516 -69.984)" fill="gray"/>
      <path id="Path_292" data-name="Path 292" d="M-4.694,140.814h0l.256.372c-.483-.722-.958-1.447-1.467-2.149C-5.521,139.643-5.1,140.223-4.694,140.814Z" transform="translate(683.927 -11.157)" fill="gray"/>
      <path id="Path_293" data-name="Path 293" d="M-30.3,114.673c-6.679,1.581-9.4,7.611-7.006,18.216,39.557,21.6,59.4,33.038,92.315,53.2-29.148-18.313-48.74-29.848-87.345-51.43-2.138-9.8.384-15.424,6.539-16.979,43.518,26.029,58.345,42.153,80.806,68.41C26.4,152.064,11.255,139.383-30.3,114.673Z" transform="translate(624.479 -56.064)" fill="gray"/>
      <path id="Path_294" data-name="Path 294" d="M-25.384,119.071c-4.7,1.427-6.67,5.885-5.2,13.445C6.1,154.449,15.384,160.473,41.934,177.987c-29.606-20-42.318-27.781-67.639-43.287-1.277-6.872.529-10.963,4.782-12.334,28.83,19.695,37.644,27.493,62.857,55.621C15.381,147.838,6.769,140.926-25.384,119.071Z" transform="translate(637.556 -47.958)" fill="gray"/>
      <path id="Path_295" data-name="Path 295" d="M-118.353,389.128c-.179.182-.424.421-.6.6.719,2.627,6.451,4.435,7.927,4.685,1.876.321,2.181.009,2.729-.56-.35-1.058-.35-1.058-1.4-1.97a15.931,15.931,0,0,0-6.079-2.7c-12.038-9.462-23.982-19.541-35.67-30.041-38.6-14.253-47.87-20.3-54.64-25.736l1.478,1.575c9.459,8.888,36.253,19.331,52.266,25.569C-141.2,370.536-129.817,380.118-118.353,389.128Z" transform="translate(314.961 347.106)" fill="gray"/>
      <path id="Path_296" data-name="Path 296" d="M-145.8,378.267l-.284.341c1.37,2.081,6.593,4.1,6.644,4.117,1.649.589,1.948.478,2.491.27-.222-.677-.222-.677-1.089-1.413a21.348,21.348,0,0,0-5.214-2.766c-7.79-6.119-15.532-12.556-23.166-19.22-22.609-11.233-26.6-14.54-35.361-21.776l1.615,1.575c9,8.169,19.021,13.479,32.89,20.829C-160.1,366.474-152.829,372.5-145.8,378.267Z" transform="translate(322.896 355.234)" fill="gray"/>
      <path id="Path_297" data-name="Path 297" d="M-134.056,387.8a53.1,53.1,0,0,0-4.668-2.576Q-144.7,381-150.97,376.22c-7.759-5.919-15.478-12.2-23.092-18.762-14.446-8.669-17.051-10.233-25.418-17.432l1.026.958.685.634c10.19,8.259,11.5,9.32,22.865,16.07,7.151,6.141,14.4,12.027,21.679,17.582q6.069,4.632,11.873,8.732c-.267-.108-.628-.233-.9-.316.648,1.029,6.084,3.824,6.138,3.853h0c2.388,1.208,2.795,1.24,3.264,1.274A3.551,3.551,0,0,0-134.056,387.8Z" transform="translate(327.136 359.3)" fill="gray"/>
      <path id="Path_298" data-name="Path 298" d="M57.668,327.484c-6.6,5.3-16.1,7.543-28.122,6.767.063-1.319.256-5.334-1.507-5.664-.324-.063-8.669,12.211-3.378,16.331,1.157-.389,2.155-.722,3.784-5.223,12.388.8,22.126-1.575,28.81-7.168,10.187-36.643,10.946-52.056,12.6-85.827a98.733,98.733,0,0,0,1.1-13.653l-.372-6.295a45.431,45.431,0,0,1-1.143,15.168C68.81,281.194,65.319,295.7,57.668,327.484Z" transform="translate(737.036 150.519)" fill="gray"/>
      <path id="Path_299" data-name="Path 299" d="M89.117,254.077c-2.11,39.881-6.167,54.5-15.057,86.529C63.2,350.9,43.487,351.925,16.866,343.887a504.359,504.359,0,0,0,18.3-97.492c2.1-2.88,3.284-12.45-.384-15.9-4.074,1.149-3.961,12.209-1.967,15.7A476.542,476.542,0,0,1,12.877,348.541c28.383,9,49.284,8.092,60.463-2.957,11.62-36.893,12.953-52.536,15.873-86.811a47.055,47.055,0,0,0,.768-8.578l0-5.937A46.7,46.7,0,0,1,89.117,254.077Z" transform="translate(718.546 157.407)" fill="gray"/>
      <path id="Path_300" data-name="Path 300" d="M15.364,321.261c.185-1.356.745-5.487-1.717-6.545-3.651-1.569-9.058,8.2-7.52,13.573.6,2.1,3.281,4.572,7.318-1.777,33.39,11.6,57.506,10.716,69.231-2.974,10.679-30.425,13.872-46.577,16.962-70.556C96.32,278.389,91.754,293,83.691,318.736,71.923,331.908,48.151,332.648,15.364,321.261Z" transform="translate(705.608 198.863)" fill="gray"/>
      <path id="Path_301" data-name="Path 301" d="M39.214,251.941c-.125.992-.247,1.99-.372,2.96C38.967,253.931,39.092,252.939,39.214,251.941Z" transform="translate(766.404 196.945)" fill="gray"/>
      <path id="Path_302" data-name="Path 302" d="M38.973,267.125c.554-4.41,1.112-9.07,1.72-14.167q.209-1.6.313-3.287l.35-5.968c-.074,1.621-.222,3.173-.435,4.657C40.312,255.315,39.667,261.47,38.973,267.125Z" transform="translate(766.645 181.761)" fill="gray"/>
      <path id="Path_303" data-name="Path 303" d="M38.249,260.2l.188-1.285c-.117.731-.239,1.416-.358,2.13C38.138,260.76,38.192,260.493,38.249,260.2Z" transform="translate(764.996 209.799)" fill="gray"/>
      <path id="Path_304" data-name="Path 304" d="M41.265,259.664c-2.041,10.065-3.557,17.517-4.916,23.667C38.189,276.1,39.795,268.461,41.265,259.664Z" transform="translate(761.809 211.179)" fill="gray"/>
      <path id="Path_305" data-name="Path 305" d="M38.2,266.944c.623-3.875,1.223-7.978,1.805-12.385Z" transform="translate(765.228 201.77)" fill="gray"/>
      <path id="Path_306" data-name="Path 306" d="M24.269,322.551c.2-1.069.731-3.912-.162-4.993-2.786-3.372-8.763,9.405-7.87,13.71.355,1.726,2.385,3.238,6.107-3.491,16.971,1.1,29.435-3.213,36.526-13.022,8.558-23.206,11.105-30.456,14.713-46.767-3.449,13.565-7.711,25.81-13.386,42.1C53.1,319.5,40.848,323.623,24.269,322.551Z" transform="translate(724.574 226.522)" fill="gray"/>
      <path id="Path_307" data-name="Path 307" d="M-11.78,403.816C12.748,379.527,19.2,365.4,28.661,329.447a142.56,142.56,0,0,1-24.616-5.007c1.4-3.216,1.257-4.879-.5-5.738-5.314-.674-11.179,6.994-11.583,10.761-.353,3.3,2.946,4.8,8.72-.463a145.582,145.582,0,0,0,23.729,4.919c-10.161,37.516-17.468,50.6-41.161,73.678a32.542,32.542,0,0,0,2.738-1.879h0l4.8-3.727Q-10.447,402.955-11.78,403.816Z" transform="translate(663.933 319.922)" fill="gray"/>
      <path id="Path_308" data-name="Path 308" d="M1.762,144.9c13.88,50.412,67.582,126,134.954,195.01C68.116,404.121-16.241,485.561-97.195,566.213c-15.868,15.808-30.985,30.971-46.423,44.928-2.624-.264-8.765-.881-9.863,5.826-1.055,6.451,5.792,12.436,12.354,8.669,4.191-3.224,3.258-7.026,2.511-10.079q21.5-21.592,45.337-45.349c82.31-82,167.619-165.347,236.015-230.88C75.184,270.666,21.107,194.952,7.261,144.67c-10.051-36.5,3.025-52.579,32.21-48.979l-6.138-.668C4.494,91.927-8.314,108.312,1.762,144.9Z" transform="translate(411.72 -92.962)" fill="gray"/>
      <path id="Path_309" data-name="Path 309" d="M-53.9,358.4c3.685,5.837,8.871,4.424,10.059,3.727,1.532-.9,4.825-4.754.031-10.449-5.14-4.4-9.468-2.525-10.926,1.467-102.374-10.5-126.7-12.993-144.325-3.159-19.453-27.482-33.552-53.181-39.617-73.846l1.99,6.633c6.315,20.07,20.042,44.74,38.738,71.037C-190.574,348.887-179.426,341.449-53.9,358.4Z" transform="translate(254.883 241.546)" fill="gray"/>
      <path id="Path_310" data-name="Path 310" d="M-68.76,354.331c3.594,5.809,8.319,4.569,9.692,3.673.057-.034,5.433-4-.034-10.8-5-4.441-9.141-2.434-10.5,1.709-85.79-7.54-109.7-8.427-129.381,1-20.3-29.211-34.846-56.4-40.848-78.187q-.6-2.167-1.069-4.219l1.4,6.045c.227.933.478,1.882.742,2.849,5.948,21.6,20.459,48.615,40.708,77.616C-190.121,349.611-175.365,341.431-68.76,354.331Z" transform="translate(250.786 225.622)" fill="gray"/>
      <path id="Path_311" data-name="Path 311" d="M-34.615,147.377c13.949,50.64,65.822,125.259,132.008,195.181-68.671,59.1-148.88,133.254-224.411,208.5a31.734,31.734,0,0,1-8.015,6.352c-8.328-1.265-10.207,4.606-10.585,6.437a8.287,8.287,0,0,0,12.5,8.805c3.381-2.238,4.424-5.848,3.1-10.736q3.395-3.395,6.841-6.826c76.885-76.6,158.18-152.525,226.945-212.882C37.207,272.439-15.173,197.513-29.113,146.888-39.226,110.163-27.271,92.919.41,94.5L-4.2,94.269-5.731,94.2C-33.045,93.1-44.739,110.609-34.615,147.377Z" transform="translate(426.091 -93.883)" fill="gray"/>
      <path id="Path_312" data-name="Path 312" d="M-199.085,351.621c10.307-4.091,29.489-11.711,104.961-5.32,3.346,6.056,7.8,4.5,9.1,3.48.051-.043,5.058-4.472-.054-11.384-4.643-4.464-8.652-2.366-9.843,2.24-63.6-3.014-83.174-1.82-104.728,6.389-20.209-30.214-34.673-58.214-40.962-81.045a95.713,95.713,0,0,1-3.1-15.97l.662,6.312a96.617,96.617,0,0,0,2.917,14.441C-233.863,293.513-219.354,321.469-199.085,351.621Z" transform="translate(245.619 193.389)" fill="gray"/>
      <path id="Path_313" data-name="Path 313" d="M-59.277,153.313c13.7,49.755,60.6,120.5,122.279,189.87A2031.788,2031.788,0,0,0-137.61,518.228a32.262,32.262,0,0,1-7.967,6.352c-8.072-1.3-10.028,4.617-10.437,6.462-1.49,6.75,5.177,13.013,11.958,8.911,3.352-2.266,4.447-5.905,3.25-10.815q3.386-3.4,6.832-6.835c66.027-65.783,137.851-128.31,203.9-179.077C7.54,273.616-40.06,202.261-53.821,152.3c-10.287-37.356.071-56.488,25.617-57.964l-5.982.418C-59.422,96.6-69.57,115.937-59.277,153.313Z" transform="translate(406.864 -93.547)" fill="gray"/>
      <path id="Path_314" data-name="Path 314" d="M-200.9,344.393c19.442-6.681,35.491-8.109,70.954-8.777,2.223,5.7,6.335,5.894,8.447,3.838.048-.046,4.532-4.919-.082-11.873-4.216-4.424-7.682-1.805-8.805,2.9-39.5.717-51.14,2.647-70.656,8.908-19.291-30.072-33.12-57.861-39.472-80.925-2.675-9.709-3.9-18.142-3.787-25.31l-.08,6.028a92.116,92.116,0,0,0,3.747,24.121C-234.277,286.375-220.34,314.244-200.9,344.393Z" transform="translate(244.379 162.317)" fill="gray"/>
      <path id="Path_315" data-name="Path 315" d="M-202.219,333.914c16.846-4.859,22.313-5.587,42.753-7.887,1.561,5.172,5.263,6.07,7.532,3.426.043-.054,4.165-5.388.111-12.257-4.02-4.62-7.136-.589-7.978,3.591-23.26,2.576-26.507,3.474-42.1,7.8-17.727-28.915-30.487-55.61-36.7-78.164-3.75-13.613-4.893-24.929-3.673-33.973l-.77,5.854c-1.066,8.839.1,19.823,3.725,32.969C-233.087,277.926-220.171,304.805-202.219,333.914Z" transform="translate(246.132 131.525)" fill="gray"/>
      <path id="Path_316" data-name="Path 316" d="M-199.074,337.692c27.82-6.1,48.5-7.549,92.8-8.589a737.512,737.512,0,0,1,57.071-63.55,679.232,679.232,0,0,1,71.537-62.476,9.29,9.29,0,0,0,7.057-.844c.077-.046,7.6-4.776,3.545-11.83a14.073,14.073,0,0,0-1-1.055c-3.781-3.139-14.46-1.075-13.516,9.346a858.008,858.008,0,0,0-70.6,62.86,721.628,721.628,0,0,0-55.684,62c-47.563,1.089-62.752,2.9-90.271,8.561-17.082-28.764-29.43-55.325-35.685-78.034-5.044-18.321-5.76-32.819-2.639-43.549l-1.615,5.652c-2.92,10.6-2.149,24.81,2.775,42.69C-229,281.773-216.452,308.615-199.074,337.692Z" transform="translate(252.847 79.097)" fill="gray"/>
      <path id="Path_317" data-name="Path 317" d="M-199,315.2c26.729-6.192,52.6-7.21,82.563-8.393a678.642,678.642,0,0,1,51.484-57.239q13.135-13.084,26.911-25.543a7.533,7.533,0,0,0,7.813-.637c4.95-3.315,6.153-10.267,2.337-13.522-4.566-3.9-14.48.839-12.968,10.224q-13.771,12.432-26.922,25.526a665.292,665.292,0,0,0-50.088,55.641c-44.149,1.365-59.161,4.27-79.936,8.291-15.859-27.408-27.374-52.741-33.393-74.6-5.533-20.087-6-35.7-2.01-46.912l-1.953,5.581c-3.764,11.1-3.23,26.439,2.181,46.085C-226.9,261.781-215.172,287.432-199,315.2Z" transform="translate(256.896 79.155)" fill="gray"/>
      <path id="Path_318" data-name="Path 318" d="M-197.038,288.542c17.935-3.241,22.743-3.676,49.437-6.076q15.831-18.948,34.431-37.516a622.342,622.342,0,0,1,71.725-61.219,7.728,7.728,0,0,0,7.657-.279h0c.08-.043,7.725-4.447,4.728-11.125a10.626,10.626,0,0,0-.816-1c-3.9-3.619-14.2.435-13.832,8.746a611.828,611.828,0,0,0-71.784,61.114q-17.754,17.69-32.975,35.827c-20.127,1.589-21.116,1.746-46.514,5.746-11.9-22.453-20.718-43.31-25.816-61.822-6.9-25.077-6.374-43.591.54-55.647l-2.963,5.246c-6.65,12.021-7.085,30.317-.29,55C-218.325,244.365-209.281,265.634-197.038,288.542Z" transform="translate(273.81 37.243)" fill="gray"/>
      <path id="Path_319" data-name="Path 319" d="M195.961,249.409c-2.38-1.376-3.753-.159-5.834,1.68q-2.188-1.646-4.4-3.329a858.1,858.1,0,0,1-67.218-57.281C58.545,263.546-20.725,350.922-102.131,432.029Q-115.045,444.9-127.475,457c1.4,55.288,5.88,110.46,6.155,165.788a12.743,12.743,0,0,0-4.819,3.4c1.075,7.173,10.577,9.223,15.885,3.426-.512-3.685-.606-4.347-5.24-6.448-.517-54.7-4.671-109.254-6.269-163.915q11.656-11.344,23.738-23.379c80.049-79.754,157.523-166.05,216.3-239.131,21.193,19.8,43.245,38.6,65.47,55.553a14.806,14.806,0,0,1,4.33,4.541c.486,5.322,1.058,5.612,4.219,7.21,1.552-.614,3.668-1.785,4.549-3.207h0C199.728,255.261,197.642,252.017,195.961,249.409Z" transform="translate(459.853 83.66)" fill="gray"/>
      <path id="Path_320" data-name="Path 320" d="M99.275,250.263c4.179.751,11.819-6.815,5.632-14.62-2.869-1.476-3.887-1.584-7.31.756q-10.692-8.6-21.273-17.625C29.638,287.349-29.978,359.958-95.1,424.837q-2.785,2.781-5.556,5.507c1.086,41.96,1.086,41.96.87,65.609-1.535.907-3.639,2.152-4.191,4.961-1.146,5.814,6.457,10.8,13.7,7.108h0c4.845-2.738,5.74-9.792-2.365-12.675-1.072-28.9-1.072-28.9-2.093-63.059q1.936-1.911,3.878-3.847C-27.086,364.911,31.062,293.687,76.738,225.9q9.037,7.638,18.156,14.981C93.74,248.429,97.575,249.956,99.275,250.263Z" transform="translate(502.956 135.814)" fill="gray"/>
      <path id="Path_321" data-name="Path 321" d="M-5.113,140.126l-.276-.333c1.166,1.447,2.286,2.937,3.5,4.35C-2.176,143.748-3.308,142.321-5.113,140.126Z" transform="translate(684.878 -9.763)" fill="gray"/>
      <path id="Path_322" data-name="Path 322" d="M61.614,285.593,8.344,165.575c-1.524-3.406-1.925-3.9-2.584-4.7l-.134.063c.045.54,3.213,12.882,5.658,13.633,28.147,59.118,40.768,90.936,50.91,116.5a35.22,35.22,0,0,0,9.778-.535c1.2,3.98,1.6,4.347,2.459,5.152.31-.66.833-1.763-.222-6.917a33.654,33.654,0,0,0-3-8.928h-.93a18.823,18.823,0,0,0,.426,5.206A33.976,33.976,0,0,1,61.614,285.593Z" transform="translate(705.181 29.089)" fill="gray"/>
      <path id="Path_323" data-name="Path 323" d="M-5.954,131.353a31.063,31.063,0,0,0-3.52-3.116l-2.081-1.68-.043-.031-.128-.1-2.366-1.879c2.582,2.078,5.01,4.342,7.563,6.454C-6.065,131.359-6.065,131.359-5.954,131.353Z" transform="translate(668.839 -37.87)" fill="gray"/>
      <path id="Path_324" data-name="Path 324" d="M-51.175,103.666c8.99,3.58,9.129,3.611,10.031,3.816,18.972,7.785,21.068,8.919,46.73,22.819a177.047,177.047,0,0,1,23.189,12.652,192.1,192.1,0,0,0-26.51-14.784c-28.429-15.959-54.606-25.452-56.818-25.867,1.12.472,2.249.918,3.378,1.365Z" transform="translate(594.261 -78.868)" fill="gray"/>
      <path id="Path_325" data-name="Path 325" d="M-14.589,123.71c-3.662-2.567-7.207-4.924-10.656-7.111q1.864,1.215,3.767,2.5Z" transform="translate(648.28 -52.514)" fill="gray"/>
      <path id="Path_326" data-name="Path 326" d="M-22.922,150.172C-9.036,200.587,40.544,273.565,104.805,343.6,37.234,397.843-38.337,465.178-108.43,535.012c-15.868,15.808-30.834,31.127-45.943,45.383-2.53-.256-8.456-.862-9.59,5.982-1.089,6.571,5.476,12.655,11.865,8.82,3.082-2.081,3.926-5.553,2.51-10.318q21.059-22.053,44.9-45.812c71.449-71.185,148.215-140.171,216.166-195.6-64.81-70.081-115-143.529-128.912-194.044C-27.658,112.3-16.5,94.053,10.139,94.059l-5.954.065C-22.2,94.488-33.166,112.969-22.922,150.172Z" transform="translate(392.38 -94.059)" fill="gray"/>
      <path id="Path_327" data-name="Path 327" d="M-48.246,156.591c13.406,48.678,57.3,116.63,115.8,184.584A1614.547,1614.547,0,0,0-119.1,500.453c-15.868,15.808-30.695,31.289-45.477,45.855-7.426-1.365-9.007,4.367-9.314,6.158-1.146,6.662,5.067,12.769,11.259,8.831,2.985-2.132,3.864-5.649,2.607-10.452q20.654-22.514,44.481-46.278A1701.545,1701.545,0,0,1,74.7,341.406C15.338,273.019-29.336,204.311-42.83,155.317c-10.287-37.351-.8-57.244,23.462-60.2l-5.817.756C-49.216,99.125-58.544,119.192-48.246,156.591Z" transform="translate(374.051 -92.116)" fill="gray"/>
      <path id="Path_328" data-name="Path 328" d="M-73.949,163.638c12.5,45.383,49.7,106.386,100.435,169.433A1149.438,1149.438,0,0,0-129.078,462.415c-15.868,15.808-30.561,31.448-45.042,46.321-7.082-1.311-8.714,4.515-9.05,6.332-1.225,6.724,4.58,12.789,10.574,8.74,2.9-2.2,3.81-5.757,2.715-10.588q20.262-22.974,44.086-46.742A1192.243,1192.243,0,0,1,33.887,333.46C-17.9,269.662-55.974,207.707-68.606,161.835c-10.287-37.351-2.167-58.453,20.019-63.761L-54.4,99.527C-76.283,105.122-84.218,126.347-73.949,163.638Z" transform="translate(356.895 -86.659)" fill="gray"/>
      <path id="Path_329" data-name="Path 329" d="M-198.654,312.2c24.369-4.87,35.375-5.84,71.867-7.867a630.408,630.408,0,0,1,45.875-50.793A726.412,726.412,0,0,1-9.757,191.46c1.93.762,4.333,1.712,7.881-.31.077-.043,7.671-4.614,4.131-11.486a13.2,13.2,0,0,0-.915-1.032c-3.477-3.048-13.966-1.063-13.69,9.041a710.358,710.358,0,0,0-71.23,61.973A620.379,620.379,0,0,0-128.047,298.8c-37.132,1.888-48.5,3.949-69.14,7.691-14.58-25.893-25.219-49.852-30.965-70.715-6.016-21.85-6.178-38.528-1.24-50.119l-1.24,2.934-1.043,2.525c-4.7,11.506-4.461,27.934,1.439,49.355C-224.419,261.6-213.555,285.916-198.654,312.2Z" transform="translate(261.747 59.41)" fill="gray"/>
      <path id="Path_330" data-name="Path 330" d="M-137.3,290.773a591.373,591.373,0,0,1,40.2-44.206q13.14-13.089,27.007-25.407a7.235,7.235,0,0,0,7.534-.7c4.933-3.281,6.465-10.079,2.98-13.224-4.174-3.762-13.949.955-13,10.1q-13.865,12.3-27.019,25.389-21.123,21.047-38.769,42.542c-31.2,2.294-35.3,2.988-58.026,6.838-42.8-79.592-33.37-106.488-28.835-119.413l-2.607,5.328c-14.793,34.7,15.259,92.193,29.7,119.82C-176.513,294.117-171.372,293.23-137.3,290.773Z" transform="translate(267.508 50.888)" fill="gray"/>
      <path id="Path_331" data-name="Path 331" d="M-195.683,278.812c11.267-1.737,26.362-3.579,37.7-4.791q13.319-15.554,28.545-30.743,13.14-13.089,27.09-25.273c2.3,1.134,4.734.867,7.222-.79,4.9-3.267,6.787-9.874,3.671-12.857-3.739-3.58-13.346,1.143-13.025,9.988q-13.942,12.163-27.1,25.259-14.381,14.325-27.056,29.04c-10.446,1.083-24.329,2.937-34.721,4.45-10.557-20.573-18.438-39.736-23.166-56.906-7.33-26.615-6.391-45.928,1.587-58.075l-3.255,5.035c-7.716,12.132-8.549,31.258-1.322,57.5C-214.69,238.166-206.575,257.762-195.683,278.812Z" transform="translate(281.049 24.005)" fill="gray"/>
      <path id="Path_332" data-name="Path 332" d="M-193.933,268.8c7.671-1.22,17.963-2.4,25.668-3.363q10.67-12.1,22.526-23.925A548.774,548.774,0,0,1-73.53,181.122c2.223,1.166,4.7,1.046,7.352-.358h0c.077-.043,7.748-4.316,5.376-10.685a8.936,8.936,0,0,0-.711-.947c-3.463-3.435-13.664.523-13.932,8.475A541.5,541.5,0,0,0-147.706,237.9q-11.012,10.969-21,22.217c-6.8.739-15.819,2.1-22.595,3.017-9.223-18.617-16.18-36.017-20.516-51.754-7.722-28.048-6.354-48.07,2.7-60.207l-3.585,4.87c-8.78,12.152-10.036,32-2.411,59.7C-210.673,231.847-203.483,249.691-193.933,268.8Z" transform="translate(289.071 11.21)" fill="gray"/>
      <path id="Path_333" data-name="Path 333" d="M-182.943,172.051c-1.058,1.032-3.258,3.179-3.872,5.467-.93,3.48,2.584,3.6,6.323,1.53,3.309-1.831,6.485-5.138,7.384-7.691.648-1.84.4-4.723-5.163-2.471-4.632-26.407.651-43.839,14.156-52.468l-5.044,3.284C-182.4,128.448-187.537,145.84-182.943,172.051Z" transform="translate(350.201 -52.846)" fill="gray"/>
      <path id="Path_334" data-name="Path 334" d="M-155.456,205.044c-8.1,7.054-5.5,12.834.139,13.141a15.012,15.012,0,0,0,5.738-1.143h0c4.555-1.908,11.953-8.106,8.421-13.8-2.26-2.053-4.887-2.323-9.371-.964a238.854,238.854,0,0,1-9.965-28.383c-9.974-36.211-4.04-58.382,14.455-66.863l-5.4,2.528c-18.2,8.692-23.962,30.894-14.031,66.957A240.007,240.007,0,0,0-155.456,205.044Zm8.7.722c2.866,1.171,1.288,5.365-2.764,7.355-1.6.788-4.629,1.547-5.806-.608C-156.633,208.754-150.111,204.4-146.759,205.766Z" transform="translate(380.936 -70.138)" fill="gray"/>
      <path id="Path_335" data-name="Path 335" d="M-183.247,205.083a14,14,0,0,0-2.928,5.212c-1.018,4.336,2.516,5.84,7.131,3.036h0a15.18,15.18,0,0,0,6.2-7.333c1.1-3.236-.02-6.872-5.908-4.4q-2.452-7.041-4.287-13.7c-9.317-33.831-5.388-55.971,9.309-66.675l-4.867,3.6c-14.412,10.83-18.2,32.921-8.945,66.53Q-185.7,198.024-183.247,205.083Z" transform="translate(339.848 -43.995)" fill="gray"/>
      <path id="Path_336" data-name="Path 336" d="M-193.42,188.256c3.082-2.178,6.013-5.871,6.821-8.595.58-1.965.3-4.933-4.9-2.11-4.33-24.713-.131-41.7,11.265-51.092l-4.688,3.929c-11.134,9.468-15.2,26.37-10.915,50.847-.967,1.154-2.985,3.551-3.514,5.959C-200.149,190.849-196.865,190.684-193.42,188.256Z" transform="translate(327.151 -34.338)" fill="gray"/>
      <path id="Path_337" data-name="Path 337" d="M142.4,262.329c.844,5.917,6.232,7.188,9.775,2.3a9.557,9.557,0,0,0-.7-11.916c-2.957-.964-3.659-1.191-6.65,1.362q-2.439-1.834-4.907-3.716c-16.962-12.939-33.831-26.854-50.355-41.436C38.676,280.068-27.058,358.013-97.614,428.311q-6.175,6.15-12.271,12.1c.856,32.082,2.3,64.145,3.059,96.23-1.74.762-4.373,1.916-4.97,4.8-1.18,5.683,7.364,10.187,13.443,7.082,3.139-1.6,7.23-8.183-2.289-11.9-2.5-65.8-2.5-65.8-3.338-94.109q5.275-5.16,10.608-10.469c69.189-68.936,133.348-145.57,183.149-216.158,15.709,13.741,31.707,26.871,47.785,39.139a16.813,16.813,0,0,1,4.791,4.958A22.283,22.283,0,0,0,142.4,262.329Z" transform="translate(488.55 117.66)" fill="gray"/>
      <path id="Path_338" data-name="Path 338" d="M-119.537,574.148c-1.109,4.888,6.289,9.766,13.116,7.048,3.093-1.575,7.1-7.418-2.209-11.25-1.493-39.492-3.338-78.969-4.492-118.472q8.521-8.291,17.227-16.96C-21.268,360.163,49.322,278.473,103.5,206.083c13.32,12.049,26.913,23.681,40.623,34.715-.935,7.025,2.132,8.547,4.046,8.831,3.747.554,10.511-7.02,4.89-14.273-2.866-1.43-3.719-.859-6.545,1.038-14.54-11.7-28.935-24.076-43.014-36.916C48.2,272.149-24.072,355.036-100.053,430.736q-9.549,9.51-18.864,18.569c.532,20.752.532,20.752,4.651,120.366C-116.233,570.421-118.926,571.444-119.537,574.148Z" transform="translate(474.279 100.246)" fill="gray"/>
      <path id="Path_339" data-name="Path 339" d="M-140.216,368.225c-.244-.7-.244-.7-1.061-1.274-4.179-2.306-10.272-3.2-11.95-2.206-.108,2.024,6,3.443,7.873,3.824,37.169,22.717,55.485,26.953,67.611,29.754l6.056,1.006c-18.006-2.974-41.854-13.187-69.939-30.467C-140.716,368.725-140.716,368.725-140.216,368.225Z" transform="translate(412.387 404.123)" fill="gray"/>
      <path id="Path_340" data-name="Path 340" d="M-127.4,376.065a3.212,3.212,0,0,0-.5-.239c-3.392-1.143-12.959-3.318-13.9-3.247.3.281,3.17,1.137,7.318,2.181a117.5,117.5,0,0,0,11.435,3.409l3.577.833,2.729.611a115.974,115.974,0,0,1-13.212-3.835C-127.786,376.184-127.681,376.15-127.4,376.065Z" transform="translate(433.444 419.298)" fill="gray"/>
      <path id="Path_341" data-name="Path 341" d="M-147.974,368.954c-.068-.375-.068-.375-.736-.81-3.4-1.825-9.4-3.571-11.4-3.543-.068.071-.154.165-.219.239,1.075,1.1,5.294,2.567,7.06,3.147,14.313,8.279,27.158,14.2,38.2,17.739l6.491,1.95c-11.711-3.526-25.5-9.78-40.973-18.728A3.2,3.2,0,0,0-147.974,368.954Z" transform="translate(399.305 404.596)" fill="gray"/>
      <path id="Path_342" data-name="Path 342" d="M-153.087,369.037v0l10.7,3.9c.051.017.117.037.168.051-.114-.048-.264-.105-.381-.151C-146.1,371.57-149.6,370.342-153.087,369.037Z" transform="translate(412.646 412.772)" fill="gray"/>
      <path id="Path_343" data-name="Path 343" d="M-101.993,403.514a25.38,25.38,0,0,0-6-2.749q-7.4-5.237-15.154-11.145c-12.035-9.184-24-19.078-35.716-29.458-27.218-11.629-36.236-17.184-45.13-24.556l1.242,1.271.27.273c9.146,8.507,22.859,15.04,42.741,24.039,11.162,9.857,22.558,19.26,34.016,28q7.57,5.774,14.8,10.884c-.219.006-.512.011-.731.014-.017.191-.037.438-.051.626a24.347,24.347,0,0,0,7.239,3.6c2.192.685,2.289.651,3.454.262A5.375,5.375,0,0,0-101.993,403.514Z" transform="translate(318.825 351.152)" fill="gray"/>
      <path id="Path_344" data-name="Path 344" d="M-199.985,348.371c9.6-3.872,32.062-12.939,125.554-5.55,3.437,6.434,8.558,4.464,9.741,3.585.06-.046,5.635-4.694.31-11.936-4.8-4.538-9.223-2.351-10.727,2.388-79.58-3.642-101.993-1.419-125.23,6.667-19.837-30.274-34.047-58.288-40.39-81.329a93.692,93.692,0,0,1-3.548-20.585l.279,6.039a94.082,94.082,0,0,0,3.452,19.408C-234.211,290.063-219.93,318.091-199.985,348.371Z" transform="translate(244.569 177.908)" fill="gray"/>
      <path id="Path_345" data-name="Path 345" d="M-201.619,339.68c20.488-6.622,43.714-10.332,96.122-8.37,3.068,6.434,7.694,4.532,9.073,3.358.057-.048,5.348-5.067.475-12.356-3.966-4.049-8.4-2.775-10.1,2.906-63.735-.168-77.749,4-95.491,9.283-18.58-29.612-31.923-56.954-38.229-79.85-3.238-11.765-4.452-21.742-3.8-29.944l-.347,4.671L-244,230.6c-.517,7.978.705,17.6,3.816,28.9C-233.867,282.456-220.393,309.932-201.619,339.68Z" transform="translate(244.861 146.744)" fill="gray"/>
      <path id="Path_346" data-name="Path 346" d="M-3.888,174.71c-2.692,1.3-3.6,12.843-1.029,13.138.89.105,1.751-1.456,2.2-3.975.25-1.422.665-5.729-.409-8.541a142.155,142.155,0,0,0-.321-35.54A140.4,140.4,0,0,1-3.888,174.71Zm.412,7.475c-.156,1.024-.614,2.636-1.319,2.195-1.2-1.225-.2-6.522.753-6.5.6.011.9,2.226.566,4.3Z" transform="translate(682.939 -9.763)" fill="gray"/>
      <path id="Path_347" data-name="Path 347" d="M-83.555,141.229a146.645,146.645,0,0,0,5.408,15.76c8.166,2.454,19.055,5.709,27.212,8.186-2.911,2.792,3.528,5.064,9.431,5.462h0c3.585.242,13.067-.253,10.258-3.926-4.387-3.236-12.052-3.173-12.908-3.156-4.353.091-4.353.091-28.935-7.4a141.235,141.235,0,0,1-4.993-14.688c-7.949-28.858.412-43.321,20.667-43.853l24.372,5.032c.125.04,13.073,4.088,16.7,4.723-1.55-1.9-18.074-6.349-45.644-10.83C-82.992,96.844-91.718,111.583-83.555,141.229Zm46.625,25.142c1.524.768,1.43,1.66-.23,2.169a12.017,12.017,0,0,1-3.639.35h0c-1.68-.074-4.748-.543-5.547-1.851C-47.026,164.938-40.055,164.8-36.93,166.371Zm6.033-63.519a62.032,62.032,0,0,1,9.863,2.906c-.253.2-6.63-1.729-6.7-1.749a24.176,24.176,0,0,1-3.315-1.134A.285.285,0,0,1-30.9,102.852Z" transform="translate(535.224 -89.497)" fill="gray"/>
      <path id="Path_348" data-name="Path 348" d="M-14.288,130.974c.625.665,1.038,1.078,4.868,4.674,2.451,2.3,4.882,4.626,7.347,6.915q6.653,6.555,13.087,13.485Q4.621,149.1-2,142.537C-5.11,139.273-12.608,131.98-14.288,130.974Z" transform="translate(668.476 -26.018)" fill="gray"/>
      <path id="Path_349" data-name="Path 349" d="M-7.428,137.779c.662.648,1.336,1.274,1.99,1.928l-.594-.594C-6.493,138.66-6.967,138.228-7.428,137.779Z" transform="translate(681.12 -13.476)" fill="gray"/>
      <path id="Path_350" data-name="Path 350" d="M-6.728,138.457l3.807,3.8-2.633-2.664C-5.938,139.2-6.338,138.841-6.728,138.457Z" transform="translate(682.41 -12.226)" fill="gray"/>
      <path id="Path_351" data-name="Path 351" d="M-14.637,131.173C-13.053,132.745-2.056,142.4-1.948,142.5c2.63,2.437,5.223,4.939,7.807,7.458-2.57-2.525-5.135-5.061-7.75-7.5C-4.842,139.54-12.988,132.049-14.637,131.173Z" transform="translate(667.833 -25.652)" fill="gray"/>
      <path id="Path_352" data-name="Path 352" d="M-9.6,135.311c-2.1-1.7-12.314-8.845-13.741-8.706a50.5,50.5,0,0,0,5.615,3.915c.239.154,5.843,3.793,8.12,5.047A402.076,402.076,0,0,1,24.511,161.38l3.2,2.724-5.027-4.3A404.684,404.684,0,0,0-9.6,135.311Z" transform="translate(651.782 -34.074)" fill="gray"/>
      <path id="Path_353" data-name="Path 353" d="M-1.94,142.5c-2.866-2.917-10.844-10.483-12.536-11.441.657.674,1.083,1.086,4.99,4.649,2.5,2.272,4.973,4.566,7.48,6.829q6.794,6.491,13.366,13.354Q4.822,149.008-1.94,142.5Z" transform="translate(668.13 -25.862)" fill="gray"/>
      <path id="Path_354" data-name="Path 354" d="M-23.323,127.124a47.427,47.427,0,0,0,5.649,3.8c.594.37,5.883,3.656,8.077,4.791,5.422,3.665,11.566,8.1,17.7,12.649Q-.549,142.242-9.48,136.606c-2.175-1.646-12.453-8.3-13.622-7.873a44.322,44.322,0,0,0,5.669,3.676c.233.139,5.746,3.423,8.006,4.512,7.8,4.842,15.413,10.011,22.879,15.436,5.027,3.779,9.906,7.5,14.213,10.8A394.192,394.192,0,0,0-9.622,135.432C-11.763,133.755-22.015,126.843-23.323,127.124Z" transform="translate(651.823 -33.129)" fill="gray"/>
      <path id="Path_355" data-name="Path 355" d="M35.92,258.219c-2.84-9.377-6.6-21.887-9.57-31.224.66-7.1-1.578-17.289-4.455-17.045-3.722,3.48-.856,21.02,2.09,21.73.634.151.95-.267,1.351-.8,3.091,9.806,7.213,22.885,10.056,32.765,14.3,2.422,25.006.387,31.346-6.19l3.179,12.7c.023,1.814.2,11.054,1.476,14.557.154.034.35.082.5.117.893-2.428.7-8.663.623-10.517-.105-2.371-.461-8.18-1.55-10.932-.148-.037-.347-.091-.5-.131a7.585,7.585,0,0,0-.435,2.448c-1.092-4.188-2.55-9.775-3.642-13.966C60.283,258.336,49.874,260.471,35.92,258.219Zm-12.214-32c-2.2-1.012-2.329-10.261-1.052-10.867.93-.438,2.087,2.846,2.252,6.391h0C24.985,223.467,24.823,226.347,23.706,226.222Zm47.416,42.423c.264.262.631,2.107.793,5.015h0c.088,1.609.145,4.885-.264,5.786-.458.512-.793-2.7-.907-4.472C70.53,271.665,70.649,268.179,71.121,268.645Z" transform="translate(731.91 119.541)" fill="gray"/>
      <path id="Path_356" data-name="Path 356" d="M27.213,263.234c.751.128,2.636-.4,3.946-7.9,9.766,1.043,17.812-.006,23.9-3.173.3,5.177.785,6.588,1.47,7.188,1.928-.293,2.226-9.681,2.24-10.082h0c.031-1,.239-9.852-1.6-11.964l-.375.017-.313.358c-.645,1.441-1.1,3.446-1.41,8.984-6,3.125-13.943,4.16-23.578,3.133-.495-9.817-3.13-9.152-4.106-8.069C24.062,245.411,23.045,262.538,27.213,263.234Zm29.515-20.2c.176-.321.441-.512.719.367a18.383,18.383,0,0,1,.452,4.865h0c-.02,1.638-.247,4.9-.95,5.553C55.585,254.3,55.886,244.575,56.728,243.037ZM28.1,246.65c1.166-.58,1.993,2.61,1.638,6.32-.165,1.751-.785,4.72-2.047,4.74C25.282,256.945,26.522,247.432,28.1,246.65Z" transform="translate(739.918 169.957)" fill="gray"/>
      <path id="Path_357" data-name="Path 357" d="M73.574,262.213c.879,1.481,1.871,3.156,4.5,3.568,4.913.773,12.888-7.122,6.062-15.163-7.759-3.255-10.486,4.029-11.134,6.34-14.54,3.682-34.084,7.981-48.777,11A1122.454,1122.454,0,0,1-57.1,365.2c1.234,28.216,1.234,28.216,2.275,62.516q10.372,7.664,20.411,14.682a617.25,617.25,0,0,1-49.562,42.875c-8.134-1.444-10.975,2.468-11.648,3.7-3.133,5.723,5.5,10.577,12.487,7.017,5.268-2.684,3.676-6.642,3.15-7.944a610.43,610.43,0,0,0,53.727-46.756q-11.161-7.711-22.745-16.232c-.54-17.46-1.419-40.731-2.195-58.18a1082.606,1082.606,0,0,0,77.985-93.89C40.9,270.117,59.6,265.7,73.574,262.213Z" transform="translate(517.337 192.988)" fill="gray"/>
      <path id="Path_358" data-name="Path 358" d="M-54.844,472.261c-.97,7.057,7.054,10.3,12.814,5.175h0c3.136-2.783,3.887-6.266,2.238-10.346C14.569,397.946,55.647,320.41,79,246.57c-.06-.358-6.016-35.685-4.694-38.883a9.4,9.4,0,0,0-1.5-9.508,4.444,4.444,0,0,0-3.253,0c-2.946,1.8-6.1,12.376.549,14.04,1.623,10.352,3.892,24.139,5.587,34.479C51.584,319.492,10.3,395.933-43.77,464.323-53.547,463.695-54.793,471.911-54.844,472.261Z" transform="translate(593.577 97.274)" fill="gray"/>
      <path id="Path_359" data-name="Path 359" d="M-209.615,165.744c3.355-3.5,7.95-9.752,7.179-10.9-.62-.048-1.331.438-3.167,2.172a36.142,36.142,0,0,1,8.069-15.976l-4.077,4.592a36.282,36.282,0,0,0-7.748,15.612c-3.773,4.868-4.239,6.434-4.225,7.259l.227.154C-212.984,168.567-212.114,168.345-209.615,165.744Z" transform="translate(301.139 -7.456)" fill="gray"/>
      <path id="Path_360" data-name="Path 360" d="M-107.531,442.984a5.815,5.815,0,0,0,2.857-2.161c2.155-3.693-3.045-9.624-10.869-8.353q-13.17-10.752-26.171-22.04c-4.455-61.9-4.455-61.9-6.076-87.4q12.743-12.167,26.373-25.4a10.161,10.161,0,0,0,3.611.881c5.459.131,11.461-6.144,5.271-13.445a13.129,13.129,0,0,0-2.772-1.834c-5.854-2.445-13.508,2.471-10.065,10.542q-14.342,14.01-27.692,26.868c1.695,26.982,1.695,26.982,6.5,90.814q13.647,11.89,27.511,23.212c-.117.225-.3.509-.39.745C-121.283,440.116-113.493,445.071-107.531,442.984Z" transform="translate(412.688 253.453)" fill="gray"/>
      <path id="Path_361" data-name="Path 361" d="M-42.342,346.2c-.879-1.612-2.656-2.533-3.952-3.2-11.026-3.457-20.033,3.9-17.264,9.257a12.081,12.081,0,0,0,.7,1.038,391.066,391.066,0,0,1-51.783,27.215q15.447,10.09,29.765,18.27c-5.575,3.921.037,6.258,2.67,6.829a24.657,24.657,0,0,0,9.934-.233c6.161-1.521,8.279-5.078,4.359-7.324-1.314-.751-5.177-2.346-12.663-.916q-12.8-7.327-26.535-16.169a390.564,390.564,0,0,0,47.956-25.27C-47.983,358.894-39.453,351.519-42.342,346.2Zm-11.373-.344c4.41-.705,7.739,1.979,5.843,4.708a5.213,5.213,0,0,1-1.78,1.5,8.021,8.021,0,0,1-7.472.026C-60.225,349.839-57.777,346.5-53.715,345.856ZM-78.322,399.25c3.972-.83,7.978.594,6.917,2.459a4.685,4.685,0,0,1-2.533,1.584c-1.373.421-4.606.9-7.006-.284C-83.338,401.519-81.032,399.819-78.322,399.25Z" transform="translate(483.514 363.132)" fill="gray"/>
      <path id="Path_362" data-name="Path 362" d="M-12.3,382.146A388.575,388.575,0,0,0,20.3,353.1q3.39-3.378,6.69-6.824a21.493,21.493,0,0,0,6.787-4.722c.065-.063,6.508-6.536,3.321-7.614-4.549.338-13.235,8.831-12.391,12.115q-3.3,3.446-6.69,6.826Q4.31,366.53-10.236,378.433a136.991,136.991,0,0,1-19.373-3.642c2.977-8.313,5.615-19.834,8.584-28.15.33-.927,1.348-.91,1.97-1.433,2.627-2.2,4.3-4.916,4.171-6.758-.3-4.287-8.518-1.939-13.116,3.753-2.906,3.591-2.795,7.077,2,6.545-2.314,8.885-6.05,20.559-9,29.256A134.684,134.684,0,0,0-12.3,382.146Z" transform="translate(630.3 348.077)" fill="gray"/>
      <path id="Path_363" data-name="Path 363" d="M35.043,318.02c-3.656,1.575-11.145,12.1-9.894,13.906.56.028.731.034,2-.95-9.166,21.392-15.444,30.76-30.533,45.565l4.623-4.532h0l6.212-6.354c5.359-6.428,12.723-15.091,16.158-22.717,2.1-4.665,4.327-11.2,7.014-15.552.952-1.544,2.238-2.846,3.159-4.41,2.164-3.682,2.027-4.435,1.675-4.936Z" transform="translate(688.581 318.739)" fill="gray"/>
      <path id="Path_364" data-name="Path 364" d="M1.823,334.277.444,335.69l-.02.023Q1.128,335,1.823,334.277Z" transform="translate(695.593 348.704)" fill="gray"/>
      <path id="Path_365" data-name="Path 365" d="M-141.91,358.644h0c2.425-.444,4.034-3.477-1.4-7.944-5.013-3.235-8.259-2.414-8.874.068-44.282-13.929-54.819-19.115-57.159-20.963l1.413,1.609c10.039,6.778,45.582,18.3,56.235,21.673C-149.629,357.126-144.44,359.108-141.91,358.644Zm-5.732-7.469c2.673-.063,5.831,3.236,4.444,4.64a1.591,1.591,0,0,1-.557.333h0c-.637.21-2.329.179-4.179-1.436C-149.873,352.8-149.361,351.215-147.641,351.175Z" transform="translate(308.96 340.463)" fill="gray"/>
      <path id="Path_366" data-name="Path 366" d="M-41.724,353.363c3.656,6.17,8.874,4.722,10.412,3.733.063-.043,5.985-4.347.318-11.384-5.2-4.546-9.985-2.522-11.438,1.962-100.825-7.426-131.252-9.667-156.778,1.117-20.371-29.865-34.954-57.6-41.127-80.013a99.931,99.931,0,0,1-2.232-9.943l1.043,6.2q.742,4.026,1.967,8.481c6.136,22.279,20.724,49.9,41.1,79.634C-189.315,348.37-172.3,339.474-41.724,353.363Z" transform="translate(247.717 209.653)" fill="gray"/>
      <path id="Path_367" data-name="Path 367" d="M-18.111,327.141A1004.786,1004.786,0,0,0-156.923,442.125q-3.446,3.433-6.812,6.858c-8.666-3.036-11.029,5.732-11.125,6.107-1.768,6.88,3.972,13,10.611,8.78,3.255-2.3,4.487-5.951,3.662-10.849q3.369-3.425,6.812-6.858A1037.421,1037.421,0,0,1-10.713,327.619c-47.424-60.542-81.963-118.529-94.018-162.3-10.216-37.092-2.812-58.632,18.211-65.038l-5.6,1.757c-20.767,6.644-28.017,28.281-17.815,65.322C-98.044,210.554-64.4,267.5-18.111,327.141Z" transform="translate(371.915 -82.594)" fill="gray"/>
      <path id="Path_368" data-name="Path 368" d="M-84.476,160.034c13,47.214,53.639,111.9,108.464,177.727a1342.2,1342.2,0,0,0-171.6,144.1,33.289,33.289,0,0,1-7.9,6.363c-7.8-1.285-9.837,4.654-10.278,6.505-1.606,6.758,4.677,13.022,11.33,8.9,3.307-2.28,4.464-5.931,3.44-10.85q3.378-3.416,6.821-6.846A1401.286,1401.286,0,0,1,31.255,338.088C-24.533,271.663-66,206.122-79.117,158.5-89.432,121.052-80.6,100.5-57.31,96.353l-5.8,1.095C-86.134,101.886-94.788,122.587-84.476,160.034Z" transform="translate(388.752 -89.831)" fill="gray"/>
    </g>
  </g>
</svg>
