<svg xmlns="http://www.w3.org/2000/svg" xmlns:xlink="http://www.w3.org/1999/xlink" width="62" height="41.576" viewBox="0 0 62 41.576">
  <defs>
    <clipPath id="clip-path">
      <circle id="Ellipse_47" data-name="Ellipse 47" cx="1.718" cy="1.718" r="1.718" transform="translate(0 3.345) rotate(-76.831)" fill="none"/>
    </clipPath>
  </defs>
  <g id="Group_263" data-name="Group 263" transform="translate(-129 -443.424)">
    <g id="Group_117" data-name="Group 117" transform="translate(128.722 443.424)">
      <path id="Path_174" data-name="Path 174" d="M548.288,496.554H497.449a1.191,1.191,0,0,0-1.27,1.165V532.8a1.343,1.343,0,0,0,1.27,1.344h50.842a1.242,1.242,0,0,0,1.145-1.344V497.719A1.09,1.09,0,0,0,548.288,496.554Z" transform="translate(-491.896 -496.554)" fill="#fff"/>
      <path id="Path_175" data-name="Path 175" d="M553.7,537.554c0,.765-.166,1.074-.886,1.074H507.663c-.72,0-1.663-.31-1.663-1.074v-29.14c0-.765.943-1.414,1.663-1.414h45.152c.72,0,.886.649.886,1.414Z" transform="translate(-499.171 -504.292)" fill="#8ca4ba"/>
      <rect id="Rectangle_48" data-name="Rectangle 48" width="62" height="3" rx="1.5" transform="translate(0.278 38.576)" fill="#fff"/>
    </g>
    <g id="OBJECTS" transform="translate(142.889 452.488)">
      <g id="Group_223" data-name="Group 223" transform="translate(0 0)">
        <g id="Group_192" data-name="Group 192" transform="translate(19.933 4.57)">
          <path id="Rectangle_92" data-name="Rectangle 92" d="M3.064,0H11.08a3.064,3.064,0,0,1,3.064,3.064v0A3.064,3.064,0,0,1,11.08,6.127H3.064A3.064,3.064,0,0,1,0,3.064v0A3.064,3.064,0,0,1,3.064,0Z" transform="translate(0.934)" fill="#eef2f5"/>
          <path id="Path_240" data-name="Path 240" d="M277.889,204.932h2.48l-1.084,1.4Z" transform="translate(-277.889 -204.932)" fill="#d4eeff"/>
          <g id="Group_190" data-name="Group 190" transform="translate(7.309 3.338)">
            <circle id="Ellipse_41" data-name="Ellipse 41" cx="0.902" cy="0.902" r="0.902" transform="translate(0 1.755) rotate(-76.657)" fill="#f2cf00"/>
            <g id="Group_188" data-name="Group 188" transform="translate(0.496 0.708)">
              <path id="Path_241" data-name="Path 241" d="M367.9,251.574c0,.093-.075-.057-.168-.057s-.168.15-.168.057a.168.168,0,0,1,.336,0Z" transform="translate(-367.567 -251.406)" fill="#512918"/>
              <path id="Path_242" data-name="Path 242" d="M377.584,251.574c0,.093-.075-.057-.168-.057s-.168.15-.168.057a.168.168,0,0,1,.336,0Z" transform="translate(-376.405 -251.406)" fill="#512918"/>
            </g>
            <g id="Group_189" data-name="Group 189" transform="translate(0.542 1.187)">
              <path id="Path_243" data-name="Path 243" d="M368.632,257.179a.757.757,0,0,1-.537-.222.025.025,0,1,1,.035-.035.711.711,0,0,0,1,0,.024.024,0,1,1,.035.035A.757.757,0,0,1,368.632,257.179Z" transform="translate(-368.088 -256.915)" fill="#512918"/>
            </g>
          </g>
          <g id="Group_191" data-name="Group 191" transform="translate(2.195 1.407)">
            <rect id="Rectangle_93" data-name="Rectangle 93" width="10.967" height="0.309" fill="#8ed5f5"/>
            <rect id="Rectangle_94" data-name="Rectangle 94" width="10.967" height="0.309" transform="translate(0 1.176)" fill="#8ed5f5"/>
            <rect id="Rectangle_95" data-name="Rectangle 95" width="4.352" height="0.309" transform="translate(0 2.568)" fill="#8ed5f5"/>
          </g>
        </g>
        <g id="Group_194" data-name="Group 194" transform="translate(0 0.015)">
          <path id="Path_244" data-name="Path 244" d="M63.967,152.6H49.9a1.013,1.013,0,0,0-1.01,1.01v2.366a1.013,1.013,0,0,0,1.01,1.01H62.023a1.013,1.013,0,0,0,1.01-1.01v-2.366c0-.025,0-.049,0-.073Z" transform="translate(-48.889 -152.596)" fill="#fafafa"/>
          <g id="Group_193" data-name="Group 193" transform="translate(1.412 1.263)">
            <rect id="Rectangle_96" data-name="Rectangle 96" width="10.967" height="0.309" fill="#8ed5f5"/>
            <rect id="Rectangle_97" data-name="Rectangle 97" width="6.615" height="0.309" transform="translate(0 1.176)" fill="#8ed5f5"/>
          </g>
        </g>
        <g id="Group_201" data-name="Group 201" transform="translate(15.942 4.619)">
          <circle id="Ellipse_42" data-name="Ellipse 42" cx="1.833" cy="1.833" r="1.833" transform="matrix(0.974, -0.228, 0.228, 0.974, 0, 0.835)" fill="#8ca4ba"/>
          <g id="Group_200" data-name="Group 200" transform="translate(0.737 0.774)">
            <rect id="Rectangle_98" data-name="Rectangle 98" width="1.041" height="0.252" rx="0.126" transform="translate(0.96 2.385)" fill="#213a7e"/>
            <rect id="Rectangle_99" data-name="Rectangle 99" width="2.319" height="1.616" rx="0.808" transform="translate(0.321 0.814)" fill="#a5cff2"/>
            <g id="Group_197" data-name="Group 197" transform="translate(0.794 1.135)">
              <g id="Group_195" data-name="Group 195">
                <path id="Path_245" data-name="Path 245" d="M250.165,227.694a.27.27,0,1,1-.27-.27A.27.27,0,0,1,250.165,227.694Z" transform="translate(-249.626 -227.424)" fill="#213a7e" fill-rule="evenodd"/>
                <path id="Path_246" data-name="Path 246" d="M250.934,228.544a.189.189,0,1,1-.189-.189A.189.189,0,0,1,250.934,228.544Z" transform="translate(-250.475 -228.274)" fill="#f8feff" fill-rule="evenodd"/>
              </g>
              <g id="Group_196" data-name="Group 196" transform="translate(0.833 0)">
                <circle id="Ellipse_43" data-name="Ellipse 43" cx="0.27" cy="0.27" r="0.27" fill="#213a7e"/>
                <path id="Path_247" data-name="Path 247" d="M260.507,228.544a.189.189,0,1,1-.189-.189A.189.189,0,0,1,260.507,228.544Z" transform="translate(-260.049 -228.274)" fill="#f8feff" fill-rule="evenodd"/>
              </g>
            </g>
            <path id="Path_248" data-name="Path 248" d="M253.523,219.242H253.3a.278.278,0,0,0-.278.278v.385h.782v-.385A.278.278,0,0,0,253.523,219.242Z" transform="translate(-251.93 -218.819)" fill="#a5cff2"/>
            <rect id="Rectangle_100" data-name="Rectangle 100" width="0.347" height="0.08" transform="translate(1.441 0.473) rotate(-90)" fill="#a5cff2"/>
            <g id="Group_198" data-name="Group 198" transform="translate(2.59 1.444)">
              <path id="Path_249" data-name="Path 249" d="M270.5,230.968h-.249v.384h.249a.122.122,0,0,0,.122-.122v-.14A.122.122,0,0,0,270.5,230.968Z" transform="translate(-270.255 -230.968)" fill="#213a7e"/>
            </g>
            <g id="Group_199" data-name="Group 199" transform="translate(0 1.444)">
              <path id="Path_250" data-name="Path 250" d="M240.626,231.352h.249v-.384h-.249a.122.122,0,0,0-.122.122v.14A.122.122,0,0,0,240.626,231.352Z" transform="translate(-240.504 -230.968)" fill="#213a7e"/>
            </g>
            <path id="Path_251" data-name="Path 251" d="M256.57,214.381a.093.093,0,1,1-.093.093A.093.093,0,0,1,256.57,214.381Z" transform="translate(-255.087 -214.381)" fill="#213a7e"/>
            <path id="Path_252" data-name="Path 252" d="M252.968,235.4a.383.383,0,0,0,.766,0Z" transform="translate(-251.883 -233.571)" fill="#f8feff"/>
          </g>
        </g>
        <g id="Group_203" data-name="Group 203" transform="translate(19.933 14.928)">
          <path id="Rectangle_101" data-name="Rectangle 101" d="M2.454,0H11.69a2.454,2.454,0,0,1,2.454,2.454v0A2.454,2.454,0,0,1,11.69,4.909H2.454A2.454,2.454,0,0,1,0,2.454v0A2.454,2.454,0,0,1,2.454,0Z" transform="translate(0.934)" fill="#eef2f5"/>
          <path id="Path_253" data-name="Path 253" d="M277.889,323.932h2.48l-1.084,1.4Z" transform="translate(-277.889 -323.932)" fill="#eef2f5"/>
          <g id="Group_202" data-name="Group 202" transform="translate(2.195 1.581)">
            <rect id="Rectangle_102" data-name="Rectangle 102" width="10.967" height="0.309" fill="#8ed5f5"/>
            <rect id="Rectangle_103" data-name="Rectangle 103" width="4.004" height="0.309" transform="translate(0 1.176)" fill="#8ed5f5"/>
          </g>
        </g>
        <g id="Group_210" data-name="Group 210" transform="translate(15.942 14.977)">
          <circle id="Ellipse_44" data-name="Ellipse 44" cx="1.833" cy="1.833" r="1.833" transform="matrix(0.974, -0.228, 0.228, 0.974, 0, 0.835)" fill="#8ca4ba"/>
          <g id="Group_209" data-name="Group 209" transform="translate(0.737 0.774)">
            <rect id="Rectangle_104" data-name="Rectangle 104" width="1.041" height="0.252" rx="0.126" transform="translate(0.96 2.385)" fill="#213a7e"/>
            <rect id="Rectangle_105" data-name="Rectangle 105" width="2.319" height="1.616" rx="0.808" transform="translate(0.321 0.814)" fill="#a5cff2"/>
            <g id="Group_206" data-name="Group 206" transform="translate(0.794 1.135)">
              <g id="Group_204" data-name="Group 204">
                <path id="Path_254" data-name="Path 254" d="M250.165,346.694a.27.27,0,1,1-.27-.27A.27.27,0,0,1,250.165,346.694Z" transform="translate(-249.626 -346.424)" fill="#213a7e" fill-rule="evenodd"/>
                <path id="Path_255" data-name="Path 255" d="M250.934,347.544a.189.189,0,1,1-.189-.189A.189.189,0,0,1,250.934,347.544Z" transform="translate(-250.475 -347.274)" fill="#f8feff" fill-rule="evenodd"/>
              </g>
              <g id="Group_205" data-name="Group 205" transform="translate(0.833 0)">
                <circle id="Ellipse_45" data-name="Ellipse 45" cx="0.27" cy="0.27" r="0.27" fill="#213a7e"/>
                <path id="Path_256" data-name="Path 256" d="M260.507,347.544a.189.189,0,1,1-.189-.189A.189.189,0,0,1,260.507,347.544Z" transform="translate(-260.049 -347.274)" fill="#f8feff" fill-rule="evenodd"/>
              </g>
            </g>
            <path id="Path_257" data-name="Path 257" d="M253.523,338.242H253.3a.278.278,0,0,0-.278.278v.385h.782v-.385A.278.278,0,0,0,253.523,338.242Z" transform="translate(-251.93 -337.819)" fill="#a5cff2"/>
            <rect id="Rectangle_106" data-name="Rectangle 106" width="0.347" height="0.08" transform="translate(1.441 0.473) rotate(-90)" fill="#a5cff2"/>
            <g id="Group_207" data-name="Group 207" transform="translate(2.59 1.444)">
              <path id="Path_258" data-name="Path 258" d="M270.5,349.968h-.249v.384h.249a.122.122,0,0,0,.122-.122v-.141A.122.122,0,0,0,270.5,349.968Z" transform="translate(-270.255 -349.968)" fill="#213a7e"/>
            </g>
            <g id="Group_208" data-name="Group 208" transform="translate(0 1.444)">
              <path id="Path_259" data-name="Path 259" d="M240.626,350.352h.249v-.384h-.249a.122.122,0,0,0-.122.122v.141A.122.122,0,0,0,240.626,350.352Z" transform="translate(-240.504 -349.968)" fill="#213a7e"/>
            </g>
            <path id="Path_260" data-name="Path 260" d="M256.57,333.381a.093.093,0,1,1-.093.093A.093.093,0,0,1,256.57,333.381Z" transform="translate(-255.087 -333.381)" fill="#213a7e"/>
            <path id="Path_261" data-name="Path 261" d="M252.968,354.4a.383.383,0,0,0,.766,0Z" transform="translate(-251.883 -352.571)" fill="#f8feff"/>
          </g>
        </g>
        <g id="Group_215" data-name="Group 215" transform="translate(14.234)">
          <circle id="Ellipse_46" data-name="Ellipse 46" cx="1.718" cy="1.718" r="1.718" transform="translate(0 3.345) rotate(-76.831)" fill="#8ca4ba"/>
          <g id="Group_214" data-name="Group 214" transform="translate(0)">
            <g id="Group_213" data-name="Group 213" clip-path="url(#clip-path)">
              <g id="Group_212" data-name="Group 212" transform="translate(1.041 0.957)">
                <path id="Path_262" data-name="Path 262" d="M228.047,164.278a.852.852,0,1,1-.852-.852A.852.852,0,0,1,228.047,164.278Z" transform="translate(-226.172 -163.426)" fill="#213a7e"/>
                <path id="Path_263" data-name="Path 263" d="M225.528,185.759h-.265a.891.891,0,0,0-.891.891v.623h2.046v-.623A.891.891,0,0,0,225.528,185.759Z" transform="translate(-224.372 -183.815)" fill="#f2cf00"/>
                <path id="Path_264" data-name="Path 264" d="M229.224,167.813a1.1,1.1,0,0,1-.984,0,.924.924,0,0,1-.192.85l-.021,0a.705.705,0,0,0,.705.7h0a.705.705,0,0,0,.705-.7l-.021,0A.924.924,0,0,1,229.224,167.813Z" transform="translate(-227.709 -167.431)" fill="#e5bca9"/>
                <path id="Path_265" data-name="Path 265" d="M232.973,181.371v.6a.275.275,0,0,0,.549,0v-.6Z" transform="translate(-232.224 -179.809)" fill="#e5bca9"/>
                <path id="Path_266" data-name="Path 266" d="M233.464,180.182a.233.233,0,0,0,.464,0Z" transform="translate(-232.673 -178.724)" fill="#fff"/>
                <g id="Group_211" data-name="Group 211" transform="translate(0.105 0.981)">
                  <path id="Path_267" data-name="Path 267" d="M225.993,174.9a.206.206,0,1,1-.206-.206A.206.206,0,0,1,225.993,174.9Z" transform="translate(-225.58 -174.696)" fill="#e5bca9"/>
                  <path id="Path_268" data-name="Path 268" d="M242.348,174.9a.206.206,0,1,1-.206-.206A.206.206,0,0,1,242.348,174.9Z" transform="translate(-240.512 -174.696)" fill="#e5bca9"/>
                </g>
              </g>
            </g>
          </g>
        </g>
        <g id="Group_217" data-name="Group 217" transform="translate(0 10.112)">
          <path id="Path_269" data-name="Path 269" d="M63.967,268.6H49.9a1.013,1.013,0,0,0-1.01,1.01v2.366a1.013,1.013,0,0,0,1.01,1.01H62.023a1.013,1.013,0,0,0,1.01-1.01v-2.366c0-.025,0-.049,0-.073Z" transform="translate(-48.889 -268.596)" fill="#fafafa"/>
          <g id="Group_216" data-name="Group 216" transform="translate(1.412 1.437)">
            <rect id="Rectangle_107" data-name="Rectangle 107" width="10.967" height="0.309" fill="#8ed5f5"/>
            <rect id="Rectangle_108" data-name="Rectangle 108" width="6.615" height="0.309" transform="translate(0 1.176)" fill="#8ed5f5"/>
          </g>
        </g>
        <g id="Group_222" data-name="Group 222" transform="translate(14.234 10.097)">
          <path id="Path_277" data-name="Path 277" d="M1.718,0A1.718,1.718,0,1,1,0,1.718,1.718,1.718,0,0,1,1.718,0Z" transform="translate(0 3.345) rotate(-76.831)" fill="#8ca4ba"/>
          <g id="Group_221" data-name="Group 221" transform="translate(0 0)">
            <g id="Group_220" data-name="Group 220" clip-path="url(#clip-path)">
              <g id="Group_219" data-name="Group 219" transform="translate(1.041 0.957)">
                <path id="Path_270" data-name="Path 270" d="M228.047,280.278a.852.852,0,1,1-.852-.852A.852.852,0,0,1,228.047,280.278Z" transform="translate(-226.172 -279.426)" fill="#213a7e"/>
                <path id="Path_271" data-name="Path 271" d="M225.528,301.759h-.265a.891.891,0,0,0-.891.891v.623h2.046v-.623A.891.891,0,0,0,225.528,301.759Z" transform="translate(-224.372 -299.815)" fill="#f2cf00"/>
                <path id="Path_272" data-name="Path 272" d="M229.224,283.813a1.1,1.1,0,0,1-.984,0,.924.924,0,0,1-.192.85l-.021,0a.705.705,0,0,0,.705.7h0a.705.705,0,0,0,.705-.7l-.021,0A.924.924,0,0,1,229.224,283.813Z" transform="translate(-227.709 -283.431)" fill="#e5bca9"/>
                <path id="Path_273" data-name="Path 273" d="M232.973,297.371v.6a.275.275,0,1,0,.549,0v-.6Z" transform="translate(-232.224 -295.809)" fill="#e5bca9"/>
                <path id="Path_274" data-name="Path 274" d="M233.464,296.182a.233.233,0,0,0,.464,0Z" transform="translate(-232.673 -294.724)" fill="#fff"/>
                <g id="Group_218" data-name="Group 218" transform="translate(0.105 0.981)">
                  <path id="Path_275" data-name="Path 275" d="M225.993,290.9a.206.206,0,1,1-.206-.206A.206.206,0,0,1,225.993,290.9Z" transform="translate(-225.58 -290.696)" fill="#e5bca9"/>
                  <path id="Path_276" data-name="Path 276" d="M242.348,290.9a.206.206,0,1,1-.206-.206A.206.206,0,0,1,242.348,290.9Z" transform="translate(-240.512 -290.696)" fill="#e5bca9"/>
                </g>
              </g>
            </g>
          </g>
        </g>
      </g>
    </g>
  </g>
</svg>
