<svg xmlns="http://www.w3.org/2000/svg" xmlns:xlink="http://www.w3.org/1999/xlink" width="64.531" height="60.62" viewBox="0 0 64.531 60.62">
  <defs>
    <clipPath id="clip-path">
      <circle id="Ellipse_47" data-name="Ellipse 47" cx="1.95" cy="1.95" r="1.95" transform="translate(0 3.797) rotate(-76.831)" fill="none"/>
    </clipPath>
  </defs>
  <g id="Group_258" data-name="Group 258" transform="translate(-75.157 -382.469)">
    <g id="Group_173" data-name="Group 173" transform="translate(75.157 382.469)">
      <path id="Path_185" data-name="Path 185" d="M340.916,261.434h-61.2a1.588,1.588,0,0,0-1.676,1.551v49.591a1.739,1.739,0,0,0,1.676,1.725h22.857s.015,4.582.021,4.582h-3.152a1.6,1.6,0,0,0,0,3.172h22.507a1.6,1.6,0,0,0,0-3.172H318.7s-.031-4.582-.031-4.582h22.254a1.721,1.721,0,0,0,1.654-1.725V262.985A1.572,1.572,0,0,0,340.916,261.434Z" transform="translate(-278.042 -261.434)" fill="#fff"/>
      <rect id="Rectangle_81" data-name="Rectangle 81" width="60" height="43" rx="6.142" transform="translate(2.843 3.531)" fill="#8ca4ba"/>
    </g>
    <g id="OBJECTS" transform="translate(87.889 396.005)">
      <g id="Group_223" data-name="Group 223">
        <g id="Group_192" data-name="Group 192" transform="translate(22.624 6.185)">
          <path id="Rectangle_92" data-name="Rectangle 92" d="M3.477,0h9.1a3.477,3.477,0,0,1,3.477,3.477v0a3.477,3.477,0,0,1-3.477,3.477h-9.1A3.477,3.477,0,0,1,0,3.477v0A3.477,3.477,0,0,1,3.477,0Z" transform="translate(1.06)" fill="#eef2f5"/>
          <path id="Path_240" data-name="Path 240" d="M277.889,204.932H280.7l-1.231,1.584Z" transform="translate(-277.889 -204.932)" fill="#d4eeff"/>
          <g id="Group_190" data-name="Group 190" transform="translate(8.296 3.788)">
            <circle id="Ellipse_41" data-name="Ellipse 41" cx="1.024" cy="1.024" r="1.024" transform="translate(0 1.992) rotate(-76.657)" fill="#f2cf00"/>
            <g id="Group_188" data-name="Group 188" transform="translate(0.563 0.803)">
              <path id="Path_241" data-name="Path 241" d="M367.948,251.6c0,.105-.085-.065-.191-.065s-.191.17-.191.065a.191.191,0,0,1,.381,0Z" transform="translate(-367.567 -251.406)" fill="#512918"/>
              <path id="Path_242" data-name="Path 242" d="M377.629,251.6c0,.105-.085-.065-.191-.065s-.191.17-.191.065a.191.191,0,0,1,.381,0Z" transform="translate(-376.292 -251.406)" fill="#512918"/>
            </g>
            <g id="Group_189" data-name="Group 189" transform="translate(0.615 1.347)">
              <path id="Path_243" data-name="Path 243" d="M368.706,257.215a.859.859,0,0,1-.609-.252.028.028,0,1,1,.039-.039.807.807,0,0,0,1.14,0,.028.028,0,0,1,.039.039A.859.859,0,0,1,368.706,257.215Z" transform="translate(-368.088 -256.915)" fill="#512918"/>
            </g>
          </g>
          <g id="Group_191" data-name="Group 191" transform="translate(2.491 1.597)">
            <rect id="Rectangle_93" data-name="Rectangle 93" width="12.448" height="0.35" fill="#8ed5f5"/>
            <rect id="Rectangle_94" data-name="Rectangle 94" width="12.448" height="0.35" transform="translate(0 1.334)" fill="#8ed5f5"/>
            <rect id="Rectangle_95" data-name="Rectangle 95" width="4.939" height="0.35" transform="translate(0 2.915)" fill="#8ed5f5"/>
          </g>
        </g>
        <g id="Group_194" data-name="Group 194" transform="translate(0 0.016)">
          <path id="Path_244" data-name="Path 244" d="M66,152.6H50.036a1.15,1.15,0,0,0-1.147,1.147v2.685a1.15,1.15,0,0,0,1.147,1.147H63.8a1.15,1.15,0,0,0,1.147-1.147v-2.685c0-.028,0-.055,0-.082Z" transform="translate(-48.889 -152.596)" fill="#fafafa"/>
          <g id="Group_193" data-name="Group 193" transform="translate(1.602 1.433)">
            <rect id="Rectangle_96" data-name="Rectangle 96" width="12.448" height="0.35" fill="#8ed5f5"/>
            <rect id="Rectangle_97" data-name="Rectangle 97" width="7.508" height="0.35" transform="translate(0 1.334)" fill="#8ed5f5"/>
          </g>
        </g>
        <g id="Group_201" data-name="Group 201" transform="translate(18.094 6.139)">
          <circle id="Ellipse_42" data-name="Ellipse 42" cx="2.081" cy="2.081" r="2.081" transform="matrix(0.974, -0.228, 0.228, 0.974, 0, 0.948)" fill="#8ca4ba"/>
          <g id="Group_200" data-name="Group 200" transform="translate(0.836 0.878)">
            <rect id="Rectangle_98" data-name="Rectangle 98" width="1.181" height="0.286" rx="0.143" transform="translate(1.09 2.707)" fill="#213a7e"/>
            <rect id="Rectangle_99" data-name="Rectangle 99" width="2.632" height="1.834" rx="0.917" transform="translate(0.364 0.924)" fill="#a5cff2"/>
            <g id="Group_197" data-name="Group 197" transform="translate(0.901 1.289)">
              <g id="Group_195" data-name="Group 195">
                <path id="Path_245" data-name="Path 245" d="M250.238,227.73a.306.306,0,1,1-.306-.306A.306.306,0,0,1,250.238,227.73Z" transform="translate(-249.626 -227.424)" fill="#213a7e" fill-rule="evenodd"/>
                <path id="Path_246" data-name="Path 246" d="M250.984,228.569a.214.214,0,1,1-.214-.214A.214.214,0,0,1,250.984,228.569Z" transform="translate(-250.464 -228.263)" fill="#f8feff" fill-rule="evenodd"/>
              </g>
              <g id="Group_196" data-name="Group 196" transform="translate(0.946 0)">
                <circle id="Ellipse_43" data-name="Ellipse 43" cx="0.306" cy="0.306" r="0.306" fill="#213a7e"/>
                <path id="Path_247" data-name="Path 247" d="M260.558,228.569a.214.214,0,1,1-.214-.214A.214.214,0,0,1,260.558,228.569Z" transform="translate(-260.038 -228.263)" fill="#f8feff" fill-rule="evenodd"/>
              </g>
            </g>
            <path id="Path_248" data-name="Path 248" d="M253.591,219.242h-.257a.315.315,0,0,0-.315.315v.437h.888v-.437A.315.315,0,0,0,253.591,219.242Z" transform="translate(-251.783 -218.762)" fill="#a5cff2"/>
            <rect id="Rectangle_100" data-name="Rectangle 100" width="0.394" height="0.09" transform="translate(1.635 0.537) rotate(-90)" fill="#a5cff2"/>
            <g id="Group_198" data-name="Group 198" transform="translate(2.939 1.639)">
              <path id="Path_249" data-name="Path 249" d="M270.538,230.968h-.283v.436h.283a.138.138,0,0,0,.139-.138v-.159A.138.138,0,0,0,270.538,230.968Z" transform="translate(-270.255 -230.968)" fill="#213a7e"/>
            </g>
            <g id="Group_199" data-name="Group 199" transform="translate(0 1.639)">
              <path id="Path_250" data-name="Path 250" d="M240.642,231.4h.283v-.436h-.283a.138.138,0,0,0-.138.138v.159A.138.138,0,0,0,240.642,231.4Z" transform="translate(-240.504 -230.968)" fill="#213a7e"/>
            </g>
            <path id="Path_251" data-name="Path 251" d="M256.582,214.381a.105.105,0,1,1-.105.105A.105.105,0,0,1,256.582,214.381Z" transform="translate(-254.899 -214.381)" fill="#213a7e"/>
            <path id="Path_252" data-name="Path 252" d="M252.968,235.4a.435.435,0,0,0,.869,0Z" transform="translate(-251.737 -233.324)" fill="#f8feff"/>
          </g>
        </g>
        <g id="Group_203" data-name="Group 203" transform="translate(22.624 19.939)">
          <path id="Rectangle_101" data-name="Rectangle 101" d="M2.786,0H13.268a2.786,2.786,0,0,1,2.786,2.786v0a2.786,2.786,0,0,1-2.786,2.786H2.786A2.786,2.786,0,0,1,0,2.786v0A2.786,2.786,0,0,1,2.786,0Z" transform="translate(1.06)" fill="#eef2f5"/>
          <path id="Path_253" data-name="Path 253" d="M277.889,323.932H280.7l-1.231,1.584Z" transform="translate(-277.889 -323.932)" fill="#eef2f5"/>
          <g id="Group_202" data-name="Group 202" transform="translate(2.491 1.795)">
            <rect id="Rectangle_102" data-name="Rectangle 102" width="12.448" height="0.35" fill="#8ed5f5"/>
            <rect id="Rectangle_103" data-name="Rectangle 103" width="4.544" height="0.35" transform="translate(0 1.334)" fill="#8ed5f5"/>
          </g>
        </g>
        <g id="Group_210" data-name="Group 210" transform="translate(18.094 19.994)">
          <circle id="Ellipse_44" data-name="Ellipse 44" cx="2.081" cy="2.081" r="2.081" transform="matrix(0.974, -0.228, 0.228, 0.974, 0, 0.948)" fill="#8ca4ba"/>
          <g id="Group_209" data-name="Group 209" transform="translate(0.836 0.878)">
            <rect id="Rectangle_104" data-name="Rectangle 104" width="1.181" height="0.286" rx="0.143" transform="translate(1.09 2.707)" fill="#213a7e"/>
            <rect id="Rectangle_105" data-name="Rectangle 105" width="2.632" height="1.834" rx="0.917" transform="translate(0.364 0.924)" fill="#a5cff2"/>
            <g id="Group_206" data-name="Group 206" transform="translate(0.901 1.289)">
              <g id="Group_204" data-name="Group 204">
                <path id="Path_254" data-name="Path 254" d="M250.238,346.73a.306.306,0,1,1-.306-.306A.306.306,0,0,1,250.238,346.73Z" transform="translate(-249.626 -346.424)" fill="#213a7e" fill-rule="evenodd"/>
                <path id="Path_255" data-name="Path 255" d="M250.984,347.569a.214.214,0,1,1-.214-.214A.214.214,0,0,1,250.984,347.569Z" transform="translate(-250.464 -347.263)" fill="#f8feff" fill-rule="evenodd"/>
              </g>
              <g id="Group_205" data-name="Group 205" transform="translate(0.946 0)">
                <circle id="Ellipse_45" data-name="Ellipse 45" cx="0.306" cy="0.306" r="0.306" fill="#213a7e"/>
                <path id="Path_256" data-name="Path 256" d="M260.558,347.569a.214.214,0,1,1-.214-.214A.214.214,0,0,1,260.558,347.569Z" transform="translate(-260.038 -347.263)" fill="#f8feff" fill-rule="evenodd"/>
              </g>
            </g>
            <path id="Path_257" data-name="Path 257" d="M253.591,338.242h-.257a.315.315,0,0,0-.315.315v.437h.888v-.437A.315.315,0,0,0,253.591,338.242Z" transform="translate(-251.783 -337.762)" fill="#a5cff2"/>
            <rect id="Rectangle_106" data-name="Rectangle 106" width="0.394" height="0.09" transform="translate(1.635 0.537) rotate(-90)" fill="#a5cff2"/>
            <g id="Group_207" data-name="Group 207" transform="translate(2.939 1.639)">
              <path id="Path_258" data-name="Path 258" d="M270.538,349.968h-.283v.436h.283a.138.138,0,0,0,.139-.138v-.159A.138.138,0,0,0,270.538,349.968Z" transform="translate(-270.255 -349.968)" fill="#213a7e"/>
            </g>
            <g id="Group_208" data-name="Group 208" transform="translate(0 1.639)">
              <path id="Path_259" data-name="Path 259" d="M240.642,350.4h.283v-.436h-.283a.138.138,0,0,0-.138.138v.159A.138.138,0,0,0,240.642,350.4Z" transform="translate(-240.504 -349.968)" fill="#213a7e"/>
            </g>
            <path id="Path_260" data-name="Path 260" d="M256.582,333.381a.105.105,0,1,1-.105.105A.105.105,0,0,1,256.582,333.381Z" transform="translate(-254.899 -333.381)" fill="#213a7e"/>
            <path id="Path_261" data-name="Path 261" d="M252.968,354.4a.435.435,0,0,0,.869,0Z" transform="translate(-251.737 -352.324)" fill="#f8feff"/>
          </g>
        </g>
        <g id="Group_215" data-name="Group 215" transform="translate(16.156)">
          <circle id="Ellipse_46" data-name="Ellipse 46" cx="1.95" cy="1.95" r="1.95" transform="translate(0 3.797) rotate(-76.831)" fill="#8ca4ba"/>
          <g id="Group_214" data-name="Group 214" transform="translate(0)">
            <g id="Group_213" data-name="Group 213" clip-path="url(#clip-path)">
              <g id="Group_212" data-name="Group 212" transform="translate(1.181 1.086)">
                <path id="Path_262" data-name="Path 262" d="M228.277,164.393a.967.967,0,1,1-.967-.967A.967.967,0,0,1,228.277,164.393Z" transform="translate(-226.149 -163.426)" fill="#213a7e"/>
                <path id="Path_263" data-name="Path 263" d="M225.684,185.759h-.3a1.011,1.011,0,0,0-1.011,1.011v.707h2.323v-.707A1.011,1.011,0,0,0,225.684,185.759Z" transform="translate(-224.372 -183.553)" fill="#f2cf00"/>
                <path id="Path_264" data-name="Path 264" d="M229.386,167.813a1.242,1.242,0,0,1-1.117,0,1.049,1.049,0,0,1-.218.965l-.023,0a.8.8,0,0,0,.8.8h0a.8.8,0,0,0,.8-.8l-.023,0A1.049,1.049,0,0,1,229.386,167.813Z" transform="translate(-227.666 -167.38)" fill="#e5bca9"/>
                <path id="Path_265" data-name="Path 265" d="M232.973,181.371v.683a.312.312,0,0,0,.623,0v-.683Z" transform="translate(-232.123 -179.598)" fill="#e5bca9"/>
                <path id="Path_266" data-name="Path 266" d="M233.464,180.182a.264.264,0,0,0,.526,0Z" transform="translate(-232.566 -178.527)" fill="#fff"/>
                <g id="Group_211" data-name="Group 211" transform="translate(0.119 1.113)">
                  <path id="Path_267" data-name="Path 267" d="M226.048,174.93a.234.234,0,1,1-.234-.234A.234.234,0,0,1,226.048,174.93Z" transform="translate(-225.58 -174.696)" fill="#e5bca9"/>
                  <path id="Path_268" data-name="Path 268" d="M242.4,174.93a.234.234,0,1,1-.234-.234A.234.234,0,0,1,242.4,174.93Z" transform="translate(-240.32 -174.696)" fill="#e5bca9"/>
                </g>
              </g>
            </g>
          </g>
        </g>
        <g id="Group_217" data-name="Group 217" transform="translate(0 13.437)">
          <path id="Path_269" data-name="Path 269" d="M66,268.6H50.036a1.15,1.15,0,0,0-1.147,1.147v2.685a1.15,1.15,0,0,0,1.147,1.147H63.8a1.15,1.15,0,0,0,1.147-1.147v-2.685c0-.028,0-.055,0-.082Z" transform="translate(-48.889 -268.596)" fill="#fafafa"/>
          <g id="Group_216" data-name="Group 216" transform="translate(1.602 1.631)">
            <rect id="Rectangle_107" data-name="Rectangle 107" width="12.448" height="0.35" fill="#8ed5f5"/>
            <rect id="Rectangle_108" data-name="Rectangle 108" width="7.508" height="0.35" transform="translate(0 1.334)" fill="#8ed5f5"/>
          </g>
        </g>
        <g id="Group_222" data-name="Group 222" transform="translate(16.156 13.385)">
          <path id="Path_277" data-name="Path 277" d="M1.95,0A1.95,1.95,0,1,1,0,1.95,1.95,1.95,0,0,1,1.95,0Z" transform="translate(0 3.797) rotate(-76.831)" fill="#8ca4ba"/>
          <g id="Group_221" data-name="Group 221" transform="translate(0 0)">
            <g id="Group_220" data-name="Group 220" clip-path="url(#clip-path)">
              <g id="Group_219" data-name="Group 219" transform="translate(1.181 1.086)">
                <path id="Path_270" data-name="Path 270" d="M228.277,280.393a.967.967,0,1,1-.967-.967A.967.967,0,0,1,228.277,280.393Z" transform="translate(-226.149 -279.426)" fill="#213a7e"/>
                <path id="Path_271" data-name="Path 271" d="M225.684,301.759h-.3a1.011,1.011,0,0,0-1.011,1.011v.707h2.323v-.707A1.011,1.011,0,0,0,225.684,301.759Z" transform="translate(-224.372 -299.553)" fill="#f2cf00"/>
                <path id="Path_272" data-name="Path 272" d="M229.386,283.813a1.242,1.242,0,0,1-1.117,0,1.049,1.049,0,0,1-.218.965l-.023,0a.8.8,0,0,0,.8.8h0a.8.8,0,0,0,.8-.8l-.023,0A1.049,1.049,0,0,1,229.386,283.813Z" transform="translate(-227.666 -283.38)" fill="#e5bca9"/>
                <path id="Path_273" data-name="Path 273" d="M232.973,297.371v.683a.312.312,0,1,0,.623,0v-.683Z" transform="translate(-232.123 -295.598)" fill="#e5bca9"/>
                <path id="Path_274" data-name="Path 274" d="M233.464,296.182a.264.264,0,0,0,.526,0Z" transform="translate(-232.566 -294.527)" fill="#fff"/>
                <g id="Group_218" data-name="Group 218" transform="translate(0.119 1.113)">
                  <path id="Path_275" data-name="Path 275" d="M226.048,290.93a.234.234,0,1,1-.234-.234A.234.234,0,0,1,226.048,290.93Z" transform="translate(-225.58 -290.696)" fill="#e5bca9"/>
                  <path id="Path_276" data-name="Path 276" d="M242.4,290.93a.234.234,0,1,1-.234-.234A.234.234,0,0,1,242.4,290.93Z" transform="translate(-240.32 -290.696)" fill="#e5bca9"/>
                </g>
              </g>
            </g>
          </g>
        </g>
      </g>
    </g>
  </g>
</svg>
