<svg xmlns="http://www.w3.org/2000/svg" xmlns:xlink="http://www.w3.org/1999/xlink" width="41.995" height="30.733" viewBox="0 0 41.995 30.733">
  <defs>
    <clipPath id="clip-path">
      <circle id="Ellipse_47" data-name="Ellipse 47" cx="1.154" cy="1.154" r="1.154" transform="translate(0 2.248) rotate(-76.831)" fill="none"/>
    </clipPath>
  </defs>
  <g id="Group_259" data-name="Group 259" transform="translate(-22.253 -337.203)">
    <g id="Group_118" data-name="Group 118" transform="translate(22.253 337.203)">
      <path id="Path_176" data-name="Path 176" d="M73.99,89.676l-.015,25.018a2.846,2.846,0,0,0,2.85,2.848l36.279.021a2.848,2.848,0,0,0,2.852-2.845L115.97,89.7a2.851,2.851,0,0,0-2.849-2.849L76.843,86.83A2.848,2.848,0,0,0,73.99,89.676Z" transform="translate(-73.975 -86.83)" fill="#fff"/>
      <path id="Path_177" data-name="Path 177" d="M222.139,141.3a1.693,1.693,0,1,1-1.691-1.694A1.692,1.692,0,0,1,222.139,141.3Z" transform="translate(-181.219 -125.928)" fill="#8ca4ba"/>
      <rect id="Rectangle_49" data-name="Rectangle 49" width="32.617" height="24.948" transform="translate(3.433 2.891)" fill="#8ca4ba"/>
    </g>
    <g id="OBJECTS" transform="translate(29.889 346.995)">
      <g id="Group_223" data-name="Group 223" transform="translate(0 0)">
        <g id="Group_192" data-name="Group 192" transform="translate(13.395 3.071)">
          <path id="Rectangle_92" data-name="Rectangle 92" d="M2.059,0H7.446A2.059,2.059,0,0,1,9.5,2.059v0A2.059,2.059,0,0,1,7.446,4.117H2.059A2.059,2.059,0,0,1,0,2.059v0A2.059,2.059,0,0,1,2.059,0Z" transform="translate(0.628)" fill="#eef2f5"/>
          <path id="Path_240" data-name="Path 240" d="M277.889,204.932h1.667l-.729.938Z" transform="translate(-277.889 -204.932)" fill="#d4eeff"/>
          <g id="Group_190" data-name="Group 190" transform="translate(4.912 2.243)">
            <circle id="Ellipse_41" data-name="Ellipse 41" cx="0.606" cy="0.606" r="0.606" transform="translate(0 1.18) rotate(-76.657)" fill="#f2cf00"/>
            <g id="Group_188" data-name="Group 188" transform="translate(0.334 0.476)">
              <path id="Path_241" data-name="Path 241" d="M367.793,251.519c0,.062-.051-.038-.113-.038s-.113.1-.113.038a.113.113,0,0,1,.226,0Z" transform="translate(-367.567 -251.406)" fill="#512918"/>
              <path id="Path_242" data-name="Path 242" d="M377.474,251.519c0,.062-.051-.038-.113-.038s-.113.1-.113.038a.113.113,0,0,1,.226,0Z" transform="translate(-376.682 -251.406)" fill="#512918"/>
            </g>
            <g id="Group_189" data-name="Group 189" transform="translate(0.364 0.798)">
              <path id="Path_243" data-name="Path 243" d="M368.454,257.093a.509.509,0,0,1-.361-.149.016.016,0,0,1,.023-.023.478.478,0,0,0,.675,0,.016.016,0,0,1,.023.023A.509.509,0,0,1,368.454,257.093Z" transform="translate(-368.088 -256.915)" fill="#512918"/>
            </g>
          </g>
          <g id="Group_191" data-name="Group 191" transform="translate(1.475 0.946)">
            <rect id="Rectangle_93" data-name="Rectangle 93" width="7.37" height="0.207" fill="#8ed5f5"/>
            <rect id="Rectangle_94" data-name="Rectangle 94" width="7.37" height="0.207" transform="translate(0 0.79)" fill="#8ed5f5"/>
            <rect id="Rectangle_95" data-name="Rectangle 95" width="2.924" height="0.207" transform="translate(0 1.726)" fill="#8ed5f5"/>
          </g>
        </g>
        <g id="Group_194" data-name="Group 194" transform="translate(0 0.01)">
          <path id="Path_244" data-name="Path 244" d="M59.021,152.6H49.568a.681.681,0,0,0-.679.679v1.59a.681.681,0,0,0,.679.679h8.147a.681.681,0,0,0,.679-.679v-1.59c0-.016,0-.033,0-.049Z" transform="translate(-48.889 -152.596)" fill="#fafafa"/>
          <g id="Group_193" data-name="Group 193" transform="translate(0.949 0.848)">
            <rect id="Rectangle_96" data-name="Rectangle 96" width="7.37" height="0.207" fill="#8ed5f5"/>
            <rect id="Rectangle_97" data-name="Rectangle 97" width="4.445" height="0.207" transform="translate(0 0.79)" fill="#8ed5f5"/>
          </g>
        </g>
        <g id="Group_201" data-name="Group 201" transform="translate(10.713 3.104)">
          <circle id="Ellipse_42" data-name="Ellipse 42" cx="1.232" cy="1.232" r="1.232" transform="matrix(0.974, -0.228, 0.228, 0.974, 0, 0.561)" fill="#8ca4ba"/>
          <g id="Group_200" data-name="Group 200" transform="translate(0.495 0.52)">
            <rect id="Rectangle_98" data-name="Rectangle 98" width="0.699" height="0.169" rx="0.085" transform="translate(0.645 1.603)" fill="#213a7e"/>
            <rect id="Rectangle_99" data-name="Rectangle 99" width="1.558" height="1.086" rx="0.543" transform="translate(0.216 0.547)" fill="#a5cff2"/>
            <g id="Group_197" data-name="Group 197" transform="translate(0.534 0.763)">
              <g id="Group_195" data-name="Group 195">
                <path id="Path_245" data-name="Path 245" d="M249.989,227.605a.181.181,0,1,1-.181-.181A.181.181,0,0,1,249.989,227.605Z" transform="translate(-249.626 -227.424)" fill="#213a7e" fill-rule="evenodd"/>
                <path id="Path_246" data-name="Path 246" d="M250.81,228.482a.127.127,0,1,1-.127-.127A.127.127,0,0,1,250.81,228.482Z" transform="translate(-250.502 -228.301)" fill="#f8feff" fill-rule="evenodd"/>
              </g>
              <g id="Group_196" data-name="Group 196" transform="translate(0.56 0)">
                <circle id="Ellipse_43" data-name="Ellipse 43" cx="0.181" cy="0.181" r="0.181" fill="#213a7e"/>
                <path id="Path_247" data-name="Path 247" d="M260.384,228.482a.127.127,0,1,1-.127-.127A.127.127,0,0,1,260.384,228.482Z" transform="translate(-260.076 -228.301)" fill="#f8feff" fill-rule="evenodd"/>
              </g>
            </g>
            <path id="Path_248" data-name="Path 248" d="M253.358,219.242h-.152a.187.187,0,0,0-.187.187v.259h.526v-.259A.187.187,0,0,0,253.358,219.242Z" transform="translate(-252.287 -218.958)" fill="#a5cff2"/>
            <rect id="Rectangle_100" data-name="Rectangle 100" width="0.233" height="0.053" transform="translate(0.968 0.318) rotate(-90)" fill="#a5cff2"/>
            <g id="Group_198" data-name="Group 198" transform="translate(1.74 0.97)">
              <path id="Path_249" data-name="Path 249" d="M270.422,230.968h-.167v.258h.167a.082.082,0,0,0,.082-.082v-.094A.082.082,0,0,0,270.422,230.968Z" transform="translate(-270.255 -230.968)" fill="#213a7e"/>
            </g>
            <g id="Group_199" data-name="Group 199" transform="translate(0 0.97)">
              <path id="Path_250" data-name="Path 250" d="M240.586,231.226h.167v-.258h-.167a.082.082,0,0,0-.082.082v.094A.082.082,0,0,0,240.586,231.226Z" transform="translate(-240.504 -230.968)" fill="#213a7e"/>
            </g>
            <path id="Path_251" data-name="Path 251" d="M256.539,214.381a.062.062,0,1,1-.062.062A.062.062,0,0,1,256.539,214.381Z" transform="translate(-255.543 -214.381)" fill="#213a7e"/>
            <path id="Path_252" data-name="Path 252" d="M252.968,235.4a.257.257,0,0,0,.514,0Z" transform="translate(-252.239 -234.172)" fill="#f8feff"/>
          </g>
        </g>
        <g id="Group_203" data-name="Group 203" transform="translate(13.395 10.032)">
          <path id="Rectangle_101" data-name="Rectangle 101" d="M1.649,0H7.855A1.649,1.649,0,0,1,9.5,1.649v0A1.649,1.649,0,0,1,7.855,3.3H1.649A1.649,1.649,0,0,1,0,1.649v0A1.649,1.649,0,0,1,1.649,0Z" transform="translate(0.628)" fill="#eef2f5"/>
          <path id="Path_253" data-name="Path 253" d="M277.889,323.932h1.667l-.729.938Z" transform="translate(-277.889 -323.932)" fill="#eef2f5"/>
          <g id="Group_202" data-name="Group 202" transform="translate(1.475 1.063)">
            <rect id="Rectangle_102" data-name="Rectangle 102" width="7.37" height="0.207" fill="#8ed5f5"/>
            <rect id="Rectangle_103" data-name="Rectangle 103" width="2.69" height="0.207" transform="translate(0 0.79)" fill="#8ed5f5"/>
          </g>
        </g>
        <g id="Group_210" data-name="Group 210" transform="translate(10.713 10.064)">
          <circle id="Ellipse_44" data-name="Ellipse 44" cx="1.232" cy="1.232" r="1.232" transform="matrix(0.974, -0.228, 0.228, 0.974, 0, 0.561)" fill="#8ca4ba"/>
          <g id="Group_209" data-name="Group 209" transform="translate(0.495 0.52)">
            <rect id="Rectangle_104" data-name="Rectangle 104" width="0.699" height="0.169" rx="0.085" transform="translate(0.645 1.603)" fill="#213a7e"/>
            <rect id="Rectangle_105" data-name="Rectangle 105" width="1.558" height="1.086" rx="0.543" transform="translate(0.216 0.547)" fill="#a5cff2"/>
            <g id="Group_206" data-name="Group 206" transform="translate(0.534 0.763)">
              <g id="Group_204" data-name="Group 204">
                <path id="Path_254" data-name="Path 254" d="M249.989,346.605a.181.181,0,1,1-.181-.181A.181.181,0,0,1,249.989,346.605Z" transform="translate(-249.626 -346.424)" fill="#213a7e" fill-rule="evenodd"/>
                <path id="Path_255" data-name="Path 255" d="M250.81,347.482a.127.127,0,1,1-.127-.127A.127.127,0,0,1,250.81,347.482Z" transform="translate(-250.502 -347.301)" fill="#f8feff" fill-rule="evenodd"/>
              </g>
              <g id="Group_205" data-name="Group 205" transform="translate(0.56 0)">
                <circle id="Ellipse_45" data-name="Ellipse 45" cx="0.181" cy="0.181" r="0.181" fill="#213a7e"/>
                <path id="Path_256" data-name="Path 256" d="M260.384,347.482a.127.127,0,1,1-.127-.127A.127.127,0,0,1,260.384,347.482Z" transform="translate(-260.076 -347.301)" fill="#f8feff" fill-rule="evenodd"/>
              </g>
            </g>
            <path id="Path_257" data-name="Path 257" d="M253.358,338.242h-.152a.187.187,0,0,0-.187.187v.259h.526v-.259A.187.187,0,0,0,253.358,338.242Z" transform="translate(-252.287 -337.958)" fill="#a5cff2"/>
            <rect id="Rectangle_106" data-name="Rectangle 106" width="0.233" height="0.053" transform="translate(0.968 0.318) rotate(-90)" fill="#a5cff2"/>
            <g id="Group_207" data-name="Group 207" transform="translate(1.74 0.97)">
              <path id="Path_258" data-name="Path 258" d="M270.422,349.968h-.167v.258h.167a.082.082,0,0,0,.082-.082v-.094A.082.082,0,0,0,270.422,349.968Z" transform="translate(-270.255 -349.968)" fill="#213a7e"/>
            </g>
            <g id="Group_208" data-name="Group 208" transform="translate(0 0.97)">
              <path id="Path_259" data-name="Path 259" d="M240.586,350.226h.167v-.258h-.167a.082.082,0,0,0-.082.082v.094A.082.082,0,0,0,240.586,350.226Z" transform="translate(-240.504 -349.968)" fill="#213a7e"/>
            </g>
            <path id="Path_260" data-name="Path 260" d="M256.539,333.381a.062.062,0,1,1-.062.062A.062.062,0,0,1,256.539,333.381Z" transform="translate(-255.543 -333.381)" fill="#213a7e"/>
            <path id="Path_261" data-name="Path 261" d="M252.968,354.4a.257.257,0,0,0,.514,0Z" transform="translate(-252.239 -353.171)" fill="#f8feff"/>
          </g>
        </g>
        <g id="Group_215" data-name="Group 215" transform="translate(9.565)">
          <circle id="Ellipse_46" data-name="Ellipse 46" cx="1.154" cy="1.154" r="1.154" transform="translate(0 2.248) rotate(-76.831)" fill="#8ca4ba"/>
          <g id="Group_214" data-name="Group 214" transform="translate(0)">
            <g id="Group_213" data-name="Group 213" transform="translate(0)" clip-path="url(#clip-path)">
              <g id="Group_212" data-name="Group 212" transform="translate(0.699 0.643)">
                <path id="Path_262" data-name="Path 262" d="M227.488,164a.572.572,0,1,1-.572-.572A.572.572,0,0,1,227.488,164Z" transform="translate(-226.229 -163.426)" fill="#213a7e"/>
                <path id="Path_263" data-name="Path 263" d="M225.149,185.759h-.178a.6.6,0,0,0-.6.6v.419h1.375v-.419A.6.6,0,0,0,225.149,185.759Z" transform="translate(-224.372 -184.453)" fill="#f2cf00"/>
                <path id="Path_264" data-name="Path 264" d="M228.832,167.813a.736.736,0,0,1-.662,0,.621.621,0,0,1-.129.571l-.014,0a.474.474,0,0,0,.474.472h0a.474.474,0,0,0,.474-.472l-.014,0A.621.621,0,0,1,228.832,167.813Z" transform="translate(-227.813 -167.556)" fill="#e5bca9"/>
                <path id="Path_265" data-name="Path 265" d="M232.973,181.371v.4a.184.184,0,0,0,.369,0v-.4Z" transform="translate(-232.47 -180.321)" fill="#e5bca9"/>
                <path id="Path_266" data-name="Path 266" d="M233.464,180.182a.156.156,0,0,0,.312,0Z" transform="translate(-232.932 -179.202)" fill="#fff"/>
                <g id="Group_211" data-name="Group 211" transform="translate(0.071 0.659)">
                  <path id="Path_267" data-name="Path 267" d="M225.857,174.835a.139.139,0,1,1-.139-.139A.139.139,0,0,1,225.857,174.835Z" transform="translate(-225.58 -174.696)" fill="#e5bca9"/>
                  <path id="Path_268" data-name="Path 268" d="M242.213,174.835a.139.139,0,1,1-.139-.139A.139.139,0,0,1,242.213,174.835Z" transform="translate(-240.979 -174.696)" fill="#e5bca9"/>
                </g>
              </g>
            </g>
          </g>
        </g>
        <g id="Group_217" data-name="Group 217" transform="translate(0 6.795)">
          <path id="Path_269" data-name="Path 269" d="M59.021,268.6H49.568a.681.681,0,0,0-.679.679v1.59a.681.681,0,0,0,.679.679h8.147a.681.681,0,0,0,.679-.679v-1.59c0-.017,0-.033,0-.049Z" transform="translate(-48.889 -268.596)" fill="#fafafa"/>
          <g id="Group_216" data-name="Group 216" transform="translate(0.949 0.965)">
            <rect id="Rectangle_107" data-name="Rectangle 107" width="7.37" height="0.207" fill="#8ed5f5"/>
            <rect id="Rectangle_108" data-name="Rectangle 108" width="4.445" height="0.207" transform="translate(0 0.79)" fill="#8ed5f5"/>
          </g>
        </g>
        <g id="Group_222" data-name="Group 222" transform="translate(9.565 6.785)">
          <path id="Path_277" data-name="Path 277" d="M1.154,0A1.154,1.154,0,1,1,0,1.154,1.154,1.154,0,0,1,1.154,0Z" transform="translate(0 2.248) rotate(-76.831)" fill="#8ca4ba"/>
          <g id="Group_221" data-name="Group 221" transform="translate(0 0)">
            <g id="Group_220" data-name="Group 220" transform="translate(0)" clip-path="url(#clip-path)">
              <g id="Group_219" data-name="Group 219" transform="translate(0.699 0.643)">
                <path id="Path_270" data-name="Path 270" d="M227.488,280a.572.572,0,1,1-.572-.572A.572.572,0,0,1,227.488,280Z" transform="translate(-226.229 -279.426)" fill="#213a7e"/>
                <path id="Path_271" data-name="Path 271" d="M225.149,301.759h-.178a.6.6,0,0,0-.6.6v.419h1.375v-.419A.6.6,0,0,0,225.149,301.759Z" transform="translate(-224.372 -300.453)" fill="#f2cf00"/>
                <path id="Path_272" data-name="Path 272" d="M228.832,283.813a.736.736,0,0,1-.662,0,.621.621,0,0,1-.129.571l-.014,0a.474.474,0,0,0,.474.472h0a.474.474,0,0,0,.474-.472l-.014,0A.621.621,0,0,1,228.832,283.813Z" transform="translate(-227.813 -283.556)" fill="#e5bca9"/>
                <path id="Path_273" data-name="Path 273" d="M232.973,297.371v.4a.184.184,0,1,0,.369,0v-.4Z" transform="translate(-232.47 -296.321)" fill="#e5bca9"/>
                <path id="Path_274" data-name="Path 274" d="M233.464,296.182a.156.156,0,0,0,.312,0Z" transform="translate(-232.932 -295.202)" fill="#fff"/>
                <g id="Group_218" data-name="Group 218" transform="translate(0.071 0.659)">
                  <path id="Path_275" data-name="Path 275" d="M225.857,290.835a.139.139,0,1,1-.139-.139A.139.139,0,0,1,225.857,290.835Z" transform="translate(-225.58 -290.696)" fill="#e5bca9"/>
                  <path id="Path_276" data-name="Path 276" d="M242.213,290.835a.139.139,0,1,1-.139-.139A.139.139,0,0,1,242.213,290.835Z" transform="translate(-240.979 -290.696)" fill="#e5bca9"/>
                </g>
              </g>
            </g>
          </g>
        </g>
      </g>
    </g>
  </g>
</svg>
