<svg xmlns="http://www.w3.org/2000/svg" xmlns:xlink="http://www.w3.org/1999/xlink" width="17.725" height="31.298" viewBox="0 0 17.725 31.298">
  <defs>
    <clipPath id="clip-path">
      <circle id="Ellipse_47" data-name="Ellipse 47" cx="0.66" cy="0.66" r="0.66" transform="translate(0 1.285) rotate(-76.831)" fill="none"/>
    </clipPath>
  </defs>
  <g id="Group_260" data-name="Group 260" transform="translate(-166.994 -338.638)">
    <g id="Group_174" data-name="Group 174" transform="translate(166.994 338.638)">
      <path id="Path_186" data-name="Path 186" d="M647.731,92.366H634.562a2.278,2.278,0,0,0-2.277,2.281v26.739a2.278,2.278,0,0,0,2.277,2.278h13.169a2.28,2.28,0,0,0,2.279-2.278V94.647A2.281,2.281,0,0,0,647.731,92.366Z" transform="translate(-632.285 -92.366)" fill="#fff"/>
      <rect id="Rectangle_82" data-name="Rectangle 82" width="14.309" height="21.511" transform="translate(1.708 3.847)" fill="#8ca4ba"/>
      <path id="Path_187" data-name="Path 187" d="M660.8,99.391h-6.105v-.666H660.8v.666Z" transform="translate(-648.884 -97.077)" fill="#8ca4ba"/>
      <path id="Path_188" data-name="Path 188" d="M684.985,98.455a.584.584,0,1,1-.584-.583A.584.584,0,0,1,684.985,98.455Z" transform="translate(-670.458 -96.445)" fill="#8ca4ba"/>
      <rect id="Rectangle_83" data-name="Rectangle 83" width="5.56" height="1.711" transform="translate(6.081 27.157)" fill="#8ca4ba"/>
    </g>
    <g id="OBJECTS" transform="translate(169.889 347.576)">
      <g id="Group_223" data-name="Group 223" transform="translate(0 0)">
        <g id="Group_192" data-name="Group 192" transform="translate(7.056 1.619)">
          <path id="Rectangle_92" data-name="Rectangle 92" d="M1.176,0H4.255A1.176,1.176,0,0,1,5.431,1.176v0A1.176,1.176,0,0,1,4.255,2.353H1.176A1.176,1.176,0,0,1,0,1.176v0A1.176,1.176,0,0,1,1.176,0Z" transform="translate(0.359)" fill="#eef2f5"/>
          <path id="Path_240" data-name="Path 240" d="M277.889,204.932h.952l-.416.536Z" transform="translate(-277.889 -204.932)" fill="#d4eeff"/>
          <g id="Group_190" data-name="Group 190" transform="translate(2.807 1.282)">
            <circle id="Ellipse_41" data-name="Ellipse 41" cx="0.346" cy="0.346" r="0.346" transform="translate(0 0.674) rotate(-76.657)" fill="#f2cf00"/>
            <g id="Group_188" data-name="Group 188" transform="translate(0.191 0.272)">
              <path id="Path_241" data-name="Path 241" d="M367.7,251.471c0,.036-.029-.022-.065-.022s-.065.058-.065.022a.065.065,0,0,1,.129,0Z" transform="translate(-367.567 -251.406)" fill="#512918"/>
              <path id="Path_242" data-name="Path 242" d="M377.377,251.471c0,.036-.029-.022-.065-.022s-.064.058-.064.022a.065.065,0,0,1,.129,0Z" transform="translate(-376.924 -251.406)" fill="#512918"/>
            </g>
            <g id="Group_189" data-name="Group 189" transform="translate(0.208 0.456)">
              <path id="Path_243" data-name="Path 243" d="M368.3,257.017a.291.291,0,0,1-.206-.085.009.009,0,1,1,.013-.013.273.273,0,0,0,.386,0,.009.009,0,0,1,.013.013A.291.291,0,0,1,368.3,257.017Z" transform="translate(-368.089 -256.915)" fill="#512918"/>
            </g>
          </g>
          <g id="Group_191" data-name="Group 191" transform="translate(0.843 0.54)">
            <rect id="Rectangle_93" data-name="Rectangle 93" width="4.211" height="0.119" fill="#8ed5f5"/>
            <rect id="Rectangle_94" data-name="Rectangle 94" width="4.211" height="0.119" transform="translate(0 0.451)" fill="#8ed5f5"/>
            <rect id="Rectangle_95" data-name="Rectangle 95" width="1.671" height="0.119" transform="translate(0 0.986)" fill="#8ed5f5"/>
          </g>
        </g>
        <g id="Group_194" data-name="Group 194" transform="translate(0 0.006)">
          <path id="Path_244" data-name="Path 244" d="M54.679,152.6h-5.4a.389.389,0,0,0-.388.388v.908a.389.389,0,0,0,.388.388h4.655a.389.389,0,0,0,.388-.388v-.908c0-.009,0-.019,0-.028Z" transform="translate(-48.889 -152.596)" fill="#fafafa"/>
          <g id="Group_193" data-name="Group 193" transform="translate(0.542 0.485)">
            <rect id="Rectangle_96" data-name="Rectangle 96" width="4.211" height="0.119" fill="#8ed5f5"/>
            <rect id="Rectangle_97" data-name="Rectangle 97" width="2.54" height="0.119" transform="translate(0 0.451)" fill="#8ed5f5"/>
          </g>
        </g>
        <g id="Group_201" data-name="Group 201" transform="translate(5.81 1.66)">
          <circle id="Ellipse_42" data-name="Ellipse 42" cx="0.704" cy="0.704" r="0.704" transform="matrix(0.974, -0.228, 0.228, 0.974, 0, 0.321)" fill="#8ca4ba"/>
          <g id="Group_200" data-name="Group 200" transform="translate(0.283 0.297)">
            <rect id="Rectangle_98" data-name="Rectangle 98" width="0.4" height="0.097" rx="0.048" transform="translate(0.369 0.916)" fill="#213a7e"/>
            <rect id="Rectangle_99" data-name="Rectangle 99" width="0.89" height="0.621" rx="0.31" transform="translate(0.123 0.313)" fill="#a5cff2"/>
            <g id="Group_197" data-name="Group 197" transform="translate(0.305 0.436)">
              <g id="Group_195" data-name="Group 195">
                <path id="Path_245" data-name="Path 245" d="M249.833,227.528a.1.1,0,1,1-.1-.1A.1.1,0,0,1,249.833,227.528Z" transform="translate(-249.626 -227.424)" fill="#213a7e" fill-rule="evenodd"/>
                <path id="Path_246" data-name="Path 246" d="M250.7,228.427a.072.072,0,1,1-.072-.072A.072.072,0,0,1,250.7,228.427Z" transform="translate(-250.525 -228.324)" fill="#f8feff" fill-rule="evenodd"/>
              </g>
              <g id="Group_196" data-name="Group 196" transform="translate(0.32 0)">
                <circle id="Ellipse_43" data-name="Ellipse 43" cx="0.104" cy="0.104" r="0.104" fill="#213a7e"/>
                <path id="Path_247" data-name="Path 247" d="M260.275,228.427a.072.072,0,1,1-.072-.072A.072.072,0,0,1,260.275,228.427Z" transform="translate(-260.099 -228.324)" fill="#f8feff" fill-rule="evenodd"/>
              </g>
            </g>
            <path id="Path_248" data-name="Path 248" d="M253.213,219.242h-.087a.107.107,0,0,0-.107.107v.148h.3v-.148A.107.107,0,0,0,253.213,219.242Z" transform="translate(-252.601 -219.08)" fill="#a5cff2"/>
            <rect id="Rectangle_100" data-name="Rectangle 100" width="0.133" height="0.031" transform="translate(0.553 0.182) rotate(-90)" fill="#a5cff2"/>
            <g id="Group_198" data-name="Group 198" transform="translate(0.994 0.554)">
              <path id="Path_249" data-name="Path 249" d="M270.351,230.968h-.1v.148h.1a.047.047,0,0,0,.047-.047v-.054A.047.047,0,0,0,270.351,230.968Z" transform="translate(-270.255 -230.968)" fill="#213a7e"/>
            </g>
            <g id="Group_199" data-name="Group 199" transform="translate(0 0.554)">
              <path id="Path_250" data-name="Path 250" d="M240.551,231.116h.1v-.148h-.1a.047.047,0,0,0-.047.047v.054A.047.047,0,0,0,240.551,231.116Z" transform="translate(-240.504 -230.968)" fill="#213a7e"/>
            </g>
            <path id="Path_251" data-name="Path 251" d="M256.513,214.381a.036.036,0,1,1-.036.036A.036.036,0,0,1,256.513,214.381Z" transform="translate(-255.943 -214.381)" fill="#213a7e"/>
            <path id="Path_252" data-name="Path 252" d="M252.968,235.4a.147.147,0,0,0,.294,0Z" transform="translate(-252.551 -234.698)" fill="#f8feff"/>
          </g>
        </g>
        <g id="Group_215" data-name="Group 215" transform="translate(5.19)">
          <circle id="Ellipse_46" data-name="Ellipse 46" cx="0.66" cy="0.66" r="0.66" transform="translate(0 1.285) rotate(-76.831)" fill="#8ca4ba"/>
          <g id="Group_214" data-name="Group 214" transform="translate(0 0)">
            <g id="Group_213" data-name="Group 213" transform="translate(0)" clip-path="url(#clip-path)">
              <g id="Group_212" data-name="Group 212" transform="translate(0.4 0.368)">
                <path id="Path_262" data-name="Path 262" d="M227,163.753a.327.327,0,1,1-.327-.327A.327.327,0,0,1,227,163.753Z" transform="translate(-226.278 -163.426)" fill="#213a7e"/>
                <path id="Path_263" data-name="Path 263" d="M224.816,185.759h-.1a.342.342,0,0,0-.342.342v.239h.786V186.1A.342.342,0,0,0,224.816,185.759Z" transform="translate(-224.372 -185.013)" fill="#f2cf00"/>
                <path id="Path_264" data-name="Path 264" d="M228.487,167.813a.42.42,0,0,1-.378,0,.355.355,0,0,1-.074.327h-.008a.271.271,0,0,0,.271.27h0a.271.271,0,0,0,.271-.27h-.008A.355.355,0,0,1,228.487,167.813Z" transform="translate(-227.905 -167.666)" fill="#e5bca9"/>
                <path id="Path_265" data-name="Path 265" d="M232.973,181.371v.231a.105.105,0,1,0,.211,0v-.231Z" transform="translate(-232.686 -180.771)" fill="#e5bca9"/>
                <path id="Path_266" data-name="Path 266" d="M233.464,180.182a.089.089,0,0,0,.178,0Z" transform="translate(-233.16 -179.622)" fill="#fff"/>
                <g id="Group_211" data-name="Group 211" transform="translate(0.04 0.377)">
                  <path id="Path_267" data-name="Path 267" d="M225.738,174.775a.079.079,0,1,1-.079-.079A.079.079,0,0,1,225.738,174.775Z" transform="translate(-225.58 -174.696)" fill="#e5bca9"/>
                  <path id="Path_268" data-name="Path 268" d="M242.094,174.775a.079.079,0,1,1-.079-.079A.079.079,0,0,1,242.094,174.775Z" transform="translate(-241.389 -174.696)" fill="#e5bca9"/>
                </g>
              </g>
            </g>
          </g>
        </g>
        <g id="Group_217" data-name="Group 217" transform="translate(0 3.634)">
          <path id="Path_269" data-name="Path 269" d="M54.679,268.6h-5.4a.389.389,0,0,0-.388.388v.908a.389.389,0,0,0,.388.388h4.655a.389.389,0,0,0,.388-.388v-.908c0-.009,0-.019,0-.028Z" transform="translate(-48.889 -268.596)" fill="#fafafa"/>
          <g id="Group_216" data-name="Group 216" transform="translate(0.542 0.552)">
            <rect id="Rectangle_107" data-name="Rectangle 107" width="4.211" height="0.119" fill="#8ed5f5"/>
            <rect id="Rectangle_108" data-name="Rectangle 108" width="2.54" height="0.119" transform="translate(0 0.451)" fill="#8ed5f5"/>
          </g>
        </g>
        <g id="Group_222" data-name="Group 222" transform="translate(5.19 3.628)">
          <path id="Path_277" data-name="Path 277" d="M.66,0A.66.66,0,1,1,0,.66.66.66,0,0,1,.66,0Z" transform="translate(0 1.285) rotate(-76.831)" fill="#8ca4ba"/>
          <g id="Group_221" data-name="Group 221" transform="translate(0 0)">
            <g id="Group_220" data-name="Group 220" transform="translate(0)" clip-path="url(#clip-path)">
              <g id="Group_219" data-name="Group 219" transform="translate(0.4 0.368)">
                <path id="Path_270" data-name="Path 270" d="M227,279.753a.327.327,0,1,1-.327-.327A.327.327,0,0,1,227,279.753Z" transform="translate(-226.278 -279.426)" fill="#213a7e"/>
                <path id="Path_271" data-name="Path 271" d="M224.816,301.759h-.1a.342.342,0,0,0-.342.342v.239h.786V302.1A.342.342,0,0,0,224.816,301.759Z" transform="translate(-224.372 -301.013)" fill="#f2cf00"/>
                <path id="Path_272" data-name="Path 272" d="M228.487,283.813a.42.42,0,0,1-.378,0,.355.355,0,0,1-.074.327h-.008a.271.271,0,0,0,.271.27h0a.271.271,0,0,0,.271-.27h-.008A.355.355,0,0,1,228.487,283.813Z" transform="translate(-227.905 -283.666)" fill="#e5bca9"/>
                <path id="Path_273" data-name="Path 273" d="M232.973,297.371v.231a.105.105,0,1,0,.211,0v-.231Z" transform="translate(-232.686 -296.771)" fill="#e5bca9"/>
                <path id="Path_274" data-name="Path 274" d="M233.464,296.182a.089.089,0,0,0,.178,0Z" transform="translate(-233.16 -295.622)" fill="#fff"/>
                <g id="Group_218" data-name="Group 218" transform="translate(0.04 0.377)">
                  <path id="Path_275" data-name="Path 275" d="M225.738,290.775a.079.079,0,1,1-.079-.079A.079.079,0,0,1,225.738,290.775Z" transform="translate(-225.58 -290.696)" fill="#e5bca9"/>
                  <path id="Path_276" data-name="Path 276" d="M242.094,290.775a.079.079,0,1,1-.079-.079A.079.079,0,0,1,242.094,290.775Z" transform="translate(-241.389 -290.696)" fill="#e5bca9"/>
                </g>
              </g>
            </g>
          </g>
        </g>
      </g>
    </g>
  </g>
</svg>
