<svg xmlns="http://www.w3.org/2000/svg" width="14.277" height="15.496" viewBox="0 0 14.277 15.496">
  <g id="Group_224" data-name="Group 224" transform="translate(-694.706 -388.312)" opacity="0.8">
    <path id="Path_12" data-name="Path 12" d="M645.093,345.949v1.639H643.91a.73.73,0,0,0-.731.729v1.373h1.84l-.238,1.89h-1.6v4.765h-1.953v-4.778h-1.607v-1.877h1.62v-1.65a2.136,2.136,0,0,1,2.19-2.131Z" transform="translate(58.885 44.791)" fill="#fff"/>
    <path id="Path_1565" data-name="Path 1565" d="M647.921,382.565h-8.906a2.784,2.784,0,0,1-2.686-2.866v-9.764a2.783,2.783,0,0,1,2.686-2.866h8.906a2.783,2.783,0,0,1,2.686,2.866V379.7A2.784,2.784,0,0,1,647.921,382.565Zm-9.067-14.089a1.245,1.245,0,0,0-1.2,1.282v10.118a1.245,1.245,0,0,0,1.2,1.282h9.229a1.245,1.245,0,0,0,1.2-1.282V369.758a1.245,1.245,0,0,0-1.2-1.282Z" transform="translate(58.377 21.243)" fill="#fff"/>
  </g>
</svg>
