<svg xmlns="http://www.w3.org/2000/svg" width="1925.5" height="1103.41" viewBox="0 0 1925.5 1103.41">
  <g id="Group99" transform="translate(5.403 4.935)">
    <path id="Path_5" data-name="Path 5" d="M902.787,46.673,715.225,823.494,74.59,560.655V46.673Z" transform="translate(-79.493 -51.108)" fill="#23517a" stroke="#8fdeff" stroke-width="1" style="mix-blend-mode: multiply;isolation: isolate"/>
    <path id="Path_6" data-name="Path 6" d="M66.818,271.123,1451.736,841.615H74.59" transform="translate(-70.59 238.723)" fill="#23517a" opacity="0.52" style="mix-blend-mode: multiply;isolation: isolate"/>
    <path id="Path_7" data-name="Path 7" d="M365.791,1040.346l935.291-894.6v894.6Z" transform="translate(619.015 39.991)" fill="#23517a" style="mix-blend-mode: multiply;isolation: isolate"/>
    <path id="Path_8" data-name="Path 8" d="M456.858,46.439l661.948,702.175V47Z" transform="translate(801.291 -46.439)" fill="#23517a" opacity="0.52" style="mix-blend-mode: multiply;isolation: isolate"/>
    <g id="Group_9" data-name="Group 9" transform="translate(691.39 14.289)">
      <g id="Group_5" data-name="Group 5" transform="translate(-93.565 491.887) rotate(3)">
        <path id="Path_66" data-name="Path 66" d="M0,353.362,47.137,139.146" transform="translate(40.48 35.876)" fill="none" stroke="#8fdeff" stroke-linecap="round" stroke-width="3"/>
        <path id="Path_65" data-name="Path 65" d="M0,436.711l31.2-137.4C56.158,189.392,91.054,2.1,91.054,2.1" transform="translate(0 -2.096)" fill="#8fdeff" stroke="#8fdeff" stroke-linecap="round" stroke-width="1"/>
      </g>
      <g id="Group_6" data-name="Group 6" transform="translate(81.577 839.995) rotate(-3)">
        <line id="Line_3" data-name="Line 3" x1="521.039" y1="242.428" transform="translate(0 0)" fill="none" stroke="#8fdeff" stroke-linecap="round" stroke-linejoin="round" stroke-width="3"/>
        <line id="Line_4" data-name="Line 4" x1="275.847" y1="128.346" transform="translate(326.957 110.185)" fill="none" stroke="#8fdeff" stroke-linecap="round" stroke-linejoin="round" stroke-width="1"/>
      </g>
      <g id="Group_7" data-name="Group 7" transform="translate(776.644 193.365)">
        <line id="Line_5" data-name="Line 5" x1="397.351" y2="377.745" transform="translate(6.998)" fill="none" stroke="#8fdeff" stroke-linecap="round" stroke-linejoin="round" stroke-width="1"/>
        <line id="Line_6" data-name="Line 6" x1="397.351" y2="377.745" transform="translate(0 53.209)" fill="none" stroke="#8fdeff" stroke-linecap="round" stroke-linejoin="round" stroke-width="3"/>
      </g>
      <g id="Group_8" data-name="Group 8" transform="translate(577.864)">
        <line id="Line_7" data-name="Line 7" x2="308.115" y2="324.525" transform="translate(0 14.972)" fill="none" stroke="#fff" stroke-linecap="round" stroke-linejoin="round" stroke-width="3"/>
        <line id="Line_8" data-name="Line 8" x2="195.004" y2="205.39" transform="translate(36.773)" fill="none" stroke="#8fdeff" stroke-linecap="round" stroke-linejoin="round" stroke-width="1"/>
      </g>
    </g>
  </g>
</svg>
