<svg xmlns="http://www.w3.org/2000/svg" xmlns:xlink="http://www.w3.org/1999/xlink" width="750" height="500" viewBox="0 0 750 500">
  <defs>
    <clipPath id="clip-iPhone_XR_XS_Max_11_2">
      <rect width="750" height="500"/>
    </clipPath>
  </defs>
  <g id="iPhone_XR_XS_Max_11_2" data-name="iPhone XR/XS Max/11 – 2" clip-path="url(#clip-iPhone_XR_XS_Max_11_2)">
    <rect width="750" height="500" fill="#fff"/>
    <g id="Group_254" data-name="Group 254" transform="translate(270 -1402.584)">
      <g id="Group_253" data-name="Group 253" transform="translate(-287 1392.663)">
        <g id="Group_1" data-name="Group 1">
          <g id="Group_55" data-name="Group 55">
            <g id="OBJECTS">
              <g id="Group_27" data-name="Group 27">
                <g id="Group_10" data-name="Group 10">
                  <g id="Group_4" data-name="Group 4">
                    <g id="Path_5" data-name="Path 5" transform="translate(-74.59 -46.404)" fill="#23517a" style="mix-blend-mode: multiply;isolation: isolate">
                      <path d="M 335.6408996582031 415.7562561035156 L 75.08995819091797 291.0419006347656 L 75.08995819091797 54.55512237548828 L 75.08995819091797 47.17294311523438 L 411.9215087890625 47.17294311523438 L 335.6408996582031 415.7562561035156 Z" stroke="none"/>
                      <path d="M 75.5899658203125 47.67288208007813 L 75.5899658203125 54.55508422851563 L 75.5899658203125 290.7268676757813 L 335.2807006835938 415.0294799804688 L 411.3074340820313 47.67288208007813 L 75.5899658203125 47.67288208007813 M 74.5899658203125 46.67288208007813 L 412.5355834960938 46.67288208007813 L 336.0010681152344 416.4829406738281 L 74.5899658203125 291.3568725585938 L 74.5899658203125 54.55508422851563 L 74.5899658203125 46.67288208007813 Z" stroke="none" fill="#8fdeff"/>
                    </g>
                    <path id="Path_6" data-name="Path 6" d="M66.818,271.123,627.355,540.508l-560.537-1.35" transform="translate(-66.765 -26.208)" fill="#23517a" opacity="0.52" style="mix-blend-mode: multiply;isolation: isolate"/>
                    <g id="Path_7" data-name="Path 7" transform="translate(36.02 -57.326)" fill="#23517a" style="mix-blend-mode: multiply;isolation: isolate">
                      <path d="M 746.9362182617188 571.1264038085938 L 366.9102478027344 571.1264038085938 L 746.9362182617188 147.0549774169922 L 746.9362182617188 571.1264038085938 Z" stroke="none"/>
                      <path d="M 746.4362182617188 570.6264038085938 L 746.4362182617188 148.3621368408203 L 368.0297241210938 570.6264038085938 L 746.4362182617188 570.6264038085938 M 747.4362182617188 571.6264038085938 L 365.7908020019531 571.6264038085938 L 747.4362182617188 145.7478179931641 L 747.4362182617188 571.6264038085938 Z" stroke="none" fill="#707070"/>
                    </g>
                    <g id="Path_8" data-name="Path 8" transform="translate(56.49 -46.439)" fill="#23517a" opacity="0.52" style="mix-blend-mode: multiply;isolation: isolate">
                      <path d="M 726.7927856445313 379.7038269042969 L 457.905517578125 46.94001007080078 L 726.5010986328125 47.20754623413086 L 746.7835693359375 323.2360534667969 L 726.7927856445313 379.7038269042969 Z" stroke="none"/>
                      <path d="M 458.953125 47.44107055664063 L 726.6198120117188 378.6942443847656 L 746.2772216796875 323.1680297851563 L 726.0364990234375 47.70709228515625 L 458.953125 47.44107055664063 M 456.8577880859375 46.43896484375 L 726.9657592773438 46.7080078125 L 747.2899169921875 323.3040161132813 L 726.9657592773438 380.7134704589844 L 456.8577880859375 46.43896484375 Z" stroke="none" fill="#707070"/>
                    </g>
                  </g>
                  <g id="Group_9" data-name="Group 9" transform="translate(234.621 6.802)">
                    <g id="Group_5" data-name="Group 5" transform="translate(10.807 234.569) rotate(3)">
                      <path id="Path_66" data-name="Path 66" d="M0,101.771,18.482,0" transform="translate(16.364 83.275)" fill="none" stroke="#8fdeff" stroke-linecap="round" stroke-width="3"/>
                      <path id="Path_65" data-name="Path 65" d="M0,206.5l12.248-65.273C22.047,89,35.627,0,35.627,0" transform="translate(0 0)" fill="#8fdeff" stroke="#8fdeff" stroke-linecap="round" stroke-width="1"/>
                    </g>
                    <g id="Group_6" data-name="Group 6" transform="translate(80.748 399.884) rotate(-3)">
                      <line id="Line_3" data-name="Line 3" x1="211.845" y1="113.512" transform="translate(0 0)" fill="none" stroke="#8fdeff" stroke-linecap="round" stroke-linejoin="round" stroke-width="3"/>
                      <line id="Line_4" data-name="Line 4" x1="112.155" y1="60.095" transform="translate(133.084 51.272)" fill="none" stroke="#8fdeff" stroke-linecap="round" stroke-linejoin="round" stroke-width="1"/>
                    </g>
                    <g id="Group_7" data-name="Group 7" transform="translate(364.37 92.053)">
                      <line id="Line_5" data-name="Line 5" x1="162.139" y2="179.828" transform="translate(2.855 0)" fill="none" stroke="#8fdeff" stroke-linecap="round" stroke-linejoin="round" stroke-width="1"/>
                      <line id="Line_6" data-name="Line 6" x1="162.139" y2="179.828" transform="translate(0 25.331)" fill="none" stroke="#8fdeff" stroke-linecap="round" stroke-linejoin="round" stroke-width="3"/>
                    </g>
                    <g id="Group_8" data-name="Group 8" transform="translate(283.258 0)">
                      <line id="Line_7" data-name="Line 7" x2="125.726" y2="154.492" transform="translate(0 7.127)" fill="none" stroke="#fff" stroke-linecap="round" stroke-linejoin="round" stroke-width="3"/>
                      <line id="Line_8" data-name="Line 8" x2="79.571" y2="97.777" transform="translate(15.005 0)" fill="none" stroke="#8fdeff" stroke-linecap="round" stroke-linejoin="round" stroke-width="1"/>
                    </g>
                  </g>
                </g>
              </g>
            </g>
          </g>
        </g>
      </g>
    </g>
  </g>
</svg>
