<svg id="surface1" xmlns="http://www.w3.org/2000/svg" width="31.653" height="30.954" viewBox="0 0 31.653 30.954">
  <path id="Path_1563" data-name="Path 1563" d="M13.6,10A3.583,3.583,0,0,0,10,13.518V37.437a3.583,3.583,0,0,0,3.6,3.518H38.056a3.583,3.583,0,0,0,3.6-3.518V13.518A3.583,3.583,0,0,0,38.056,10Zm0,2.814H38.056a.7.7,0,0,1,.719.7V37.437a.7.7,0,0,1-.719.7H13.6a.7.7,0,0,1-.719-.7V13.518A.7.7,0,0,1,13.6,12.814Zm4.226,2.418A2.419,2.419,0,1,0,20.3,17.651,2.446,2.446,0,0,0,17.823,15.232Zm12.994,6.419a4.456,4.456,0,0,0-4,2.154h-.09V21.96H22.679V35.326h4.226v-6.6c0-1.742.354-3.43,2.563-3.43,2.175,0,2.2,1.968,2.2,3.518v6.507H35.9V27.983C35.9,24.389,35.117,21.652,30.817,21.652Zm-15.062.308V35.326h4.271V21.96Z" transform="translate(-10 -10)" fill="#fff"/>
</svg>
