<svg xmlns="http://www.w3.org/2000/svg" width="17.636" height="18.836" viewBox="0 0 17.636 18.836">
  <g id="Group_22" data-name="Group 22" transform="translate(0 0)">
    <g id="Group_20" data-name="Group 20">
      <path id="Path_13" data-name="Path 13" d="M650.647,385.9h-11a3.408,3.408,0,0,1-3.318-3.483V370.552a3.407,3.407,0,0,1,3.318-3.483h11a3.407,3.407,0,0,1,3.318,3.483v11.869A3.408,3.408,0,0,1,650.647,385.9Zm-11.2-17.126a1.525,1.525,0,0,0-1.484,1.558v12.3a1.525,1.525,0,0,0,1.484,1.558h11.4a1.525,1.525,0,0,0,1.484-1.558v-12.3a1.525,1.525,0,0,0-1.484-1.558Z" transform="translate(-636.329 -367.069)" fill="#fff"/>
    </g>
    <g id="Group_21" data-name="Group 21" transform="translate(4.68 5.073)">
      <path id="Path_14" data-name="Path 14" d="M644.219,379.633a4.35,4.35,0,1,1,4.138-4.345A4.25,4.25,0,0,1,644.219,379.633Zm0-7.087a2.745,2.745,0,1,0,2.61,2.742A2.681,2.681,0,0,0,644.219,372.546Z" transform="translate(-640.081 -370.943)" fill="#fff"/>
    </g>
    <ellipse id="Ellipse_1" data-name="Ellipse 1" cx="1.18" cy="1.239" rx="1.18" ry="1.239" transform="translate(12.506 3.1)" fill="#fff"/>
  </g>
</svg>
