<svg xmlns="http://www.w3.org/2000/svg" xmlns:xlink="http://www.w3.org/1999/xlink" width="160.533" height="98.75" viewBox="0 0 160.533 98.75">
  <defs>
    <filter id="Path_39" x="0" y="0" width="160.533" height="98.75" filterUnits="userSpaceOnUse">
      <feOffset dx="6.737" dy="6.737" input="SourceAlpha"/>
      <feGaussianBlur stdDeviation="4.331" result="blur"/>
      <feFlood flood-color="#5848bc" flood-opacity="0.271"/>
      <feComposite operator="in" in2="blur"/>
      <feComposite in="SourceGraphic"/>
    </filter>
  </defs>
  <g id="Group_e" data-name="Group e" transform="translate(-1607.863 -533.604)">
    <g id="Group_245" data-name="Group 245" transform="translate(1614.119 539.859)" opacity="0.25">
      <g transform="matrix(1, 0, 0, 1, -6.26, -6.26)" filter="url(#Path_39)">
        <path id="Path_39-2" data-name="Path 39" d="M304.977,142.951H422.742c4.633,0,8.391,4.126,8.391,9.215v43.8c0,5.09-3.758,9.215-8.391,9.215H411.251l2.318,10.532-16.5-10.532H304.977c-4.634,0-8.392-4.126-8.392-9.215v-43.8C296.585,147.077,300.342,142.951,304.977,142.951Z" transform="translate(-290.33 -136.7)" fill="#92dfff"/>
      </g>
    </g>
    <g id="Group_246" data-name="Group 246" transform="translate(1632.565 555.307)" opacity="0.7">
      <rect id="Rectangle_43" data-name="Rectangle 43" width="104.891" height="2.046" transform="translate(0 0)" fill="#fff"/>
      <rect id="Rectangle_42" data-name="Rectangle 42" width="81.314" height="2.046" transform="translate(0 13.897)" fill="#fff"/>
      <rect id="Rectangle_44" data-name="Rectangle 44" width="56.201" height="2.046" transform="translate(0 28.448)" fill="#fff"/>
    </g>
  </g>
</svg>
