<svg id="Group_225" data-name="Group 225" xmlns="http://www.w3.org/2000/svg" width="33.807" height="36.108" viewBox="0 0 33.807 36.108">
  <g id="surface1" transform="translate(5.983 8.74)">
    <path id="Path_1564" data-name="Path 1564" d="M23.3,8.416a9.383,9.383,0,0,1-2.683.737,4.7,4.7,0,0,0,2.054-2.586A9.357,9.357,0,0,1,19.7,7.7a4.675,4.675,0,0,0-7.96,4.261A13.265,13.265,0,0,1,2.116,7.078a4.679,4.679,0,0,0,1.446,6.239,4.632,4.632,0,0,1-2.117-.584v.059a4.676,4.676,0,0,0,3.747,4.581,4.632,4.632,0,0,1-1.23.163,4.573,4.573,0,0,1-.879-.083A4.674,4.674,0,0,0,7.445,20.7a9.35,9.35,0,0,1-5.8,2,9.763,9.763,0,0,1-1.112-.063,13.221,13.221,0,0,0,7.16,2.1A13.2,13.2,0,0,0,20.983,11.44c0-.205,0-.407-.014-.608A9.344,9.344,0,0,0,23.3,8.416" transform="translate(-0.531 -6.227)" fill="#fff"/>
  </g>
  <path id="Path_1566" data-name="Path 1566" d="M663.777,403.177H642.689a6.533,6.533,0,0,1-6.36-6.678V373.746a6.531,6.531,0,0,1,6.36-6.677h21.088a6.531,6.531,0,0,1,6.36,6.677V396.5A6.533,6.533,0,0,1,663.777,403.177Zm-21.471-32.83a2.923,2.923,0,0,0-2.845,2.987v23.577a2.923,2.923,0,0,0,2.845,2.987h21.853A2.922,2.922,0,0,0,667,396.911V373.335a2.922,2.922,0,0,0-2.845-2.987Z" transform="translate(-636.329 -367.069)" fill="#fff"/>
</svg>
