<svg id="Group_23" data-name="Group 23" xmlns="http://www.w3.org/2000/svg" width="16.554" height="17.453" viewBox="0 0 16.554 17.453">
  <path id="Path_15" data-name="Path 15" d="M644.652,388.24a8.4,8.4,0,0,0-8.192,8.6,8.868,8.868,0,0,0,1.055,4.222l-1.226,4.63,4.412-1.316a7.849,7.849,0,0,0,3.951,1.065,8.611,8.611,0,0,0,0-17.2Zm0,15.732a6.526,6.526,0,0,1-3.817-1.233l-2.5.768.7-2.651a7.331,7.331,0,0,1-1.179-4.014,6.8,6.8,0,1,1,6.794,7.131Z" transform="translate(-636.289 -388.24)" fill="#fff"/>
  <path id="Path_16" data-name="Path 16" d="M647.827,397.777c-.213-.107-1.215-.634-1.4-.711-.2-.059-.334-.108-.473.116a9.226,9.226,0,0,1-.65.829c-.121.156-.242.165-.437.067a5.148,5.148,0,0,1-1.661-1.071,6.335,6.335,0,0,1-1.15-1.472.353.353,0,0,1,.084-.457,2.623,2.623,0,0,0,.315-.37.374.374,0,0,0,.073-.1,2.2,2.2,0,0,0,.13-.253.35.35,0,0,0-.019-.37c-.037-.108-.454-1.18-.631-1.6-.167-.438-.343-.359-.454-.359-.131,0-.261-.02-.4-.02a.7.7,0,0,0-.548.273,2.36,2.36,0,0,0-.733,1.792,2.33,2.33,0,0,0,.121.721,4.9,4.9,0,0,0,.724,1.491,8.534,8.534,0,0,0,3.517,3.234c2.106.858,2.106.566,2.477.536a2.051,2.051,0,0,0,1.392-1.023,1.852,1.852,0,0,0,.112-1.023,1.157,1.157,0,0,0-.39-.234Z" transform="translate(-635.701 -387.402)" fill="#fff" fill-rule="evenodd"/>
</svg>
