<svg xmlns="http://www.w3.org/2000/svg" width="34.321" height="35.18" viewBox="0 0 34.321 35.18"><defs><style>.a{fill:#1c439a;}</style></defs><path class="a" d="M33.338,0H1.974A1.473,1.473,0,0,0,.661.8,1.494,1.494,0,0,0,.777,2.355l8.3,11.692,3.191,4.5.012.016a3.283,3.283,0,0,1,.645,1.948V33.7a1.467,1.467,0,0,0,1.467,1.476,1.511,1.511,0,0,0,.579-.116L21.427,32.6a1.4,1.4,0,0,0,.963-1.38V20.506a3.284,3.284,0,0,1,.644-1.948l.012-.016L34.536,2.354A1.493,1.493,0,0,0,34.652.8,1.473,1.473,0,0,0,33.338,0ZM21.594,17.5a5.084,5.084,0,0,0-.991,3.006V31L14.71,33.252V20.506a5.081,5.081,0,0,0-.991-3.006L2.563,1.786H32.749Zm0,0" transform="translate(-0.496 0)"/></svg>