<?xml version="1.0" encoding="utf-8"?>
<!-- Generator: Adobe Illustrator 23.0.6, SVG Export Plug-In . SVG Version: 6.00 Build 0)  -->
<svg version="1.1" id="Layer_1" xmlns="http://www.w3.org/2000/svg" xmlns:xlink="http://www.w3.org/1999/xlink" x="0px" y="0px"
	 viewBox="0 0 237 68.3" style="enable-background:new 0 0 237 68.3;" xml:space="preserve">
<style type="text/css">
	.st0{fill:#FFFFFF;}
</style>
<title>MCS_Logo</title>
<path class="st0" d="M7.5,31.1c-0.8,0-1.7-0.3-2.2-0.9c-0.7,0.4-1.5,0.5-2.3,0.5c-1.9,0-3-1.3-3-3.4c0-1,0.4-2,1.1-2.8
	c0.8-0.7,1.9-1.1,3-1h0.6l-0.2-0.8c0.8-0.2,1.5-0.4,2.1-0.5v5.9c0,1,0.4,1.4,1.3,1.4h1.1v1.6L7.5,31.1z M3.6,20.4
	c0.1,0.6-0.4,1.1-1,1.2c-0.6,0.1-1.1-0.4-1.2-1c0-0.1,0-0.1,0-0.2c0-0.6,0.5-1.1,1.1-1.1C3.2,19.4,3.6,19.9,3.6,20.4 M4.9,24.6
	c-0.3,0-0.7,0-1,0c-0.6,0-1.2,0.2-1.6,0.7c-0.4,0.4-0.7,1-0.7,1.6c0,1.5,0.6,2.3,1.6,2.3c0.5,0,1-0.1,1.5-0.2L4.9,24.6z M6.4,20.4
	c0,0.6-0.5,1-1,1c-0.6,0-1.1-0.5-1.1-1c0,0,0,0,0,0c0-0.6,0.5-1.1,1.1-1.1C5.9,19.3,6.4,19.8,6.4,20.4C6.4,20.4,6.4,20.4,6.4,20.4"
	/>
<path class="st0" d="M10.6,33.9c0,0.6-0.5,1.1-1.1,1.1c-0.6,0-1.1-0.5-1.1-1.1c0,0,0,0,0,0c0-0.6,0.5-1.1,1.1-1.1
	C10.2,32.8,10.6,33.3,10.6,33.9 M15.4,31.1h-1.3c-0.6,0-1.2-0.2-1.7-0.5c-0.5,0.4-1.1,0.6-1.7,0.5H8.6v-1.6h1.7
	c0.9,0,1.3-0.5,1.3-1.4v-1.8L11.2,24l2.1-0.5v4.5c0,0.9,0.4,1.4,1.3,1.4h0.9V31.1z M13.4,33.9c0,0.6-0.5,1.1-1.1,1.1
	c-0.6,0-1-0.4-1.1-0.9c0,0,0-0.1,0-0.1c0.1-0.6,0.6-1,1.2-1C13,32.9,13.4,33.4,13.4,33.9"/>
<path class="st0" d="M20.2,28.5c0.1,1.3-0.9,2.5-2.2,2.6c-0.1,0-0.3,0-0.4,0h-2.7v-1.6h2.3c0.9,0,1.3-0.5,1.3-1.4v-1.7l-0.3-2.3
	l2.1-0.5V28.5z M19.2,20.8c-0.1,0.6-0.6,1-1.2,1c-0.5,0-0.9-0.5-1-1c-0.1-0.6,0.4-1.1,1-1.2c0.6-0.1,1.1,0.4,1.2,1
	C19.2,20.7,19.2,20.8,19.2,20.8"/>
<path class="st0" d="M29.7,31.1h-7.9l0.5-1.6h4.5l0-0.4v-1.8c0-0.7-0.1-1.4-0.5-2c-0.3-0.4-0.7-0.7-1.2-0.7c-0.2,0-0.4,0-0.5,0.1
	c0-0.2,0-0.5-0.1-1c0.2,0,0.4,0,0.5-0.1c1,0,1.9,0.4,2.6,1.1c0.7,0.8,1,1.8,1,2.8v1.9h1.1V31.1z"/>
<path class="st0" d="M40.8,31.1h-1.3c-0.6,0-1.2-0.2-1.7-0.5c-0.8,1-1.9,1.5-3.1,1.5c-0.9,0-1.8-0.5-2.3-1.3
	c-0.4,0.2-0.9,0.3-1.3,0.3h-1.8v-1.6h1.3c0.6,0.1,1.1-0.3,1.2-0.9c0-0.1,0-0.2,0-0.3c0.1-2.5,1.7-4,4.4-4c0.9,0,1.7,0.1,2.6,0.4
	l-0.2,1.8v1.6c0,0.9,0.4,1.4,1.3,1.4h0.9V31.1z M36.9,29.8v-3.2l-0.1-1c-0.3-0.1-0.6-0.1-0.8-0.1c-1.5,0-2.2,0.9-2.2,2.8
	c0,1.5,0.6,2.4,1.5,2.4C35.8,30.6,36.5,30.3,36.9,29.8"/>
<path class="st0" d="M46.2,28.4c0.1,1.3-0.9,2.5-2.2,2.6c-0.1,0-0.3,0-0.4,0h-3.3v-1.6h2.9c0.9,0,1.3-0.5,1.3-1.4v-5.6l-0.3-2.3
	l2.1-0.5V28.4z"/>
<polygon class="st0" points="50.4,19.7 50.2,22 50.2,31.1 48.4,31.1 48.4,22.1 48.2,19.9 "/>
<path class="st0" d="M62.4,31.1c-0.8,0-1.7-0.3-2.2-0.9c-0.7,0.4-1.5,0.5-2.3,0.5c-1.9,0-3-1.3-3-3.4c0-1,0.4-2,1.1-2.8
	c0.8-0.7,1.9-1.1,3-1h0.6l-0.1-0.8c0.8-0.2,1.5-0.4,2.1-0.5v5.9c0,1,0.4,1.4,1.3,1.4h1.1v1.6L62.4,31.1z M58.5,20.4
	c0.1,0.6-0.4,1.1-1,1.2c-0.6,0.1-1.1-0.4-1.2-1c0-0.1,0-0.1,0-0.2c0-0.6,0.5-1.1,1.1-1.1C58.1,19.3,58.5,19.8,58.5,20.4
	C58.5,20.4,58.5,20.4,58.5,20.4 M59.8,24.6c-0.3,0-0.7,0-0.9,0c-1.2,0-2.2,1-2.2,2.3c0,0,0,0,0,0c0,1.5,0.6,2.3,1.6,2.3
	c0.5,0,1-0.1,1.5-0.2V24.6z M61.3,20.4c0,0.6-0.4,1-1,1c-0.6,0-1.1-0.5-1.1-1c0,0,0-0.1,0-0.1c0-0.6,0.4-1,1-1.1
	C60.8,19.3,61.3,19.8,61.3,20.4"/>
<path class="st0" d="M72.5,23.7l-0.2,1.8V28c0,2-1.3,3.1-3.9,3.1h-4.9v-1.6h2.7c-0.3-0.6-0.5-1.2-0.5-1.8c-0.1-1.2,0.4-2.3,1.2-3.1
	c0.8-0.8,2-1.2,3.2-1.2C70.8,23.3,71.6,23.5,72.5,23.7 M70.6,25.6l-0.1-1c-0.3-0.1-0.6-0.1-0.9-0.1c-1.5,0-2.2,0.9-2.2,2.8
	c0,1.5,0.5,2.2,1.5,2.2c1.3,0,1.9-0.8,1.9-2.4C70.7,26.7,70.7,26.2,70.6,25.6"/>
<path class="st0" d="M82,31.1h-7.9l0.5-1.6H79v-0.4v-1.8c0-0.7-0.2-1.4-0.5-2c-0.3-0.4-0.7-0.7-1.2-0.7c-0.2,0-0.4,0-0.5,0.1
	c0-0.2,0-0.5-0.1-1c0.2,0,0.4,0,0.6-0.1c1,0,1.9,0.4,2.6,1.1c0.7,0.8,1,1.8,1,2.8v1.9H82L82,31.1z"/>
<path class="st0" d="M92.6,31.1h-11v-1.6h7.7c-0.5-1.1-1.1-2.1-1.8-3c-1-1.3-1.8-2-2.6-2c-0.5,0-0.8,0.3-0.8,1
	c0,0.4,0.1,0.8,0.3,1.2l-1.8,0.2c0.2-2.3,1.4-3.7,2.9-3.7c1.2,0,2.4,0.8,3.6,2.3c0.9,1.2,1.6,2.6,2.1,4h1.3L92.6,31.1z M87.1,20.8
	c0,0.6-0.5,1-1.1,1c-0.6,0-1-0.4-1-1c0-0.6,0.5-1.1,1.1-1.1C86.7,19.7,87.1,20.2,87.1,20.8C87.1,20.8,87.1,20.8,87.1,20.8"/>
<path class="st0" d="M98,28.4c0.1,1.3-0.9,2.5-2.2,2.6c-0.1,0-0.3,0-0.4,0h-3.3v-1.6h2.9c0.9,0,1.3-0.5,1.3-1.4v-5.6l-0.3-2.3
	l2.1-0.5V28.4z"/>
<polygon class="st0" points="102.1,19.7 101.9,22 101.9,31.1 100.2,31.1 100.2,22.1 99.9,19.9 "/>
<path class="st0" d="M114.1,27c0.1,1.1-0.3,2.1-1,2.9c-0.7,0.8-1.7,1.2-2.8,1.1c-1,0-2-0.3-2.6-1c-0.7-0.8-1-1.8-1-2.9
	c-0.1-1.1,0.3-2.2,1-3c0.7-0.8,1.8-1.2,2.8-1.1C112.8,23,114.1,24.5,114.1,27 M110.1,20.8c0,0.6-0.5,1.1-1.1,1.1s-1.1-0.5-1.1-1.1
	s0.5-1.1,1.1-1.1S110.1,20.2,110.1,20.8 M112.2,27c0-1.9-0.6-2.8-1.8-2.8c-1.2,0-1.8,0.9-1.9,2.8c0,1.9,0.6,2.8,1.8,2.8
	S112.2,28.9,112.2,27 M113,20.8c0,0.6-0.4,1-1,1c0,0,0,0-0.1,0c-0.6,0-1.1-0.4-1.1-1c0,0,0,0,0,0c0-0.6,0.5-1,1.1-1
	C112.5,19.7,113,20.2,113,20.8C113,20.8,113,20.8,113,20.8"/>
<path class="st0" d="M118.8,30.3c0,2.4-1.3,3.9-3.8,4.6l-0.4-0.7c1.5-0.4,2.6-1.8,2.4-3.4v-4.4l-0.4-2.4l2.1-0.5L118.8,30.3z"/>
<polygon class="st0" points="122.9,19.7 122.7,22 122.7,31.1 121,31.1 121,22.1 120.7,19.9 "/>
<path class="st0" d="M127.6,30.3c0,2.4-1.3,3.9-3.8,4.6l-0.4-0.7c1.5-0.4,2.6-1.8,2.4-3.4v-4.4l-0.4-2.4l2.1-0.5L127.6,30.3z
	 M127.5,20.8c0,0.6-0.4,1-1,1c0,0,0,0-0.1,0c-0.6,0-1-0.4-1-1c0-0.6,0.4-1,0.9-1.1c0,0,0,0,0.1,0C127,19.7,127.5,20.2,127.5,20.8
	C127.5,20.8,127.5,20.8,127.5,20.8"/>
<path class="st0" d="M135.9,30.4c0,2.4-1.3,4-3.8,4.6l-0.4-0.7c1.4-0.3,2.4-1.6,2.4-3.1c-0.6,0.2-1.2,0.3-1.9,0.3
	c-0.9,0-1.7-0.4-2.2-1.1c-0.5-0.7-0.8-1.6-0.8-2.5c0-1.1,0.3-2.2,1-3c0.7-0.8,1.8-1.3,2.9-1.3h2.7V30.4z M134.2,30v-5.3h-0.9
	c-1.4,0-2.2,1.1-2.2,3s0.5,2.6,1.6,2.6C133.2,30.2,133.7,30.1,134.2,30"/>
<path class="st0" d="M7,47.9H6.1c-0.4,0-0.8-0.1-1.1-0.3c-0.2-0.1-0.4-0.3-0.5-0.5c-0.5,0.3-1.1,0.5-1.8,0.5c-1.2,0-2-1-2-2.6
	c0-0.7,0.3-1.5,0.8-2c0.6-0.5,1.3-0.8,2.1-0.8h0.7l-0.1-0.7l1.1-0.3v4.6c0,0.9,0.4,1.4,1.2,1.4H7L7,47.9z M4.4,46.7l-0.1-4H3.5
	c-0.5,0-1,0.2-1.3,0.6c-0.4,0.4-0.6,1-0.6,1.5c0,1.4,0.5,2.1,1.5,2.1C3.5,46.9,4,46.8,4.4,46.7 M3.4,39.7c0,0.4-0.2,0.6-0.6,0.6
	c-0.3,0-0.6-0.2-0.7-0.5s0.2-0.6,0.5-0.7c0.1,0,0.1,0,0.2,0C3.2,39,3.4,39.3,3.4,39.7C3.4,39.6,3.4,39.6,3.4,39.7 M5.1,39.7
	c0,0.3-0.1,0.5-0.4,0.6c-0.1,0-0.1,0-0.2,0c-0.3,0-0.6-0.3-0.5-0.7c0-0.3,0.2-0.5,0.5-0.5C4.9,39.1,5.1,39.3,5.1,39.7
	C5.1,39.6,5.1,39.6,5.1,39.7"/>
<rect x="6.7" y="47.3" class="st0" width="1.8" height="0.7"/>
<path class="st0" d="M9,50.3c0,0.3-0.2,0.5-0.5,0.6c0,0-0.1,0-0.1,0c-0.3,0-0.5-0.2-0.6-0.4c0-0.1,0-0.1,0-0.2
	c0-0.4,0.2-0.6,0.6-0.6C8.7,49.7,9,49.9,9,50.3 M11.5,46.1c0.1,0.9-0.5,1.7-1.4,1.8c-0.1,0-0.2,0-0.3,0H8v-0.6h1.5
	c0.8,0,1.2-0.5,1.2-1.4v-1.6l-0.2-1.6l1-0.3V46.1z M10.8,50.3c0,0.3-0.3,0.6-0.6,0.6c-0.3,0-0.6-0.3-0.6-0.6c0,0,0,0,0,0
	c0-0.3,0.1-0.6,0.4-0.6c0.1,0,0.1,0,0.2,0C10.5,49.7,10.8,49.9,10.8,50.3C10.8,50.3,10.8,50.3,10.8,50.3"/>
<path class="st0" d="M17.3,47.9h-4.6l0.1-0.6h3.5V47v-2.1c0-1.3-0.5-2.1-1.2-2.1c-0.2,0-0.4,0-0.5,0.1l0.1-0.8
	c0.7,0,1.3,0.3,1.7,0.8c0.5,0.6,0.7,1.4,0.7,2.1V47L17.3,47.9z"/>
<path class="st0" d="M25.8,47.9h-2.7c0,1.4-1.1,2.6-2.5,2.9l-0.2-0.3c1.1-0.4,1.8-1.4,1.9-2.6h-1.6c-0.6,0-1.1-0.2-1.5-0.6
	c-0.4-0.5-0.6-1.2-0.6-1.8c0-0.8,0.2-1.7,0.8-2.3c0.5-0.6,1.3-0.9,2.1-0.9h1.7v5h2.7L25.8,47.9z M22.3,47.3v-4.5h-1
	c-1.2,0-1.9,1-1.9,2.5c0,1.4,0.5,2,1.5,2L22.3,47.3z"/>
<path class="st0" d="M34.2,47.9h-2.7c-0.5,0-1.1-0.1-1.6-0.4c-0.5,0.2-1,0.4-1.5,0.4h-3v-0.6h2.9c0.3,0,0.7-0.1,1-0.2
	c-0.1-0.1-0.9-0.9-2.5-2.5c0-0.6,0.4-1.2,0.9-1.5c0.6-0.5,1.4-0.8,2.3-0.8c0.8,0,1.6,0.2,2.3,0.8c0.5,0.3,0.8,0.9,0.9,1.5l-2.5,2.5
	c0.3,0.1,0.7,0.2,1,0.2h2.6L34.2,47.9z M32.2,44.5c0-0.4-0.2-0.8-0.6-1c-0.5-0.3-1.1-0.5-1.7-0.5c-0.6,0-1.2,0.2-1.7,0.5
	c-0.3,0.2-0.6,0.6-0.6,1l2.3,2.2L32.2,44.5z"/>
<path class="st0" d="M45.4,47.9h-0.8c-0.5,0-1-0.2-1.3-0.6c-0.3,0.4-0.8,0.6-1.3,0.6c-0.7,0-1.4-0.4-1.8-1.1
	c-0.2,0.7-0.8,1.1-1.6,1.1c-0.7,0-1.4-0.4-1.8-1c-0.1,0.2-0.2,0.4-0.3,0.5c-0.3,0.3-0.8,0.5-1.2,0.5h-1.6v-0.6H35
	c0.8,0,1.2-0.5,1.2-1.4v-2.8l0.8-0.2v3.3c0,0.1,0,0.2,0,0.3c0.3,0.4,0.8,0.7,1.3,0.7c0.8,0,1.2-0.5,1.2-1.4v-2.8l0.8-0.2v3.6
	c0.3,0.5,0.9,0.7,1.4,0.8c0.8,0,1.2-0.5,1.2-1.4v-1.6l-0.2-1.7l1-0.3v3.6c0,0.9,0.4,1.4,1.2,1.4h0.5L45.4,47.9z"/>
<path class="st0" d="M49,46.1c0.1,0.9-0.5,1.7-1.4,1.8c-0.1,0-0.2,0-0.3,0h-2.2v-0.6h1.9c0.8,0,1.2-0.5,1.2-1.4v-4.6L48,39.7l1-0.3
	L49,46.1z"/>
<polygon class="st0" points="51.5,39.4 51.4,41 51.4,47.9 50.6,47.9 50.6,41 50.4,39.5 "/>
<path class="st0" d="M61.2,47.9h-0.9c-0.4,0-0.8-0.1-1.1-0.3c-0.2-0.1-0.4-0.3-0.5-0.5c-0.5,0.3-1.1,0.5-1.8,0.5c-1.2,0-2-1-2-2.6
	c0-0.7,0.3-1.5,0.8-2c0.5-0.5,1.3-0.8,2-0.8h0.7l-0.1-0.7l1-0.3v4.6c0,0.9,0.4,1.4,1.2,1.4h0.6V47.9z M58.6,46.7l-0.1-4h-0.9
	c-0.5,0-1,0.2-1.3,0.6c-0.4,0.4-0.6,1-0.6,1.5c0,1.4,0.5,2.1,1.5,2.1C57.7,46.9,58.2,46.8,58.6,46.7 M57.6,39.7
	c0,0.4-0.2,0.6-0.6,0.6c-0.3,0-0.6-0.2-0.7-0.5s0.2-0.6,0.5-0.7c0.1,0,0.1,0,0.2,0C57.3,39,57.6,39.3,57.6,39.7
	C57.6,39.6,57.6,39.6,57.6,39.7 M59.2,39.7c0,0.3-0.2,0.5-0.4,0.6c0,0-0.1,0-0.1,0c-0.3,0-0.6-0.3-0.5-0.7c0-0.3,0.2-0.5,0.5-0.5
	C59,39.1,59.3,39.3,59.2,39.7C59.2,39.6,59.2,39.6,59.2,39.7"/>
<rect x="60.8" y="47.3" class="st0" width="1.8" height="0.7"/>
<path class="st0" d="M66.9,47.9h-0.8c-0.5,0-1-0.2-1.3-0.5c-0.3,0.4-0.8,0.6-1.2,0.5h-1.4v-0.6h1.1c0.8,0,1.2-0.5,1.2-1.4v-1.6
	l-0.2-1.7l1-0.3v3.5c0,0.9,0.4,1.4,1.2,1.4H67L66.9,47.9z M63.5,50.3c0,0.4-0.2,0.5-0.6,0.5s-0.6-0.2-0.6-0.6c0-0.3,0.2-0.5,0.4-0.6
	c0.1,0,0.1,0,0.2,0C63.3,49.7,63.5,49.9,63.5,50.3 M65.2,50.3c0,0.4-0.2,0.5-0.6,0.5c-0.3,0-0.5-0.2-0.6-0.4c0,0,0-0.1,0-0.1
	c0-0.3,0.2-0.5,0.5-0.6c0,0,0.1,0,0.1,0C65,49.7,65.2,49.9,65.2,50.3"/>
<path class="st0" d="M70.1,46.1c0.1,0.9-0.5,1.7-1.4,1.8c-0.1,0-0.2,0-0.3,0h-1.8v-0.6h1.4c0.8,0,1.2-0.5,1.2-1.4v-1.6l-0.2-1.6
	l1-0.3L70.1,46.1z M69.4,50.3c0,0.3-0.3,0.6-0.6,0.6c-0.3,0-0.6-0.3-0.6-0.6c0-0.3,0.3-0.6,0.6-0.6C69.2,49.7,69.4,49.9,69.4,50.3"
	/>
<path class="st0" d="M74.8,47.9h-1c-0.3,0-0.6-0.1-0.9-0.2c0,1.5-1,2.8-2.5,3.1l-0.2-0.4c0.6-0.2,1.2-0.7,1.5-1.2
	c0.2-0.4,0.4-0.9,0.4-1.4v-3.6l-0.2-1.7l1-0.3v3.5c0,0.9,0.4,1.4,1.2,1.4h0.6L74.8,47.9z"/>
<path class="st0" d="M83.2,47.9h-2.7c-0.5,0-1.1-0.1-1.6-0.4c-0.5,0.2-1,0.4-1.6,0.4h-3v-0.6h2.9c0.3,0,0.7-0.1,1-0.2
	c-0.1-0.1-0.9-0.9-2.5-2.5c0-0.6,0.4-1.2,0.9-1.5c0.6-0.5,1.4-0.8,2.3-0.8c0.8,0,1.6,0.2,2.3,0.8c0.5,0.3,0.8,0.9,0.9,1.5l-2.5,2.5
	c0.3,0.1,0.7,0.2,1,0.2h2.7V47.9z M81.2,44.5c0-0.4-0.2-0.8-0.6-1C80.2,43.2,79.6,43,79,43c-0.6,0-1.2,0.2-1.7,0.5
	c-0.4,0.2-0.6,0.6-0.6,1l2.3,2.2L81.2,44.5z"/>
<path class="st0" d="M86.7,46.1c0.1,0.9-0.5,1.7-1.4,1.8c-0.1,0-0.2,0-0.3,0h-2.2v-0.6h1.9c0.8,0,1.2-0.5,1.2-1.4v-4.6l-0.2-1.6
	l1-0.3L86.7,46.1z"/>
<polygon class="st0" points="89.3,39.4 89.1,41 89.1,47.9 88.3,47.9 88.3,41 88.2,39.5 "/>
<path class="st0" d="M99,47.9h-0.9c-0.4,0-0.8-0.1-1.1-0.3c-0.2-0.1-0.4-0.3-0.5-0.5c-0.5,0.3-1.1,0.5-1.8,0.5c-1.2,0-2-1-2-2.6
	c0-0.7,0.3-1.5,0.8-2c0.6-0.5,1.3-0.8,2.1-0.8h0.7l-0.1-0.7l1-0.3v4.6c0,0.9,0.4,1.4,1.2,1.4h0.6L99,47.9z M96.3,46.7l-0.1-4h-0.9
	c-0.5,0-1,0.2-1.3,0.6c-0.4,0.4-0.6,1-0.6,1.5c0,1.4,0.5,2.1,1.5,2.1C95.4,46.9,95.9,46.8,96.3,46.7 M95.3,39.7
	c0,0.4-0.2,0.6-0.6,0.6c-0.3,0-0.6-0.2-0.7-0.5s0.2-0.6,0.5-0.7c0.1,0,0.1,0,0.2,0C95.1,39.1,95.3,39.3,95.3,39.7
	C95.3,39.7,95.3,39.7,95.3,39.7 M97,39.7c0,0.3-0.1,0.5-0.4,0.6c-0.1,0-0.1,0-0.2,0c-0.3,0-0.6-0.3-0.5-0.7c0-0.3,0.2-0.5,0.5-0.5
	C96.8,39.1,97,39.3,97,39.7C97,39.7,97,39.7,97,39.7"/>
<rect x="98.6" y="47.3" class="st0" width="1.8" height="0.7"/>
<path class="st0" d="M109.3,47.9H100v-0.6h7.3v-2.5c0-1.1-1-1.8-2.5-1.8h-4.1c1.1-1.1,2.2-2.3,3.2-3.6h1.1l-1.3,1.3l-1.6,1.7h3
	c0.8,0,1.5,0.2,2.1,0.6c0.5,0.4,0.8,1,0.8,1.6v2.7h1.2L109.3,47.9z"/>
<path class="st0" d="M113.7,47.9h-0.8c-0.5,0-1-0.2-1.3-0.6c-0.3,0.4-0.8,0.6-1.2,0.6h-1.4v-0.6h1.1c0.8,0,1.2-0.5,1.2-1.4v-4.5
	l-0.2-1.7l1-0.3v6.5c0,0.9,0.4,1.4,1.2,1.4h0.5L113.7,47.9z"/>
<path class="st0" d="M121.8,47.9h-1.1c-0.5,0-1-0.2-1.3-0.6c-0.5,0.8-1.3,1.3-2.2,1.4c-0.8,0-1.4-0.5-1.6-1.2
	c-0.3,0.3-0.7,0.4-1.1,0.4h-1.1v-0.6h0.7c0.6,0.1,1.1-0.4,1.2-1c0-0.1,0-0.2,0-0.2c0-2,1.2-3.2,3-3.2c0.6,0,1.1,0.1,1.6,0.3
	l-0.1,1.3v1.5c0,1,0.4,1.4,1.2,1.4h0.8L121.8,47.9z M119,47.3v-2.8l-0.1-1c-0.3-0.1-0.6-0.1-0.9-0.1c-0.6,0-1.1,0.3-1.5,0.8
	c-0.3,0.5-0.5,1.1-0.4,1.8c0,1.3,0.5,2.2,1.4,2.2C118.1,48.1,118.7,47.8,119,47.3"/>
<path class="st0" d="M130,47.9h-1.1c-0.5,0-1-0.2-1.3-0.6c-0.5,0.8-1.3,1.3-2.3,1.4c-0.8,0-1.4-0.5-1.6-1.2
	c-0.3,0.3-0.7,0.4-1.1,0.4h-1.1v-0.6h0.7c0.6,0.1,1.1-0.4,1.2-0.9c0-0.1,0-0.2,0-0.2c0.1-2,1.2-3.2,3-3.2c0.6,0,1.1,0.1,1.6,0.3
	l-0.1,1.3v1.5c0,1,0.4,1.4,1.2,1.4h0.8L130,47.9z M127.2,47.3v-2.8l-0.1-1c-0.3-0.1-0.6-0.1-0.9-0.1c-0.6,0-1.2,0.3-1.5,0.8
	c-0.3,0.5-0.5,1.1-0.4,1.8c0,1.3,0.5,2.2,1.4,2.2C126.3,48,126.9,47.7,127.2,47.3"/>
<path class="st0" d="M133.5,46.1c0.1,0.9-0.5,1.7-1.4,1.8c-0.1,0-0.2,0-0.3,0h-2.2v-0.6h1.9c0.8,0,1.2-0.5,1.2-1.4v-4.6l-0.2-1.6
	l1-0.3L133.5,46.1z"/>
<polygon class="st0" points="136.1,39.4 135.9,41 135.9,47.9 135.2,47.9 135.2,41 135,39.5 "/>
<path class="st0" d="M201.7,6c0,1.9-0.8,3.7-2.1,5h1.3c2.9,0,5.8,0.3,8.6,0.9c1.6-0.3,3.3-0.4,4.9-0.4c3.8,0,7.6,0.6,11.2,2
	c-7-7.8-16.8-12.7-27.3-13.6C200.4,1.3,201.7,3.6,201.7,6"/>
<path class="st0" d="M202.3,17.8c2.6,0.2,3.6,0.4,4.9,3.3c4.2,1.6,8.2,3.9,11.7,6.8c6.8,1.4,13,4.6,18.2,9.2
	c-4-12.7-14.5-22.3-27.5-25.1c-3.8,0.6-7.4,1.9-10.7,3.8C199.6,17,200.9,17.8,202.3,17.8"/>
<path class="st0" d="M199.6,11l-0.2,0.2l-0.9,1c-0.5,0.5-0.6,1.3-0.4,2c0.1,0.5,0.3,1,0.6,1.5c3.3-1.9,6.9-3.2,10.7-3.8
	c-2.8-0.6-5.7-1-8.6-0.9L199.6,11"/>
<path class="st0" d="M208.9,41.2c0,0,0,0.7-0.5,0.7h-2.4c0,0-0.8-0.1-0.7,0.7s0.5,5.4,0.5,5.4s16.5,10.3,19.7,20.2
	c0.1-1.2,0.2-2.4,0.2-3.5c0-8.1-3-15.9-8.3-22c-2.7-1.3-5.5-2.2-8.3-2.8C208.9,40.8,208.9,41.3,208.9,41.2"/>
<path class="st0" d="M218.8,27.9c-2.7-0.6-5.4-0.8-8.1-0.8c-0.7,0-1.5,0-2.2,0.1c0.3,2.8,0.4,5.9,0.4,8.6c3.1,1.9,5.9,4.2,8.3,7
	c7,3.3,12.8,8.6,16.6,15.4l0,0C233.5,46.3,228,35.2,218.8,27.9"/>
<path class="st0" d="M207.5,21.9c0.5,1.7,0.9,3.4,1,5.2c0.7,0,1.5-0.1,2.2-0.1c2.7,0,5.4,0.3,8.1,0.8c-3.5-2.9-7.4-5.2-11.7-6.8
	C207.3,21.3,207.4,21.6,207.5,21.9"/>
<path class="st0" d="M208.9,35.7c0,1.7,0,3.2,0,4.2c2.9,0.6,5.7,1.6,8.3,2.8C214.8,39.9,212,37.6,208.9,35.7"/>
<path class="st0" d="M185.9,6c0,1.9,0.8,3.7,2.1,5h-1.3c-2.9,0-5.7,0.3-8.6,0.9c-1.6-0.3-3.3-0.4-4.9-0.4c-3.8,0-7.6,0.6-11.2,2
	c7-7.8,16.8-12.7,27.3-13.6C187.2,1.3,185.9,3.6,185.9,6"/>
<path class="st0" d="M185.2,17.8c-2.5,0.2-3.6,0.4-4.9,3.3c-4.2,1.6-8.2,3.9-11.7,6.8c-6.8,1.4-13,4.6-18.2,9.2
	c4-12.7,14.5-22.3,27.5-25.1c3.8,0.6,7.4,1.9,10.7,3.8C188,17,186.7,17.8,185.2,17.8"/>
<path class="st0" d="M187.9,11l0.2,0.2l0.9,1c0.5,0.5,0.6,1.3,0.4,2c-0.1,0.5-0.3,1-0.6,1.5c-3.3-1.9-6.9-3.2-10.7-3.8
	c2.8-0.6,5.7-1,8.6-0.9L187.9,11"/>
<path class="st0" d="M178.7,41.2c0,0,0,0.7,0.5,0.7h2.5c0,0,0.8-0.1,0.7,0.7s-0.5,5.4-0.5,5.4s-16.5,10.3-19.7,20.2
	c-0.1-1.2-0.2-2.4-0.2-3.5c0-8.1,3-15.9,8.3-22c2.7-1.3,5.5-2.2,8.3-2.8C178.7,40.8,178.7,41.3,178.7,41.2"/>
<path class="st0" d="M168.8,27.9c2.7-0.6,5.4-0.8,8.1-0.8c0.7,0,1.5,0,2.2,0.1c-0.3,2.8-0.4,5.9-0.4,8.6c-3.1,1.9-5.9,4.2-8.3,7
	c-7,3.3-12.8,8.6-16.6,15.4l0,0C154.1,46.3,159.6,35.3,168.8,27.9"/>
<path class="st0" d="M180.1,21.9c-0.5,1.7-0.9,3.4-1,5.2c-0.7,0-1.5-0.1-2.2-0.1c-2.7,0-5.5,0.3-8.1,0.8c3.5-2.9,7.4-5.2,11.7-6.8
	C180.3,21.3,180.2,21.6,180.1,21.9"/>
<path class="st0" d="M178.7,35.7c0,1.7,0,3.2,0,4.2c-2.9,0.6-5.7,1.6-8.3,2.8C172.7,39.9,175.5,37.6,178.7,35.7"/>
</svg>
