<svg xmlns="http://www.w3.org/2000/svg" width="425.197" height="425.196" viewBox="0 0 425.197 425.196">
  <g id="show3" transform="translate(-4071 -3061)">
    <g id="Group_3172" data-name="Group 3172">
      <g id="Group_3092" data-name="Group 3092" transform="translate(4071.002 3061)">
        <path id="Path_31492" data-name="Path 31492" d="M0,0H425.2V425.2H0Z" transform="translate(-0.002 0.001)" fill="none"/>
        <g id="Group_3091" data-name="Group 3091">
          <g id="Group_3031" data-name="Group 3031">
            <path id="Path_31353" data-name="Path 31353" d="M66.537,250.568l-3.885.953c.436,1.775.913,3.578,1.42,5.358l3.848-1.1C67.426,254.05,66.961,252.295,66.537,250.568Z" fill="#23517a" stroke="#23517a" stroke-width="1"/>
            <path id="Path_31354" data-name="Path 31354" d="M63.181,196.981l-3.975-.456c-.21,1.838-.391,3.693-.535,5.513l3.988.316C62.8,200.58,62.975,198.773,63.181,196.981Z" fill="#23517a" stroke="#23517a" stroke-width="1"/>
            <path id="Path_31355" data-name="Path 31355" d="M62.234,218.536l-4,.106c.049,1.836.131,3.7.245,5.534l3.993-.247C62.363,222.139,62.282,220.324,62.234,218.536Z" fill="#23517a" stroke="#23517a" stroke-width="1"/>
            <path id="Path_31356" data-name="Path 31356" d="M64.34,240l-3.944.673c.311,1.818.658,3.649,1.031,5.444l3.916-.814C64.98,243.558,64.642,241.774,64.34,240Z" fill="#23517a" stroke="#23517a" stroke-width="1"/>
            <path id="Path_31357" data-name="Path 31357" d="M62.9,229.308l-3.98.39c.18,1.836.394,3.686.637,5.5l3.965-.531C63.289,232.9,63.08,231.1,62.9,229.308Z" fill="#23517a" stroke="#23517a" stroke-width="1"/>
            <path id="Path_31358" data-name="Path 31358" d="M62.327,207.74l-4-.174c-.08,1.838-.129,3.7-.145,5.537l4,.034C62.2,211.348,62.249,209.532,62.327,207.74Z" fill="#23517a" stroke="#23517a" stroke-width="1"/>
            <path id="Path_31359" data-name="Path 31359" d="M64.8,186.313l-3.932-.741c-.339,1.8-.651,3.639-.929,5.461l3.956.6C64.165,189.858,64.47,188.068,64.8,186.313Z" fill="#23517a" stroke="#23517a" stroke-width="1"/>
            <path id="Path_31360" data-name="Path 31360" d="M66,175.475l-2.684-.709c-.47,1.78-.915,3.591-1.319,5.38l3.9.883c.393-1.736.823-3.492,1.28-5.22Q66.58,175.668,66,175.475Z" fill="#23517a" stroke="#23517a" stroke-width="1"/>
            <path id="Path_31361" data-name="Path 31361" d="M102.436,316.986a13.768,13.768,0,0,1-2.364,3.328c.874.933,1.761,1.862,2.661,2.776l2.85-2.807C104.514,319.2,103.463,318.092,102.436,316.986Z" fill="#23517a" stroke="#23517a" stroke-width="1"/>
            <path id="Path_31362" data-name="Path 31362" d="M106.695,326.965c1.336,1.263,2.714,2.519,4.1,3.733l2.642-3c-1.345-1.183-2.688-2.406-3.991-3.636Z" fill="#23517a" stroke="#23517a" stroke-width="1"/>
            <path id="Path_31363" data-name="Path 31363" d="M115.015,334.282c1.419,1.162,2.883,2.317,4.352,3.433l2.42-3.184c-1.431-1.088-2.856-2.213-4.239-3.345Z" fill="#23517a" stroke="#23517a" stroke-width="1"/>
            <path id="Path_31364" data-name="Path 31364" d="M70.378,263.6q-.456-1.323-.887-2.651l-3.805,1.232c.242.746.494,1.494.748,2.239A12.407,12.407,0,0,1,70.378,263.6Z" fill="#23517a" stroke="#23517a" stroke-width="1"/>
            <path id="Path_31365" data-name="Path 31365" d="M363.082,200.894l3.984-.353c-.161-1.82-.359-3.674-.588-5.509l-3.969.5C362.732,197.316,362.925,199.121,363.082,200.894Z" fill="#23517a" stroke="#23517a" stroke-width="1"/>
            <path id="Path_31366" data-name="Path 31366" d="M363.657,211.673l4-.07c-.032-1.828-.1-3.691-.2-5.538l-3.994.213C363.561,208.078,363.626,209.893,363.657,211.673Z" fill="#23517a" stroke="#23517a" stroke-width="1"/>
            <path id="Path_31367" data-name="Path 31367" d="M123.84,340.991c1.5,1.06,3.047,2.109,4.589,3.115l2.187-3.349c-1.5-.981-3.007-2-4.47-3.034Z" fill="#23517a" stroke="#23517a" stroke-width="1"/>
            <path id="Path_31368" data-name="Path 31368" d="M359.637,179.6l3.892-.917c-.416-1.77-.878-3.577-1.371-5.371l-3.857,1.062C358.781,176.122,359.23,177.88,359.637,179.6Z" fill="#23517a" stroke="#23517a" stroke-width="1"/>
            <path id="Path_31369" data-name="Path 31369" d="M361.741,190.188l3.949-.639c-.294-1.82-.625-3.655-.982-5.453l-3.924.78C361.133,186.627,361.455,188.414,361.741,190.188Z" fill="#23517a" stroke="#23517a" stroke-width="1"/>
            <path id="Path_31370" data-name="Path 31370" d="M128.425,89.586l-2.246-3.311c-1.521,1.032-3.042,2.1-4.523,3.187l2.361,3.229C125.461,91.635,126.943,90.59,128.425,89.586Z" fill="#23517a" stroke="#23517a" stroke-width="1"/>
            <path id="Path_31371" data-name="Path 31371" d="M103.775,110.467l-2.9-2.76c-1.271,1.334-2.532,2.707-3.75,4.08l2.992,2.654C101.308,113.1,102.537,111.767,103.775,110.467Z" fill="#23517a" stroke="#23517a" stroke-width="1"/>
            <path id="Path_31372" data-name="Path 31372" d="M111.493,102.923,108.8,99.965c-1.364,1.242-2.719,2.52-4.029,3.8l2.795,2.861C108.843,105.379,110.164,104.133,111.493,102.923Z" fill="#23517a" stroke="#23517a" stroke-width="1"/>
            <path id="Path_31373" data-name="Path 31373" d="M311.9,95.47c-1.416-1.179-2.87-2.346-4.321-3.471l-2.449,3.164c1.414,1.094,2.831,2.232,4.21,3.381Z" fill="#23517a" stroke="#23517a" stroke-width="1"/>
            <path id="Path_31374" data-name="Path 31374" d="M119.723,95.951l-2.477-3.141c-1.449,1.142-2.891,2.32-4.286,3.5l2.586,3.051C116.9,98.213,118.311,97.064,119.723,95.951Z" fill="#23517a" stroke="#23517a" stroke-width="1"/>
            <path id="Path_31375" data-name="Path 31375" d="M320.156,102.86c-1.328-1.277-2.694-2.544-4.061-3.768l-2.668,2.981c1.332,1.192,2.664,2.427,3.958,3.671Z" fill="#23517a" stroke="#23517a" stroke-width="1"/>
            <path id="Path_31376" data-name="Path 31376" d="M324.057,111.338h3.228l.58-.523c-1.231-1.365-2.5-2.726-3.784-4.046l-2.871,2.784c.96.99,1.91,2.007,2.847,3.028Z" fill="#23517a" stroke="#23517a" stroke-width="1"/>
            <path id="Path_31377" data-name="Path 31377" d="M289.446,344.361l2.034,3.445c1.585-.937,3.17-1.911,4.711-2.9l-2.154-3.37C292.535,342.5,290.991,343.449,289.446,344.361Z" fill="#23517a" stroke="#23517a" stroke-width="1"/>
            <path id="Path_31378" data-name="Path 31378" d="M303.135,88.685c-1.486-1.067-3.02-2.129-4.561-3.155l-2.217,3.329c1.5,1,3,2.034,4.442,3.074Z" fill="#23517a" stroke="#23517a" stroke-width="1"/>
            <path id="Path_31379" data-name="Path 31379" d="M307.171,332.112l2.5,3.12c1.438-1.154,2.871-2.345,4.256-3.539l-2.612-3.03C309.97,329.826,308.574,330.987,307.171,332.112Z" fill="#23517a" stroke="#23517a" stroke-width="1"/>
            <path id="Path_31380" data-name="Path 31380" d="M316.049,324.393c-.238.224-.469.454-.707.675L318.06,328c.442-.408.868-.832,1.3-1.247A12.724,12.724,0,0,1,316.049,324.393Z" fill="#23517a" stroke="#23517a" stroke-width="1"/>
            <path id="Path_31381" data-name="Path 31381" d="M298.525,338.556l2.275,3.29c1.508-1.043,3.02-2.128,4.5-3.227l-2.389-3.208C301.469,336.482,299.994,337.54,298.525,338.556Z" fill="#23517a" stroke="#23517a" stroke-width="1"/>
            <path id="Path_31382" data-name="Path 31382" d="M284.248,77.069c-1.632-.849-3.3-1.68-4.97-2.472l-1.717,3.612c1.623.771,3.252,1.582,4.841,2.409Z" fill="#23517a" stroke="#23517a" stroke-width="1"/>
            <path id="Path_31383" data-name="Path 31383" d="M293.9,82.54c-1.56-.961-3.168-1.91-4.776-2.822l-1.973,3.48c1.568.888,3.132,1.813,4.652,2.748Z" fill="#23517a" stroke="#23517a" stroke-width="1"/>
            <path id="Path_31384" data-name="Path 31384" d="M270.179,353.944l1.519,3.7c1.694-.7,3.4-1.434,5.073-2.191l-1.653-3.644C273.49,352.548,271.828,353.267,270.179,353.944Z" fill="#23517a" stroke="#23517a" stroke-width="1"/>
            <path id="Path_31385" data-name="Path 31385" d="M279.98,349.5l1.782,3.581c1.648-.82,3.3-1.678,4.9-2.551l-1.908-3.514C283.192,347.865,281.585,348.7,279.98,349.5Z" fill="#23517a" stroke="#23517a" stroke-width="1"/>
            <path id="Path_31386" data-name="Path 31386" d="M361.3,241.287l3.937.707c.323-1.8.62-3.642.881-5.469l-3.959-.566C361.9,237.739,361.615,239.531,361.3,241.287Z" fill="#23517a" stroke="#23517a" stroke-width="1"/>
            <path id="Path_31387" data-name="Path 31387" d="M359.012,251.832l3.875.988c.455-1.782.883-3.6,1.272-5.392l-3.908-.848C359.871,248.328,359.454,250.1,359.012,251.832Z" fill="#23517a" stroke="#23517a" stroke-width="1"/>
            <path id="Path_31388" data-name="Path 31388" d="M362.826,230.6l3.979.422c.194-1.839.358-3.695.487-5.517l-3.99-.282C363.177,227,363.017,228.813,362.826,230.6Z" fill="#23517a" stroke="#23517a" stroke-width="1"/>
            <path id="Path_31389" data-name="Path 31389" d="M363.683,214.441c0,1.79-.033,3.606-.1,5.4l4,.14c.064-1.839.1-3.7.1-5.538Z" fill="#23517a" stroke="#23517a" stroke-width="1"/>
            <path id="Path_31390" data-name="Path 31390" d="M274.221,72.3c-1.694-.731-3.422-1.441-5.137-2.109l-1.453,3.726c1.671.652,3.354,1.343,5,2.055Z" fill="#23517a" stroke="#23517a" stroke-width="1"/>
            <path id="Path_31391" data-name="Path 31391" d="M355.967,262.186l3.795,1.264c.583-1.75,1.14-3.529,1.658-5.286l-3.838-1.129C357.078,258.747,356.535,260.48,355.967,262.186Z" fill="#23517a" stroke="#23517a" stroke-width="1"/>
            <path id="Path_31392" data-name="Path 31392" d="M163.285,361.057c1.732.587,3.508,1.152,5.28,1.682l1.145-3.832c-1.726-.516-3.455-1.067-5.142-1.638Z" fill="#23517a" stroke="#23517a" stroke-width="1"/>
            <path id="Path_31393" data-name="Path 31393" d="M152.9,357.117c1.694.714,3.429,1.408,5.159,2.065l1.418-3.741c-1.684-.638-3.373-1.315-5.022-2.009Z" fill="#23517a" stroke="#23517a" stroke-width="1"/>
            <path id="Path_31394" data-name="Path 31394" d="M135.551,80.4c-1.59.919-3.184,1.88-4.738,2.854l2.127,3.389c1.513-.949,3.065-1.885,4.615-2.782Z" fill="#23517a" stroke="#23517a" stroke-width="1"/>
            <path id="Path_31395" data-name="Path 31395" d="M178.947,361.33c-1.351-.312-2.707-.626-4.039-.973l-1.006,3.872c1.409.365,2.838.709,4.266,1.037A11,11,0,0,1,178.947,361.33Z" fill="#23517a" stroke="#23517a" stroke-width="1"/>
            <path id="Path_31396" data-name="Path 31396" d="M176.511,64c-1.793.434-3.6.9-5.361,1.4l1.079,3.852c1.717-.48,3.474-.939,5.221-1.36Z" fill="#23517a" stroke="#23517a" stroke-width="1"/>
            <path id="Path_31397" data-name="Path 31397" d="M165.844,66.987c-1.754.559-3.52,1.158-5.248,1.779l1.353,3.764c1.683-.6,3.4-1.188,5.11-1.733Z" fill="#23517a" stroke="#23517a" stroke-width="1"/>
            <path id="Path_31398" data-name="Path 31398" d="M145.313,75.207c-1.647.8-3.3,1.645-4.925,2.507l1.877,3.532c1.58-.84,3.194-1.662,4.8-2.442Z" fill="#23517a" stroke="#23517a" stroke-width="1"/>
            <path id="Path_31399" data-name="Path 31399" d="M133.126,347.055c1.571.948,3.187,1.883,4.8,2.78l1.941-3.5c-1.573-.874-3.146-1.784-4.677-2.708Z" fill="#23517a" stroke="#23517a" stroke-width="1"/>
            <path id="Path_31400" data-name="Path 31400" d="M260.055,357.683l1.25,3.8c1.754-.577,3.514-1.191,5.23-1.825L265.15,355.9C263.479,356.522,261.764,357.12,260.055,357.683Z" fill="#23517a" stroke="#23517a" stroke-width="1"/>
            <path id="Path_31401" data-name="Path 31401" d="M155.415,70.732c-1.708.685-3.421,1.408-5.09,2.147l1.619,3.657c1.626-.72,3.295-1.424,4.959-2.091Z" fill="#23517a" stroke="#23517a" stroke-width="1"/>
            <path id="Path_31402" data-name="Path 31402" d="M142.83,352.44c1.639.835,3.318,1.652,4.991,2.43l1.686-3.628c-1.63-.757-3.266-1.553-4.862-2.366Z" fill="#23517a" stroke="#23517a" stroke-width="1"/>
            <path id="Path_31403" data-name="Path 31403" d="M253.267,65c-1.778-.478-3.585-.931-5.375-1.344l-.9,3.9c1.742.4,3.5.843,5.236,1.308Z" fill="#23517a" stroke="#23517a" stroke-width="1"/>
            <path id="Path_31404" data-name="Path 31404" d="M249.69,360.681l.971,3.88c1.779-.446,3.579-.932,5.35-1.443l-1.112-3.843C253.175,359.774,251.423,360.247,249.69,360.681Z" fill="#23517a" stroke="#23517a" stroke-width="1"/>
            <path id="Path_31405" data-name="Path 31405" d="M263.871,68.271c-1.738-.605-3.515-1.189-5.28-1.733l-1.18,3.822c1.721.531,3.451,1.1,5.144,1.689Z" fill="#23517a" stroke="#23517a" stroke-width="1"/>
          </g>
          <circle id="Ellipse_96" data-name="Ellipse 96" cx="94.533" cy="94.533" r="94.533" transform="translate(89.417 163.281) rotate(-22.5)" fill="none" stroke="#23517a" stroke-miterlimit="10" stroke-width="4" stroke-dasharray="6"/>
          <g id="Group_3037" data-name="Group 3037">
            <path id="Path_31406" data-name="Path 31406" d="M111.191,297.38A34.532,34.532,0,1,1,76.66,262.848,34.532,34.532,0,0,1,111.191,297.38Z" fill="none" stroke="#23517a" stroke-miterlimit="10" stroke-width="3"/>
          </g>
          <g id="Group_3039" data-name="Group 3039">
            <path id="Path_31410" data-name="Path 31410" d="M247.462,360.982a34.532,34.532,0,1,1-34.531-34.532A34.532,34.532,0,0,1,247.462,360.982Z" fill="none" stroke="#23517a" stroke-miterlimit="10" stroke-width="3"/>
          </g>
          <g id="Group_3041" data-name="Group 3041">
            <path id="Path_31415" data-name="Path 31415" d="M373.6,142.455a34.533,34.533,0,1,1-34.532-34.531A34.532,34.532,0,0,1,373.6,142.455Z" fill="none" stroke="#23517a" stroke-miterlimit="10" stroke-width="3"/>
          </g>
          <g id="Group_3042" data-name="Group 3042">
            <path id="Path_31493" data-name="Path 31493" d="M34.531,0A34.531,34.531,0,1,1,0,34.531,34.531,34.531,0,0,1,34.531,0Z" transform="matrix(0.23, -0.973, 0.973, 0.23, 171.389, 88.195)" fill="none" stroke="#23517a" stroke-width="3"/>
          </g>
          <g id="Group_3044" data-name="Group 3044">
            <path id="Path_31419" data-name="Path 31419" d="M111.19,142.455a34.531,34.531,0,1,1-34.531-34.531A34.531,34.531,0,0,1,111.19,142.455Z" fill="none" stroke="#23517a" stroke-miterlimit="10" stroke-width="3"/>
          </g>
          <g id="Group_3051" data-name="Group 3051">
            <path id="Path_31421" data-name="Path 31421" d="M373.6,297.379a34.531,34.531,0,1,1-34.532-34.531A34.531,34.531,0,0,1,373.6,297.379Z" fill="none" stroke="#23517a" stroke-miterlimit="10" stroke-width="3"/>
          </g>
          <g id="Group_3100" data-name="Group 3100" transform="translate(-179 250)">
            <g id="Group_3078" data-name="Group 3078">
              <path id="Path_31448" data-name="Path 31448" d="M337.739,61.691a20.33,20.33,0,1,1-20.329-20.33A20.329,20.329,0,0,1,337.739,61.691Z" fill="none" stroke="#23517a" stroke-miterlimit="10" stroke-width="1.165" stroke-dasharray="2.365 2.365"/>
            </g>
            <path id="Path_31449" data-name="Path 31449" d="M323.433,49.914H311.384a1.316,1.316,0,0,0-1.317,1.316V72.152a1.317,1.317,0,0,0,1.317,1.317h12.049a1.316,1.316,0,0,0,1.316-1.317V51.23A1.315,1.315,0,0,0,323.433,49.914Zm-4.279,22.5h-3.489a.428.428,0,1,1,0-.855h3.489a.428.428,0,1,1,0,.855Zm4.087-1.974H311.576V51.22h11.665Z" fill="#143559"/>
          </g>
          <g id="Group_3107" data-name="Group 3107" transform="translate(-180 -113)">
            <g id="Group_3064" data-name="Group 3064">
              <circle id="Ellipse_98" data-name="Ellipse 98" cx="20.331" cy="20.331" r="20.331" transform="translate(313.146 200.128)" fill="none" stroke="#23517a" stroke-miterlimit="10" stroke-width="1.165" stroke-dasharray="2.365 2.365"/>
            </g>
          </g>
          <g id="Group_3171" data-name="Group 3171" transform="translate(198 105)">
            <g id="Group_3161" data-name="Group 3161">
              <path id="Path_31593" data-name="Path 31593" d="M159.059,114.318a20.331,20.331,0,1,1-20.332-20.329A20.331,20.331,0,0,1,159.059,114.318Z" fill="none" stroke="#23517a" stroke-miterlimit="10" stroke-width="1.165" stroke-dasharray="2.365 2.365"/>
            </g>
            <g id="Group_3162" data-name="Group 3162">
              <path id="Path_31594" data-name="Path 31594" d="M149.564,103.057H127.457a.994.994,0,0,0-1,.994v15.442a.994.994,0,0,0,1,.994h22.107a1,1,0,0,0,1-.994V104.051A1,1,0,0,0,149.564,103.057Zm-.782,15.607H128.24V104.547h20.542Z" fill="#143559"/>
              <rect id="Rectangle_228" data-name="Rectangle 228" width="18.795" height="12.641" transform="translate(129.112 105.285)" fill="#fff"/>
              <rect id="Rectangle_229" data-name="Rectangle 229" width="31.336" height="0.738" transform="translate(123.06 124.844)" fill="#143559"/>
              <path id="Path_31595" data-name="Path 31595" d="M150.559,121.191h-24.1l-3.4,3.055H154.4Zm-23.8.422H150.5l1.357,1.107H125.6Zm7.976,2.221.665-.877H142l.725.877Z" fill="#143559"/>
            </g>
          </g>
        </g>
      </g>
      <g id="Group_3099" data-name="Group 3099" transform="translate(2278 851.398)">
        <g id="mujib" transform="translate(1950.191 2362.2)">
          <path id="Rectangle_1555" data-name="Rectangle 1555" d="M391.695,1958.064h79.224A15.376,15.376,0,0,1,486.3,1973.44h0a15.376,15.376,0,0,1-15.376,15.376H391.695a15.376,15.376,0,0,1-15.376-15.376h0A15.376,15.376,0,0,1,391.695,1958.064Z" transform="translate(-376.319 -1912.997)" fill="#23517a"/>
          <rect id="Rectangle_1556" data-name="Rectangle 1556" width="2.642" height="11.533" rx="1.321" transform="translate(53.667 9.375)" fill="#23517a"/>
          <path id="Path_24127" data-name="Path 24127" d="M721.441,1454.8a42.175,42.175,0,1,0-35.45,41.635l6.372,3.95,10.813,6.706.4-12.715.164-5.236A42.11,42.11,0,0,0,721.441,1454.8Z" transform="translate(-624.278 -1394.355)" fill="#143559"/>
          <path id="Rectangle_1557" data-name="Rectangle 1557" d="M808.183,1989.592h41.243a13.827,13.827,0,0,1,13.827,13.827h0a13.827,13.827,0,0,1-13.827,13.827H808.183a13.827,13.827,0,0,1-13.827-13.827h0A13.827,13.827,0,0,1,808.183,1989.592Z" transform="translate(-773.816 -1942.976)" fill="#fff"/>
          <path id="Path_24128" data-name="Path 24128" d="M1688.092,2137.71a6.255,6.255,0,0,1,6.255,6.254h3.475a9.73,9.73,0,1,0-19.459,0h3.475A6.255,6.255,0,0,1,1688.092,2137.71Z" transform="translate(-1614.388 -2080.512)" fill="#143559"/>
          <path id="Path_24129" data-name="Path 24129" d="M919.583,2137.71a6.255,6.255,0,0,1,6.255,6.254h3.475a9.73,9.73,0,1,0-19.459,0h3.475A6.255,6.255,0,0,1,919.583,2137.71Z" transform="translate(-883.639 -2080.512)" fill="#143559"/>
          <circle id="Ellipse_648" data-name="Ellipse 648" cx="6.062" cy="6.062" r="6.062" transform="translate(48.926 0)" fill="#143559"/>
          <path id="Path_24130" data-name="Path 24130" d="M467.756,2081.642a17.363,17.363,0,0,1-.005-20.649,33.884,33.884,0,0,0,.005,20.649Z" transform="translate(-460.026 -2010.869)" fill="#fff"/>
          <path id="Path_24131" data-name="Path 24131" d="M2458.189,2081.642a17.368,17.368,0,0,0,.007-20.649,33.908,33.908,0,0,1-.007,20.649Z" transform="translate(-2355.899 -2010.869)" fill="#fff"/>
          <g id="Group_6159" data-name="Group 6159" transform="translate(51.036 61.962)">
            <path id="Path_24132" data-name="Path 24132" d="M1575.38,2334.765c.376,0,.744,0,1.105-.007,10.271-.1,18.077-1.551,23.934-3.711,7.969-2.948,12.347-7.207,14.419-11.133,4.231-8.013,1.385-14.281-1.236-17.984" transform="translate(-1567.502 -2301.93)" fill="none" stroke="#f8f1f1" stroke-miterlimit="10" stroke-width="2"/>
            <path id="Path_24133" data-name="Path 24133" d="M1419.543,2926.4c-2.483,0-4.5.941-4.5,2.105s2.013,2.1,4.5,2.1,4.5-.941,4.5-2.1S1422.023,2926.4,1419.543,2926.4Z" transform="translate(-1415.047 -2895.72)" fill="#fff"/>
          </g>
        </g>
      </g>
      <g id="Group_3101" data-name="Group 3101" transform="translate(3944 2829.558)">
        <g id="surface1" transform="translate(187.354 513.426)">
          <path id="Path_1563" data-name="Path 1563" d="M13.6,10A3.583,3.583,0,0,0,10,13.518V37.437a3.583,3.583,0,0,0,3.6,3.518H38.056a3.583,3.583,0,0,0,3.6-3.518V13.518A3.583,3.583,0,0,0,38.056,10Zm0,2.814H38.056a.7.7,0,0,1,.719.7V37.437a.7.7,0,0,1-.719.7H13.6a.7.7,0,0,1-.719-.7V13.518A.7.7,0,0,1,13.6,12.814Zm4.226,2.418A2.419,2.419,0,1,0,20.3,17.651,2.446,2.446,0,0,0,17.823,15.232Zm12.994,6.419a4.456,4.456,0,0,0-4,2.154h-.09V21.96H22.679V35.326h4.226v-6.6c0-1.742.354-3.43,2.563-3.43,2.175,0,2.2,1.968,2.2,3.518v6.507H35.9V27.983C35.9,24.389,35.117,21.652,30.817,21.652Zm-15.062.308V35.326h4.271V21.96Z" transform="translate(-10 -10)" fill="#143559"/>
        </g>
      </g>
      <g id="Group_3102" data-name="Group 3102" transform="translate(4266.041 3104.307)">
        <g id="surface1-2" data-name="surface1" transform="translate(5.983 8.74)">
          <path id="Path_1564" data-name="Path 1564" d="M23.3,8.416a9.383,9.383,0,0,1-2.683.737,4.7,4.7,0,0,0,2.054-2.586A9.357,9.357,0,0,1,19.7,7.7a4.675,4.675,0,0,0-7.96,4.261A13.265,13.265,0,0,1,2.116,7.078a4.679,4.679,0,0,0,1.446,6.239,4.632,4.632,0,0,1-2.117-.584v.059a4.676,4.676,0,0,0,3.747,4.581,4.632,4.632,0,0,1-1.23.163,4.573,4.573,0,0,1-.879-.083A4.674,4.674,0,0,0,7.445,20.7a9.35,9.35,0,0,1-5.8,2,9.763,9.763,0,0,1-1.112-.063,13.221,13.221,0,0,0,7.16,2.1A13.2,13.2,0,0,0,20.983,11.44c0-.205,0-.407-.014-.608A9.344,9.344,0,0,0,23.3,8.416" transform="translate(-0.531 -6.227)" fill="#143559"/>
        </g>
        <path id="Path_1566" data-name="Path 1566" d="M663.777,403.177H642.689a6.533,6.533,0,0,1-6.36-6.678V373.746a6.531,6.531,0,0,1,6.36-6.677h21.088a6.531,6.531,0,0,1,6.36,6.677V396.5A6.533,6.533,0,0,1,663.777,403.177Zm-21.471-32.83a2.923,2.923,0,0,0-2.845,2.987v23.577a2.923,2.923,0,0,0,2.845,2.987h21.853A2.922,2.922,0,0,0,667,396.911V373.335a2.922,2.922,0,0,0-2.845-2.987Z" transform="translate(-636.329 -367.069)" fill="#143559"/>
      </g>
      <g id="Group_3103" data-name="Group 3103" transform="translate(4392.354 3182.354)">
        <path id="Path_15" data-name="Path 15" d="M654.96,388.24c-10.1,0-18.289,8.6-18.289,19.2a19.8,19.8,0,0,0,2.355,9.425L636.289,427.2l9.85-2.939a17.524,17.524,0,0,0,8.821,2.377c10.1,0,18.286-8.6,18.286-19.2S665.059,388.24,654.96,388.24Zm0,35.122a14.57,14.57,0,0,1-8.522-2.753l-5.58,1.714,1.567-5.919a16.367,16.367,0,0,1-2.633-8.961c0-8.795,6.788-15.925,15.168-15.925s15.162,7.13,15.162,15.925a16.476,16.476,0,0,1-4.27,11.072A14.63,14.63,0,0,1,654.96,423.362Z" transform="translate(-636.289 -388.24)" fill="#143559"/>
        <path id="Path_16" data-name="Path 16" d="M657.63,404.886c-.476-.24-2.713-1.416-3.129-1.588-.457-.131-.746-.24-1.055.259a20.555,20.555,0,0,1-1.45,1.85c-.27.349-.541.368-.975.15a11.494,11.494,0,0,1-3.709-2.39,14.147,14.147,0,0,1-2.568-3.285.789.789,0,0,1,.187-1.021,5.859,5.859,0,0,0,.7-.827.838.838,0,0,0,.164-.218,4.913,4.913,0,0,0,.291-.565.781.781,0,0,0-.041-.827c-.083-.24-1.014-2.633-1.409-3.569-.372-.977-.767-.8-1.014-.8-.293,0-.582-.044-.891-.044a1.551,1.551,0,0,0-1.224.608,5.268,5.268,0,0,0-1.637,4,5.2,5.2,0,0,0,.27,1.61,10.934,10.934,0,0,0,1.616,3.329c.229.325,3.171,5.308,7.852,7.22,4.7,1.916,4.7,1.263,5.531,1.2a4.579,4.579,0,0,0,3.108-2.284,4.136,4.136,0,0,0,.249-2.284,2.583,2.583,0,0,0-.871-.521Z" transform="translate(-630.557 -381.724)" fill="#143559" fill-rule="evenodd"/>
      </g>
      <g id="Group_3104" data-name="Group 3104" transform="translate(4393.354 3342.097)">
        <g id="Group_20" data-name="Group 20">
          <path id="Path_13" data-name="Path 13" d="M663.922,403.369h-21.2a6.567,6.567,0,0,1-6.394-6.713V373.782a6.566,6.566,0,0,1,6.394-6.713h21.2a6.566,6.566,0,0,1,6.393,6.713v22.874A6.567,6.567,0,0,1,663.922,403.369Zm-21.584-33a2.938,2.938,0,0,0-2.86,3v23.7a2.938,2.938,0,0,0,2.86,3h21.969a2.938,2.938,0,0,0,2.86-3v-23.7a2.938,2.938,0,0,0-2.86-3Z" transform="translate(-636.329 -367.069)" fill="#143559"/>
        </g>
        <g id="Group_21" data-name="Group 21" transform="translate(9.018 9.777)">
          <path id="Path_14" data-name="Path 14" d="M648.056,387.69a8.383,8.383,0,1,1,7.975-8.373A8.191,8.191,0,0,1,648.056,387.69Zm0-13.658a5.29,5.29,0,1,0,5.031,5.284A5.168,5.168,0,0,0,648.056,374.032Z" transform="translate(-640.081 -370.943)" fill="#143559"/>
        </g>
        <ellipse id="Ellipse_1" data-name="Ellipse 1" cx="2.275" cy="2.389" rx="2.275" ry="2.389" transform="translate(24.101 5.975)" fill="#143559"/>
      </g>
      <g id="Group_3105" data-name="Group 3105" transform="translate(3937.002 2846.075)">
        <path id="Path_31411" data-name="Path 31411" d="M214.688,362.382l-5.057,4.421-5.033-4.629L193.927,373.34H225.54a1.535,1.535,0,0,0,.517-.092Z" transform="translate(-0.36 -2.743)" fill="#143559"/>
        <path id="Path_31412" data-name="Path 31412" d="M221.149,358.623,231.794,368.8V349.318Z" transform="translate(-5.062 -0.523)" fill="#143559"/>
        <path id="Path_31413" data-name="Path 31413" d="M209.557,361.281l16.8-14.683a1.546,1.546,0,0,0-.922-.305H193.649a1.554,1.554,0,0,0-.343.039Z" transform="translate(-0.252)" fill="#143559"/>
        <path id="Path_31414" data-name="Path 31414" d="M191.846,348.4v21l10.679-11.174Z" transform="translate(0 -0.363)" fill="#143559"/>
      </g>
      <g id="Group_3106" data-name="Group 3106" transform="translate(4268.503 3405.742)">
        <path id="Path_12" data-name="Path 12" d="M652.376,346v3.819h-2.759a1.7,1.7,0,0,0-1.7,1.7v3.2H652.2l-.555,4.4h-3.732v11.1h-4.55V359.1h-3.745v-4.374h3.774v-3.845a4.978,4.978,0,0,1,5.1-4.966Z" transform="translate(-630.771 -340.345)" fill="#143559"/>
        <path id="Path_1565" data-name="Path 1565" d="M663.339,403.176H642.587a6.486,6.486,0,0,1-6.258-6.677V373.746a6.484,6.484,0,0,1,6.258-6.677h20.752a6.484,6.484,0,0,1,6.258,6.677V396.5A6.486,6.486,0,0,1,663.339,403.176Zm-21.128-32.829a2.9,2.9,0,0,0-2.8,2.987v23.576a2.9,2.9,0,0,0,2.8,2.987h21.5a2.9,2.9,0,0,0,2.8-2.987V373.335a2.9,2.9,0,0,0-2.8-2.987Z" transform="translate(-636.329 -367.069)" fill="#143559"/>
      </g>
      <g id="Group_3108" data-name="Group 3108" transform="translate(4735.947 3057.217) rotate(90)">
        <path id="Path_220" data-name="Path 220" d="M118.932,499.1l-14.54-.008a1.654,1.654,0,0,0-1.656,1.656l-.012,21.086a1.655,1.655,0,0,0,1.654,1.657l14.54.009a1.657,1.657,0,0,0,1.656-1.656l.012-21.086A1.656,1.656,0,0,0,118.932,499.1Z" fill="#012f58"/>
        <path id="Path_221" data-name="Path 221" d="M156.411,645.833a.984.984,0,1,1,.985-.983A.983.983,0,0,1,156.411,645.833Z" transform="translate(-44.763 -122.962)" fill="#fff"/>
        <rect id="Rectangle_14" data-name="Rectangle 14" width="14.5" height="18.958" transform="translate(104.406 501.083)" fill="#fff"/>
      </g>
    </g>
  </g>
</svg>
