<svg xmlns="http://www.w3.org/2000/svg" width="268.407" height="266.661" viewBox="0 0 268.407 266.661">
  <g id="bot" transform="translate(-774.934 -49.747)">
    <g id="Group_15187" data-name="Group 15187" transform="translate(774.934 49.747)">
      <path id="Path_33329" data-name="Path 33329" d="M134.2,0c74.119,0,134.2,59.694,134.2,133.331S208.322,266.661,134.2,266.661,0,206.967,0,133.331,60.085,0,134.2,0Z" transform="translate(0 0)" fill="#143559" style="mix-blend-mode: multiply;isolation: isolate"/>
    </g>
    <g id="mujib" transform="translate(841.533 106.767)">
      <path id="Rectangle_1555" data-name="Rectangle 1555" d="M395.136,1958.065h96.952c10.392,0,18.817,8.914,18.817,19.911h0c0,11-8.425,19.911-18.817,19.911H395.136c-10.392,0-18.817-8.914-18.817-19.911h0C376.319,1966.979,384.743,1958.065,395.136,1958.065Z" transform="translate(-376.319 -1900.899)" fill="#fff"/>
      <rect id="Rectangle_1556" data-name="Rectangle 1556" width="3.421" height="14.934" rx="1.711" transform="translate(65.582 12.141)" fill="#fff"/>
      <path id="Path_24127" data-name="Path 24127" d="M738.491,1467.235c0-30.162-22.7-54.612-50.7-54.613s-50.7,24.45-50.7,54.613,22.7,54.614,50.7,54.615a47.44,47.44,0,0,0,8.083-.7l7.66,5.114,13,8.683.477-16.466.2-6.78C730.569,1501.467,738.5,1484.9,738.491,1467.235Z" transform="translate(-620.499 -1391.139)" fill="#fff"/>
      <path id="Rectangle_1557" data-name="Rectangle 1557" d="M810.69,1989.592h48.722c9.021,0,16.334,8.017,16.334,17.905h0c0,9.889-7.313,17.905-16.334,17.905H810.69c-9.021,0-16.334-8.017-16.334-17.905h0C794.356,1997.609,801.669,1989.592,810.69,1989.592Z" transform="translate(-767.758 -1930.417)" fill="#fff"/>
      <path id="Path_24128" data-name="Path 24128" d="M1690.961,2138.735a8.1,8.1,0,0,1,8.1,8.1h4.5a12.6,12.6,0,1,0-25.2,0h4.5A8.1,8.1,0,0,1,1690.961,2138.735Z" transform="translate(-1601.052 -2065.8)" fill="#143559"/>
      <path id="Path_24129" data-name="Path 24129" d="M922.453,2138.735a8.1,8.1,0,0,1,8.1,8.1h4.5a12.6,12.6,0,1,0-25.2,0h4.5A8.1,8.1,0,0,1,922.453,2138.735Z" transform="translate(-878.174 -2065.8)" fill="#143559"/>
      <ellipse id="Ellipse_648" data-name="Ellipse 648" cx="7.85" cy="7.85" rx="7.85" ry="7.85" transform="translate(59.442)" fill="#fff"/>
      <path id="Path_24130" data-name="Path 24130" d="M468.761,2087.732a22.483,22.483,0,0,1-.007-26.739,43.875,43.875,0,0,0,.007,26.739Z" transform="translate(-458.75 -1997.267)" fill="#143559"/>
      <path id="Path_24131" data-name="Path 24131" d="M2458.189,2087.732a22.49,22.49,0,0,0,.009-26.739,43.913,43.913,0,0,1-.009,26.739Z" transform="translate(-2333.558 -1997.267)" fill="#143559"/>
      <g id="Group_6159" data-name="Group 6159" transform="translate(58.261 78.066)">
        <path id="Path_24132" data-name="Path 24132" d="M1575.38,2344.45c.487,0,.964,0,1.431-.009,13.3-.128,23.409-2.008,30.994-4.806,10.32-3.817,15.989-9.331,18.671-14.417,5.48-10.375,1.794-18.493-1.6-23.287" transform="translate(-1565.179 -2301.93)" fill="none" stroke="#143559" stroke-miterlimit="10" stroke-width="2"/>
        <path id="Path_24133" data-name="Path 24133" d="M1420.869,2926.4c-3.215,0-5.822,1.219-5.822,2.727s2.607,2.725,5.822,2.725,5.822-1.219,5.822-2.725S1424.081,2926.4,1420.869,2926.4Z" transform="translate(-1415.047 -2886.67)" fill="#143559"/>
      </g>
    </g>
  </g>
</svg>
