<svg xmlns="http://www.w3.org/2000/svg" xmlns:xlink="http://www.w3.org/1999/xlink" width="287.407" height="285.661" viewBox="0 0 287.407 285.661">
  <defs>
    <filter id="Path_33329" x="0" y="0" width="287.407" height="285.661" filterUnits="userSpaceOnUse">
      <feOffset dx="6" dy="6" input="SourceAlpha"/>
      <feGaussianBlur stdDeviation="3" result="blur"/>
      <feFlood flood-opacity="0.161"/>
      <feComposite operator="in" in2="blur"/>
      <feComposite in="SourceGraphic"/>
    </filter>
  </defs>
  <g id="control" transform="translate(95.895 -46.247)">
    <g id="Group_15185" data-name="Group 15185" transform="translate(-92.395 49.747)">
      <g transform="matrix(1, 0, 0, 1, -3.5, -3.5)" filter="url(#Path_33329)" style="mix-blend-mode: multiply;isolation: isolate">
        <path id="Path_33329-2" data-name="Path 33329" d="M134.2,0c74.119,0,134.2,59.694,134.2,133.331S208.322,266.661,134.2,266.661,0,206.967,0,133.331,60.085,0,134.2,0Z" transform="translate(3.5 3.5)" fill="#143559" stroke="#707070" stroke-linejoin="bevel" stroke-width="1"/>
      </g>
    </g>
    <g id="Group_15194" data-name="Group 15194" transform="translate(-42.536 94.969)">
      <g id="Group_15168" data-name="Group 15168" transform="translate(3.033 0)">
        <g id="Group_15163" data-name="Group 15163" transform="translate(45.668)">
          <path id="Path_48092" data-name="Path 48092" d="M3375.488,3484.827h11.34a5.064,5.064,0,0,1,5.05,5.049v11.34a5.065,5.065,0,0,1-5.05,5.05h-11.34a5.065,5.065,0,0,1-5.05-5.05v-11.34a5.064,5.064,0,0,1,5.05-5.049Z" transform="translate(-3347.339 -3484.827)" fill="#f5f5f5" fill-rule="evenodd"/>
          <path id="Path_48093" data-name="Path 48093" d="M3266.624,3178.079v-4.36H3244.3v-12.725a.8.8,0,0,1-.643-.8.82.82,0,1,1,1.639,0,.8.8,0,0,1-.643.8v12.372h22.318v4.713a.8.8,0,0,1,.644.8.82.82,0,1,1-1.639,0,.8.8,0,0,1,.643-.8Z" transform="translate(-3210.156 -3137.911)" fill="#f5f5f5"/>
          <path id="Path_48094" data-name="Path 48094" d="M3375.488,3484.827h11.34a5.064,5.064,0,0,1,5.05,5.049v11.34a5.065,5.065,0,0,1-5.05,5.05h-11.34a5.065,5.065,0,0,1-5.05-5.05v-11.34a5.064,5.064,0,0,1,5.05-5.049Z" transform="translate(-3323.817 -3443.079)" fill="#f5f5f5" fill-rule="evenodd"/>
          <path id="Path_48095" data-name="Path 48095" d="M3244.658,3178.079v-4.36h22.318v-12.725a.8.8,0,0,0,.644-.8.82.82,0,1,0-1.639,0,.8.8,0,0,0,.643.8v12.372H3244.3v4.713a.8.8,0,0,0-.643.8.82.82,0,1,0,1.639,0,.8.8,0,0,0-.643-.8Z" transform="translate(-3234.208 -3137.911)" fill="#f5f5f5"/>
          <path id="Path_48096" data-name="Path 48096" d="M3375.488,3484.827h11.34a5.064,5.064,0,0,1,5.05,5.049v11.34a5.065,5.065,0,0,1-5.05,5.05h-11.34a5.065,5.065,0,0,1-5.05-5.05v-11.34a5.064,5.064,0,0,1,5.05-5.049Z" transform="translate(-3370.438 -3443.079)" fill="#f5f5f5" fill-rule="evenodd"/>
        </g>
        <g id="Group_15164" data-name="Group 15164" transform="translate(69.614 63.208)">
          <path id="Path_48093-2" data-name="Path 48093" d="M3266.624,3178.079v-4.36H3244.3v-12.725a.8.8,0,0,1-.643-.8.82.82,0,1,1,1.639,0,.8.8,0,0,1-.643.8v12.372h22.318v4.713a.8.8,0,0,1,.644.8.82.82,0,1,1-1.639,0,.8.8,0,0,1,.643-.8Z" transform="translate(-3210.156 -3159.373)" fill="#f5f5f5"/>
          <path id="Path_48094-2" data-name="Path 48094" d="M3375.488,3484.827h11.34a5.064,5.064,0,0,1,5.05,5.049v11.34a5.065,5.065,0,0,1-5.05,5.05h-11.34a5.065,5.065,0,0,1-5.05-5.05v-11.34a5.064,5.064,0,0,1,5.05-5.049Z" transform="translate(-3323.817 -3464.541)" fill="#f5f5f5" fill-rule="evenodd"/>
          <path id="Path_48095-2" data-name="Path 48095" d="M3244.658,3178.079v-4.36h22.318v-12.725a.8.8,0,0,0,.644-.8.82.82,0,1,0-1.639,0,.8.8,0,0,0,.643.8v12.372H3244.3v4.713a.8.8,0,0,0-.643.8.82.82,0,1,0,1.639,0,.8.8,0,0,0-.643-.8Z" transform="translate(-3234.208 -3159.373)" fill="#f5f5f5"/>
          <path id="Path_48096-2" data-name="Path 48096" d="M3375.488,3484.827h11.34a5.064,5.064,0,0,1,5.05,5.049v11.34a5.065,5.065,0,0,1-5.05,5.05h-11.34a5.065,5.065,0,0,1-5.05-5.05v-11.34a5.064,5.064,0,0,1,5.05-5.049Z" transform="translate(-3370.438 -3464.541)" fill="#f5f5f5" fill-rule="evenodd"/>
        </g>
        <g id="Group_15165" data-name="Group 15165" transform="translate(23.416 63.208)">
          <path id="Path_48093-3" data-name="Path 48093" d="M3266.624,3178.079v-4.36H3244.3v-12.725a.8.8,0,0,1-.643-.8.82.82,0,1,1,1.639,0,.8.8,0,0,1-.643.8v12.372h22.318v4.713a.8.8,0,0,1,.644.8.82.82,0,1,1-1.639,0,.8.8,0,0,1,.643-.8Z" transform="translate(-3210.156 -3159.373)" fill="#f5f5f5"/>
          <path id="Path_48095-3" data-name="Path 48095" d="M3244.658,3178.079v-4.36h22.318v-12.725a.8.8,0,0,0,.644-.8.82.82,0,1,0-1.639,0,.8.8,0,0,0,.643.8v12.372H3244.3v4.713a.8.8,0,0,0-.643.8.82.82,0,1,0,1.639,0,.8.8,0,0,0-.643-.8Z" transform="translate(-3234.208 -3159.373)" fill="#f5f5f5"/>
          <path id="Path_48096-3" data-name="Path 48096" d="M3375.488,3484.827h11.34a5.064,5.064,0,0,1,5.05,5.049v11.34a5.065,5.065,0,0,1-5.05,5.05h-11.34a5.065,5.065,0,0,1-5.05-5.05v-11.34a5.064,5.064,0,0,1,5.05-5.049Z" transform="translate(-3370.438 -3464.541)" fill="#f5f5f5" fill-rule="evenodd"/>
        </g>
        <g id="Group_15166" data-name="Group 15166" transform="translate(94.091 104.956)">
          <path id="Path_48093-4" data-name="Path 48093" d="M3266.624,3178.079v-4.36H3244.3v-12.725a.8.8,0,0,1-.643-.8.82.82,0,1,1,1.639,0,.8.8,0,0,1-.643.8v12.372h22.318v4.713a.8.8,0,0,1,.644.8.82.82,0,1,1-1.639,0,.8.8,0,0,1,.643-.8Z" transform="translate(-3210.156 -3159.373)" fill="#f5f5f5"/>
          <path id="Path_48094-3" data-name="Path 48094" d="M3375.488,3484.827h11.34a5.064,5.064,0,0,1,5.05,5.049v11.34a5.065,5.065,0,0,1-5.05,5.05h-11.34a5.065,5.065,0,0,1-5.05-5.05v-11.34a5.064,5.064,0,0,1,5.05-5.049Z" transform="translate(-3323.817 -3464.541)" fill="#f5f5f5" fill-rule="evenodd"/>
          <path id="Path_48095-4" data-name="Path 48095" d="M3244.658,3178.079v-4.36h22.318v-12.725a.8.8,0,0,0,.644-.8.82.82,0,1,0-1.639,0,.8.8,0,0,0,.643.8v12.372H3244.3v4.713a.8.8,0,0,0-.643.8.82.82,0,1,0,1.639,0,.8.8,0,0,0-.643-.8Z" transform="translate(-3234.208 -3159.373)" fill="#f5f5f5"/>
          <path id="Path_48096-4" data-name="Path 48096" d="M3375.488,3484.827h11.34a5.064,5.064,0,0,1,5.05,5.049v11.34a5.065,5.065,0,0,1-5.05,5.05h-11.34a5.065,5.065,0,0,1-5.05-5.05v-11.34a5.064,5.064,0,0,1,5.05-5.049Z" transform="translate(-3370.438 -3464.541)" fill="#f5f5f5" fill-rule="evenodd"/>
        </g>
        <g id="Group_15167" data-name="Group 15167" transform="translate(0 104.956)">
          <path id="Path_48093-5" data-name="Path 48093" d="M3266.624,3178.079v-4.36H3244.3v-12.725a.8.8,0,0,1-.643-.8.82.82,0,1,1,1.639,0,.8.8,0,0,1-.643.8v12.372h22.318v4.713a.8.8,0,0,1,.644.8.82.82,0,1,1-1.639,0,.8.8,0,0,1,.643-.8Z" transform="translate(-3210.156 -3159.373)" fill="#f5f5f5"/>
          <path id="Path_48094-4" data-name="Path 48094" d="M3375.488,3484.827h11.34a5.064,5.064,0,0,1,5.05,5.049v11.34a5.065,5.065,0,0,1-5.05,5.05h-11.34a5.065,5.065,0,0,1-5.05-5.05v-11.34a5.064,5.064,0,0,1,5.05-5.049Z" transform="translate(-3323.817 -3464.541)" fill="#f5f5f5" fill-rule="evenodd"/>
          <path id="Path_48095-5" data-name="Path 48095" d="M3244.658,3178.079v-4.36h22.318v-12.725a.8.8,0,0,0,.644-.8.82.82,0,1,0-1.639,0,.8.8,0,0,0,.643.8v12.372H3244.3v4.713a.8.8,0,0,0-.643.8.82.82,0,1,0,1.639,0,.8.8,0,0,0-.643-.8Z" transform="translate(-3234.208 -3159.373)" fill="#f5f5f5"/>
          <path id="Path_48096-5" data-name="Path 48096" d="M3375.488,3484.827h11.34a5.064,5.064,0,0,1,5.05,5.049v11.34a5.065,5.065,0,0,1-5.05,5.05h-11.34a5.065,5.065,0,0,1-5.05-5.05v-11.34a5.064,5.064,0,0,1,5.05-5.049Z" transform="translate(-3370.438 -3464.541)" fill="#f5f5f5" fill-rule="evenodd"/>
        </g>
      </g>
      <text id="Question" transform="translate(69.536 7.031)" fill="#123050" font-size="2" font-family="SegoeUI, Segoe UI"><tspan x="8.5" y="2">Question</tspan></text>
      <text id="Answer" transform="translate(94.536 50.031)" fill="#123050" font-size="2" font-family="SegoeUI, Segoe UI"><tspan x="9.271" y="2">Answer</tspan></text>
      <text id="Answer-2" data-name="Answer" transform="translate(46.536 50.031)" fill="#123050" font-size="2" font-family="SegoeUI, Segoe UI"><tspan x="9.271" y="2">Answer</tspan></text>
      <text id="Question-2" data-name="Question" transform="translate(117.536 91.031)" fill="#123050" font-size="2" font-family="SegoeUI, Segoe UI"><tspan x="8.5" y="2">Question</tspan></text>
      <text id="Question-3" data-name="Question" transform="translate(24.536 91.031)" fill="#123050" font-size="2" font-family="SegoeUI, Segoe UI"><tspan x="8.5" y="2">Question</tspan></text>
      <text id="Answer-3" data-name="Answer" transform="translate(69.536 91.031)" fill="#123050" font-size="2" font-family="SegoeUI, Segoe UI"><tspan x="9.271" y="2">Answer</tspan></text>
      <text id="Answer-4" data-name="Answer" transform="translate(142.536 135.031)" fill="#123050" font-size="2" font-family="SegoeUI, Segoe UI"><tspan x="9.271" y="2">Answer</tspan></text>
      <text id="Answer-5" data-name="Answer" transform="translate(94.536 135.031)" fill="#123050" font-size="2" font-family="SegoeUI, Segoe UI"><tspan x="9.271" y="2">Answer</tspan></text>
      <text id="Answer-6" data-name="Answer" transform="translate(47.536 135.031)" fill="#123050" font-size="2" font-family="SegoeUI, Segoe UI"><tspan x="9.271" y="2">Answer</tspan></text>
      <text id="Answer-7" data-name="Answer" transform="translate(-0.464 135.031)" fill="#123050" font-size="2" font-family="SegoeUI, Segoe UI"><tspan x="9.271" y="2">Answer</tspan></text>
    </g>
  </g>
</svg>
