<svg xmlns="http://www.w3.org/2000/svg" width="268.407" height="266.661" viewBox="0 0 268.407 266.661">
  <g id="multi_lang" transform="translate(-775.38 -434.698)">
    <g id="Group_15184" data-name="Group 15184" transform="translate(775.38 434.698)">
      <path id="Path_33329" data-name="Path 33329" d="M134.2,0c74.119,0,134.2,59.694,134.2,133.331S208.322,266.661,134.2,266.661,0,206.967,0,133.331,60.085,0,134.2,0Z" transform="translate(0 0)" fill="#143559" style="mix-blend-mode: multiply;isolation: isolate"/>
    </g>
    <g id="Group_15193" data-name="Group 15193" transform="translate(826.661 510.317)">
      <path id="Path_34031" data-name="Path 34031" d="M287.748,193.734c8.8,0,15.2-12.8,17.2-23.208s1-27.206-17.2-27.206-19.207,16.8-17.2,27.206S278.946,193.734,287.748,193.734Z" transform="translate(-226.176 -129.237)" fill="#fff"/>
      <path id="Path_34032" data-name="Path 34032" d="M272.45,161.46a40.679,40.679,0,0,1-.684-5.665l-.052-.135c-1.165-1.5-5.866-2.1-3.767,5.6s4.978,9.174,6.141,6.387h0A48.086,48.086,0,0,1,272.45,161.46Z" transform="translate(-228.08 -120.17)" fill="#fff"/>
      <path id="Path_34033" data-name="Path 34033" d="M290.072,161.46a41.219,41.219,0,0,0,.682-5.665c.032-.083.05-.135.05-.135,1.168-1.5,5.868-2.1,3.769,5.6s-4.98,9.174-6.138,6.387h0A47.751,47.751,0,0,0,290.072,161.46Z" transform="translate(-211.377 -120.17)" fill="#fff"/>
      <path id="Path_34034" data-name="Path 34034" d="M283.437,172.508c-3.053,0-5.813-1.542-8.2-3.984v16.485h16.406V168.524C289.25,170.966,286.49,172.508,283.437,172.508Z" transform="translate(-221.865 -109.211)" fill="#fff"/>
      <path id="Path_34035" data-name="Path 34035" d="M297.008,170.527c2-10.4,1-27.206-17.2-27.206v50.413C288.608,193.733,295.009,180.93,297.008,170.527Z" transform="translate(-218.233 -129.237)" fill="#fff"/>
      <path id="Path_34036" data-name="Path 34036" d="M296.69,147.166c0,3.232-5.238,5.85-11.7,5.85s-11.7-2.618-11.7-5.85,5.237-5.852,11.7-5.852S296.69,143.934,296.69,147.166Z" transform="translate(-223.415 -130.832)" fill="#fff"/>
      <path id="Path_34037" data-name="Path 34037" d="M277.481,144.369c-2.735-1.662-10.741,1.3-8.736,18.928,0,0,2.137-.983,2.568,4.718h1.638s-.416-18.228,6.391-19.315Z" transform="translate(-227.276 -128.724)" fill="#fff"/>
      <g id="Group_6618" data-name="Group 6618" transform="translate(80.462 14.026)">
        <rect id="Rectangle_4073" data-name="Rectangle 4073" width="34.998" height="32.894" transform="translate(13.855 28.102)" fill="#fff"/>
        <path id="Path_34038" data-name="Path 34038" d="M314.284,187.594c7.126,0,12.313-10.373,13.933-18.8s.811-22.039-13.933-22.039S298.725,160.37,300.347,168.8,307.149,187.594,314.284,187.594Z" transform="translate(-282.846 -140.532)" fill="#fff"/>
        <path id="Path_34039" data-name="Path 34039" d="M301.889,161.453a33.46,33.46,0,0,1-.554-4.591c-.022-.068-.04-.109-.04-.109-.944-1.215-4.752-1.7-3.051,4.537s4.031,7.433,4.975,5.176h0A38.869,38.869,0,0,1,301.889,161.453Z" transform="translate(-284.388 -133.188)" fill="#fff"/>
        <path id="Path_34040" data-name="Path 34040" d="M316.167,161.453a33.737,33.737,0,0,0,.555-4.591.914.914,0,0,1,.041-.109c.942-1.215,4.752-1.7,3.049,4.537s-4.034,7.433-4.975,5.176h0A38.6,38.6,0,0,0,316.167,161.453Z" transform="translate(-270.861 -133.188)" fill="#fff"/>
        <path id="Path_34041" data-name="Path 34041" d="M310.792,170.4a9.4,9.4,0,0,1-6.645-3.227v13.353h13.287V167.173A9.389,9.389,0,0,1,310.792,170.4Z" transform="translate(-279.355 -124.311)" fill="#fff"/>
        <path id="Path_34042" data-name="Path 34042" d="M321.783,168.8c1.622-8.427.811-22.039-13.933-22.039v40.836C314.976,187.594,320.163,177.221,321.783,168.8Z" transform="translate(-276.412 -140.532)" fill="#fff"/>
        <path id="Path_34043" data-name="Path 34043" d="M327.792,162.394c-2.674,4.187-10.313,4.09-17.058-.219s-10.046-11.2-7.369-15.385,11.117-4.9,17.867-.592S330.466,158.206,327.792,162.394Z" transform="translate(-280.715 -143.289)" fill="#fff"/>
        <path id="Path_34044" data-name="Path 34044" d="M306.305,145.862c-2.214-1.346-11.4,4.115-7.011,18.362,0,0,1.735-.8,2.085,3.821h1.326s-.339-14.762,5.176-15.645Z" transform="translate(-284.144 -141.402)" fill="#fff"/>
        <path id="Path_34045" data-name="Path 34045" d="M313.664,147.662c2.213-1.346,9.438-.576,7.071,15.331,0,0-1.728-.8-2.08,3.821h-1.324s.336-14.762-5.174-15.645Z" transform="translate(-272.99 -140.171)" fill="#fff"/>
        <path id="Path_34046" data-name="Path 34046" d="M324.624,175.283l-4.942-2.836-6.668,1.992-6.677-1.992-4.944,2.836,11.588,29.733h.056Z" transform="translate(-281.543 -120.12)" fill="#fff"/>
        <path id="Path_34047" data-name="Path 34047" d="M310.181,174.027l-14.255,4.862-5.594,27.142h31.546l-.016-5.35Z" transform="translate(-290.332 -118.865)" fill="#fff"/>
        <path id="Path_34048" data-name="Path 34048" d="M295.926,176.737l1.618,27.142h-7.212Z" transform="translate(-290.332 -116.712)" fill="#fff"/>
        <path id="Path_34049" data-name="Path 34049" d="M319.517,174.027l14.257,4.862,5.591,27.142H307.82l.018-5.35Z" transform="translate(-276.436 -118.865)" fill="#fff"/>
        <path id="Path_34050" data-name="Path 34050" d="M334.976,176.474l-7.175-2.447L316.185,200.54l-11.616-26.512-7.175,2.447,6.164,9.842,2.794.108L305.87,190l10.037,16.023h.559L326.5,190l-.484-3.578,2.792-.108Z" transform="translate(-284.72 -118.865)" fill="#fff"/>
        <path id="Path_34051" data-name="Path 34051" d="M323,176.737l-1.617,27.142h7.208Z" transform="translate(-265.661 -116.712)" fill="#fff"/>
        <path id="Path_34052" data-name="Path 34052" d="M312.98,175.873l-7.7-5.138-3.887,5.623,7.212,7.7Z" transform="translate(-281.543 -121.48)" fill="#fff"/>
        <path id="Path_34053" data-name="Path 34053" d="M307.881,175.873l7.7-5.138,3.887,5.623-7.215,7.7Z" transform="translate(-276.388 -121.48)" fill="#fff"/>
        <path id="Path_34054" data-name="Path 34054" d="M317.434,167.715a8.453,8.453,0,0,1-13.287,0v1.931a8.456,8.456,0,0,0,13.287,0Z" transform="translate(-279.355 -123.88)" fill="#fff"/>
      </g>
      <path id="Path_34055" data-name="Path 34055" d="M286.987,144.369c2.731-1.662,10.734,1.3,8.733,18.928,0,0-2.139-.983-2.568,4.718H291.51s.418-18.228-6.387-19.315Z" transform="translate(-214.009 -128.724)" fill="#fff"/>
      <path id="Path_34056" data-name="Path 34056" d="M300.512,178.537l-6.1-3.5-8.231,2.46-8.244-2.46-6.1,3.5,14.3,36.71h.07Z" transform="translate(-224.566 -104.037)" fill="#fff"/>
      <path id="Path_34057" data-name="Path 34057" d="M282.688,176.986l-17.606,6-6.9,33.5h38.941l-.016-6.6Z" transform="translate(-235.417 -102.487)" fill="#fff"/>
      <path id="Path_34058" data-name="Path 34058" d="M285.221,201.328l-3.568,7.8-3.837-7.8v-17.2a2.4,2.4,0,0,1,2.4-2.4h2.6a2.4,2.4,0,0,1,2.4,2.4Z" transform="translate(-219.814 -98.724)" fill="#fff"/>
      <rect id="Rectangle_4074" data-name="Rectangle 4074" width="7.136" height="7.202" rx="0.669" transform="translate(58.137 75.799)" fill="#fff"/>
      <path id="Path_34059" data-name="Path 34059" d="M265.082,180.331l2,33.5h-8.9Z" transform="translate(-235.417 -99.829)" fill="#fff"/>
      <path id="Path_34060" data-name="Path 34060" d="M294.207,176.986l17.6,6,6.9,33.5H279.771l.018-6.6Z" transform="translate(-218.261 -102.487)" fill="#fff"/>
      <path id="Path_34061" data-name="Path 34061" d="M313.3,180.007l-8.861-3.02L290.1,209.713l-14.338-32.727-8.863,3.02,7.613,12.152,3.447.131-.6,4.419,12.392,19.781h.689l12.392-19.781-.6-4.419,3.451-.131Z" transform="translate(-228.49 -102.487)" fill="#fff"/>
      <path id="Path_34062" data-name="Path 34062" d="M298.51,180.331l-2,33.5h8.9Z" transform="translate(-204.96 -99.829)" fill="#fff"/>
      <path id="Path_34063" data-name="Path 34063" d="M286.138,179.266l-9.506-6.343-4.795,6.943,8.9,9.5Z" transform="translate(-224.566 -105.716)" fill="#fff"/>
      <path id="Path_34064" data-name="Path 34064" d="M279.845,179.266l9.508-6.343,4.8,6.943-8.9,9.5Z" transform="translate(-218.203 -105.716)" fill="#fff"/>
      <path id="Path_34065" data-name="Path 34065" d="M291.642,169.193c-2.392,2.442-5.152,3.984-8.2,3.984s-5.813-1.541-8.2-3.984v2.383c2.389,2.442,5.149,3.982,8.2,3.982s5.813-1.54,8.2-3.982Z" transform="translate(-221.865 -108.68)" fill="#fff"/>
      <path id="Path_34066" data-name="Path 34066" d="M353.192,149.36c0-7.579-7.738-13.721-17.285-13.721s-17.284,6.143-17.284,13.721c0,6,4.867,11.094,11.634,12.953l-.068-.007-8.056,11.979L337,163.049l-.1-.011C345.983,162.626,353.192,156.668,353.192,149.36Z" transform="translate(-187.39 -135.341)" fill="#fff"/>
      <path id="Path_34067" data-name="Path 34067" d="M245.5,150.716c0-8.42,8.6-15.243,19.2-15.243S283.9,142.3,283.9,150.716c0,6.672-5.405,12.329-12.926,14.394l.075-.009,8.953,13.312-16.523-12.485.109-.013C253.5,165.459,245.5,158.839,245.5,150.716Z" transform="translate(-245.496 -135.473)" fill="#fff"/>
      <g id="Group_6619" data-name="Group 6619" transform="translate(6.963 7.661)">
        <path id="Path_34068" data-name="Path 34068" d="M255.928,150.061h1.009l-.285-1.328h-2.27l-.266,1.328h1v2.755h-5.744v-2.755h.669l2.843-10.319H259l2.839,10.319h.673v2.755h-6.588Zm-1.175-3.11H256.3l-.689-3.361h-.169Z" transform="translate(-249.376 -139.742)" fill="#fff"/>
        <path id="Path_34069" data-name="Path 34069" d="M262.879,150.126a4.014,4.014,0,0,1-.4.445,2.849,2.849,0,0,1-.614.445,4.152,4.152,0,0,1-.84.345,3.8,3.8,0,0,1-1.084.142,3.515,3.515,0,0,1-2.285-.671,2.369,2.369,0,0,1-.824-1.949,2.6,2.6,0,0,1,1.486-2.412,9.843,9.843,0,0,1,4.564-.815.88.88,0,0,0-.3-.721,2.086,2.086,0,0,0-1.242-.253,13.8,13.8,0,0,0-2.026.151q-1.017.153-1.874.336v-2.891a17.578,17.578,0,0,1,2.1-.409,18.03,18.03,0,0,1,2.555-.178,8.423,8.423,0,0,1,2.242.253,3.344,3.344,0,0,1,1.437.765,2.764,2.764,0,0,1,.754,1.276,6.423,6.423,0,0,1,.221,1.773v2.757h.739v2.755h-4.6Zm0-2.791a5.527,5.527,0,0,0-1.5.144c-.3.1-.454.26-.454.5,0,.359.31.538.926.538q1.026,0,1.025-1.077Z" transform="translate(-243.454 -138.194)" fill="#fff"/>
      </g>
      <g id="Group_6620" data-name="Group 6620" transform="translate(138.623 4.865)">
        <path id="Path_34070" data-name="Path 34070" d="M330.822,148.943a4.183,4.183,0,0,1-1.376,3.4,4.7,4.7,0,0,1-3.137,1,5.312,5.312,0,0,1-1.482-.194,3.155,3.155,0,0,1-1.123-.558,2.518,2.518,0,0,1-.711-.881,2.625,2.625,0,0,1-.251-1.161,7.085,7.085,0,0,1,1.777-4.269l.244.23a4.635,4.635,0,0,0-.974,2.349,1.678,1.678,0,0,0,.79,1.418,3.45,3.45,0,0,0,2.048.56,5.662,5.662,0,0,0,1.418-.165,5.812,5.812,0,0,0,1.276-.494,1.48,1.48,0,0,0,.815-1.42,22.265,22.265,0,0,0-.772-5.7q-.388-1.475-.544-2.3a7.516,7.516,0,0,1-.158-1.025,1.979,1.979,0,0,1,.973-1.547,9.516,9.516,0,0,0,.581.881,6.388,6.388,0,0,0,.594.694,1.9,1.9,0,0,0-.615,1.389c0,.135.025.445.077.931s.133,1.161.237,2.021.185,1.689.239,2.486S330.822,148.169,330.822,148.943Zm3.683,1.563a1.466,1.466,0,0,1-1.405-.845,3.479,3.479,0,0,1-.273-1.075q-.083-.7-.158-1.619-.1-1.176-.214-2.085t-.242-1.554a10.267,10.267,0,0,1-.2-1.289,1.457,1.457,0,0,1,.215-.689,6.263,6.263,0,0,1,.745-.989c.163.985.3,2.017.411,3.1s.2,2.22.264,3.422q.073,1.405.86,1.405h1.4q1.5,0,1.5-.486c0-.126-.122-.31-.371-.558a1.019,1.019,0,0,1-.371-.66,10.555,10.555,0,0,1,.944-2.222,6.96,6.96,0,0,1,.743,2.837,5.008,5.008,0,0,1-.169,1.367,3.11,3.11,0,0,1-.5,1.039,2.248,2.248,0,0,1-.772.668,2.136,2.136,0,0,1-1.01.237Zm2.907,2.019-.8,1.332-1.235-.872-.615,1.116-1.332-.989.815-1.319,1.19.962.745-1.2Z" transform="translate(-322.741 -138.184)" fill="#fff"/>
      </g>
    </g>
  </g>
</svg>
