<svg xmlns="http://www.w3.org/2000/svg" width="272.504" height="270.738" viewBox="0 0 272.504 270.738">
  <g id="nlp" transform="translate(-353.216 -419.198)">
    <g id="Group_15183" data-name="Group 15183" transform="translate(353.716 419.698)">
      <path id="Path_33329" data-name="Path 33329" d="M135.752,0C210.726,0,271.5,60.383,271.5,134.869S210.726,269.738,135.752,269.738,0,209.355,0,134.869,60.778,0,135.752,0Z" transform="translate(0 0)" fill="#143559" stroke="#707070" stroke-width="1" style="mix-blend-mode: multiply;isolation: isolate"/>
    </g>
    <g id="Group_15192" data-name="Group 15192" transform="translate(409.723 469.053)">
      <g id="Group_41" data-name="Group 41" transform="translate(80.33 0)">
        <g id="Group_40" data-name="Group 40">
          <path id="Path_224" data-name="Path 224" d="M-660.766,84.4a7.159,7.159,0,0,1,5.389-2.243,19.47,19.47,0,0,1,9.035,2.274,13.746,13.746,0,0,1,9.687-.619,20.891,20.891,0,0,1,8.109,5.222,47.92,47.92,0,0,1,3.845,4.338c.286.414.827.433,1.263.586a22.277,22.277,0,0,1,9.35,4.989,12.878,12.878,0,0,1,3.832,7.107.911.911,0,0,1-1.413.895c-.511-.37-.564-1.041-.692-1.606q-5.269,0-10.538,0a2.692,2.692,0,0,1-.634,1.285,3.114,3.114,0,0,1-1.389.673c-.027.239-.054.477-.085.716-.2.037-.4.078-.595.119-.007-.281-.009-.562-.012-.844a3.737,3.737,0,0,1-1.235-.692,4.951,4.951,0,0,1-.691-1.225c-.485-.066-.977-.027-1.462-.051l-.019-.189.491-.165a3.8,3.8,0,0,1,1.051-.084,2.669,2.669,0,0,1,1.87-1.732c.012-1.865-.01-3.731.01-5.6q.325.015.654.036c-.017,1.841,0,3.68-.007,5.519a2.587,2.587,0,0,1,2.033,1.783c3.467,0,6.933.005,10.4-.005a11.512,11.512,0,0,0-4.094-5.808,23.143,23.143,0,0,0-8.406-3.835,2.1,2.1,0,0,1-1.205-.869,35.492,35.492,0,0,0-6.507-6.615,14.505,14.505,0,0,0-5.933-2.732,11.928,11.928,0,0,0-7.029.973c-.309.106-.629.409-.949.174a21.489,21.489,0,0,0-7.54-2.407,6.458,6.458,0,0,0-4.644,1.2,4.02,4.02,0,0,0-1.282,3.845,6.791,6.791,0,0,0,1.542,3.129,11.094,11.094,0,0,1,1.356,2.2c.465,0,.932,0,1.4-.007.946-1.406,1.873-2.827,2.848-4.213,1.1-.123,2.222.044,3.327-.073a1.516,1.516,0,0,1,1.5.031.809.809,0,0,1-.76,1.246c-.484.041-.688-.472-1.052-.68a16.872,16.872,0,0,0-2.674.049c-.944,1.386-1.871,2.783-2.812,4.171-.5.012-1,.012-1.505.026a4.381,4.381,0,0,0,.585,1.52c1.462.051,2.928-.014,4.39.022.708-.085.913.716,1.258,1.167a13.731,13.731,0,0,0,2.323.07c.556,0,1.045-.482,1.61-.283a.748.748,0,0,1,.213,1.234c-.5.447-1.125-.048-1.66-.138-1.006-.055-2.013.015-3.017-.034-.3-.392-.484-.922-.919-1.178-2.108-.046-4.22-.009-6.328-.015a7.247,7.247,0,0,0-1.244-3.618,9.73,9.73,0,0,1-2.236-4.179A5.543,5.543,0,0,1-660.766,84.4Zm34.334,20.459c.274.022.552.041.83.056-.009-.269-.015-.539-.026-.806A4.652,4.652,0,0,0-626.432,104.862Zm1.5-.765c-.014.269-.022.539-.031.808.331,0,.663-.01,1-.022A1.827,1.827,0,0,0-624.934,104.1Zm-1.51,1.27a1.713,1.713,0,0,0,.822.97c.008-.334.015-.668.02-1Q-626.027,105.346-626.444,105.366Zm1.5-.036c-.007.348-.007.7.005,1.045a1.446,1.446,0,0,0,1-1.023C-624.276,105.342-624.61,105.337-624.943,105.33Z" transform="translate(662.097 -82.147)" fill="#fff"/>
        </g>
      </g>
      <g id="Group_44" data-name="Group 44" transform="translate(0 4.445)">
        <g id="Group_42" data-name="Group 42" transform="translate(11.068)">
          <path id="Path_225" data-name="Path 225" d="M-1021.1,109.435a14.646,14.646,0,0,1,7.359-1.077,5.34,5.34,0,0,1,3.622,2.277,4.965,4.965,0,0,1,.2,4.665c-.678,1.7-2.164,2.87-2.994,4.477a10.226,10.226,0,0,0-3.757-1.534,18.7,18.7,0,0,1,4.718,6.337,28.312,28.312,0,0,1,2.127,9.687c.12,3.809-.227,7.78-1.972,11.23-.084.392-.518.247-.8.237a34.155,34.155,0,0,1-4.922-1.048c-.647-.175-1.275-.418-1.937-.54,1.531,1.841,3.822,2.768,5.981,3.64.146.438.031.924.152,1.374a4.726,4.726,0,0,0,1.88,2.526c.61.523,1.367,1.13,1.344,2.016.009,1.319-.987,2.333-1.769,3.289a4.262,4.262,0,0,0-1,3.992,9.027,9.027,0,0,0,2.437,3.666,9.848,9.848,0,0,1,1.107,4.208,13.815,13.815,0,0,1-1.376,6.538l-.184.242a87.692,87.692,0,0,0-9.48-2.51,12.508,12.508,0,0,0-2.359-7.779,17.006,17.006,0,0,1-2.515-3.286,4.657,4.657,0,0,1,.54-4.949,8.4,8.4,0,0,0,2.139-5.633,10.444,10.444,0,0,0-1.12-3.383,3.128,3.128,0,0,1,.028-2.555,11.419,11.419,0,0,1,2.247-3.03,45.335,45.335,0,0,0,5.426-6.165c-2.851,1.894-5.957,3.48-8.421,5.9a13.228,13.228,0,0,0-2.693,3.727,9.207,9.207,0,0,0-5.473.032,21.162,21.162,0,0,1,4.244,2.616,3.3,3.3,0,0,1,1.058,3.037c-.479,2.2-2.068,3.934-2.776,6.047a7.2,7.2,0,0,0,.061,5.011c.9,2.3,3.124,3.828,3.84,6.221.268.625-.3,1.164-.5,1.725a14.522,14.522,0,0,0-.225,11.636c.265-.111.309-.429.44-.651a9.771,9.771,0,0,1,3.887-4.806,5.512,5.512,0,0,1,4.791-.111,16.845,16.845,0,0,1,6.069,4.842,35.343,35.343,0,0,1,3.446,4.91,7.3,7.3,0,0,1,.68,2.078,35.839,35.839,0,0,1,.878,11.767c-.646-.571-1.193-1.237-1.822-1.825a45.424,45.424,0,0,0-8.8-6.194c-.439-.2-.328-.726-.336-1.116a10.119,10.119,0,0,1,1.389-3.946,19.749,19.749,0,0,1-6.512,2.538,8.543,8.543,0,0,1-4.4-.4,34.046,34.046,0,0,1-8.581-5.231c-2.229-1.924-4.237-4.377-4.808-7.335a10.149,10.149,0,0,1,1.043-6.216,26.418,26.418,0,0,0,2.627-7.864,21.725,21.725,0,0,0-1.6-10.267c-.528-1.435-1.259-2.926-.939-4.5a6.6,6.6,0,0,1,2.017-2.533c2.357-2.12,4.8-4.443,5.759-7.564.462-1.542.838-3.25,2.053-4.4a13.363,13.363,0,0,0,3.438-2.359,30.574,30.574,0,0,0,3.359-4.312,3,3,0,0,1,2.337-1.474c1.584.153,2.729,1.365,3.948,2.253a9.369,9.369,0,0,0-2.928-3.018,3.113,3.113,0,0,0-3.134-.112,7.066,7.066,0,0,0-2.086,2.025,12.061,12.061,0,0,1-4.271,3.545,17.669,17.669,0,0,1-2.639.948c-1.247-1.193-2.5-2.73-2.4-4.559.3-2.112,1.953-3.612,3.073-5.312a5.684,5.684,0,0,0,1.149-3.547,5.79,5.79,0,0,0-1.222-3c-.094.639-.086,1.288-.185,1.926a9.122,9.122,0,0,1-2.014,3.886,34.561,34.561,0,0,0-3.219,3.932,4.345,4.345,0,0,0-.142,4.036A15.4,15.4,0,0,1-1035,135.97a6.633,6.633,0,0,1-1.239,3.136,20.907,20.907,0,0,1-4.174,3.828,16.341,16.341,0,0,0-3.018,3.024,16.185,16.185,0,0,0-5.649-1.677,3.227,3.227,0,0,0-2.846,1.1,11.052,11.052,0,0,1,7.857,3.451c.156.672.161,1.37.326,2.042.416,2.117,1.563,3.981,2.233,6.011a6.947,6.947,0,0,1,.022,4.605c-.86,2.9-2.258,5.609-3.236,8.471a11.526,11.526,0,0,0-.39,6.821,14.871,14.871,0,0,0,2.468,4.733c.214.235-.216.353-.375.4a1.248,1.248,0,0,1-.876-.165,49.332,49.332,0,0,1-9.592-5.081,3.455,3.455,0,0,1-1.227-2.045,1.116,1.116,0,0,1,.568-1.289c.915-.53,2.028-.69,2.824-1.43a5.183,5.183,0,0,0-3.817.118,15.626,15.626,0,0,1-2.633,1.132,3.871,3.871,0,0,1-1.646-.1c.582.825,1.7.9,2.373,1.611.022.148.068.447.092.6a14.126,14.126,0,0,1-7.807-4.36,13.832,13.832,0,0,1-3.627-6.894,5.429,5.429,0,0,1,.849-4.237,4.558,4.558,0,0,1,3.895-1.442c.607,2.879,1.656,5.924,4.1,7.753-.37-2.354-1.094-4.689-.913-7.1a7.094,7.094,0,0,1,1.561-4.034,4.1,4.1,0,0,0,1.064-2.625,5.651,5.651,0,0,0-.818-2.87,2.8,2.8,0,0,1-.29-1.56,9.617,9.617,0,0,1,3.685-6.862,10.814,10.814,0,0,1,3.065-1.508c2.555-.968,5.256-1.588,7.678-2.884a4.061,4.061,0,0,0,2.3-2.5,33.3,33.3,0,0,1-9.42,2.885,14.862,14.862,0,0,1-2.569.022,1.926,1.926,0,0,1-1.678-1.111,2.631,2.631,0,0,1,.564-2.456,6.864,6.864,0,0,1,3.14-1.643,33.144,33.144,0,0,0,6.746-2.292,6.806,6.806,0,0,0,3.316-3.882c.82-2.558.244-5.285-.436-7.8-.167-.46.288-.76.534-1.075,2.594-2.977,5.665-5.781,9.5-7a11.743,11.743,0,0,1,5.383-.366c1.266,2.632,3.679,4.413,5.349,6.753a4.166,4.166,0,0,1,.81,3.77,8.013,8.013,0,0,1-2.221,2.908,13.689,13.689,0,0,0,3.236-1.561,4.426,4.426,0,0,0,1.955-2.47,4.725,4.725,0,0,0-.427-2.949c-.739-1.655-1.828-3.139-2.448-4.852A4.551,4.551,0,0,1-1021.1,109.435Zm-32.911,45.642a10.361,10.361,0,0,1,1.328,3.421c.46,2.5-.787,4.958-.327,7.458a8.035,8.035,0,0,0,2.883,4.266c-.053-.624-.191-1.239-.2-1.865a44.081,44.081,0,0,1,.912-5.8,7.018,7.018,0,0,0-.429-4.862A6.564,6.564,0,0,0-1054.012,155.077Z" transform="translate(1068.481 -108.23)" fill="#fff"/>
        </g>
        <path id="Path_226" data-name="Path 226" d="M-997.968,179.549a20.735,20.735,0,0,1,6.826-3.489c.4,1.544,1.261,3.087.877,4.73a5.443,5.443,0,0,1-3.349,3.637,28.226,28.226,0,0,1-8.636,1.953A11.953,11.953,0,0,1-997.968,179.549Z" transform="translate(1024.606 -164.499)" fill="#fff"/>
        <path id="Path_227" data-name="Path 227" d="M-1068.71,250.543a12.3,12.3,0,0,1,1.929-2.113,15.842,15.842,0,0,1,.351,4.537,14.064,14.064,0,0,1-1.423,4.895,22.892,22.892,0,0,0-1.854,4.121,9.724,9.724,0,0,0-.23,3.548c.177,1.053.616,2.178.189,3.228a6.213,6.213,0,0,1-3.719,2.771,14.882,14.882,0,0,1-4.446.673,13.315,13.315,0,0,1,.24-5.94,14.768,14.768,0,0,1,3.014-4.8,13.338,13.338,0,0,0,2.575-4.4A22.077,22.077,0,0,1-1068.71,250.543Z" transform="translate(1087.553 -224.535)" fill="#fff"/>
        <g id="Group_43" data-name="Group 43" transform="translate(0 54.275)">
          <path id="Path_228" data-name="Path 228" d="M-1128.383,430.609a28.466,28.466,0,0,1,2.3-3.929,18.77,18.77,0,0,0,3.923,9.03c.81.97,1.747,2.183,1.362,3.53-.483,1.137-1.795,1.469-2.807,1.967a10.085,10.085,0,0,0-5.057,4.281c.726-.193,1.42-.487,2.132-.726a41.306,41.306,0,0,1,13.515-2.255c1.4.784,2.76,1.647,4.212,2.339a32.377,32.377,0,0,0,9.25,2.986,17.308,17.308,0,0,0-2.76,4.859c1.884-.6,3.641-1.546,5.552-2.072a13.61,13.61,0,0,1,4.378-.595,1.339,1.339,0,0,1,.908.343,35.192,35.192,0,0,0,9.127,5.2,3.611,3.611,0,0,1,2.2,1.711c.251.586-.317,1.108-.8,1.333a27.691,27.691,0,0,0-5.689,3.53,9.361,9.361,0,0,0-3.243,4.435,5.113,5.113,0,0,0,1.031,4.554,5.807,5.807,0,0,1,.411-2.1,5.944,5.944,0,0,1,2.372-2.236c2.315-1.341,4.853-2.291,7.031-3.866a13.932,13.932,0,0,0,3.276-3.207,2.365,2.365,0,0,1,1.949-1.191,6.729,6.729,0,0,1,3.734,1.793,30.914,30.914,0,0,1,5.3,6.461c.915,1.43,1.795,2.885,2.6,4.378a12.247,12.247,0,0,1,.861,2.659,33.033,33.033,0,0,1,1.234,8.643,14.379,14.379,0,0,1-2.717,8.791,7.019,7.019,0,0,1-2.7-.268c-3.146-1.007-5.868-3.047-9.083-3.874a7.477,7.477,0,0,0-5.414.379,12.051,12.051,0,0,1,5.135.968c2.764,1.212,4.816,3.525,7.386,5.05a12.019,12.019,0,0,0,4.52,1.609,71.64,71.64,0,0,0,1.426,7.393,18.951,18.951,0,0,1,.6,6.207,6.043,6.043,0,0,1-1.083,2.766c-4.785-2.58-10.176-3.595-15.3-5.273a39.325,39.325,0,0,1-5.493-2.293c-.046,1.432,1.115,2.482,2.181,3.25a40.709,40.709,0,0,0,7.111,3.622c2.542,1.094,5.107,2.134,7.634,3.259a4.937,4.937,0,0,1,2.548,2.236,1.667,1.667,0,0,1-.437,1.953,7.545,7.545,0,0,1-2.779,1.468,31.513,31.513,0,0,1-8.454,1.268,32.065,32.065,0,0,1-3.962-.072,20.168,20.168,0,0,1-4.785-.842,6.131,6.131,0,0,0,3.931,3.056c2.9.84,5.943.283,8.891.68a3.375,3.375,0,0,1,2.906,1.769c.549,1.229.167,2.584.022,3.854a7.277,7.277,0,0,0,2.853-4.06,7.243,7.243,0,0,0-.136-2.487c1.406-.648,2.818-1.277,4.22-1.931-.1,1.156.259,2.291.17,3.45a5,5,0,0,1-2.175,4.443c-.45.366-1.081.489-1.484.893a11.768,11.768,0,0,1-.876,5.428,6.353,6.353,0,0,1-4.2,3.613,5.532,5.532,0,0,1-4.388-.748,21.747,21.747,0,0,0,1.616-5.447c.111-1.29.129-2.807-.886-3.77a3.182,3.182,0,0,0-2.814-.545,20.558,20.558,0,0,1-6.685.022,44.711,44.711,0,0,1-4.682-.747c2.786,1.786,5.99,3.31,9.388,3.022a8,8,0,0,1,2.057-.07,1.372,1.372,0,0,1,1.089,1.1,15.385,15.385,0,0,1-.637,5.512c-4.323-.281-8.74-1.025-12.579-3.134a16.283,16.283,0,0,1-6.481-6.311,2.53,2.53,0,0,0,1.089-2.066,14.262,14.262,0,0,0-1.554-4.131,9.362,9.362,0,0,1-1.03-6.567,45.931,45.931,0,0,0,8.726-.24c1.975-.21,3.918-.692,5.907-.777a18.545,18.545,0,0,1,5.879.544,6.1,6.1,0,0,0-4.031-2.567c-5.244-1.152-10.681-.066-15.936-1.118a22.812,22.812,0,0,1-7.069-3.521,8.513,8.513,0,0,1-3.359-3.959,2.763,2.763,0,0,1,1.124-2.937c1.8-1.559,3.7-3.429,3.943-5.936-1.626.762-3.388,1.534-5.229,1.222a7.052,7.052,0,0,1-4.6-3.105,13.181,13.181,0,0,1-1.522-2.548,7.693,7.693,0,0,0,3.579-.679c-.148-.285-.484-.353-.743-.494a21.6,21.6,0,0,1-7.511-5.425c-1.567-1.774-3.083-3.724-5.272-4.764-3.427-1.672-7.317-1.893-11.057-2.168l-.1-.118c-.245-4.121.865-8.552,3.923-11.48.12-.1.343-.37.477-.138,1.1,1.4,1.866,3.02,2.9,4.455a7.972,7.972,0,0,0-.369-2.574,40.755,40.755,0,0,0-3.4-8.169,11.4,11.4,0,0,1-.6-1.8,36.807,36.807,0,0,1-1.432-8.471,29.132,29.132,0,0,1,.1-5.37A34.367,34.367,0,0,1-1128.383,430.609Zm4.672,19.305a39.5,39.5,0,0,0-4.871,1.236,45.085,45.085,0,0,0,9.434.726,6.746,6.746,0,0,1,2.681.3,3.011,3.011,0,0,1,1.658,1.566,7.8,7.8,0,0,1,.359,3.676c-.053.307.042.8-.343.917a10.965,10.965,0,0,0-2.9,1.229,7.9,7.9,0,0,0-3.461,5.016c.9-.407,1.762-.89,2.7-1.212a15.89,15.89,0,0,1,4.407-.907,11.677,11.677,0,0,0,.911,2.047,17.138,17.138,0,0,0,5.783,5.146,102.888,102.888,0,0,0,11.148,5.4,4.486,4.486,0,0,1,1.744,1.476,1.507,1.507,0,0,1-.059,1.929,6.515,6.515,0,0,1-2.727,1.5,25.556,25.556,0,0,1-9.741-.221,18.009,18.009,0,0,1-8.293-4.21,23.708,23.708,0,0,1-4.917-6.577,10.689,10.689,0,0,0,.588,6.475,13.314,13.314,0,0,0,5.276,5.97,19.646,19.646,0,0,0,16.367,1.955,6.884,6.884,0,0,1,2.641-.1,5.245,5.245,0,0,1,3.334,3.054,18.3,18.3,0,0,1,1.389,8.287c-2.234,1.609-4.529,3.414-5.662,6a6.122,6.122,0,0,0-.015,4.862c.225-.109.314-.353.433-.552a14.839,14.839,0,0,1,3.9-4.612,23.476,23.476,0,0,1,5.037-3.119c.755.285,1.454.707,2.224.963,3.669,1.4,7.615,1.737,11.407,2.667a23.972,23.972,0,0,1,7.833,3.26,11.035,11.035,0,0,0-1.875-2.526,14.178,14.178,0,0,0-5.844-3.354c-3.252-1.063-6.663-1.771-9.675-3.456a5.589,5.589,0,0,1-1.875-1.365,16.841,16.841,0,0,1-3.355-7.414,9.209,9.209,0,0,1,1.263-6.6,8.028,8.028,0,0,1,5.112-3.381c3.091-.692,6.3.193,9.091,1.525a33.079,33.079,0,0,1,5.031,3.148,12.552,12.552,0,0,0-11.865-8.382,15.21,15.21,0,0,0-9.124,2.776c-.228.123-.466.344-.743.269a11.88,11.88,0,0,1-4.922-2.085,9.441,9.441,0,0,1-3.375-5.169,19.751,19.751,0,0,1-.349-7.361,9.664,9.664,0,0,0-3.278,7.017c-2.636-1.047-5.4-2.2-7.32-4.368a7.3,7.3,0,0,1-1.5-6.086,7,7,0,0,0-.927-5.122,6.535,6.535,0,0,0-4.311-2.563A23.02,23.02,0,0,0-1123.711,449.914Z" transform="translate(1133.423 -426.68)" fill="#fff"/>
        </g>
        <path id="Path_229" data-name="Path 229" d="M-1131.39,735.339a27.676,27.676,0,0,1,7.534.752,11.586,11.586,0,0,1,5.862,3.115,5.366,5.366,0,0,1,1.308,4.1,6.951,6.951,0,0,0-3.417,1.07,6.367,6.367,0,0,0-2.144,2.589c2.2-.849,4.542-1.652,6.93-1.34,1.038.157,2.274.685,2.509,1.824.5,1.815,2.261,2.785,3.291,4.25a4.894,4.894,0,0,1,.959,3.777,3.588,3.588,0,0,1-2.94,2.125,14.148,14.148,0,0,1-3.243.185,19.528,19.528,0,0,1-3.645-.5,10.849,10.849,0,0,1-1.684-1.348,35.242,35.242,0,0,1-5.331-6.255A38.337,38.337,0,0,1-1131.39,735.339Z" transform="translate(1131.736 -628.442)" fill="#fff"/>
        <path id="Path_230" data-name="Path 230" d="M-1018.58,886.621a17.356,17.356,0,0,0,5.2-.551,15.561,15.561,0,0,0,6.388,7.807c.728.525,1.59.834,2.3,1.369-.01,2.076-.268,4.206.361,6.224a8.511,8.511,0,0,0,2.115,3.484,4.347,4.347,0,0,1,.919,1.144,8.114,8.114,0,0,1-3.77-1.033,25.847,25.847,0,0,1-6.965-5.459,30.176,30.176,0,0,1-4.436-6.126A15.98,15.98,0,0,1-1018.58,886.621Z" transform="translate(1038.153 -753.499)" fill="#fff"/>
      </g>
      <g id="Group_46" data-name="Group 46" transform="translate(76.159 4.478)">
        <g id="Group_45" data-name="Group 45">
          <path id="Path_231" data-name="Path 231" d="M-657.779,108.53c.222-.312.646.111.321.32-1.865,1.837-3.8,3.606-5.621,5.488-.082,2.192-.017,4.392-.027,6.587q.591-.005,1.186-.005-.006-2.712,0-5.423c-.06-.389.288-.631.52-.883,1.755-1.655,3.444-3.381,5.2-5.038.16-.228.431-.09.656-.073-1.752,1.844-3.63,3.564-5.452,5.338-.218.227-.486.477-.421.825,0,1.752-.013,3.506.01,5.258.364-.005.731-.007,1.1-.009.046-1.674-.034-3.349.036-5.021a14.976,14.976,0,0,1,1.589-1.634c1.472-1.35,2.841-2.814,4.325-4.15.518.073.126.506-.1.7q-2.572,2.454-5.115,4.941c-.341.268-.3.728-.3,1.111.014,1.35-.012,2.7.018,4.05.474.007.948.009,1.423.017.026,2.12,0,4.242.012,6.362,0,.152,0,.305,0,.458l0,2.3c3.508.019,7.015-.015,10.523,0a9.641,9.641,0,0,0,1.994-.109c.2-.041.4-.082.594-.119a.971.971,0,0,0,.643.218c7.3.022,14.591-.14,21.887-.089-.008.274-.015.549-.026.825-3.25,0-6.5-.01-9.752.034a13.029,13.029,0,0,0-1.8,1.15c-.351.211-.668.571-1.108.547-1.29.019-2.581-.014-3.871.014-.007.656,0,1.312-.007,1.97.537.014,1.077.014,1.617.01.009.774-.019,1.548.007,2.321-.043.382.414.438.663.588.951.387,1.872.857,2.832,1.217.562-.032,1.2-.482,1.711,0,.784.556.146,1.781-.735,1.679-.7.017-1.019-.654-1.1-1.248-1.3-.581-2.606-1.127-3.9-1.718q0-1.209,0-2.42c-1.476-.031-2.952-.01-4.426-.008-.009,1.865-.017,3.731.005,5.6,3.058.005,6.117-.026,9.175.014-.01.685-.014,1.37.007,2.054q3.476-.015,6.955,0c.022-1.045.012-2.09.009-3.134.319,0,.639,0,.963,0,.042,4.832.007,9.664.019,14.5a2.082,2.082,0,0,1,1.021.4,1.083,1.083,0,0,1-.031,1.573,1.436,1.436,0,0,1-1.432.218,3.226,3.226,0,0,1-.694-.66c-2.231.014-4.462-.027-6.691.015l-.123.078c-.015.963-.021,1.928,0,2.891l.109.1c4.457.038,8.917-.014,13.376.026-.029.135-.089.4-.118.537-2.325.133-4.661.019-6.991.056-2.125-.005-4.251.012-6.376-.009-.007.278-.012.556-.012.835a2.547,2.547,0,0,1,1.878,1.646c5.011.02,10.022-.01,15.034.017,0,.276,0,.552,0,.828-5-.009-9.994.007-14.99-.009a2.657,2.657,0,0,1-1.909,1.638c-.02.7-.019,1.4-.012,2.1,1.943-.019,3.886-.019,5.829-.068-.005-.227-.007-.452-.009-.675-.89-.583-1.762-1.193-2.66-1.761.121-.152.242-.3.365-.45.919.585,1.832,1.183,2.72,1.815.374.208.176.687.229,1.035a25.746,25.746,0,0,0,2.713-.039c-.013-.2-.03-.406-.056-.605-.849-.7-1.87-1.164-2.69-1.9.355-.349.747.056,1.062.245.662.482,1.386.874,2.027,1.384a6.243,6.243,0,0,1,.165.886c4.181-.058,8.36-.068,12.541-.1q1.585-.112,3.18-.068c0,.133,0,.4.005.533-3.276.118-6.557.085-9.834.131-1.979-.039-3.952.128-5.931.094,0,.353,0,.707.005,1.062a2.126,2.126,0,0,1,1.762,1.611,1.919,1.919,0,0,1-1.97,2.11,1.922,1.922,0,0,1-2.006-2.088c.053-.943,1.019-1.316,1.718-1.716.013-.324,0-.649-.007-.973-.856.024-1.71-.017-2.562.031l-.112.1a17.822,17.822,0,0,0,0,1.868c.024.455.7.832.364,1.288a.885.885,0,0,1-1.578-.1c-.147-.467.317-.74.537-1.077.056-.687,0-1.379.026-2.066-1.943-.027-3.886.015-5.829.026-.005.327-.007.654-.005.983,1.551,0,3.1.008,4.655,0,0,.181,0,.361,0,.544-1.551,0-3.1,0-4.65,0q-.023,2.876,0,5.754c2.016,0,4.031.017,6.047-.005a10.388,10.388,0,0,1,.7-1.057,3.341,3.341,0,0,1,1.036-.612c.019-.176.038-.349.06-.523.293,0,.59,0,.886,0l.133.493a2.458,2.458,0,0,1,1.494,1.062c.184.228.235.69.619.646,6.338.017,12.679-.019,19.019.019-.014.274-.026.552-.034.83-3.128,0-6.255.01-9.382-.005,0,1.079-.01,2.156,0,3.235a15.949,15.949,0,0,0-2.3.811c-.049,1.5-.022,3.013-.009,4.52,1.471.008,2.945-.049,4.416.032a5.581,5.581,0,0,1-.1,2.134c.031-.545.046-1.091.067-1.636-3.433.005-6.865-.014-10.3.007a24.123,24.123,0,0,0,.015,3.647c.01.172.024.346.038.52a7.327,7.327,0,0,1,1.766,1.7c.418.6.593,1.329.949,1.965a14.6,14.6,0,0,1,1.068,3.081c1.4.124,2.811.031,4.217.073-.085.251-.172.5-.263.753,0-.08-.009-.242-.01-.322-1.425-.1-2.855-.007-4.281-.041-.238-.845-.516-1.677-.794-2.509A5.494,5.494,0,0,1-619.9,196a6.211,6.211,0,0,1-8.552.118c-.271-.218-.477-.6-.866-.585-1.06-.065-2.126.056-3.182-.036l-.488-.247a26.03,26.03,0,0,1,3.648-.116A5.427,5.427,0,0,1-630,191.92a5.761,5.761,0,0,1,1.014-2.4c-2.282-.009-4.562.007-6.843-.009-.017-1.844,0-3.688-.008-5.532-1.256-.012-2.511-.008-3.765-.005-.028-2.5-.013-5-.008-7.492q-1.3-.028-2.6,0,.007,5.8,0,11.607-7.393-.008-14.787,0c-.005-.92-.007-1.842,0-2.763-1.917-.031-3.833-.005-5.749-.019-.612-.07-1.362.4-1.244,1.082-.007,3.722-.065,7.445-.063,11.167-.167,0-.332-.005-.5,0-.009-3.763.02-7.525.066-11.286l-.2.034c.019,1.725.009,3.448,0,5.173-.2.266-.4.533-.583.81l-.232-.44c.455-.518.325-1.231.339-1.861-.027-1.086.046-2.177-.049-3.259-.314-.131-.632-.247-.949-.363.465-.341.922-.692,1.379-1.043q-1.657-.018-3.313,0-.016,1.24-.024,2.482c-.155.107-.307.22-.456.332-.032-.941,0-1.882-.008-2.822-.447,0-.9,0-1.34,0a26.3,26.3,0,0,0-.067-2.81,6.375,6.375,0,0,0-2.132,1.171c-3.254,2.113-6.475,4.278-9.74,6.374-.191-.09-.38-.177-.569-.264,2.989-2.042,6.043-3.987,9.06-5.987a28.434,28.434,0,0,0,2.529-1.735,2.058,2.058,0,0,1,.91-1.534c.014-.61.01-1.22-.019-1.831-.262,0-.552-.1-.785.061-.9.547-1.761,1.171-2.656,1.732-.322-.136-.641-.271-.961-.4,1.052-.716,2.146-1.367,3.18-2.107.459-.453.8-1.009,1.225-1.5a11.6,11.6,0,0,0,.019-1.42,12.554,12.554,0,0,0-1.314-.54c-2.013,1.179-3.942,2.505-5.938,3.717-.013-.135-.025-.268-.036-.4-.073-.09-.143-.179-.211-.268a5.133,5.133,0,0,0,1.278-.646c1.5-.992,3.044-1.912,4.54-2.909a2.782,2.782,0,0,1,.122-1.962,2.765,2.765,0,0,1,1.555-1.089c.016-1.023.007-2.047.007-3.07q-5.328.018-10.652,0c.009-.182.022-.361.039-.54,3.756.039,7.515.007,11.271.017q-.007,1.767,0,3.536c.528.164,1.005.494,1.546.61,1.614-.9,3.126-1.979,4.708-2.938,3.342-2.11,6.671-4.24,10.014-6.349,1.369-.891,2.785-1.711,4.114-2.662a7.751,7.751,0,0,1-2.647-1.207c-.068-.049-.133-.1-.194-.152a5.347,5.347,0,0,1-1.859-3.78c-1.125.014-2.248.009-3.369,0a2.987,2.987,0,0,0-1.3.169c-2.064.946-4.091,1.974-6.177,2.87-.1-.114-.2-.23-.3-.343,1.658-.68,3.249-1.513,4.883-2.246a6.35,6.35,0,0,1,2.376-.873c1.306-.022,2.613.012,3.918-.012a5.257,5.257,0,0,1,1.771-3.332,8.172,8.172,0,0,1,2.778-1.44c-2.759-.118-5.524-.02-8.283-.053-3.156,0-6.311-.007-9.466.005-.02,1.316,0,2.63-.005,3.944l-.131.036a30.148,30.148,0,0,1,.145-4.389c-.2-.078-.394-.155-.588-.232-.153.2-.3.4-.453.605-.966.053-1.936.032-2.9.022a8.111,8.111,0,0,1-.077,1.878l-.353.193c-.056-.689-.044-1.379-.039-2.069-.922.012-1.844.01-2.766,0a8.824,8.824,0,0,1-.075,1.875l-.36.189c-.053-.689-.042-1.377-.039-2.066-.844.009-1.687.027-2.529-.027l.189-.511c.777.027,1.556.017,2.335.017a10.107,10.107,0,0,1,.067-1.8,17.559,17.559,0,0,1,1.592-1.108c.47-.295.907-.738,1.5-.721a1.178,1.178,0,0,1-.368.489c-.742.566-1.612.965-2.3,1.6-.039.506-.012,1.016-.021,1.525.919.032,1.841.019,2.761.014a13.5,13.5,0,0,1,.053-1.8c.52-.465,1.192-.733,1.691-1.224a6.441,6.441,0,0,0,.179-.707c.421-.244,1.086-.4,1.418.06.261.365.031.8-.165,1.132-.535.056-1.142-.15-1.605.208-.37.232-.724.486-1.086.729q-.008.8,0,1.606c.931.005,1.861.01,2.792-.012l.15,0c-.012-.883-.005-1.766,0-2.649q6.913.01,13.826,0c0-.448,0-.895.008-1.34a10.977,10.977,0,0,1-1.612-.881c-.019-.085-.06-.256-.079-.341a12.7,12.7,0,0,1,2.163.963c.008.533.008,1.065.017,1.6.46,0,.921,0,1.382,0,0-.418-.007-.835-.015-1.253-.539-.261-1.076-.525-1.612-.787.161-.21.239-.52.489-.641a20.532,20.532,0,0,1,2.12.963c.014.573.012,1.145.022,1.72q.688,0,1.381,0c0-.429.017-.859-.016-1.285-.482-.527-1.539-.46-1.679-1.263a6.779,6.779,0,0,1,2.173,1.036c.025.5.005,1-.005,1.5.56.012,1.121.014,1.686.014-.011-.438-.009-.873,0-1.309-.564-.433-1.5-.482-1.781-1.2a6.754,6.754,0,0,1,2.277.966c0,.511,0,1.024-.008,1.537q.542,0,1.086,0-.013-2.306,0-4.612c-3.562-.029-7.124,0-10.686-.015-.326-.065-.286.37-.368.562A3.152,3.152,0,0,1-660,144.379q-12.187.038-24.375.072a15.774,15.774,0,0,1-2.2,0c0-.119.01-.358.014-.479,8.8-.1,17.6-.077,26.393-.162a2.613,2.613,0,0,0,2.678-2.447c-3.736-.02-7.474-.01-11.21-.005-.365-.053-.482.348-.7.554a1.234,1.234,0,0,1-2.131-.682c-.058-.361.2-.641.372-.929.233-.3.111-.7.129-1.052q-4.832.008-9.665,0c0-.152,0-.455,0-.607q4.83,0,9.66,0c.007-.407.009-.813.01-1.22-3.474-.019-6.947-.01-10.42,0-.006-.1-.017-.308-.022-.412,3.484-.01,6.969.017,10.454-.012-.02-.109-.062-.327-.082-.438q-5.1.005-10.2-.024c0-.13.017-.389.022-.518,3.415.015,6.833.037,10.248.022,0-.982.005-1.962,0-2.942-3.08-.141-6.168-.053-9.253-.082-.363.106-.513-.215-.471-.527q4.822-.02,9.642.01c0-.06,0-.177,0-.237q-4.66.026-9.321.005c-.06-.09-.177-.274-.237-.365a6.6,6.6,0,0,1,1.053-.075c2.86.007,5.718,0,8.578,0q.028-1.621,0-3.24c-2.9-.005-5.8-.022-8.692.009a10.8,10.8,0,0,1-.254,1.542c-.3.409-.937.808-1.411.448-.15-.126-.382-.235-.392-.453a10.666,10.666,0,0,1,.242-2.314,27.838,27.838,0,0,1,2.045-6.79,1.276,1.276,0,0,1,1.829-.654c.273.169.413.591.786.544,3.739.005,7.477,0,11.215,0,.007-3.436-.033-6.874.02-10.31l.645,0c0,3.438-.011,6.875,0,10.313.474,0,.951,0,1.427-.007.061-2.2,0-4.394.034-6.591-.02-.268.225-.426.382-.6C-661.351,112-659.555,110.273-657.779,108.53Zm-20.47,14.6-.336.293.176.017a19.815,19.815,0,0,0-1.195,4.615c2.858,0,5.715-.007,8.573,0,.015-.462.019-.924.025-1.384.309,0,.619,0,.931,0a11.779,11.779,0,0,1,.059,1.367q.785.018,1.573.007c-.009-1.519.027-3.037-.022-4.554l.169,0c.005,1.483-.013,2.966,0,4.448l.358-.031,0,.145c.759-.009,1.519-.01,2.281,0q0-3.147,0-6.3c-4.032-.029-8.067,0-12.1-.012A6.382,6.382,0,0,0-678.249,123.126Zm13.256-1.372c-.012,2.275-.007,4.552,0,6.828-.983.007-1.965-.02-2.947.027q0,.366,0,.731c2.345.032,4.692.02,7.037.007-.005-.675-.007-1.35.012-2.025.506,0,1.014,0,1.52-.015-.032-1.82.024-3.64-.024-5.459q-.343-.33-.441.136c-.077,1.587.01,3.18-.034,4.769.123.351-.53.307-.417,0-.024-1.665.005-3.33-.01-5-.373-.005-.743-.005-1.113,0-.007,1.483-.013,2.964,0,4.447l-.5,0c-.024-1.481-.005-2.962-.01-4.443-.4-.008-.794-.01-1.188-.01-.019,1.1.013,2.2-.012,3.3.128.368-.529.324-.419.01-.012-1.1.012-2.2-.009-3.3C-664.03,121.749-664.513,121.75-664.993,121.754Zm4.59,5.98c-.009.673-.012,1.346-.005,2.02q-4.016-.015-8.034,0c0-.389,0-.779,0-1.168-.523,0-1.045,0-1.566.009-.012,1.079,0,2.158-.007,3.237,3.284,0,6.57-.007,9.854,0,1.277.044,2.777.607,3.184,1.938a2.968,2.968,0,0,1-2.843,3.639c-3.4.02-6.8-.015-10.2.015,0,.406.005.813.008,1.219q4.84-.005,9.679,0a3.62,3.62,0,0,1,3.329,1.853c1.234.022,2.468,0,3.7.01.012-1.74.039-3.482-.007-5.222-.871-1.016-1.97-1.827-2.928-2.766q.327-.3.668-.595c1.037.988,2.159,1.892,3.153,2.923.159,1.877-.051,3.779.113,5.66q.992,0,1.987,0c.044-1.442-.092-2.9.068-4.329.68-.4,1.546-.334,2.214-.75.039-.791.024-1.585.012-2.376-.024-.5-.842-.765-.581-1.324a.867.867,0,0,1,1.633.145c.08.4-.323.625-.547.89-.029,1.024-.08,2.047-.08,3.071a16.34,16.34,0,0,0-2.223.643c-.039,1.341-.019,2.686,0,4.029q1.958-.005,3.917,0-.01-4.827,0-9.653c-1.97-.1-3.94.043-5.911.019-2.524-.005-5.05.049-7.572,0,.011-1.05.014-2.1,0-3.151C-659.732,127.726-660.068,127.729-660.4,127.734Zm15.143,3.126q.018,4.819,0,9.641c.707,0,1.416,0,2.125.012l0-.124a3.868,3.868,0,0,0,.182-1.706c-.007-1.355.02-2.71,0-4.065l-.186.014.005-.136c1.045,0,2.091.005,3.139-.005,0-.837.007-1.674,0-2.509,1.5-.056,3,.027,4.5-.039a6.543,6.543,0,0,0,1.675-1.125c-1.111-.058-2.223-.009-3.332-.02C-639.861,130.831-642.564,130.754-645.26,130.86Zm-24.87,1.394.17.254a17.183,17.183,0,0,0,2.463.075c2.7.007,5.415.01,8.114.031.493.331,1.115.6,1.326,1.2a2.03,2.03,0,0,1-.924,2.48,2.645,2.645,0,0,1-1.524.3c-2.9-.012-5.8-.014-8.706-.031-.355.024-.905-.116-.886.416,2.512.053,5.026.009,7.54.022.968-.02,1.94.053,2.9-.046a2.539,2.539,0,0,0,2.3-2.541,2.078,2.078,0,0,0-1.565-1.916,6.144,6.144,0,0,0-2.618-.285C-664.4,132.241-667.267,132.181-670.13,132.254Zm.112.839c0,.988,0,1.977,0,2.966,3.284-.014,6.569.015,9.853.012a1.6,1.6,0,0,0,1.551-1.967,1.7,1.7,0,0,0-1.725-.975Q-665.177,133.118-670.018,133.093Zm0,6.158c0,.256,0,.511,0,.767.366.189.706.52,1.147.486,3.715-.014,7.431.029,11.145-.022a3.349,3.349,0,0,0-3.3-1.236C-664.022,139.25-667.021,139.245-670.021,139.25Zm24.759,2.118q.02,2.3,0,4.605c.273,0,.547,0,.825.007.066-.815-.174-1.747.378-2.442a2.63,2.63,0,0,1,4.206.384,5.048,5.048,0,0,1,.169,2.023l.51.1c.019,2.856.01,5.711,0,8.568q2.352.031,4.706,0c0-.332,0-.665,0-1-.924-.02-1.849,0-2.773-.015-.014-.181-.024-.36-.034-.537.934-.012,1.868,0,2.8-.015,0-.4,0-.787,0-1.181-.925.01-1.851.005-2.775,0,0-.148.01-.447.014-.6.92-.007,1.841,0,2.761-.005,0-.4,0-.8,0-1.205-.934-.014-1.864,0-2.8-.015,0-.1,0-.295,0-.394.931-.01,1.863,0,2.8-.015-.005-.433-.007-.866-.014-1.3-.936.024-1.873.029-2.807-.008.021-.121.058-.365.078-.487.907-.066,1.82-.019,2.732-.02,0-.343.007-.685.017-1.028-.929-.026-1.856-.012-2.783-.015q-.01-.424-.017-.849c.932,0,1.866.012,2.8-.014-.009-.375-.012-.748-.017-1.12-.965-.036-1.933.024-2.9-.056l.254-.3c.878-.085,1.766-.017,2.647-.027l.005-1.253c-.925,0-1.851,0-2.775,0,0-.145.008-.438.01-.585.92,0,1.841-.005,2.761,0,0-.4,0-.806.007-1.21C-638.063,141.349-641.662,141.332-645.262,141.369Zm11.777,1.781c-.007.421-.005.842.012,1.263,2.066-.022,4.133-.008,6.2-.005.249-.026.533.053.758-.094.017-.389,0-.777-.007-1.166Q-630,143.169-633.485,143.15Zm-9.831.46c-.694.586-.327,1.578-.418,2.36.034-.005.1-.019.133-.024a7.683,7.683,0,0,1,.053-1.633,1.737,1.737,0,0,1,2.694-.23c.472.513.293,1.265.331,1.9l.2-.015a14.461,14.461,0,0,0-.041-1.582A1.927,1.927,0,0,0-643.316,143.61Zm.607.46c-.668.385-.412,1.273-.448,1.905q1.058.008,2.118,0a3.468,3.468,0,0,0-.141-1.57C-641.513,143.92-642.2,143.966-642.709,144.07Zm9.226.716c-.009.378-.01.758-.009,1.14,2.326.005,4.654.012,6.981,0,0-.378-.007-.757-.015-1.135C-628.846,144.774-631.164,144.783-633.483,144.786Zm-.014,2.064c.058.307-.22.977.283.961q3.354.008,6.708,0-.005-.514,0-1.028c-2.076-.007-4.15.007-6.226-.009A2.047,2.047,0,0,0-633.5,146.85Zm-33.238-.026c-.014.6-.014,1.208,0,1.813,6.944,0,13.889.02,20.834-.014-.01-.595-.007-1.191-.01-1.786C-652.855,146.8-659.795,146.831-666.735,146.825Zm21.475.024c0,.752.024,1.5,0,2.255-.4.084-.81.072-1.21.126.672.274,1.353.523,2.016.821.02-1.079.029-2.159.012-3.237C-644.718,146.823-644.989,146.833-645.26,146.848Zm1.435-.032c0,1.333-.089,2.669.034,4l.309-.136.01-.13a3.514,3.514,0,0,0,.36.714c.026.058.077.176.1.235.29.218.564.455.842.692a16.206,16.206,0,0,1,.169,2.9,10.794,10.794,0,0,0-.15,2c.027.537-.12,1.142.247,1.6.124-1.551-.026-3.112.055-4.663.245-.493.66-.89.864-1.4.077-1.735-.049-3.477.056-5.212l.438-.031c-.056,1.592.015,3.185-.019,4.777a5.115,5.115,0,0,1-.169,1.038,3.789,3.789,0,0,0-.642.8,44.6,44.6,0,0,0-.077,4.607c.325,0,.651,0,.98,0,.06-2.267.094-4.535.017-6.8.109-1.655.09-3.313.111-4.97C-641.466,146.768-642.647,146.8-643.825,146.816Zm10.342,1.539q-.01.642,0,1.285,3.484.013,6.969,0c0-.428,0-.857,0-1.285Q-630,148.35-633.483,148.355Zm-16.512,1.858a4.661,4.661,0,0,0-2.857,3.779c1.364.02,2.729.014,4.094.008.4-.005.525-.54.9-.607.3-.029.7-.066.888.228a.727.727,0,0,1-.462,1.21c-.511.14-.847-.4-1.331-.394-1.365-.012-2.729,0-4.092-.005a4.675,4.675,0,0,0,3.574,4.418c.525.116,1.137.387,1.617.007.574-.45,1.318-.249,1.987-.3a2.43,2.43,0,0,0,1.133-.484c.02-1.52.005-3.041.019-4.561a12.775,12.775,0,0,0,0-2.677,4.366,4.366,0,0,0-1.955-.956A6.253,6.253,0,0,0-649.995,150.213Zm16.508-.155c0,.406,0,.811,0,1.217q3.481-.023,6.964,0c.005-.406.005-.811.007-1.215Q-630,150.053-633.487,150.058Zm-10.318,1.415c-.065,1.967-.082,3.939-.041,5.906A4.21,4.21,0,0,0-643.8,151.472Zm10.31.407q0,.586.013,1.173,3.479.01,6.962,0c.005-.39.007-.781.012-1.171C-628.837,151.858-631.167,151.866-633.495,151.88Zm0,1.733c.088.317-.242,1.028.286,1,1.979.019,3.959-.008,5.938.01a2.354,2.354,0,0,0,.755-.073c.013-.315,0-.629,0-.942C-628.839,153.6-631.167,153.6-633.495,153.613Zm-6.257,1.847c-.037,1.035-.036,2.071-.017,3.107,1.766-.005,3.533,0,5.3,0,0-1.036,0-2.072,0-3.107C-636.232,155.469-637.993,155.464-639.752,155.461ZM-644,158.532c.491.034.984.037,1.478.036-.009-.608-.009-1.215.005-1.824C-642.973,157.371-643.508,157.932-644,158.532Zm-3.388,1.06a2.74,2.74,0,0,0-1.326.607c-6.226,3.966-12.472,7.9-18.693,11.867a2.175,2.175,0,0,1-.073,1.909,2.656,2.656,0,0,1-1.777,1.147c0,.518,0,1.036.017,1.558,1.878-1.111,3.658-2.383,5.5-3.557,5.82-3.818,11.627-7.661,17.465-11.457a3.36,3.36,0,0,1-.012-.615c.413-.36.639.337.881.586q4.612.038,9.226,0a3.059,3.059,0,0,1,1.706-1.565c.005-.3.009-.605.016-.905-2.547-.005-5.095.005-7.641-.007a17.524,17.524,0,0,0-3.369.055A8.355,8.355,0,0,1-647.387,159.592Zm13.909,1.379c-.012.227-.022.455-.031.683.274-.005.549-.012.828-.02A2.739,2.739,0,0,0-633.478,160.971Zm-1.588.7.659.061c-.014-.17-.041-.513-.054-.683A4.617,4.617,0,0,0-635.066,161.673Zm1.587.808c-.01.2-.017.412-.022.619a1.225,1.225,0,0,0,.8-.61C-632.967,162.484-633.224,162.482-633.48,162.481Zm-13.073.387q-10.745,7.061-21.495,14.119c-.46.222-.094.828-.327,1.19-.16.372-.554.542-.873.752.089.591-.36,1.73.554,1.779,2.06-1.331,4.129-2.662,6.149-4.053a5.17,5.17,0,0,1,.845-3.029,6,6,0,0,1,6.117-2.417c.442.061.954.326,1.36.014q3.032-1.989,6.062-3.987a8.333,8.333,0,0,1,1.36-.835c1.329-.077,2.665-.01,4-.072-.627-1.057-1.421-2-2.12-3.01a3.132,3.132,0,0,0-.764-.864A2.1,2.1,0,0,0-646.552,162.868Zm1.831-.363c.9,1.292,1.784,2.611,2.8,3.811,2.483.067,4.965-.114,7.45-.077,0-.716,0-1.432,0-2.146a2.811,2.811,0,0,1-1.667-1.6C-639,162.494-641.86,162.465-644.722,162.5Zm9.876.036c-.161.206.169.571.384.4C-634.283,162.716-634.618,162.336-634.845,162.54Zm-6.745,4.331c.216.291.434.579.656.869,2.159-.008,4.319.017,6.478-.014-.008-.319-.014-.637-.019-.954C-636.848,166.781-639.218,166.866-641.591,166.871Zm-5.837.573c-2.11,1.418-4.254,2.787-6.369,4.194.009.043.029.13.039.172a6.15,6.15,0,0,1,2.038,1.9,10.727,10.727,0,0,1,.808,1.924,17.007,17.007,0,0,0,3.131.026c.022-.385.058-.769.092-1.15,1.508-.022,3.017.017,4.525-.024-.007-1.178.037-2.357-.016-3.531-.181-.324-.593-.453-.76-.793a1.1,1.1,0,0,1,.362-1.42,1.341,1.341,0,0,1,2.132.677c.2.6-.295,1.1-.752,1.4-.01,1.214,0,2.425-.009,3.639,1.081.077,2.166.026,3.249.049-.005.4,0,.791.01,1.188,1.374.015,2.746.007,4.12.008q0,2.472,0,4.946a4.373,4.373,0,0,1,2.306.99c.041.6.009,1.2.014,1.8.527-.007,1.055-.005,1.585,0,0-.532,0-1.062-.005-1.592a8.975,8.975,0,0,1-1.751-.98l.327-.378a20.686,20.686,0,0,1,1.972,1.035,7.683,7.683,0,0,1,.089,1.923c.525-.009,1.051-.01,1.58-.012,0-.537,0-1.075,0-1.612-.588-.409-1.486-.491-1.811-1.186a4.914,4.914,0,0,1,2.265,1c.039.6.007,1.2.01,1.8.508-.049,1.089.121,1.551-.1a7.807,7.807,0,0,0-.029-1.508,2.788,2.788,0,0,0-1.255-.491c-.346-.055-.821-.044-.958-.443-.367-.636.462-1.311,1.067-1.036.467.126.506.665.622,1.053a3.814,3.814,0,0,1,1.207.729c.029.392.005.786.01,1.181.017.2-.065.915.32.585.111-2.3.026-4.605.043-6.906a3.881,3.881,0,0,1-1.665-1.617c-2.378.005-4.755.014-7.133,0-.01-2.2,0-4.392-.005-6.589-2.29-.031-4.581.008-6.872-.02-.467-.527-.726-1.566-1.607-1.391-1.086.027-2.171.026-3.257.044A2.155,2.155,0,0,0-647.428,167.444Zm21.916,1.636a1.365,1.365,0,0,0,.661,1.771,1.633,1.633,0,0,0,2.36-.989,1.553,1.553,0,0,0-1.336-1.7c0,.1.008.31.012.414.38.21.866.467.892.96a1.072,1.072,0,0,1-.648,1.017,1.115,1.115,0,0,1-1.593-1.021c.009-.608.821-.753.888-1.355A1.78,1.78,0,0,0-625.512,169.08Zm-34.121,3.369a4.427,4.427,0,0,0-2.214,3.748c2.234-1.421,4.459-2.867,6.64-4.372A5.76,5.76,0,0,0-659.633,172.449Zm-9.575-.447c-.286.249.164.586.387.334C-668.552,172.1-669,171.793-669.208,172Zm-1.438,1.433a3.528,3.528,0,0,0,.736-.535,4.175,4.175,0,0,0-.07-.987A1.3,1.3,0,0,0-670.646,173.436Zm15.918-1.19c-2.3,1.515-4.613,3.017-6.9,4.545-.339.182-.092.59-.029.861a4.75,4.75,0,0,0,3.163,2.991c.854-.554,1.614-1.241,2.483-1.773.013.68.005,1.362.022,2.044a4.956,4.956,0,0,0,4.416-4.428c-1-.026-1.991-.01-2.984-.015a3.175,3.175,0,0,1-.8,1.081l-.43-.089c.31-.38.748-.752.709-1.292a1.472,1.472,0,0,0-.54-1.185l.4-.191a4.064,4.064,0,0,1,.58.835,24.435,24.435,0,0,0,2.957.063,4.433,4.433,0,0,0-2.289-3.329C-654.2,172.25-654.493,172.017-654.728,172.247ZM-669.24,173.3a7.33,7.33,0,0,0-.007.867c.368-.186.828-.36.965-.794a5.949,5.949,0,0,0,.049-.758A3.207,3.207,0,0,0-669.24,173.3Zm44.6-.039c-.017.264-.025.532-.031.8.271-.014.544-.026.82-.041A2.906,2.906,0,0,0-624.639,173.259Zm-1.52.426c-.01.092-.027.276-.037.368.177,0,.356-.005.538-.005,0-.2,0-.4.007-.6C-625.824,173.525-625.993,173.6-626.16,173.685Zm-43.868-.02c-.246,0-.254.414,0,.416S-669.782,173.66-670.028,173.665Zm43.888,1.246c.147.155.3.308.454.458.013-.124.039-.373.053-.5Zm1.474-.049c0,.136.017.406.022.542a2.177,2.177,0,0,0,.66-.486C-624.212,174.9-624.44,174.876-624.665,174.861Zm1.887.037a6.937,6.937,0,0,1-.844,1.028,4.808,4.808,0,0,1-1.037.5c-.007,2.338,0,4.677,0,7.017.992-.012,1.985-.01,2.979,0a10.977,10.977,0,0,0,0-2.424,2.134,2.134,0,0,1-1.555-1.6,1.889,1.889,0,0,1,2.1-2.009,1.811,1.811,0,0,1,1.744,2.577c-.324.7-1.1.866-1.721,1.185a9.113,9.113,0,0,0,.019,2.272c.857-.008,1.715-.01,2.573,0,.027-1.965.033-3.934,0-5.9a7.015,7.015,0,0,0-1.093-1.178,19.2,19.2,0,0,0-1.592-1.461A9.406,9.406,0,0,0-622.778,174.9Zm2.49-.012a28.717,28.717,0,0,1,2.418,2.5c.046,2.018,0,4.041.021,6.061.716-.005,1.432,0,2.149,0,.172-1.636-.08-3.315.128-4.932.7-.266,1.432-.419,2.148-.627.017-1,.02-2-.005-3C-615.717,174.89-618,174.876-620.288,174.887Zm-26.8.147c0,.2,0,.409,0,.615a30.217,30.217,0,0,0,3.928,0c0-.206,0-.412,0-.617C-644.468,175.03-645.777,175.028-647.084,175.033Zm4.875,0c0,.194,0,.392,0,.59a11.1,11.1,0,0,0,2.6.007c0-.2,0-.4,0-.6C-640.475,175.03-641.342,175.032-642.21,175.037Zm-8.708,1.45a5.328,5.328,0,0,1-1.374,3.141,6.4,6.4,0,0,1-3.717,1.887c0,1.075.007,2.153,0,3.228,2.261.041,4.522,0,6.783.026a1.941,1.941,0,0,1,1.468-.983q0-3.653,0-7.3C-648.814,176.467-649.865,176.463-650.917,176.487Zm3.83-.009c-.012,2.347,0,4.7-.009,7.042-.063.515.4.874.479,1.355a1.23,1.23,0,0,1-1.6,1.181,2.023,2.023,0,0,1-.9-.733c-2.294-.024-4.588-.009-6.881-.007-.012.654-.015,1.309.008,1.963,4.275-.008,8.554.065,12.827-.037q.005-5.381,0-10.763C-644.47,176.47-645.778,176.467-647.087,176.479Zm8.119.007c0,2.32.012,4.637,0,6.957,1.047-.008,2.093-.014,3.139,0,0-2.321,0-4.643,0-6.964C-636.877,176.467-637.923,176.462-638.968,176.485Zm-29.291,4.661a5.679,5.679,0,0,1-.012.818c-.153.441-.624.615-.956.893a18.115,18.115,0,0,0-.019,1.9l.685-.015a4.153,4.153,0,0,1,.412-2.551,2.534,2.534,0,0,1,4.111.573,12.268,12.268,0,0,1,.087,1.909c1.559-1.038,3.006-2.236,4.542-3.31.124-.058.336-.332.1-.389a5.658,5.658,0,0,1-3.138-3.612C-664.424,178.556-666.323,179.884-668.259,181.147Zm46.321-3.22a1.375,1.375,0,0,0-.675,1.943c.636,1.152,2.773.9,2.943-.47A1.558,1.558,0,0,0-621.938,177.927Zm-35.318,2.751c-.09.278.006.37.287.28C-656.886,180.678-656.981,180.586-657.256,180.678Zm22.436.247c-.017.839-.022,1.679.005,2.517.615-.008,1.229-.008,1.846,0-.008-.525.019-1.052-.019-1.573A7.728,7.728,0,0,0-634.819,180.925Zm-24.762,1.64c-.92.728-1.928,1.35-2.778,2.159,1.788.072,3.579.038,5.369.022q-.01-1.613,0-3.225a8.355,8.355,0,0,0-.961-.106A15.009,15.009,0,0,0-659.582,182.565Zm-8.43.441a2.627,2.627,0,0,0,.143,1.8c.12-.614-.015-1.261.164-1.859a1.727,1.727,0,0,1,2.752-.116c.389.619.1,1.4.349,2.064a3.1,3.1,0,0,0,.162-1.727C-664.691,181.494-667.674,181.261-668.012,183.006Zm.828-.027a3.7,3.7,0,0,0-.177,1.773c.706.012,1.413.01,2.12,0a9.948,9.948,0,0,0-.036-1.566A1.217,1.217,0,0,0-667.183,182.979Zm32.362,1c-.017,1.566-.01,3.133-.005,4.7q3.183.013,6.365,0c.379.02.668-.262.982-.431a7.936,7.936,0,0,1,1.822-.787c-.008-1.162.007-2.326-.01-3.489C-628.718,183.974-631.77,183.967-634.821,183.978Zm10.158.01c0,1.118,0,2.238,0,3.356a21.368,21.368,0,0,1,3,.326c.085-1.227.056-2.459.024-3.688C-622.652,183.969-623.658,183.962-624.663,183.988Zm.019,3.857c-.02.556-.019,1.111-.027,1.667-1.172.061-2.366-.082-3.526.068a4.329,4.329,0,0,0-.871,4.59c.193.4.371,1.014.93.965q3.232.013,6.461,0a28.131,28.131,0,0,0,.049-2.838c-.576-.009-1.154-.036-1.728-.005-.423.215-.781.837-1.325.568a.749.749,0,0,1,.007-1.433c.506-.162.884.292,1.324.448a9.273,9.273,0,0,0,1.671-.009,19.315,19.315,0,0,0-.014-3.381A10.019,10.019,0,0,0-624.645,187.845Zm-2.344.821c.438.022.879.024,1.319.026.01-.2.02-.4.034-.59A3.034,3.034,0,0,0-626.988,188.666Zm5.9.22a12.757,12.757,0,0,0-.022,2.962,14.554,14.554,0,0,0,1.948.034A4.543,4.543,0,0,0-621.088,188.886Zm-.017,3.385a29.726,29.726,0,0,0-.063,3.238c-2.337.034-4.674-.015-7.008.027a5.464,5.464,0,0,0,6.816.878,4.5,4.5,0,0,0,2.238-4.14C-619.784,192.281-620.445,192.283-621.1,192.271Z" transform="translate(686.57 -108.419)" fill="#fff"/>
        </g>
      </g>
      <g id="Group_47" data-name="Group 47" transform="translate(105.793 13.629)">
        <path id="Path_232" data-name="Path 232" d="M-508.84,162.137q3.863.013,7.727,0c.375-.124.452.242.472.532-2.517.036-5.036.014-7.552.01,0,.977.017,1.955-.015,2.933-1-.01-2-.007-3,0a10.444,10.444,0,0,0,.015,1.084c.408.38,1.1.68.972,1.362-.063,1.207-2.023,1.375-2.4.273a1.273,1.273,0,0,1,.748-1.51q-.005-.88.075-1.756c.951.005,1.9.031,2.855,0A22.825,22.825,0,0,0-508.84,162.137Z" transform="translate(512.698 -162.114)" fill="#fff"/>
      </g>
      <g id="Group_48" data-name="Group 48" transform="translate(104.311 16.378)">
        <path id="Path_233" data-name="Path 233" d="M-514.489,178.245c.885,0,1.771.007,2.655-.005.043,2.149-.005,4.3.026,6.449l-.491.165c-.036-2.076-.01-4.153-.012-6.231-.566.012-1.132.014-1.7.026.007,2.335,0,4.668.005,7-2.465.005-4.927-.032-7.39.02,0-.153,0-.307,0-.458,2.3.053,4.6.024,6.894.012C-514.5,182.9-514.52,180.572-514.489,178.245Z" transform="translate(521.394 -178.24)" fill="#fff"/>
      </g>
      <g id="Group_49" data-name="Group 49" transform="translate(84.144 19.146)">
        <path id="Path_234" data-name="Path 234" d="M-639.72,194.814l.336-.293c3.432-.072,6.87-.022,10.3-.024.01,1.6.009,3.2,0,4.808l-.358.031c-.01-1.483.009-2.966,0-4.448l-.169,0c-1.894.085-3.785-.032-5.681.007a33.6,33.6,0,0,1-4.264-.061Z" transform="translate(639.72 -194.482)" fill="#fff"/>
        <path id="Path_235" data-name="Path 235" d="M-355.216,677.844a19.562,19.562,0,0,1,3.988-.165l.027.179a25.053,25.053,0,0,0-3.6.126c-.375.092-.789.337-.811.765-.082.537.465.83.8,1.139-.07.014-.21.044-.28.06A1.131,1.131,0,0,1-355.216,677.844Z" transform="translate(404.252 -595.308)" fill="#fff"/>
        <path id="Path_236" data-name="Path 236" d="M-494.413,771.86l.5.049-.007.189a39.2,39.2,0,0,0,.092,4.982,1.514,1.514,0,0,1,.007.678,45.624,45.624,0,0,0-.117,5.135c-1.834,0-3.668-.021-5.5.01.012,1.819.005,3.636,0,5.454,1.333,0,2.666-.01,4,0,.055.2.109.4.167.595-1.609-.021-3.221.051-4.828-.049.009-2,.014-4.009,0-6.013-2.253-.005-4.5-.009-6.758,0,0-.1,0-.3.005-.4,2.25,0,4.5.007,6.751,0,.026-1.524,0-3.049.021-4.571l.654.037c-.009,1.508-.005,3.018-.005,4.526,1.667.019,3.334.016,5,0C-494.418,778.945-494.459,775.4-494.413,771.86Z" transform="translate(529.504 -673.455)" fill="#fff"/>
      </g>
      <g id="Group_51" data-name="Group 51" transform="translate(127.758 29.151)">
        <g id="Group_50" data-name="Group 50">
          <path id="Path_237" data-name="Path 237" d="M-382.03,253.219a2.188,2.188,0,0,1,2.388,1.232,2,2,0,0,1-.317,1.863,2.276,2.276,0,0,1-3.673-.414A1.921,1.921,0,0,1-382.03,253.219Zm-.337.523a1.461,1.461,0,0,0-.6,2.338,1.746,1.746,0,0,0,2.971-.714A1.672,1.672,0,0,0-382.368,253.743Z" transform="translate(383.822 -253.188)" fill="#fff"/>
        </g>
      </g>
      <g id="Group_52" data-name="Group 52" transform="translate(128.701 30)">
        <path id="Path_238" data-name="Path 238" d="M-377.431,258.222a1.172,1.172,0,0,1,1.534,1.273,1.263,1.263,0,0,1-2.234.281A1.061,1.061,0,0,1-377.431,258.222Z" transform="translate(378.286 -258.169)" fill="#fff"/>
        <path id="Path_239" data-name="Path 239" d="M-296.663,876.445c.719-.38,1.883.1,1.795,1.009a1.118,1.118,0,0,1-1.156,1.118,1.225,1.225,0,0,1-1.3-.985A1.146,1.146,0,0,1-296.663,876.445Z" transform="translate(311.129 -770.961)" fill="#fff"/>
      </g>
      <g id="Group_53" data-name="Group 53" transform="translate(119.564 30.677)">
        <path id="Path_240" data-name="Path 240" d="M-431.879,262.154l.186-.014c.022,1.355-.005,2.71,0,4.065a3.872,3.872,0,0,1-.182,1.706C-431.913,265.994-431.906,264.073-431.879,262.154Z" transform="translate(431.901 -262.14)" fill="#fff"/>
      </g>
      <g id="Group_54" data-name="Group 54" transform="translate(125.126 34.62)">
        <path id="Path_241" data-name="Path 241" d="M-325.661,285.332a1.449,1.449,0,0,1,.963.056,2.839,2.839,0,0,1,.743,1.128c1.353,2.821,4.026,4.8,5.142,7.753,1.184,3.161.622,6.632-.16,9.819a1.06,1.06,0,0,1-1.912.228,4.161,4.161,0,0,1,.2-1.287,14.95,14.95,0,0,0,.153-7.821,11.953,11.953,0,0,0-2.367-3.963,18.813,18.813,0,0,1-3.238-5A.776.776,0,0,1-325.661,285.332Z" transform="translate(338.632 -285.277)" fill="#fff"/>
        <path id="Path_242" data-name="Path 242" d="M-398.246,621.921a1.55,1.55,0,0,1,1.861.719,1.5,1.5,0,0,1-.341,1.638,1.548,1.548,0,0,1-2.389-.442A1.381,1.381,0,0,1-398.246,621.921Z" transform="translate(399.263 -564.464)" fill="#fff"/>
      </g>
      <g id="Group_56" data-name="Group 56" transform="translate(73.801 41.161)">
        <g id="Group_55" data-name="Group 55">
          <path id="Path_243" data-name="Path 243" d="M-689.763,324.073a1.136,1.136,0,0,1,1.776.019,4.432,4.432,0,0,1-.217,3.083l-.189.511c-.787.591-1.462,1.316-2.2,1.969a2.237,2.237,0,0,0-.661,1.263c3.554.041,7.109.012,10.664.015-.08-.208-.159-.414-.237-.619.153-.073.308-.145.465-.216a2.257,2.257,0,0,0,1.132.92c.029-1.11.049-2.223-.022-3.329.148-.2.3-.406.453-.605.194.077.392.153.588.232a30.182,30.182,0,0,0-.145,4.389c-.221.048-.441.092-.659.135.928,1.285,1.834,2.592,2.819,3.837.1.112.2.228.3.343a3.408,3.408,0,0,0,.534.818,2.453,2.453,0,0,0,.806.083q5.121-.018,10.241,0a3.855,3.855,0,0,0,1.123-.158c.061.051.126.1.194.152-.09.174-.177.351-.263.528q-6.217.005-12.435.005c-.273-.363-.54-.731-.809-1.094-.682.283-1.323.668-2.027.893-1.077.109-2.164,0-3.245.056.307.52.641,1.026.973,1.532,4.053.019,8.106.005,12.157.007.176-.24.351-.481.542-.711.032.089.1.264.128.351a4.006,4.006,0,0,0-.208,1.721c-.014.08-.042.242-.056.324-.193-.269-.358-.554-.522-.838q-6.284-.008-12.569,0c-.491-.7-.927-1.442-1.447-2.124-.2-.348-.632-.266-.961-.285-1.493.019-2.986-.012-4.477.026a7.3,7.3,0,0,1-1.844,4.261q4.346,0,8.7,0a19.968,19.968,0,0,1,2.19.043c.878.445,1.464,1.3,2.309,1.8,1.144.1,2.3-.01,3.448.056,0,.271,0,.542.007.815-1.27-.034-2.545.051-3.811-.036-.867-.46-1.457-1.311-2.3-1.815a15.918,15.918,0,0,0-2.018-.046c-3.117.029-6.238-.05-9.352.037A7.249,7.249,0,0,0-692,345.9c-.017.179-.031.358-.039.54a14.65,14.65,0,0,0,3.15,9.674c.068.089.138.177.211.268.01.133.022.266.036.4a6.482,6.482,0,0,0-2.488,2.848,25.065,25.065,0,0,0-1.583,3.487c2.34-1.432,4.59-3.006,6.9-4.489.32.133.639.268.961.4q-3.86,2.554-7.736,5.084c-.261.191-.585.365-.677.7a29.371,29.371,0,0,0-.891,3.473l.264.038c.189.087.378.174.569.264a4.079,4.079,0,0,0,1.219.152q4.269-.013,8.539,0a1.787,1.787,0,0,0,1.133-.259c.818-.574,1.6-1.2,2.4-1.8.15-.112.3-.225.457-.332.658-.47,1.307-.956,1.958-1.435.317.116.635.232.949.363-.707.552-1.433,1.081-2.129,1.646-.094.066-.281.2-.373.264-.136.089-.271.179-.406.271-.065,2.119.034,4.242-.107,6.361-.022.762-.009,1.525-.009,2.289.423.005.847.008,1.273.007l.434-.007.423-.017c.065-1.495.009-2.993.043-4.489-.031-.476.326-.832.561-1.2.058.111.174.331.232.44a1.519,1.519,0,0,0-.305.934c-.014,1.447-.009,2.894-.027,4.343l.922-.007h.123c.164,0,.329,0,.5,0q2.414.023,4.825,0,0,1.917,0,3.833a2.989,2.989,0,0,1,1.81,1.621c2.683.029,5.369.014,8.053.009.014-2.93,0-5.859.009-8.788.078-.714-.871-1-.839-1.7-.063-.642.563-1,.983-1.353.314.061.629.131.941.217.452.186.846.569,1.369.525,4.595-.007,9.191.005,13.786-.007,0,6.586-.009,13.171.007,19.755q3.776.015,7.554,0c.008-.728.008-1.456-.014-2.182-1.5-.005-3.01.036-4.512-.024,1.463-.348,2.966-.046,4.445-.211l.019-.152c.012-.118.034-.356.044-.474-1.142.008-2.282.008-3.424.02a3.121,3.121,0,0,1-1.495-.239c-.02-.085-.06-.256-.08-.341a25.937,25.937,0,0,0,4.948.107c.01-.075.027-.225.036-.3s.021-.252.027-.336c.022-.605.01-1.208.01-1.81-1.2-.008-2.4-.041-3.594.027a25.048,25.048,0,0,1,3.6-.126l-.027-.179c-.014-.085-.041-.254-.055-.337-1.345-.032-2.689-.01-4.034-.007l-.43-.348c1.328-.094,2.661,0,3.99-.051a.741.741,0,0,0,.653-.322c-1.749-.387-3.557.055-5.317-.269a29.876,29.876,0,0,1,5.212-.2c.01-.963.005-1.924.008-2.885,3.871-.027,7.743.021,11.615-.024-.423-.341-.863-.656-1.3-.972.665-1.425,1.312-2.862,1.89-4.324.091-.251.177-.5.262-.753.423-1.266.84-2.536,1.144-3.835.036-.147.073-.291.11-.435.422-1.674.67-3.382.924-5.086a5.59,5.59,0,0,0,.1-2.134,27.827,27.827,0,0,0-.1-5.249,4.835,4.835,0,0,1,.06-2.31.66.66,0,0,1,1.075-.21,2.815,2.815,0,0,1,.731,1.774,41.462,41.462,0,0,1-3.893,22.054,13.943,13.943,0,0,1,4.97,7.462,23.957,23.957,0,0,1-.358,12.333,41.792,41.792,0,0,1-9.971,17.659,21.858,21.858,0,0,1-9.248,6.063,2.457,2.457,0,0,1-2.393-.331.7.7,0,0,1,.67-.977,16.034,16.034,0,0,0,7.245-3.709,22.626,22.626,0,0,0,3.105-3.088c-2.27-.009-4.545-.056-6.812.02a14.215,14.215,0,0,0-1.13,1.657c-1.278.043-2.558-.022-3.835.029-.285.242-.481.576-.787.793a1.3,1.3,0,0,1-1.679-.36c-.237-.292-.164-.682-.195-1.024q-5,.015-10.006,0c-.026.643-.026,1.287,0,1.931q4.316-.018,8.63,0c.044,5.578-.02,11.162.089,16.74a10.446,10.446,0,0,0,1.147-1.406,1.182,1.182,0,0,1,1.382-.259c.476.22.4.891.136,1.249a35.079,35.079,0,0,1-5.881,6.4,22.134,22.134,0,0,1-4.138,2.857,8.758,8.758,0,0,1-4.394,1.188,2.226,2.226,0,0,1-1.578-.585c-.233-.222-.067-.527-.036-.787a4.707,4.707,0,0,1,1.324-.193c.012-4.457.036-8.915-.01-13.371a20.05,20.05,0,0,0-1.993-1.275c0-.384.012-.765-.009-1.143-.377-.37-1.08-.564-1.07-1.193-.155-.883.91-1.473,1.665-1.176a1.126,1.126,0,0,1,.779,1.2c-.029.51-.574.729-.856,1.092a8.645,8.645,0,0,0-.008,1.033,19.126,19.126,0,0,0,2.169,1.232c2.05.046,4.1,0,6.154.017.005-.6.005-1.191-.01-1.785-1.094.01-2.188-.005-3.281,0-.549-.089-.806.644-1.356.532a.762.762,0,0,1-.426-1.375c.532-.423,1.069.065,1.49.39,1.331.041,2.667,0,4,.014q.028,1.1.005,2.2.329.015.665.036c.008-2.55-.005-5.1.008-7.649-.049-.244.1-.576-.123-.746-1.5-.027-2.993-.01-4.488,0,0,.977-.009,1.953,0,2.93-3.262.017-6.523-.01-9.785.014-.008,1.987,0,3.976-.005,5.963,1.043.1,2.091-.087,3.134.075-.017,5.79-.007,11.579-.005,17.369-.327.007-.654.008-.98.01-.022-5.538-.009-11.077-.009-16.616-.714-.01-1.428-.012-2.141,0a17.465,17.465,0,0,1-.058,2.026c-2.025.007-4.048-.012-6.073.01-.017,3.969.031,7.939-.024,11.906a20.983,20.983,0,0,0-3.791.135c-.148-.031-.295-.056-.441-.08-1.193-.123-2.4-.034-3.6-.046,0,1.4.007,2.793-.005,4.191-1.87.02-3.739.007-5.611.007-.013,2.156.016,4.314-.013,6.471l-.477-.071c.01-2.134.019-4.268-.005-6.4q-2.951,0-5.9,0a10.421,10.421,0,0,0,.951,5.5,5.752,5.752,0,0,0,3.3,2.9,4.656,4.656,0,0,0,4.5-.939,4.017,4.017,0,0,1,1.04-.874.743.743,0,0,1,.956.709,1.527,1.527,0,0,1-.554,1.263,6.593,6.593,0,0,1-4.523,1.7,7.227,7.227,0,0,1-5.781-2.989,11.015,11.015,0,0,1-1.849-6.967,11.21,11.21,0,0,1-2.192-1.6,6.5,6.5,0,0,1-1.645-5.05,8.4,8.4,0,0,0,.019-3.039,8.8,8.8,0,0,1,.76-6.809c.317-.627.777-1.162,1.13-1.766a4.082,4.082,0,0,0-.621-.871,8.116,8.116,0,0,1-1.288-5.577c.4-4.714,2.294-9.217,2.217-13.988a17.782,17.782,0,0,1-.058-1.783c.228-.929,1.926-.7,1.892.259a29.2,29.2,0,0,1-.059,4.568c3.683,0,7.366.005,11.049,0,.23.029.356-.2.506-.329a8.518,8.518,0,0,1,.994-.876c-2.529-.065-5.062-.02-7.591-.022-.021-2.069,0-4.136-.012-6.206-2.362-.01-4.723,0-7.083-.007,0-.15,0-.448,0-.6,2.352,0,4.7-.007,7.056,0,.068-1.306.024-2.615.031-3.92-2.729-.012-5.459-.005-8.188,0,0-.274,0-.551,0-.822,2.724-.024,5.449-.005,8.172-.01.013-1.273.044-2.55-.02-3.821-3.405.01-6.812.043-10.219.034a19.021,19.021,0,0,1-2.683-.06l.164-.286c4.254-.068,8.512-.029,12.766-.124q.02-1.874,0-3.746c-2.449-.015-4.9-.01-7.348,0-.387.123-.526-.225-.477-.547q3.891-.023,7.787,0c.1-1.491.017-2.984.053-4.475l.457,0c.114,1.488.022,2.984.056,4.476.592-.01,1.183-.01,1.776,0,0-1.111-.008-2.223.007-3.334.958-.769,1.94-1.51,2.877-2.3.179-.5-.007-1.186.522-1.515a1.444,1.444,0,0,1,2.148.38,1.242,1.242,0,0,1-.612,1.675c-.518.285-1.093.024-1.611-.111-.907.685-1.781,1.415-2.683,2.108,0,1.215.017,2.43-.01,3.646q-1.207-.018-2.412,0c-.012,1.249,0,2.5-.005,3.749,1.21-.01,2.422-.005,3.634-.012a3.1,3.1,0,0,1,.7-1.215,7.85,7.85,0,0,1,1.22-.654c.041-2.166,0-4.334.022-6.5q4.847-.018,9.693,0,.007-1.4,0-2.8a2.7,2.7,0,0,1-1.733-1.662c-2.894.01-5.788,0-8.68.005a2.482,2.482,0,0,1-.729,1.184,2.133,2.133,0,0,1-3.242-.806,1.877,1.877,0,0,1,1.986-2.393,2.386,2.386,0,0,1,1.92,1.181q4.374-.013,8.748,0a2.524,2.524,0,0,1,1.723-1.577c.019-1.023.01-2.044.005-3.064q-11.648.01-23.3.005a16.56,16.56,0,0,0,1.415,7.036c1.755.01,3.511,0,5.268.009.044-1.212-.019-2.425.029-3.637a11.348,11.348,0,0,1,1.711-1.333,25.632,25.632,0,0,1,2.287-1.6c.378.238-.058.554-.287.694-1.058.816-2.233,1.5-3.209,2.408-.056,1.3.01,2.6-.029,3.894-1.822.007-3.644.01-5.466,0,.153.314.573.661.368,1.031a1.671,1.671,0,0,1-2.33-.673,17.974,17.974,0,0,1-1.691-7.378,40.9,40.9,0,0,1,.985-9.935c.92-3.975,2.275-7.992,4.893-11.192a16.718,16.718,0,0,1-2.984-9.381,14.227,14.227,0,0,1,.608-3.494,4.339,4.339,0,0,1,1.067-2.04c1.142-1.169,2.306-2.628,2.219-4.356a5.807,5.807,0,0,0-1.79-3.24c-.782-1.036-1.626-2.309-1.263-3.671.615-1.643,2.575-2.246,3.25-3.852A7.363,7.363,0,0,0-689.763,324.073Zm-1.2,7.712c.223.38.353,1,.9,1,1.74.031,3.48-.01,5.221.015.917,1.372,1.813,2.756,2.773,4.1,1.084-.017,2.171.029,3.257-.015a14.007,14.007,0,0,0,2.037-.895c-1.017-1.411-2.028-2.826-3.078-4.213C-683.557,331.785-687.261,331.758-690.965,331.785Zm1.36,1.858a6.251,6.251,0,0,1,1.377,3.228c1.651.044,3.305.029,4.958.007-.631-1.12-1.439-2.127-2.1-3.226C-686.782,333.619-688.193,333.633-689.6,333.643Zm7.5,35.689a1.936,1.936,0,0,1-1.128.263c-3.726,0-7.451-.014-11.177.009a47.141,47.141,0,0,0-.632,6.509q7.453.023,14.906,0c.012-2.754.05-5.507.053-8.261C-680.773,368.323-681.422,368.852-682.105,369.332Zm23.3,1.979a2.826,2.826,0,0,1-1.033,1.045c-.005,3.351.009,6.7-.005,10.05-3.008.024-6.018.009-9.026.009a2.852,2.852,0,0,1-.855,1.174,5.194,5.194,0,0,0-.963.619c-.031.89-.013,1.781.007,2.671,5.851-.015,11.7,0,17.555-.005a2.107,2.107,0,0,1,1.358-1.016c0-3.981.013-7.963-.007-11.944-.249-.257-.643-.52-.518-.934a.885.885,0,0,1,1.618-.141c.25.433-.161.8-.44,1.076q-.016,5.916,0,11.828c-.027.527.646.81.556,1.36a1.176,1.176,0,0,1-1.314,1.1c-.532.009-.893-.423-1.2-.791q-8.8-.02-17.609,0c-.025,2.712-.015,5.423,0,8.135q.641,0,1.287-.007c.02-1.992-.005-3.987.012-5.979.107,0,.322,0,.43,0,.017,1.992-.007,3.985.012,5.979.508.012,1.019.014,1.529,0,.027-1.991-.08-3.988.06-5.975l.44-.005c.012,1.994,0,3.99.008,5.984.51.005,1.023.009,1.536,0-.009-1.616,0-3.231,0-4.847.126-.6-.838-.885-.5-1.488a.889.889,0,0,1,1.633.143c.109.464-.368.726-.643,1.007q0,2.595,0,5.19c.515,0,1.029,0,1.546-.009,0-1.991-.022-3.981.012-5.97h.493c-.007,1.992,0,3.986,0,5.979.509,0,1.021.005,1.534-.012,0-1.991-.029-3.981.014-5.972l.487.01c-.02,1.992-.012,3.985,0,5.977.515,0,1.033,0,1.549-.016,0-1.97-.032-3.94.015-5.909l.446-.089c.042,1.96-.022,3.923.031,5.882.292.293.867.073,1.273.133.339.061.225-.4.258-.588,0-1.515-.01-3.03,0-4.545l-.573-.467c.041-.295-.07-.677.211-.878.4-.409,1.018-.177,1.388.152,0,.237,0,.476-.005.718q-.266.233-.532.47c.021,1.669-.031,3.341.021,5.011l.081.119q6.036.021,12.075,0c-.01-.284-.013-.566-.02-.847a2.008,2.008,0,0,1-.842-.774,1.173,1.173,0,0,1,.491-1.4,1.4,1.4,0,0,1,2.059.608,1.126,1.126,0,0,1-.469,1.34c-.378.237-.244.707-.268,1.079,1.852.009,3.705,0,5.558.005.44.058.747-.327,1.018-.615.075-1.289.013-2.584.024-3.876a7.921,7.921,0,0,0-1.392-.022c-1.42.117-2.839-.09-4.261-.021a16.25,16.25,0,0,1-2.85-.013q.01-9.845,0-19.69C-649.956,371.3-654.382,371.294-658.807,371.311Zm22.729,9.12c-.017.683-.015,1.367,0,2.05l.109.436-.142.01.005.361a2.838,2.838,0,0,0,.754.189c4.313.007,8.629-.031,12.944.022-.053-.089-.157-.263-.21-.349l.283-.051-.2-.019-.039-.23h-.177c0-.176.01-.351.02-.523l-.111.031a10.714,10.714,0,0,0-1.623-1.9C-628.332,380.388-632.207,380.441-636.078,380.431Zm-48.635.455a1.384,1.384,0,0,0-.668,2.239c.825,1.028,2.863.447,2.785-.942A1.568,1.568,0,0,0-684.713,380.886Zm12.367.656c.218.019.436.039.656.06-.007-.211-.01-.423-.015-.632C-671.92,381.159-672.133,381.351-672.346,381.542Zm1.665-.583c-.016.206-.027.414-.038.624l.665-.017A2.584,2.584,0,0,0-670.681,380.959Zm-1.682,1.491c.206.215.417.424.639.627.015-.23.031-.457.046-.683Q-672.023,382.42-672.363,382.45Zm1.65-.044c.007.218.017.438.029.658a4.572,4.572,0,0,0,.757-.613C-670.192,382.43-670.453,382.418-670.714,382.406Zm34.544,1.629.155.174a10.479,10.479,0,0,0-.07,1.938c4.939.012,9.878-.019,14.817-.017a6.959,6.959,0,0,0-.7-1.929c.048-.063.14-.188.188-.249l-.176,0a.741.741,0,0,0-.786-.358q-6.475.028-12.953.056A.4.4,0,0,0-636.17,384.035Zm.01,2.362c.041.08.125.239.165.317.037.118.111.353.148.47-.182.046-.279.2-.288.458,5.055.039,10.112.017,15.167.01-.007-.129-.019-.392-.024-.523q-.214-.22-.424-.436c.075-.032.225-.1.3-.131l-.015-.2C-626.138,386.326-631.151,386.347-636.16,386.4Zm-44.57,1.012c0,1.992-.032,3.986.013,5.979a4.433,4.433,0,0,1,1.379.733,3.248,3.248,0,0,1,.6,1.111c.793,0,1.587-.007,2.383,0,.015,2.269.007,4.539,0,6.807.408,0,.817-.005,1.226,0a7.9,7.9,0,0,1,.2-2.7,2.571,2.571,0,0,1,2.6-.838,2.159,2.159,0,0,1,1.742,1.227,22.79,22.79,0,0,1,.018,2.315c2.274-.014,4.546,0,6.819-.007a3.657,3.657,0,0,1,3.337-2.872,3.989,3.989,0,0,1,2.983,1,3.085,3.085,0,0,1,.675,3.734A3.9,3.9,0,0,1-662.446,405a3.624,3.624,0,0,1-1.379-2.577c-2.248.01-4.5-.07-6.744.043-.018,2.735-.021,5.471-.087,8.2q1.14.021,2.284,0c0-.869.029-1.738,0-2.606-.012-.492-.581-1.014-.162-1.471.368-.484,1.011-.266,1.44,0,.113.532-.2.978-.324,1.473-.043.866-.014,1.735,0,2.6,0,.1,0,.3-.005.4-.028,1.607-.005,3.216-.014,4.827-.666.056-1.333.043-2,.044q-7.79-.008-15.578,0-.028,2.978,0,5.96,9.858.015,19.714,0c.014-.9.008-1.791.01-2.686,3.154.009,6.31.019,9.464,0a8.719,8.719,0,0,0-.009-2.078c-.058-.2-.112-.4-.167-.595l.162,0a24.736,24.736,0,0,1,.082-2.778c1.556.007,3.115.027,4.674-.012-.027-1.817.024-3.634-.022-5.449a10.284,10.284,0,0,0-1.2-1.174c-.344-.29-.63-.724-1.114-.767a1.949,1.949,0,0,1-.965-.424,1.518,1.518,0,0,0-.007-.678,1.119,1.119,0,0,1,1.237-.341c.412.172.366.678.51,1.033.644.786,1.553,1.324,2.171,2.134.07,1.885.019,3.777.022,5.665.733.031,1.466.026,2.2.015.017-1.514-.012-3.027.017-4.54.755-.206,1.51-.409,2.256-.643.008-1.142-.02-2.284.021-3.424l.4.094a31.87,31.87,0,0,1,.055,3.521,7.45,7.45,0,0,1-2.228.736c-.019,1.415,0,2.831-.012,4.245,1.055.029,2.108.019,3.163.009-.012-3.857.007-7.716-.009-11.573a2.379,2.379,0,0,1-1.754-1.9c-2.713,0-5.427.029-8.14-.015l.007-.189-.5-.049.007-.179c2.882-.009,5.766,0,8.651-.005a2.621,2.621,0,0,1,1.728-1.711c.007-.6.007-1.192.007-1.786-4.056.012-8.114,0-12.171.007a16.659,16.659,0,0,1-.068,2.6l-.4.1c-.051-.9-.031-1.8-.02-2.7l-1.558,0c.008.886.013,1.774-.005,2.662l-.45-.089c-.051-.857-.01-1.715-.015-2.572-.515,0-1.029,0-1.543-.01-.018.871-.026,1.743,0,2.616l-.5.041c-.027-.885-.02-1.767-.012-2.648-.506,0-1.012,0-1.518,0-.017.876-.021,1.754,0,2.63l-.5.007c-.026-.879-.017-1.757-.012-2.637q-.77,0-1.534,0c-.017.876-.015,1.754-.005,2.631l-.462,0c-.06-.876-.031-1.754-.036-2.63q-.764,0-1.525,0c-.014.878-.009,1.757-.009,2.638l-.48-.012c-.048-.876-.027-1.754-.027-2.63l-1.483.005c-.082.874-.037,1.755-.049,2.635l-.436,0c-.01-.878.02-1.757-.036-2.633-.75-.005-1.5.005-2.246-.012-.019-2.984-.005-5.967-.008-8.951Q-676.207,387.391-680.73,387.41Zm44.659.634c-.024.728-.022,1.455-.007,2.183q7.68.013,15.358,0a17.557,17.557,0,0,0-.133-2.175C-625.925,388.049-631,388.058-636.071,388.044Zm-.01,3.02c0,1.237-.032,2.476.008,3.712.37.482,1.082.983.706,1.677a1.372,1.372,0,0,1-2.417-.085c-1.946,0-3.893,0-5.839,0,0,.579.007,1.159,0,1.74a2.527,2.527,0,0,1,1.842,1.747l.17.448-.136,0a2.323,2.323,0,0,1-1.875,1.924c0,3.864.005,7.727-.005,11.591a1.875,1.875,0,0,1,1.251.82c1.181.01,2.366.034,3.549,0,.54-.421.757-1.132,1.231-1.621.2-.147.47-.055.7-.082,2.332,0,4.665.027,7-.012a16.107,16.107,0,0,0,2.069-2.577c-.05-.111-.15-.331-.2-.441.264.01.58.017.716-.263a41.708,41.708,0,0,0,2.356-3.879c-1.706-.053-3.416.024-5.12-.084-.218-.039-.51.031-.634-.2-.9-1.261-1.782-2.536-2.666-3.808q-2.26-.013-4.52,0c-.313-.014-.511.273-.763.407a.8.8,0,0,1-1.159-.332c-.3-.54.315-1.19.874-1.058.348.111.644.4,1.031.37,1.536.017,3.073-.014,4.61.009.244-.036.366.225.51.377.873,1.222,1.708,2.471,2.586,3.688,1.7.017,3.4-.017,5.091.1.481.1.644-.414.823-.745a31.216,31.216,0,0,0,1.73-4.172c.045-.111.132-.331.175-.44a26.545,26.545,0,0,0,1.645-8.856c-2.713-.077-5.423.145-8.133,0-1.251-.051-2.5.136-3.748.019C-633.775,390.947-634.927,391.112-636.081,391.064Zm-46.186,4.16c.291.014.588.024.884.034-.01-.29-.02-.579-.034-.866A2.021,2.021,0,0,0-682.267,395.224Zm1.531-.8c-.007.274-.012.551-.019.828q.483,0,.97-.015A1.381,1.381,0,0,0-680.736,394.42Zm-6.22,1.273c-.007,1.275,0,2.551,0,3.828.8-.007,1.592,0,2.389,0q.01.4.021.808c-.8.02-1.6.024-2.4,0-.015,1.314-.007,2.626,0,3.94q2.781-.01,5.563,0c0-2.24.009-4.479,0-6.719a2.475,2.475,0,0,1-1.943-1.865C-684.546,395.688-685.751,395.7-686.956,395.693Zm4.689.019a1.467,1.467,0,0,0,.864.871c.005-.305.012-.607.014-.91C-681.683,395.683-681.976,395.695-682.267,395.712Zm1.515-.027c.009.32.012.641.019.965a1.7,1.7,0,0,0,.961-.958C-680.1,395.683-680.425,395.683-680.752,395.685Zm2.02-.005a2.514,2.514,0,0,1-.852,1.4c-.336.281-.832.3-1.139.61-.034,2.39,0,4.781-.013,7.17-2.074.029-4.149,0-6.223.014.007,1.935,0,3.869.007,5.8,3.9.017,7.794.01,11.692,0,.065-2.754.111-5.507.106-8.261q-.836-.008-1.672,0c-.022-2.246-.01-4.494-.005-6.741C-677.466,395.676-678.1,395.674-678.732,395.68Zm5.1,3.281c-.455.123-.968.453-1,.968-.046.7-.007,1.411-.017,2.117,1.2-.012,2.408-.009,3.615,0-.012-.706.029-1.411-.009-2.115.007-.353-.317-.578-.588-.733A3.058,3.058,0,0,0-673.635,398.96Zm30.044.08c-.02.276-.034.554-.046.834.274-.014.55-.029.828-.048A4.489,4.489,0,0,0-643.591,399.04Zm-1.682.774.7.066c-.017-.244-.034-.488-.053-.728C-644.85,399.363-645.065,399.586-645.273,399.814Zm-18.037,2.219c.377.005.755.027,1.133,0,.38-.5.672-1.154,1.329-1.345a2.048,2.048,0,0,1,2.765,1.447,1.99,1.99,0,0,1-2.766,1.941c-.719-.222-1.043-.927-1.327-1.554-.341-.228-.818-.049-1.208-.089a3.226,3.226,0,0,0,.765,1.9,3.518,3.518,0,0,0,4.665.4,2.875,2.875,0,0,0,1.145-2.442,3.062,3.062,0,0,0-2.294-2.638A3.3,3.3,0,0,0-663.31,402.033Zm18.037-1.72a1.325,1.325,0,0,0,.673.876c.008-.3.017-.6.022-.9C-644.811,400.293-645.043,400.3-645.273,400.314Zm1.641-.015c.007.329.014.66.031.992a1.57,1.57,0,0,0,.8-.982C-643.079,400.3-643.355,400.3-643.632,400.3Zm-16.873.7a1.541,1.541,0,0,0-1.14,1.116,1.487,1.487,0,0,0,1.583,1.672,1.436,1.436,0,0,0,1.451-1.943A1.634,1.634,0,0,0-660.5,401Zm-14.163,1.491c.041,2.729-.071,5.456-.085,8.184.44,0,.883,0,1.324-.007,0-1.532,0-3.063,0-4.593q-.353-.322-.707-.637c-.017-.992,0-1.982-.019-2.972Zm.922-.07c0,.861-.044,1.723,0,2.585a2.69,2.69,0,0,0,.684.748c.073,1.621-.089,3.257.081,4.869l.15.1.169-.08c.082-.856.016-1.716.031-2.572.019-.37-.08-.81.228-1.087.249-.349.726-.625.66-1.111,0-1.149.005-2.3-.014-3.448C-672.418,402.415-673.083,402.413-673.746,402.424Zm2.461-.084a28.227,28.227,0,0,0,.051,3.981,6.358,6.358,0,0,0-.872,1.113c-.057,1.077-.009,2.159-.017,3.24.339.005.68.007,1.023.01,0-1.3.063-2.606,0-3.9a31.555,31.555,0,0,0,.125-3.477C-671,402.962-670.886,402.5-671.284,402.34Zm-7.434,8.764c.726.4,1.563.983,1.522,1.917a2.052,2.052,0,0,1-2.911,1.621c-.627-.22-.876-.869-1.249-1.353-3.756,0-7.515-.022-11.271.014a47.575,47.575,0,0,1-.945,4.755c1.5-.005,3.008-.014,4.513.007-.075,1.614.152,3.228.012,4.842.058,1.316.041,2.635.049,3.954,1.692.021,3.385.015,5.079.017a2.2,2.2,0,0,1,2.543-1.21,1.846,1.846,0,0,1,1.406,2.19,2.19,2.19,0,0,1-1.522,1.4c0,.574,0,1.15-.009,1.726,2.211.022,4.423.026,6.634,0,0-.927.039-1.854.009-2.78-.307-.334-.811-.453-1.036-.871a1.2,1.2,0,0,1,.573-1.612,1.387,1.387,0,0,1,2.062,1.1c.015.624-.564,1.016-1.069,1.249-.053.97-.109,1.94-.075,2.913.883.019,1.766.012,2.649.005,0-.752.005-1.505,0-2.255,2.153-.043,4.31.072,6.461-.065q.018-2.981,0-5.958c-6.88-.022-13.763,0-20.643-.012-.111-1.234-.036-2.476-.056-3.714.022-1.3-.056-2.594.061-3.886q8.781,0,17.565,0c.014-1.34.009-2.679,0-4.019C-671.82,411.085-675.271,411.037-678.719,411.1Zm-1.222.619a1.373,1.373,0,0,0-.551,2.127,1.627,1.627,0,0,0,2.828-.694A1.559,1.559,0,0,0-679.941,411.723Zm25.107,5.415c-.01.694-.009,1.387,0,2.084,1.757.01,3.513.005,5.27.005q-.008,4.737,0,9.474c-.443.034-.886.048-1.326.077l-.02-.15a22.008,22.008,0,0,0-.133,3.823c.025.581-.136,1.241.225,1.754.019,1.307-.006,2.618.03,3.927A27.969,27.969,0,0,0-647.461,435c.293-.348.709-.68.718-1.174-.12-5.556-.065-11.119-.1-16.679C-649.506,417.134-652.17,417.148-654.834,417.137Zm-38.876,1.52c-.534,2.65-1.277,5.461-.416,8.125,1.473.15,2.959.058,4.438.077q.021-4.126,0-8.251C-691.028,418.622-692.374,418.538-693.71,418.658Zm29.078,1.116c.009.7,0,1.408.009,2.112,2.926.044,5.861.072,8.787-.015a13.864,13.864,0,0,0,.058-2.095C-658.73,419.75-661.681,419.755-664.632,419.774Zm-18.683,7.146c.382-.129.74-.322,1.118-.462a1.073,1.073,0,0,1,1.374,1.2c-.215.4-.574.694-.755,1.113A1.339,1.339,0,0,0-680.4,427.2C-680.551,425.8-682.924,425.536-683.315,426.92Zm-5.677.319a26.367,26.367,0,0,0-.039,3.743c2.343.027,4.688.012,7.032.007,0-.535.026-1.07,0-1.6-.44-.286-1.031-.3-1.4-.7a2.7,2.7,0,0,1-.615-1.437C-685.68,427.266-687.336,427.247-688.993,427.239Zm-4.905.017a6.218,6.218,0,0,0,1.97,2.223c-.409.525-.861,1.016-1.255,1.554a7.614,7.614,0,0,0-1.626,4.878c2.1.019,4.2.008,6.3.008.426.024.757-.285,1.121-.452a6.3,6.3,0,0,1,5.543-.162,6.909,6.909,0,0,1,2.534,2.132c.019-.233.039-.464.058-.694.193,0,.387,0,.583,0,.14,1.958.03,3.923.063,5.885,1.212-.008,2.424,0,3.635-.007-.007-3.692.041-7.383.048-11.073-2.188-.015-4.378-.019-6.567,0,0,.66,0,1.323,0,1.986a2.975,2.975,0,0,1,.693.385,2.47,2.47,0,0,1,.072.856c-.264.119-.507.358-.811.339-.5.024-.992-.539-.719-1.017a5.614,5.614,0,0,0,.254-2.553q-3.84-.013-7.678,0c0-1.43,0-2.86,0-4.288C-691.087,427.236-692.493,427.212-693.9,427.256Zm10.373.23a1.6,1.6,0,0,0,1.566,1.382c-.039-.552-.774-.532-.949-1C-683.057,427.6-683.271,426.854-683.525,427.486Zm26.983,1.275c.867.617,1.8,1.132,2.7,1.708.022,3.26,0,6.521.052,9.78a19.24,19.24,0,0,0,2.5-1.658c.017-3.283-.008-6.567-.034-9.849C-653.063,428.752-654.8,428.718-656.542,428.761Zm-.927.015q-.025,6.476,0,12.95a10.486,10.486,0,0,0,3.16-1.142c.017-3.312-.039-6.625-.037-9.936C-655.4,430.041-656.4,429.356-657.469,428.776Zm-13.29.74c0,.487,0,.977-.005,1.467,1.824.024,3.649.02,5.473,0q0-.739-.007-1.473C-667.119,429.5-668.939,429.5-670.759,429.516Zm-3.644,2.033q-.048,5.543-.1,11.085c.914-.005,1.827-.008,2.742,0,.024-3.7.014-7.4,0-11.09C-672.643,431.537-673.522,431.536-674.4,431.549Zm-12.357,4.327c1.541.068,3.092.078,4.632,0A4.725,4.725,0,0,0-686.76,435.877Zm5.331.295c-.036.142-.106.426-.142.568-2.091.022-4.182,0-6.273.009-.559-.061-.822.537-1.1.912a4.338,4.338,0,0,0,.264,4.972c1.319,0,2.64-.005,3.961,0,.01-.5.03-1.007.007-1.508-.37-.264-.873-.377-1.115-.789a1.24,1.24,0,0,1,.227-1.387,1.385,1.385,0,0,1,2.262.665c.138.641-.431,1.069-.886,1.392-.005.542,0,1.086,0,1.629,1.336-.014,2.674.005,4.01-.012a4.463,4.463,0,0,0,.869-2.673A4.544,4.544,0,0,0-681.429,436.171Zm-12.66.58q.013,2.938,0,5.876c1.531,0,3.061,0,4.59,0a5.124,5.124,0,0,1,.445-5.882C-690.735,436.751-692.411,436.742-694.089,436.751Zm14.616,5.619c-.094.276,0,.371.28.283Q-679.06,442.234-679.472,442.37Zm-8.375,1.087a5.574,5.574,0,0,0,3.136,1.173c0-.4,0-.791-.017-1.185C-685.768,443.464-686.808,443.451-687.847,443.457Zm-6.463.01a4.011,4.011,0,0,0,.9,1.711,8.273,8.273,0,0,0,3.059,1.861c1.875.066,3.756,0,5.635.031.014-.627.014-1.251.005-1.875a6.92,6.92,0,0,1-2.8-.816c-.482-.256-.869-.656-1.35-.91C-690.678,443.437-692.5,443.452-694.31,443.468Zm10.078,0c0,.383,0,.767.007,1.154a5,5,0,0,0,3.012-1.128C-682.22,443.418-683.227,443.459-684.232,443.469Zm2.953.83a6.775,6.775,0,0,1-2.95.9q0,.936,0,1.873c1.648-.01,3.3,0,4.944-.007.017-1.2.01-2.407,0-3.61a5.138,5.138,0,0,0-.874.041C-680.542,443.74-680.882,444.061-681.279,444.3Z" transform="translate(700.41 -323.655)" fill="#fff"/>
        </g>
      </g>
      <g id="Group_57" data-name="Group 57" transform="translate(119.232 43.748)">
        <path id="Path_244" data-name="Path 244" d="M-433.813,338.83c.077,0,.232.01.308.015.082,1.185-.055,2.374.043,3.559a3.526,3.526,0,0,1-.36-.714C-433.83,340.736-433.878,339.781-433.813,338.83Z" transform="translate(433.846 -338.83)" fill="#fff"/>
      </g>
      <g id="Group_58" data-name="Group 58" transform="translate(105.97 55.113)">
        <path id="Path_245" data-name="Path 245" d="M-511.524,406.037a2.231,2.231,0,0,1,2.758-.087,1.8,1.8,0,0,1,.537,2.079,2.089,2.089,0,0,1-3.431.4c.014-.082.043-.244.056-.324a4.9,4.9,0,0,0,1.208.632,1.593,1.593,0,0,0,1.842-1.115,1.475,1.475,0,0,0-1.249-1.7,2.288,2.288,0,0,0-1.594.464C-511.426,406.3-511.491,406.125-511.524,406.037Z" transform="translate(511.66 -405.514)" fill="#fff"/>
      </g>
      <g id="Group_59" data-name="Group 59" transform="translate(106.396 55.923)">
        <path id="Path_246" data-name="Path 246" d="M-508.479,410.323a1.3,1.3,0,0,1,1.273.242.978.978,0,0,1-.158,1.529,1.181,1.181,0,0,1-1.75-.532A1.054,1.054,0,0,1-508.479,410.323Z" transform="translate(509.159 -410.264)" fill="#fff"/>
      </g>
      <g id="Group_60" data-name="Group 60" transform="translate(101.412 60.576)">
        <path id="Path_247" data-name="Path 247" d="M-538.024,437.713a.85.85,0,0,1,1.309.755.882.882,0,0,1-1.435.418A.718.718,0,0,1-538.024,437.713Z" transform="translate(538.401 -437.565)" fill="#fff"/>
      </g>
      <g id="Group_61" data-name="Group 61" transform="translate(112.883 62.235)">
        <path id="Path_248" data-name="Path 248" d="M-470.607,447.333a.673.673,0,0,1,.868.757.708.708,0,0,1-1.256.116C-471.27,447.89-470.951,447.422-470.607,447.333Z" transform="translate(471.099 -447.302)" fill="#fff"/>
      </g>
      <g id="Group_62" data-name="Group 62" transform="translate(111.516 63.12)">
        <path id="Path_249" data-name="Path 249" d="M-478.792,452.624a.653.653,0,0,1,1.024.639.688.688,0,0,1-1.3-.026C-479.23,453-478.935,452.778-478.792,452.624Z" transform="translate(479.117 -452.496)" fill="#fff"/>
      </g>
      <g id="Group_63" data-name="Group 63" transform="translate(110.105 64.113)">
        <path id="Path_250" data-name="Path 250" d="M-487.016,458.358c.4-.135.99.078.91.585.058.724-1.162.8-1.276.125A.644.644,0,0,1-487.016,458.358Z" transform="translate(487.398 -458.318)" fill="#fff"/>
      </g>
      <g id="Group_64" data-name="Group 64" transform="translate(100.347 65.481)">
        <path id="Path_251" data-name="Path 251" d="M-544.414,466.486c.368-.326,1.125-.053,1.074.482a.653.653,0,0,1-1.062.46A.581.581,0,0,1-544.414,466.486Z" transform="translate(544.649 -466.345)" fill="#fff"/>
      </g>
      <g id="Group_65" data-name="Group 65" transform="translate(98.994 66.36)">
        <path id="Path_252" data-name="Path 252" d="M-552.355,471.649c.361-.324,1.108-.071,1.06.455a.614.614,0,0,1-.757.61A.6.6,0,0,1-552.355,471.649Z" transform="translate(552.592 -471.505)" fill="#fff"/>
      </g>
      <g id="Group_66" data-name="Group 66" transform="translate(97.516 67.35)">
        <path id="Path_253" data-name="Path 253" d="M-561.082,477.508c.4-.452,1.37-.063,1.14.573-.2.74-1.49.475-1.3-.3C-561.2,477.709-561.123,477.574-561.082,477.508Z" transform="translate(561.261 -477.312)" fill="#fff"/>
      </g>
      <g id="Group_67" data-name="Group 67" transform="translate(104.114 70.374)">
        <path id="Path_254" data-name="Path 254" d="M-522,495.608a2.218,2.218,0,0,1,2.85-.073l-.4.191a1.8,1.8,0,0,0-2.156.165,1.347,1.347,0,0,0,.051,1.994c.5.542,1.289.32,1.936.317l.429.089a2.186,2.186,0,0,1-2.666-.106A1.748,1.748,0,0,1-522,495.608Z" transform="translate(522.549 -495.053)" fill="#fff"/>
      </g>
      <g id="Group_68" data-name="Group 68" transform="translate(104.984 71.157)">
        <path id="Path_255" data-name="Path 255" d="M-516.751,499.745a1.1,1.1,0,0,1,1.538,1.15,1.178,1.178,0,0,1-2,.416A.986.986,0,0,1-516.751,499.745Z" transform="translate(517.445 -499.65)" fill="#fff"/>
      </g>
      <g id="Group_69" data-name="Group 69" transform="translate(88.953 74.22)">
        <path id="Path_256" data-name="Path 256" d="M-309.034,517.756a1.147,1.147,0,0,1,1.675.946,1.171,1.171,0,0,1-1.817.772A.994.994,0,0,1-309.034,517.756Z" transform="translate(361.059 -517.619)" fill="#fff"/>
        <path id="Path_257" data-name="Path 257" d="M-610.766,661.352a1.166,1.166,0,0,1,1.508.927,1.138,1.138,0,0,1-1.783.873A1,1,0,0,1-610.766,661.352Z" transform="translate(611.501 -636.813)" fill="#fff"/>
        <path id="Path_258" data-name="Path 258" d="M-364.507,792.583a1.157,1.157,0,0,1,1.173-1.239,1.5,1.5,0,0,1,1.185.576c.058.107.176.319.234.426-.206.411-.343.936-.808,1.132A1.249,1.249,0,0,1-364.507,792.583Z" transform="translate(406.612 -744.688)" fill="#fff"/>
        <path id="Path_259" data-name="Path 259" d="M-280.136,860.769a1.221,1.221,0,0,1,1.706,1.307,1.31,1.31,0,0,1-2.333.223A1.07,1.07,0,0,1-280.136,860.769Z" transform="translate(337.255 -802.194)" fill="#fff"/>
      </g>
      <g id="Group_70" data-name="Group 70" transform="translate(141.623 83.687)">
        <path id="Path_260" data-name="Path 260" d="M-302.47,573.17c1.265.041,2.529,0,3.794.031.291,1.026.624,2.04.946,3.059,1.517,0,3.035.034,4.552-.022-.037.143-.075.288-.111.435-1.609-.032-3.22.007-4.828-.022-.312-1.024-.636-2.045-.956-3.066a21.206,21.206,0,0,0-3.359.106C-302.446,573.516-302.46,573.342-302.47,573.17Z" transform="translate(302.47 -573.17)" fill="#fff"/>
      </g>
      <g id="Group_71" data-name="Group 71" transform="translate(95 84.432)">
        <path id="Path_261" data-name="Path 261" d="M-576,577.8c.092-.067.28-.2.373-.264.119.641-.167,1.435.348,1.946.189.261.5.493.464.855.027,2.127-.049,4.256,0,6.383l-.434.007c.039-2.018.041-4.038.037-6.057.039-.39-.286-.651-.489-.941C-576.2,579.219-575.971,578.447-576,577.8Z" transform="translate(576.027 -577.54)" fill="#fff"/>
      </g>
      <g id="Group_72" data-name="Group 72" transform="translate(100.867 84.718)">
        <path id="Path_262" data-name="Path 262" d="M-535.253,579.23c1.5-.017,3,0,4.5-.01.005.131.014.4.017.53-1.382.043-2.764,0-4.146.019-.665.949-1.3,1.922-1.991,2.855-.985.131-1.987-.025-2.976.068-.433.172-.862.673-1.346.348a.752.752,0,0,1,.143-1.391c.637-.213,1.021.574,1.646.477a8.983,8.983,0,0,0,2.16-.1C-536.514,581.146-535.916,580.161-535.253,579.23Z" transform="translate(541.6 -579.22)" fill="#fff"/>
      </g>
      <g id="Group_74" data-name="Group 74" transform="translate(99.363 86.792)">
        <g id="Group_73" data-name="Group 73" transform="translate(0 0)">
          <path id="Path_263" data-name="Path 263" d="M-541.331,591.931c.17-.208.3-.545.619-.526,1.473-.034,2.949-.017,4.423,0a2.263,2.263,0,0,0,.972.648c-.312-.085-.627-.155-.941-.217-1.328-.109-2.662-.042-3.993-.051-.448-.067-.663.389-.888.685q-1.178,1.792-2.384,3.565c-.936.005-1.871,0-2.805.01a2.344,2.344,0,0,1-1.328,1.5,2,2,0,0,1-2.766-1.636,2,2,0,0,1,2.972-1.653c.617.242.788.958,1.26,1.351.787.068,1.582.012,2.374.022C-542.989,594.4-542.147,593.173-541.331,591.931Zm-7.532,2.553a1.416,1.416,0,0,0-1.024,1.89,1.622,1.622,0,0,0,3.015-.293A1.531,1.531,0,0,0-548.862,594.484Z" transform="translate(550.426 -591.385)" fill="#fff"/>
        </g>
      </g>
      <g id="Group_75" data-name="Group 75" transform="translate(100.245 90.243)">
        <path id="Path_264" data-name="Path 264" d="M-544.585,611.734a1.1,1.1,0,0,1,1.573.982,1.138,1.138,0,0,1-1.922.639A.967.967,0,0,1-544.585,611.734Z" transform="translate(545.247 -611.632)" fill="#fff"/>
      </g>
      <g id="Group_76" data-name="Group 76" transform="translate(105.165 92.201)">
        <path id="Path_265" data-name="Path 265" d="M-504.289,623.12l.467.014c.092,2.372.017,4.75.041,7.124a28.99,28.99,0,0,1-.1,3.593c-1.907-.14-3.825-.022-5.735-.058q-3.385,0-6.768,0c.044-.1.134-.286.181-.38,3.966-.039,7.937.01,11.9-.022C-504.277,629.968-504.293,626.544-504.289,623.12Z" transform="translate(516.38 -623.12)" fill="#fff"/>
      </g>
      <g id="Group_77" data-name="Group 77" transform="translate(106.365 92.962)">
        <path id="Path_266" data-name="Path 266" d="M-497.391,627.634c.22-.017.441-.032.666-.044q.033,5.422,0,10.846c-4.2,0-8.411.02-12.615-.012.007-.141.022-.424.029-.566l.146.01c3.913.061,7.83.025,11.745.017l.021-.177C-497.36,634.351-497.379,630.992-497.391,627.634Z" transform="translate(509.34 -627.59)" fill="#fff"/>
      </g>
      <g id="Group_78" data-name="Group 78" transform="translate(125.126 95.645)">
        <path id="Path_267" data-name="Path 267" d="M-398.069,643.363a1.432,1.432,0,0,1,1.774,1.275,1.359,1.359,0,0,1-1.5,1.49,1.431,1.431,0,0,1-1.442-1.669A1.521,1.521,0,0,1-398.069,643.363Z" transform="translate(399.262 -643.329)" fill="#fff"/>
        <path id="Path_268" data-name="Path 268" d="M-398.347,663.577a1.462,1.462,0,0,1,2.122,1.309,1.477,1.477,0,0,1-2.488.985A1.378,1.378,0,0,1-398.347,663.577Z" transform="translate(399.196 -659.998)" fill="#fff"/>
        <path id="Path_269" data-name="Path 269" d="M-266.7,845.613a1.23,1.23,0,0,1,1.923,1.047c-.048,1.016-1.481,1.317-2.122.659A1.08,1.08,0,0,1-266.7,845.613Z" transform="translate(289.734 -810.96)" fill="#fff"/>
        <path id="Path_270" data-name="Path 270" d="M-318.679,891.867a1.212,1.212,0,0,1,1.556,1.331,1.291,1.291,0,0,1-2.035.61A1.111,1.111,0,0,1-318.679,891.867Z" transform="translate(333.146 -849.459)" fill="#fff"/>
      </g>
      <g id="Group_79" data-name="Group 79" transform="translate(138.133 99.834)">
        <path id="Path_271" data-name="Path 271" d="M-309.712,667.941l.111-.031c-.01.172-.017.348-.02.523-4.406.056-8.815-.029-13.219.066l-.109-.436q5.648,0,11.295,0A6.992,6.992,0,0,0-309.712,667.941Z" transform="translate(322.95 -667.91)" fill="#fff"/>
      </g>
      <g id="Group_80" data-name="Group 80" transform="translate(129.869 100.182)">
        <path id="Path_272" data-name="Path 272" d="M-371.431,672.341a2.552,2.552,0,0,1,2.1-2.391c1.761.324,3.569-.118,5.318.269-1.351-.058-2.7-.022-4.055-.031a2.888,2.888,0,0,0-2.695,1.339,2.407,2.407,0,0,0,.936,2.925,4.4,4.4,0,0,0,2.611.486c1.011-.01,2.023,0,3.035-.005l-.019.152c-1.479.165-2.983-.136-4.445.211A2.989,2.989,0,0,1-371.431,672.341Z" transform="translate(371.434 -669.95)" fill="#fff"/>
      </g>
      <g id="Group_81" data-name="Group 81" transform="translate(138.105 100.657)">
        <path id="Path_273" data-name="Path 273" d="M-323.11,672.878c4.494-.1,9-.024,13.488-.138.053.087.157.261.21.349-4.315-.053-8.631-.015-12.944-.022A2.841,2.841,0,0,1-323.11,672.878Z" transform="translate(323.11 -672.74)" fill="#fff"/>
      </g>
      <g id="Group_82" data-name="Group 82" transform="translate(130.977 100.825)">
        <path id="Path_274" data-name="Path 274" d="M-364.795,674.891a2.156,2.156,0,0,1,1.532-1.171l.43.348c-.69.109-1.481.475-1.6,1.246-.15.669.4,1.172.687,1.714.02.085.06.256.08.341A1.956,1.956,0,0,1-364.795,674.891Z" transform="translate(364.935 -673.72)" fill="#fff"/>
      </g>
      <g id="Group_83" data-name="Group 83" transform="translate(138.041 101.459)">
        <path id="Path_275" data-name="Path 275" d="M-309.271,677.442l.176,0c-.048.061-.14.186-.187.249-2.64.114-5.289.025-7.932.066-2.04-.041-4.087.1-6.12-.058l-.155-.174C-318.752,677.426-314.01,677.527-309.271,677.442Z" transform="translate(323.49 -677.44)" fill="#fff"/>
      </g>
      <g id="Group_84" data-name="Group 84" transform="translate(125.131 102.765)">
        <path id="Path_276" data-name="Path 276" d="M-398.221,685.159a1.7,1.7,0,0,1,1.474.267,1.385,1.385,0,0,1-.148,2.23,1.514,1.514,0,0,1-2.326-1.033A1.4,1.4,0,0,1-398.221,685.159Z" transform="translate(399.232 -685.105)" fill="#fff"/>
      </g>
      <g id="Group_85" data-name="Group 85" transform="translate(138.216 104.2)">
        <path id="Path_277" data-name="Path 277" d="M-322.46,693.547c4.859.036,9.72-.029,14.579-.021.14.145.281.29.425.436-4.953,0-9.9.041-14.855.055C-322.349,693.9-322.423,693.665-322.46,693.547Z" transform="translate(322.46 -693.526)" fill="#fff"/>
      </g>
      <g id="Group_86" data-name="Group 86" transform="translate(132.432 117.362)">
        <path id="Path_278" data-name="Path 278" d="M-356.4,770.75c6.465.01,12.929-.007,19.394.01-.044.109-.131.329-.176.44q-9.523.011-19.048,0Z" transform="translate(356.4 -770.75)" fill="#fff"/>
      </g>
      <g id="Group_87" data-name="Group 87" transform="translate(113.006 118.852)">
        <path id="Path_279" data-name="Path 279" d="M-469.7,779.592a1.132,1.132,0,0,1,1.566.845,1.082,1.082,0,0,1-1.1,1.113,1.089,1.089,0,0,1-1.137-1.084A1.067,1.067,0,0,1-469.7,779.592Z" transform="translate(470.375 -779.494)" fill="#fff"/>
      </g>
      <g id="Group_88" data-name="Group 88" transform="translate(133.415 121.439)">
        <path id="Path_280" data-name="Path 280" d="M-350.63,794.684c1.592-.015,3.184,0,4.776-.013.331.012.752-.05.941.3,1.3,1.875,2.541,3.794,3.843,5.669,1.07-.012,2.141-.007,3.211,0,.05.111.15.331.2.441-1.191-.044-2.388.057-3.574-.042a3.47,3.47,0,0,1-.861-1.052c-1.089-1.626-2.165-3.261-3.284-4.864-1.674,0-3.346.026-5.017-.012C-350.454,795-350.572,794.791-350.63,794.684Z" transform="translate(350.63 -794.67)" fill="#fff"/>
      </g>
      <g id="Group_89" data-name="Group 89" transform="translate(92.255 128.922)">
        <path id="Path_281" data-name="Path 281" d="M-576.835,839.461a.822.822,0,0,1,1.242-.757.687.687,0,0,1,.206,1.1c-.136.146-.286.279-.411.436-.06,1.259.015,2.521-.036,3.782-5.263.726-10.545,1.319-15.809,2.03,0,.835.017,1.67-.021,2.505l-.411-.09a25.292,25.292,0,0,1-.029-2.783c4.336-.566,8.677-1.084,13.011-1.656a26.393,26.393,0,0,0,2.8-.377c-.024-1.045.007-2.089-.01-3.132C-576.254,840.074-576.748,839.858-576.835,839.461Z" transform="translate(592.128 -838.58)" fill="#fff"/>
      </g>
      <g id="Group_90" data-name="Group 90" transform="translate(93.877 129.475)">
        <path id="Path_282" data-name="Path 282" d="M-581.879,841.9a1.057,1.057,0,0,1,1.459.975c.051.985-1.409,1.314-1.958.612A.989.989,0,0,1-581.879,841.9Z" transform="translate(582.612 -841.823)" fill="#fff"/>
      </g>
      <g id="Group_91" data-name="Group 91" transform="translate(93.23 134.802)">
        <path id="Path_283" data-name="Path 283" d="M-586.41,875.063c5.241-.626,10.463-1.4,15.707-1.982-.008.184-.017.37-.026.559-4.295.472-8.573,1.1-12.863,1.62-.936.131-1.871.278-2.816.329C-586.408,875.41-586.41,875.235-586.41,875.063Z" transform="translate(586.41 -873.08)" fill="#fff"/>
      </g>
      <g id="Group_92" data-name="Group 92" transform="translate(93.401 135.755)">
        <path id="Path_284" data-name="Path 284" d="M-572.162,878.943a14.325,14.325,0,0,1,2.424-.266l-.055.346c-5.2.733-10.413,1.346-15.617,2.05,0-.112,0-.334,0-.445C-580.989,880.1-576.581,879.473-572.162,878.943Z" transform="translate(585.41 -878.668)" fill="#fff"/>
      </g>
      <g id="Group_93" data-name="Group 93" transform="translate(123.146 146.135)">
        <path id="Path_285" data-name="Path 285" d="M-410.732,939.57l.021.15c.165,1.8.044,3.618.072,5.427-.361-.513-.2-1.172-.225-1.754A22.018,22.018,0,0,1-410.732,939.57Z" transform="translate(410.884 -939.57)" fill="#fff"/>
      </g>
      <g id="Group_94" data-name="Group 94" transform="translate(106.774 150.847)">
        <path id="Path_286" data-name="Path 286" d="M-504.41,967.449c.455-.47,1.53-.183,1.409.574.041.7-.777.653-1.241.811a20.05,20.05,0,0,0-1.822,1.565c-.242.155-.2.443-.2.693.015,3.886,0,7.772.01,11.656-.206,0-.412,0-.617.01-.118-2.974-.019-5.954-.051-8.929a27.867,27.867,0,0,1,.089-3.523c.593-.662,1.353-1.146,1.989-1.762C-504.53,968.262-504.7,967.752-504.41,967.449Z" transform="translate(506.94 -967.22)" fill="#fff"/>
      </g>
      <g id="Group_95" data-name="Group 95" transform="translate(94.703 159.843)">
        <path id="Path_287" data-name="Path 287" d="M-577.731,1020.039c.274-.09.368,0,.279.283C-577.731,1020.41-577.825,1020.315-577.731,1020.039Z" transform="translate(577.766 -1020.005)" fill="#fff"/>
      </g>
      <g id="Group_96" data-name="Group 96" transform="translate(99.094 161.019)">
        <path id="Path_288" data-name="Path 288" d="M-551.9,1026.9c.147.024.293.049.441.08.123,1.17-.027,2.344-.007,3.517-.009,4.1-.072,8.193-.058,12.29l-.474.075C-552.04,1037.541-551.823,1032.221-551.9,1026.9Z" transform="translate(552.003 -1026.9)" fill="#fff"/>
      </g>
    </g>
  </g>
</svg>
