<svg xmlns="http://www.w3.org/2000/svg" width="268.407" height="266.661" viewBox="0 0 268.407 266.661">
  <g id="reporting_problems" transform="translate(-1530.052 -2605.698)">
    <g id="Group_15205" data-name="Group 15205" transform="translate(1530.052 2605.698)">
      <path id="Path_33329" data-name="Path 33329" d="M134.2,0c74.119,0,134.2,59.694,134.2,133.331S208.322,266.661,134.2,266.661,0,206.967,0,133.331,60.085,0,134.2,0Z" transform="translate(0 0)" fill="#143559" style="mix-blend-mode: multiply;isolation: isolate"/>
    </g>
    <g id="Icon_attention_circle" transform="translate(1615 2689.169)">
      <path id="Shape" d="M49,98A49,49,0,1,1,98,49,49.056,49.056,0,0,1,49,98Zm0-34.3a4.9,4.9,0,1,0,4.9,4.9A4.907,4.907,0,0,0,49,63.7Zm0-39.2a4.905,4.905,0,0,0-4.9,4.9V49a4.9,4.9,0,0,0,9.8,0V29.4A4.905,4.905,0,0,0,49,24.5Z" transform="translate(0 0.83)" fill="#fff" stroke="#fff" stroke-width="1"/>
    </g>
  </g>
</svg>
