<svg xmlns="http://www.w3.org/2000/svg" width="423.817" height="416.242" viewBox="0 0 423.817 416.242"><g transform="translate(-1181.88 -508.025)"><g transform="translate(0 -19)"><g transform="translate(1605.698 608.8) rotate(180)"><rect width="340.752" height="73.666" rx="10" transform="translate(0 0)" fill="#f4f4f8"/></g><text transform="translate(1284.86 568.942)" fill="#143559" font-size="16" font-family="Roboto-Regular, Roboto"><tspan x="0" y="0">Well, please complete the reservation</tspan><tspan x="0" y="21">form :</tspan></text><g transform="translate(1181.88 527.025)"><g transform="translate(0 0)"><path d="M385.513,1958.065h47.37a9.193,9.193,0,0,1,9.194,9.193h0a9.194,9.194,0,0,1-9.194,9.194h-47.37a9.194,9.194,0,0,1-9.194-9.194h0A9.194,9.194,0,0,1,385.513,1958.065Z" transform="translate(-376.319 -1931.118)" fill="#23517a"/><rect width="1.58" height="6.896" rx="0.79" transform="translate(32.089 5.606)" fill="#23517a"/><path d="M687.526,1437.839a25.218,25.218,0,1,0-21.2,24.895l3.81,2.362,6.466,4.009.237-7.6.1-3.13A25.179,25.179,0,0,0,687.526,1437.839Z" transform="translate(-629.43 -1401.7)" fill="#143559"/><path d="M802.623,1989.592h24.66a8.268,8.268,0,0,1,8.267,8.268h0a8.267,8.267,0,0,1-8.267,8.267h-24.66a8.268,8.268,0,0,1-8.268-8.267h0A8.268,8.268,0,0,1,802.623,1989.592Z" transform="translate(-782.075 -1961.719)" fill="#fff"/><path d="M1684.18,2136.313a3.74,3.74,0,0,1,3.74,3.74H1690a5.818,5.818,0,1,0-11.635,0h2.078A3.74,3.74,0,0,1,1684.18,2136.313Z" transform="translate(-1640.111 -2102.113)" fill="#143559"/><path d="M915.671,2136.313a3.74,3.74,0,0,1,3.74,3.74h2.078a5.818,5.818,0,1,0-11.635,0h2.078A3.74,3.74,0,0,1,915.671,2136.313Z" transform="translate(-894.179 -2102.113)" fill="#143559"/><ellipse cx="3.625" cy="3.625" rx="3.625" ry="3.625" transform="translate(29.254)" fill="#143559"/><path d="M466.387,2073.339a10.383,10.383,0,0,1,0-12.347,20.261,20.261,0,0,0,0,12.347Z" transform="translate(-461.765 -2031.022)" fill="#fff"/><path d="M2458.189,2073.339a10.386,10.386,0,0,0,0-12.347,20.276,20.276,0,0,1,0,12.347Z" transform="translate(-2397.027 -2031.022)" fill="#fff"/><g transform="translate(30.516 37.049)"><path d="M1575.38,2321.563c.225,0,.446,0,.661,0a42.727,42.727,0,0,0,14.311-2.219c4.765-1.762,7.383-4.309,8.621-6.657a9.688,9.688,0,0,0-.739-10.753" transform="translate(-1570.67 -2301.93)" fill="none" stroke="#f8f1f1" stroke-miterlimit="10" stroke-width="2"/><path d="M1417.735,2926.4c-1.484,0-2.688.563-2.688,1.259s1.2,1.259,2.688,1.259,2.689-.563,2.689-1.259S1419.219,2926.4,1417.735,2926.4Z" transform="translate(-1415.047 -2908.056)" fill="#fff"/></g></g></g></g><g transform="translate(0 -19)"><g transform="translate(1605.698 935.267) rotate(180)"><rect width="340.752" height="313.132" rx="10" transform="translate(0 -8)" fill="#f4f4f8"/></g><text transform="translate(1284.86 682.942)" fill="#143559" font-size="13" font-family="Roboto-Regular, Roboto"><tspan x="0" y="0">Please make sure you fill in the name which is in</tspan><tspan x="0" y="18">your passport.</tspan></text><text transform="translate(1284.86 664.942)" fill="#143559" font-size="16" font-family="Roboto-Medium, Roboto" font-weight="500"><tspan x="0" y="0">FLIGHT RESERVATION</tspan></text><g transform="translate(0 -40)"><text transform="translate(1289 769.611)" fill="#143559" font-size="16" font-family="Roboto-Regular, Roboto"><tspan x="0" y="0">Passenger Name</tspan></text><text transform="translate(1289 825)" fill="#8b8b8b" font-size="10" font-family="Roboto-Regular, Roboto"><tspan x="0" y="0">Title</tspan></text><text transform="translate(1389 825)" fill="#8b8b8b" font-size="10" font-family="Roboto-Regular, Roboto"><tspan x="0" y="0">Frist Name</tspan></text><text transform="translate(1489 825)" fill="#8b8b8b" font-size="10" font-family="Roboto-Regular, Roboto"><tspan x="0" y="0">Last Name</tspan></text><g transform="translate(1489 782)" fill="none" stroke="#c1c7d0" stroke-miterlimit="10" stroke-width="1"><rect width="95" height="32" rx="8" stroke="none"/><rect x="0.5" y="0.5" width="94" height="31" rx="7.5" fill="none"/></g><g transform="translate(1489 782)" fill="#fff" stroke="#c1c7d0" stroke-miterlimit="10" stroke-width="1"><rect width="95" height="32" rx="3" stroke="none"/><rect x="0.5" y="0.5" width="94" height="31" rx="2.5" fill="none"/></g><g transform="translate(1389 782)" fill="#fff" stroke="#c1c7d0" stroke-miterlimit="10" stroke-width="1"><rect width="95" height="32" rx="3" stroke="none"/><rect x="0.5" y="0.5" width="94" height="31" rx="2.5" fill="none"/></g><g transform="translate(1289 782)" fill="#fff" stroke="#c1c7d0" stroke-miterlimit="10" stroke-width="1"><rect width="95" height="32" rx="3" stroke="none"/><rect x="0.5" y="0.5" width="94" height="31" rx="2.5" fill="none"/></g></g><text transform="translate(1289 823.611)" fill="#143559" font-size="16" font-family="Roboto-Regular, Roboto"><tspan x="0" y="0">Date of Birth</tspan></text><text transform="translate(1289 879)" fill="#8b8b8b" font-size="10" font-family="Roboto-Regular, Roboto"><tspan x="0" y="0">Month</tspan></text><text transform="translate(1389 879)" fill="#8b8b8b" font-size="10" font-family="Roboto-Regular, Roboto"><tspan x="0" y="0">Day</tspan></text><text transform="translate(1489 879)" fill="#8b8b8b" font-size="10" font-family="Roboto-Regular, Roboto"><tspan x="0" y="0">Year</tspan></text><g transform="translate(1489 836)" fill="none" stroke="#c1c7d0" stroke-miterlimit="10" stroke-width="1"><rect width="95" height="32" rx="8" stroke="none"/><rect x="0.5" y="0.5" width="94" height="31" rx="7.5" fill="none"/></g><g transform="translate(0 -40)"><g transform="translate(1489 876)" fill="#fff" stroke="#c1c7d0" stroke-miterlimit="10" stroke-width="1"><rect width="95" height="32" rx="3" stroke="none"/><rect x="0.5" y="0.5" width="94" height="31" rx="2.5" fill="none"/></g><g transform="translate(1555.5 882)"><path d="M0,0,5,5l5-5" transform="translate(5 8.333)" fill="none" stroke="#383b41" stroke-linecap="round" stroke-miterlimit="10" stroke-width="2"/></g></g><g transform="translate(-100 -40)"><g transform="translate(1489 876)" fill="#fff" stroke="#c1c7d0" stroke-miterlimit="10" stroke-width="1"><rect width="95" height="32" rx="3" stroke="none"/><rect x="0.5" y="0.5" width="94" height="31" rx="2.5" fill="none"/></g><g transform="translate(1555.5 882)"><path d="M0,0,5,5l5-5" transform="translate(5 8.333)" fill="none" stroke="#383b41" stroke-linecap="round" stroke-miterlimit="10" stroke-width="2"/></g></g><g transform="translate(-200 -40)"><g transform="translate(1489 876)" fill="#fff" stroke="#c1c7d0" stroke-miterlimit="10" stroke-width="1"><rect width="95" height="32" rx="3" stroke="none"/><rect x="0.5" y="0.5" width="94" height="31" rx="2.5" fill="none"/></g><g transform="translate(1555.5 882)"><path d="M0,0,5,5l5-5" transform="translate(5 8.333)" fill="none" stroke="#383b41" stroke-linecap="round" stroke-miterlimit="10" stroke-width="2"/></g></g><g transform="translate(-104 -49)"><g transform="translate(1499 950)" fill="#f6f6f6" stroke="#a5adbb" stroke-miterlimit="10" stroke-width="0.5"><rect width="81" height="27" rx="5" stroke="none"/><rect x="0.25" y="0.25" width="80.5" height="26.5" rx="4.75" fill="none"/></g><text transform="translate(1526 968)" fill="#143559" font-size="13" font-family="Roboto-Regular, Roboto"><tspan x="0" y="0">Next</tspan></text></g></g></g></svg>